<svg
        xmlns="http://www.w3.org/2000/svg"
        xml:space="preserve"
        width="666.784"
        height="730.734"
        clip-path="url(#a)"
        style="fill-rule:evenodd;stroke-width:28.22200012;stroke-linejoin:round"
        viewBox="0 0 17642 19334"
>
  <defs>
    <clipPath id="a"><path d="M0 0h17642v19334H0z" /></clipPath>
  </defs>
    <g clip-path="url(#a)">
    <path
            d="m1767 13868-441-764 441-764-441-763 441-764-441-764 441-764-441-763 441-764-441-764 441-764-441-763 441-764h882l441-764h882l441-764h882l441-763h882l441-764h882l441-764h882l440 764h882l441 764h882l441 763h882l441 764h882l441 764h882l441 764-441 763 441 764-441 764 441 764-441 763 441 764-441 764 441 764-441 763 441 764-441 764h-882l-441 764h-882l-441 764h-882l-441 763h-882l-441 764h-882l-440 764h-882l-441-764h-882l-441-764h-882l-441-763h-882l-441-764h-882l-441-764z"
            style="fill:none;stroke:#000;stroke-width:141"
    />
        <path
                d="m1767 13868-441-764 441-764-441-763 441-764-441-764 441-764-441-763 441-764-441-764 441-764-441-763 441-764h882l441-764h882l441-764h882l441-763h882l441-764h882l441-764h882l440 764h882l441 764h882l441 763h882l441 764h882l441 764h882l441 764-441 763 441 764-441 764 441 764-441 763 441 764-441 764 441 764-441 763 441 764-441 764h-882l-441 764h-882l-441 764h-882l-441 763h-882l-441 764h-882l-440 764h-882l-441-764h-882l-441-764h-882l-441-763h-882l-441-764h-882l-441-764z"
                style="fill:#ffce9e;stroke:none"
        />
        <path
                d="m1767 13868-441-764 441-764-441-763 441-764-441-764 441-764-441-763 441-764-441-764 441-764-441-763 441-764h882l441-764h882l441-764h882l441-763h882l441-764h882l441-764h882l440 764h882l441 764h882l441 763h882l441 764h882l441 764h882l441 764-441 763 441 764-441 764 441 764-441 763 441 764-441 764 441 764-441 763 441 764-441 764h-882l-441 764h-882l-441 764h-882l-441 763h-882l-441 764h-882l-440 764h-882l-441-764h-882l-441-764h-882l-441-763h-882l-441-764h-882l-441-764z"
                style="fill:none;stroke:#000"
        />

        <path
                d="m3090 13104-441-764h-882l-441 764 441 764h882z"
                style="fill:#d18b47;stroke:none"
        />
        <path
                d="m4413 13868-441-764h-882l-441 764 441 764h882z"
                style="fill:#e8ab6f;stroke:none"
        />
        <path
                d="m5735 14632-441-764h-882l-441 764 441 764h882z"
                style="fill:#ffce9e;stroke:none"
        />
        <path
                d="m7058 15396-441-764h-882l-441 764 441 764h882z"
                style="fill:#d18b47;stroke:none"
        />
        <path
                d="m8381 16159-441-764h-882l-441 764 441 764h882z"
                style="fill:#e8ab6f;stroke:none"
        />
        <path
                d="M9263 16159h-882l-441 764 441 764h882l441-764z"
                style="fill:#ffce9e;stroke:none"
        />
        <path
                d="M10586 15395h-882l-441 764 441 764h882l441-764z"
                style="fill:#e8ab6f;stroke:none"
        />
        <path
                d="M11909 14632h-882l-441 764 441 764h882l441-764z"
                style="fill:#d18b47;stroke:none"
        />
        <path
                d="M13232 13870h-882l-441 764 441 764h882l441-764z"
                style="fill:#ffce9e;stroke:none"
        />
        <path
                d="M14555 13106h-882l-441 764 441 764h882l441-764z"
                style="fill:#e8ab6f;stroke:none"
        />
        <path
                d="M15878 12342h-882l-441 764 441 764h882l441-764z"
                style="fill:#d18b47;stroke:none"
        />

        <path
                d="m3090 11579-441-764h-882l-441 764 441 764h882z"
                style="fill:#e8ab6f;stroke:none"
        />
        <path
                d="m4413 12342-441-764h-882l-441 764 441 764h882z"
                style="fill:#ffce9e;stroke:none"
        />
        <path
                d="m5735 13106-441-764h-882l-441 764 441 764h882z"
                style="fill:#d18b47;stroke:none"
        />
        <path
                d="m7058 13870-441-764h-882l-441 764 441 764h882z"
                style="fill:#e8ab6f;stroke:none"
        />
        <path
                d="m8381 14634-441-764h-882l-441 764 441 764h882z"
                style="fill:#ffce9e;stroke:none"
        />
        <path
                d="M9263 14633h-882l-441 764 441 764h882l441-764z"
                style="fill:#d18b47;stroke:none"
        />
        <path
                d="M10586 13870h-882l-441 764 441 764h882l441-764z"
                style="fill:#ffce9e;stroke:none"
        />
        <path
                d="M11909 13106h-882l-441 764 441 764h882l441-764z"
                style="fill:#e8ab6f;stroke:none"
        />
        <path
                d="M13232 12342h-882l-441 764 441 764h882l441-764z"
                style="fill:#d18b47;stroke:none"
        />
        <path
                d="M14555 11578h-882l-441 764 441 764h882l441-764z"
                style="fill:#ffce9e;stroke:none"
        />
        <path
                d="M15878 10815h-882l-441 764 441 764h882l441-764z"
                style="fill:#e8ab6f;stroke:none"
        />

        <path
                d="m3090 10051-441-764h-882l-441 764 441 764h882z"
                style="fill:#ffce9e;stroke:none"
        />
        <path
                d="m4413 10815-441-764h-882l-441 764 441 764h882z"
                style="fill:#d18b47;stroke:none"
        />
        <path
                d="m5735 11579-441-764h-882l-441 764 441 764h882z"
                style="fill:#e8ab6f;stroke:none"
        />
        <path
                d="m7058 12342-441-764h-882l-441 764 441 764h882z"
                style="fill:#ffce9e;stroke:none"
        />
        <path
                d="m8381 13106-441-764h-882l-441 764 441 764h882z"
                style="fill:#d18b47;stroke:none"
        />
        <path
                d="M9263 13106h-882l-441 764 441 764h882l441-764z"
                style="fill:#e8ab6f;stroke:none"
        />
        <path
                d="M10586 12340h-882l-441 764 441 764h882l441-764z"
                style="fill:#d18b47;stroke:none"
        />
        <path
                d="M11909 11578h-882l-441 764 441 764h882l441-764z"
                style="fill:#ffce9e;stroke:none"
        />
        <path
                d="M13232 10815h-882l-441 764 441 764h882l441-764z"
                style="fill:#e8ab6f;stroke:none"
        />
        <path
                d="M14555 10049h-882l-441 764 441 764h882l441-764z"
                style="fill:#d18b47;stroke:none"
        />
        <path
                d="M15878 9287h-882l-441 764 441 764h882l441-764z"
                style="fill:#ffce9e;stroke:none"
        />

        <path
                d="m3090 8524-441-764h-882l-441 764 441 764h882z"
                style="fill:#d18b47;stroke:none"
        />
        <path
                d="m4413 9287-441-764h-882l-441 764 441 764h882z"
                style="fill:#e8ab6f;stroke:none"
        />
        <path
                d="m5735 10051-441-764h-882l-441 764 441 764h882z"
                style="fill:#ffce9e;stroke:none"
        />
        <path
                d="m7058 10815-441-764h-882l-441 764 441 764h882z"
                style="fill:#d18b47;stroke:none"
        />
        <path
                d="m8381 11579-441-764h-882l-441 764 441 764h882z"
                style="fill:#e8ab6f;stroke:none"
        />
        <path
                d="M7497.5 11426.924q69.95 0 119.4 50.051 50.05 49.449 50.05 119.4 0 70.554-50.05 120.002-49.45 49.449-119.4 49.448-70.555 0-120.002-49.448-49.45-49.448-49.449-120.002 0-69.951 49.449-119.4 49.447-50.05 120.002-50.051"
                style="fill:#fff;stroke:none"
        />
        <path
                d="M7497.5 11426.924q69.95 0 119.4 50.051 50.05 49.449 50.05 119.4 0 70.554-50.05 120.002-49.45 49.449-119.4 49.448-70.555 0-120.002-49.448-49.45-49.448-49.449-120.002 0-69.951 49.449-119.4 49.447-50.05 120.002-50.051"
                style="fill:#000;stroke:none"
        />
        <path
                d="M9263 11578h-882l-441 764 441 764h882l441-764z"
                style="fill:#ffce9e;stroke:none"
        />
        <path
                d="M10586 10815h-882l-441 764 441 764h882l441-764z"
                style="fill:#e8ab6f;stroke:none"
        />
        <path
                d="M10143.5 11426.924q69.95 0 119.399 50.051 50.05 49.449 50.052 119.4-.002 70.554-50.052 120.002-49.45 49.449-119.399 49.448-70.555 0-120.002-49.448-49.45-49.448-49.449-120.002 0-69.951 49.449-119.4 49.447-50.05 120.002-50.051"
                style="fill:#fff;stroke:none"
        />
        <path
                d="M10143.5 11426.924q69.95 0 119.399 50.051 50.05 49.449 50.052 119.4-.002 70.554-50.052 120.002-49.45 49.449-119.399 49.448-70.555 0-120.002-49.448-49.45-49.448-49.449-120.002 0-69.951 49.449-119.4 49.447-50.05 120.002-50.051"
                style="fill:#000;stroke:none"
        />
        <path
                d="M11909 10051h-882l-441 764 441 764h882l441-764z"
                style="fill:#d18b47;stroke:none"
        />
        <path
                d="M13232 9287h-882l-441 764 441 764h882l441-764z"
                style="fill:#ffce9e;stroke:none"
        />
        <path
                d="M14555 8523h-882l-441 764 441 764h882l441-764z"
                style="fill:#e8ab6f;stroke:none"
        />
        <path
                d="M15878 7760h-882l-441 764 441 764h882l441-764z"
                style="fill:#d18b47;stroke:none"
        />

        <path
                d="m3090 6996-441-764h-882l-441 764 441 764h882z"
                style="fill:#e8ab6f;stroke:none"
        />
        <path
                d="m4413 7760-441-764h-882l-441 764 441 764h882z"
                style="fill:#ffce9e;stroke:none"
        />
        <path
                d="m5735 8524-441-764h-882l-441 764 441 764h882z"
                style="fill:#d18b47;stroke:none"
        />
        <path
                d="m7058 9287-441-764h-882l-441 764 441 764h882z"
                style="fill:#e8ab6f;stroke:none"
        />
        <path
                d="M6176.5 9135.924q69.95 0 119.4 50.051 50.05 49.449 50.05 119.4 0 70.554-50.05 120.002-49.45 49.449-119.4 49.448-70.555 0-120.002-49.448-49.45-49.448-49.449-120.002 0-69.951 49.449-119.4 49.447-50.05 120.002-50.051"
                style="fill:#fff;stroke:none"
        />
        <path
                d="M6176.5 9135.924q69.95 0 119.4 50.051 50.05 49.449 50.05 119.4 0 70.554-50.05 120.002-49.45 49.449-119.4 49.448-70.555 0-120.002-49.448-49.45-49.448-49.449-120.002 0-69.951 49.449-119.4 49.447-50.05 120.002-50.051"
                style="fill:#000;stroke:none"
        />
        <path
                d="m8381 10051-441-764h-882l-441 764 441 764h882z"
                style="fill:#ffce9e;stroke:none"
        />
        <path
                d="M7497.5 9897.924q69.95 0 119.4 50.051 50.05 49.449 50.05 119.4 0 70.554-50.05 120.002-49.45 49.449-119.4 49.448-70.555 0-120.002-49.448-49.45-49.448-49.449-120.002 0-69.951 49.449-119.4 49.447-50.05 120.002-50.051"
                style="fill:#fff;stroke:none"
        />
        <path
                d="M7497.5 9897.924q69.95 0 119.4 50.051 50.05 49.449 50.05 119.4 0 70.554-50.05 120.002-49.45 49.449-119.4 49.448-70.555 0-120.002-49.448-49.45-49.448-49.449-120.002 0-69.951 49.449-119.4 49.447-50.05 120.002-50.051"
                style="fill:#000;stroke:none"
        />
        <path
                d="M9263 10049h-882l-441 764 441 764h882l441-764z"
                style="fill:#d18b47;stroke:none"
        />
        <path
                d="M8820.5 10661.924q69.95 0 119.4 50.051 50.05 49.449 50.05 119.4 0 70.554-50.05 120.002-49.45 49.449-119.4 49.448-70.555 0-120.002-49.448-49.45-49.448-49.449-120.002 0-69.951 49.449-119.4 49.447-50.05 120.002-50.051"
                style="fill:#fff;stroke:none"
        />
        <path
                d="M8820.5 10661.924q69.95 0 119.4 50.051 50.05 49.449 50.05 119.4 0 70.554-50.05 120.002-49.45 49.449-119.4 49.448-70.555 0-120.002-49.448-49.45-49.448-49.449-120.002 0-69.951 49.449-119.4 49.447-50.05 120.002-50.051"
                style="fill:#000;stroke:none"
        />
        <path
                d="M10586 9285h-882l-441 764 441 764h882l441-764z"
                style="fill:#ffce9e;stroke:none"
        />
        <path
                d="M10143.5 9897.924q69.95 0 119.399 50.051 50.05 49.449 50.052 119.4-.002 70.554-50.052 120.002-49.45 49.449-119.399 49.448-70.555 0-120.002-49.448-49.45-49.448-49.449-120.002 0-69.951 49.449-119.4 49.447-50.05 120.002-50.051"
                style="fill:#fff;stroke:none"
        />
        <path
                d="M10143.5 9897.924q69.95 0 119.399 50.051 50.05 49.449 50.052 119.4-.002 70.554-50.052 120.002-49.45 49.449-119.399 49.448-70.555 0-120.002-49.448-49.45-49.448-49.449-120.002 0-69.951 49.449-119.4 49.447-50.05 120.002-50.051"
                style="fill:#000;stroke:none"
        />
        <path
                d="M11909 8522h-882l-441 764 441 764h882l441-764z"
                style="fill:#e8ab6f;stroke:none"
        />
        <path
                d="M11467.5 9133.924q69.95 0 119.399 50.051 50.05 49.449 50.052 119.4-.002 70.554-50.052 120.002-49.45 49.449-119.399 49.448-70.555 0-120.002-49.448-49.449-49.448-49.449-120.002 0-69.951 49.449-119.4 49.447-50.05 120.002-50.051"
                style="fill:#fff;stroke:none"
        />
        <path
                d="M11467.5 9133.924q69.95 0 119.399 50.051 50.05 49.449 50.052 119.4-.002 70.554-50.052 120.002-49.45 49.449-119.399 49.448-70.555 0-120.002-49.448-49.449-49.448-49.449-120.002 0-69.951 49.449-119.4 49.447-50.05 120.002-50.051"
                style="fill:#000;stroke:none"
        />
        <path
                d="M13232 7758h-882l-441 764 441 764h882l441-764z"
                style="fill:#d18b47;stroke:none"
        />
        <path
                d="M14555 6994h-882l-441 764 441 764h882l441-764z"
                style="fill:#ffce9e;stroke:none"
        />
        <path
                d="M15878 6230h-882l-441 764 441 764h882l441-764z"
                style="fill:#e8ab6f;stroke:none"
        />

        <path
                d="m3090 5467-441-764h-882l-441 764 441 764h882z"
                style="fill:#ffce9e;stroke:none"
        />
        <path
                d="m4413 6231-441-764h-882l-441 764 441 764h882z"
                style="fill:#d18b47;stroke:none"
        />
        <path
                d="m5735 6994-441-764h-882l-441 764 441 764h882z"
                style="fill:#e8ab6f;stroke:none"
        />
        <path
                d="m7058 7758-441-764h-882l-441 764 441 764h882z"
                style="fill:#ffce9e;stroke:none"
        />
        <path
                d="m8381 8522-441-764h-882l-441 764 441 764h882z"
                style="fill:#d18b47;stroke:none"
        />
        <path
                d="M7497.5 8370.924q69.95 0 119.4 50.051 50.05 49.449 50.05 119.4 0 70.554-50.05 120.002-49.45 49.449-119.4 49.448-70.555 0-120.002-49.448-49.45-49.448-49.449-120.002 0-69.951 49.449-119.4 49.447-50.05 120.002-50.051"
                style="fill:#fff;stroke:none"
        />
        <path
                d="M7497.5 8370.924q69.95 0 119.4 50.051 50.05 49.449 50.05 119.4 0 70.554-50.05 120.002-49.45 49.449-119.4 49.448-70.555 0-120.002-49.448-49.45-49.448-49.449-120.002 0-69.951 49.449-119.4 49.447-50.05 120.002-50.051"
                style="fill:#000;stroke:none"
        />
        <path
                d="M9263 8522h-882l-441 764 441 764h882l441-764z"
                style="fill:#e8ab6f;stroke:none"
        />
        <path
                d="m8482.202 9606.094-19.9-112.766q-.604 0-1.81-2.412-3.015-4.221-17.487-10.854-13.87-7.237-32.564-24.122-26.533-22.311-41.609-36.181a237.3 237.3 0 0 1-26.533-30.152q-36.785-50.654-41.006-122.414-6.03-69.348 56.082-138.093 62.715-68.745 169.45-64.524 39.8 2.412 93.47 19.297a3216 3216 0 0 0 35.578 14.472 997 997 0 0 1 36.785 13.87q9.648 4.825 16.885 9.648-3.016-12.663-3.015-25.327 0-47.034 33.166-80.203 33.77-33.165 80.806-33.769 47.035 0 80.203 33.77 33.165 33.166 33.166 79.6 0 9.648-2.412 25.326 8.442-5.426 16.282-9.045 27.738-12.06 72.966-28.342 51.86-17.487 93.47-19.9 106.734-4.824 168.847 64.524 60.904 68.745 56.684 138.093-4.825 71.76-41.608 122.414-12.062 16.283-27.137 30.755-15.077 13.87-40.402 35.578-19.902 16.885-33.77 24.121-13.871 6.634-16.282 10.855-.605 1.206-1.206 1.81-.604.602-.603 1.205l-19.297 113.37 39.8 148.947q-30.153 27.135-135.078 44.624-104.928 17.487-242.417 17.488-139.903 0-246.035-18.694-106.134-18.09-133.27-45.83zm359.405-625.34h-42.815v-78.996h-50.051q-20.505.002-20.503-19.9v-.603q0-19.898 20.503-19.9h50.051v-51.257q0-21.105 21.709-21.106 21.105.001 21.106 21.106v51.257h51.86q19.9.002 19.9 19.9v.603q0 19.902-19.9 19.9l-51.257.603z"
                style="fill:#fff;stroke:none"
        />
        <path
                d="M8518.986 9569.31q114.575-28.946 303.926-28.946 185.731 0 299.705 27.74l15.075-88.645q-121.21-31.96-317.192-31.961-197.19 0-316.59 32.564zm-36.784 36.784-19.9-112.766q-.604 0-1.81-2.412-3.015-4.221-17.487-10.854-13.87-7.236-32.564-24.122-26.533-22.311-41.609-36.181a237.3 237.3 0 0 1-26.533-30.152q-36.785-50.654-41.006-122.414-6.03-69.348 56.082-138.093 62.715-68.745 169.45-64.524 39.8 2.412 93.47 19.297a3216 3216 0 0 0 35.578 14.472 997 997 0 0 1 36.785 13.87q9.648 4.825 16.885 9.648-3.016-12.663-3.015-25.327 0-47.034 33.166-80.203 33.77-33.165 80.806-33.769 47.035 0 80.203 33.77 33.165 33.166 33.166 79.6 0 9.648-2.412 25.326 8.442-5.426 16.282-9.045 27.738-12.06 72.966-28.342 51.86-17.487 93.47-19.9 106.734-4.824 168.847 64.524 60.904 68.745 56.684 138.093-4.825 71.76-41.608 122.414-12.062 16.283-27.137 30.755-15.077 13.87-40.402 35.578-19.902 16.885-33.77 24.121-13.871 6.634-16.282 10.855-.605 1.206-1.206 1.81-.604.602-.603 1.205l-19.297 113.37 39.8 148.947q-30.153 27.135-135.078 44.624-104.928 17.487-242.417 17.488-139.903 0-246.035-18.694-106.134-18.09-133.27-45.83zm651.873 70.554-18.09-69.348q-119.401-26.532-295.484-26.533-175.482 0-294.88 26.533l-19.297 69.952q115.177-33.77 314.78-33.77 198.395 0 312.971 33.166m15.679 56.685q-116.385-47.036-326.84-47.036-218.298 0-330.46 48.242 106.132 42.212 328.65 42.212 106.131 0 193.572-12.06 87.438-11.458 135.078-31.358m-350.359-326.84a1730 1730 0 0 0-1.809-46.434q-1.207-23.517-9.045-51.86-24.726-80.805-74.776-130.254-25.93-25.326-79.6-47.036-61.508-24.12-116.384-24.121-95.278 0-141.108 68.142-25.93 36.182-25.93 90.454 0 59.097 28.945 97.087 17.487 22.313 44.624 44.624 27.135 22.313 50.654 40.403 105.53-37.99 324.429-41.006m21.106-112.163q4.221-16.884 7.236-23.518 6.03-23.517 13.87-39.8 3.617-10.25 10.251-23.518 7.237-13.869 15.076-31.357 4.824-10.25 10.252-24.724 5.425-15.075 10.854-29.549 4.823-12.06 4.824-25.93 0-29.547-21.106-50.051-21.107-21.105-51.257-21.106-71.76 0-71.76 71.76 0 13.87 4.824 25.93 13.266 39.198 20.503 54.273 7.839 17.488 14.473 31.357 6.632 13.267 11.457 23.518 7.839 19.9 13.267 39.8 1.204 3.619 7.236 22.915m20.503 112.163q103.72 1.207 189.953 12.664 86.232 10.855 135.079 27.739 22.914-18.09 50.05-39.8 27.135-22.311 45.228-45.227 28.944-36.784 28.945-97.087 0-54.272-25.93-90.454-46.434-67.539-141.108-67.54-56.686.001-116.385 23.519-52.465 21.106-79.6 47.036-50.655 50.655-74.775 130.254-8.443 28.343-10.251 51.86-1.208 22.916-1.206 47.036m.603-425.737h-42.815v-78.997h-50.051q-20.505.002-20.503-19.9v-.603q0-19.898 20.503-19.9h50.051v-51.257q0-21.105 21.709-21.106 21.105.001 21.106 21.106v51.257h51.86q19.9.002 19.9 19.9v.603q0 19.902-19.9 19.9l-51.257.603z"
                style="fill:#000;stroke:none"
        />
        <path
                d="M10586 7758h-882l-441 764 441 764h882l441-764z"
                style="fill:#d18b47;stroke:none"
        />
        <path
                d="M10143.5 8370.924q69.95 0 119.399 50.051 50.05 49.449 50.052 119.4-.002 70.554-50.052 120.002-49.45 49.449-119.399 49.448-70.555 0-120.002-49.448-49.45-49.448-49.449-120.002 0-69.951 49.449-119.4 49.447-50.05 120.002-50.051"
                style="fill:#fff;stroke:none"
        />
        <path
                d="M10143.5 8370.924q69.95 0 119.399 50.051 50.05 49.449 50.052 119.4-.002 70.554-50.052 120.002-49.45 49.449-119.399 49.448-70.555 0-120.002-49.448-49.45-49.448-49.449-120.002 0-69.951 49.449-119.4 49.447-50.05 120.002-50.051"
                style="fill:#000;stroke:none"
        />
        <path
                d="M11909 6994h-882l-441 764 441 764h882l441-764z"
                style="fill:#ffce9e;stroke:none"
        />
        <path
                d="M13232 6230h-882l-441 764 441 764h882l441-764z"
                style="fill:#e8ab6f;stroke:none"
        />
        <path
                d="M14555 5467h-882l-441 764 441 764h882l441-764z"
                style="fill:#d18b47;stroke:none"
        />
        <path
                d="M15878 4703h-882l-441 764 441 764h882l441-764z"
                style="fill:#ffce9e;stroke:none"
        />

        <path
                d="m4413 4703-441-764h-882l-441 764 441 764h882z"
                style="fill:#e8ab6f;stroke:none"
        />
        <path
                d="m5735 5467-441-764h-882l-441 764 441 764h882z"
                style="fill:#ffce9e;stroke:none"
        />
        <path
                d="m7058 6231-441-764h-882l-441 764 441 764h882z"
                style="fill:#d18b47;stroke:none"
        />
        <path
                d="m8381 6994-441-764h-882l-441 764 441 764h882z"
                style="fill:#e8ab6f;stroke:none"
        />
        <path
                d="M7497.5 6842.924q69.95 0 119.4 50.051 50.05 49.449 50.05 119.4 0 70.554-50.05 120.002-49.45 49.448-119.4 49.448-70.555 0-120.002-49.448-49.45-49.448-49.449-120.003 0-69.95 49.449-119.399 49.447-50.05 120.002-50.051"
                style="fill:#fff;stroke:none"
        />
        <path
                d="M7497.5 6842.924q69.95 0 119.4 50.051 50.05 49.449 50.05 119.4 0 70.554-50.05 120.002-49.45 49.448-119.4 49.448-70.555 0-120.002-49.448-49.45-49.448-49.449-120.003 0-69.95 49.449-119.399 49.447-50.05 120.002-50.051"
                style="fill:#000;stroke:none"
        />
        <path
                d="M9263 6994h-882l-441 764 441 764h882l441-764z"
                style="fill:#ffce9e;stroke:none"
        />
        <path
                d="M8820.5 7606.924q69.95 0 119.4 50.051 50.05 49.449 50.05 119.4 0 70.554-50.05 120.002-49.45 49.448-119.4 49.448-70.555 0-120.002-49.448-49.45-49.448-49.449-120.003 0-69.95 49.449-119.399 49.447-50.05 120.002-50.051"
                style="fill:#fff;stroke:none"
        />
        <path
                d="M8820.5 7606.924q69.95 0 119.4 50.051 50.05 49.449 50.05 119.4 0 70.554-50.05 120.002-49.45 49.448-119.4 49.448-70.555 0-120.002-49.448-49.45-49.448-49.449-120.003 0-69.95 49.449-119.399 49.447-50.05 120.002-50.051"
                style="fill:#000;stroke:none"
        />
        <path
                d="M10586 6230h-882l-441 764 441 764h882l441-764z"
                style="fill:#e8ab6f;stroke:none"
        />
        <path
                d="M10143.5 6842.924q69.95 0 119.399 50.051 50.05 49.449 50.052 119.4-.002 70.554-50.052 120.002-49.45 49.448-119.399 49.448-70.555 0-120.002-49.448-49.45-49.448-49.449-120.003 0-69.95 49.449-119.399 49.447-50.05 120.002-50.051"
                style="fill:#fff;stroke:none"
        />
        <path
                d="M10143.5 6842.924q69.95 0 119.399 50.051 50.05 49.449 50.052 119.4-.002 70.554-50.052 120.002-49.45 49.448-119.399 49.448-70.555 0-120.002-49.448-49.45-49.448-49.449-120.003 0-69.95 49.449-119.399 49.447-50.05 120.002-50.051"
                style="fill:#000;stroke:none"
        />
        <path
                d="M11909 5467h-882l-441 764 441 764h882l441-764z"
                style="fill:#d18b47;stroke:none"
        />
        <path
                d="M13232 4703h-882l-441 764 441 764h882l441-764z"
                style="fill:#ffce9e;stroke:none"
        />
        <path
                d="M14555 3939h-882l-441 764 441 764h882l441-764z"
                style="fill:#e8ab6f;stroke:none"
        />

        <path
                d="m5735 3939-441-764h-882l-441 764 441 764h882z"
                style="fill:#d18b47;stroke:none"
        />
        <path
                d="m7058 4703-441-764h-882l-441 764 441 764h882z"
                style="fill:#e8ab6f;stroke:none"
        />
        <path
                d="m8381 5467-441-764h-882l-441 764 441 764h882z"
                style="fill:#ffce9e;stroke:none"
        />
        <path
                d="M9263 5467h-882l-441 764 441 764h882l441-764z"
                style="fill:#d18b47;stroke:none"
        />
        <path
                d="M10586 4703h-882l-441 764 441 764h882l441-764z"
                style="fill:#ffce9e;stroke:none"
        />
        <path
                d="M11909 3939h-882l-441 764 441 764h882l441-764z"
                style="fill:#e8ab6f;stroke:none"
        />
        <path
                d="M13232 3175h-882l-441 764 441 764h882l441-764z"
                style="fill:#d18b47;stroke:none"
        />

        <path
                d="m7058 3175-441-764h-882l-441 764 441 764h882z"
                style="fill:#ffce9e;stroke:none"
        />
        <path
                d="m8381 3939-441-764h-882l-441 764 441 764h882z"
                style="fill:#d18b47;stroke:none"
        />
        <path
                d="M9263 3939h-882l-441 764 441 764h882l441-764z"
                style="fill:#e8ab6f;stroke:none"
        />
        <path
                d="M10586 3175h-882l-441 764 441 764h882l441-764z"
                style="fill:#d18b47;stroke:none"
        />
        <path
                d="M11907 2411h-882l-441 764 441 764h882l441-764z"
                style="fill:#ffce9e;stroke:none"
        />

        <path
                d="m8380 2412-441-764h-882l-441 764 441 764h882z"
                style="fill:#e8ab6f;stroke:none"
        />
        <path
                d="M9261 2411h-882l-441 764 441 764h882l441-764z"
                style="fill:#ffce9e;stroke:none"
        />
        <path
                d="M10584 1648h-882l-441 764 441 764h882l441-764z"
                style="fill:#e8ab6f;stroke:none"
        />

        <path
                d="M9261 884h-882l-441 764 441 764h882l441-764z"
                style="fill:#d18b47;stroke:none"
        />
  </g>
</svg>