<?xml version="1.0" encoding="UTF-8" standalone="no"?>
<!-- Created with Inkscape (http://www.inkscape.org/) -->

<svg
   xmlns:dc="http://purl.org/dc/elements/1.1/"
   xmlns:cc="http://creativecommons.org/ns#"
   xmlns:rdf="http://www.w3.org/1999/02/22-rdf-syntax-ns#"
   xmlns:svg="http://www.w3.org/2000/svg"
   xmlns="http://www.w3.org/2000/svg"
   version="1.1"
   width="176.42mm"
   height="193.36mm"
   viewBox="0 0 17642 19336"
   clip-path="url(#presentation_clip_path)"
   id="svg2"
   xml:space="preserve"
   style="fill-rule:evenodd;stroke-width:28.22200012;stroke-linejoin:round"><metadata
   id="metadata1290"><rdf:RDF><cc:Work
       rdf:about=""><dc:format>image/svg+xml</dc:format><dc:type
         rdf:resource="http://purl.org/dc/dcmitype/StillImage" /><dc:title></dc:title></cc:Work></rdf:RDF></metadata>
 <defs
   id="defs4">
  <clipPath
   id="presentation_clip_path">
   <rect
   width="17642"
   height="19336"
   x="0"
   y="0"
   id="rect7" />
  </clipPath>
 </defs>
 <defs
   id="defs9">
  
 </defs>
 <defs
   id="defs11">
  <g
   transform="scale(4.8828125e-4,-4.8828125e-4)"
   id="bullet-char-template57356">
   <path
   d="M 580,1141 1163,571 580,0 -4,571 580,1141 z"
   id="path14" />
  </g>
  <g
   transform="scale(4.8828125e-4,-4.8828125e-4)"
   id="bullet-char-template57354">
   <path
   d="m 8,1128 1129,0 L 1137,0 8,0 8,1128 z"
   id="path17" />
  </g>
  <g
   transform="scale(4.8828125e-4,-4.8828125e-4)"
   id="bullet-char-template10146">
   <path
   d="M 174,0 602,739 174,1481 1456,739 174,0 z m 1184,739 -1049,607 350,-607 699,0 z"
   id="path20" />
  </g>
  <g
   transform="scale(4.8828125e-4,-4.8828125e-4)"
   id="bullet-char-template10132">
   <path
   d="M 2015,739 1276,0 717,0 l 543,543 -1086,0 0,393 1086,0 -543,545 557,0 741,-742 z"
   id="path23" />
  </g>
  <g
   transform="scale(4.8828125e-4,-4.8828125e-4)"
   id="bullet-char-template10007">
   <path
   d="m 0,-2 c -7,16 -16,29 -25,39 l 381,530 c -94,256 -141,385 -141,387 0,25 13,38 40,38 9,0 21,-2 34,-5 21,4 42,12 65,25 l 27,-13 111,-251 280,301 64,-25 24,25 c 21,-10 41,-24 62,-43 C 886,937 835,863 770,784 769,783 710,716 594,584 L 774,223 c 0,-27 -21,-55 -63,-84 l 16,-20 C 717,90 699,76 672,76 641,76 570,178 457,381 L 164,-76 c -22,-34 -53,-51 -92,-51 -42,0 -63,17 -64,51 -7,9 -10,24 -10,44 0,9 1,19 2,30 z"
   id="path26" />
  </g>
  <g
   transform="scale(4.8828125e-4,-4.8828125e-4)"
   id="bullet-char-template10004">
   <path
   d="M 285,-33 C 182,-33 111,30 74,156 52,228 41,333 41,471 c 0,78 14,145 41,201 34,71 87,106 158,106 53,0 88,-31 106,-94 l 23,-176 c 8,-64 28,-97 59,-98 l 735,706 c 11,11 33,17 66,17 42,0 63,-15 63,-46 l 0,-122 c 0,-36 -10,-64 -30,-84 L 442,47 C 390,-6 338,-33 285,-33 z"
   id="path29" />
  </g>
  <g
   transform="scale(4.8828125e-4,-4.8828125e-4)"
   id="bullet-char-template9679">
   <path
   d="M 813,0 C 632,0 489,54 383,161 276,268 223,411 223,592 c 0,181 53,324 160,431 106,107 249,161 430,161 179,0 323,-54 432,-161 108,-107 162,-251 162,-431 0,-180 -54,-324 -162,-431 C 1136,54 992,0 813,0 z"
   id="path32" />
  </g>
  <g
   transform="scale(4.8828125e-4,-4.8828125e-4)"
   id="bullet-char-template8226">
   <path
   d="m 346,457 c -73,0 -137,26 -191,78 -54,51 -81,114 -81,188 0,73 27,136 81,188 54,52 118,78 191,78 73,0 134,-26 185,-79 51,-51 77,-114 77,-187 0,-75 -25,-137 -76,-188 -50,-52 -112,-78 -186,-78 z"
   id="path35" />
  </g>
  <g
   transform="scale(4.8828125e-4,-4.8828125e-4)"
   id="bullet-char-template8211">
   <path
   d="m -4,459 1139,0 0,147 -1139,0 0,-147 z"
   id="path38" />
  </g>
 </defs>
 <defs
   id="defs40" />
 <g
   id="g42">
  <g
   id="id2">
   <g
   id="bg-id2" />
   <g
   id="bo-id2" />
  </g>
 </g>
 <g
   id="g47">
  <g
   id="g49">
   <g
   clip-path="url(#presentation_clip_path)"
   id="id1">
    <g
   id="g52">
     <g
   id="g54">
      <g
   id="g56">
       <g
   id="id3">
        <path
   d="m 1767,13870 -441,-764 441,-764 -441,-763 441,-764 -441,-764 441,-764 -441,-763 441,-764 -441,-764 441,-764 -441,-763 441,-764 882,0 441,-764 882,0 441,-764 882,0 441,-763 882,0 441,-764 882,0 441,-764 882,0 440,764 882,0 441,764 882,0 441,763 882,0 441,764 882,0 441,764 882,0 441,764 -441,763 441,764 -441,764 441,764 -441,763 441,764 -441,764 441,764 -441,763 441,764 -441,764 -882,0 -441,764 -882,0 -441,764 -882,0 -441,763 -882,0 -441,764 -882,0 -440,764 -882,0 -441,-764 -882,0 -441,-764 -882,0 -441,-763 -882,0 -441,-764 -882,0 -441,-764 -882,0 z"
   id="path59"
   style="fill:none;stroke:#000000;stroke-width:141" />
       </g>
      </g>
      <g
   id="g61">
       <g
   id="id4">
        <path
   d="m 1767,13870 -441,-764 441,-764 -441,-763 441,-764 -441,-764 441,-764 -441,-763 441,-764 -441,-764 441,-764 -441,-763 441,-764 882,0 441,-764 882,0 441,-764 882,0 441,-763 882,0 441,-764 882,0 441,-764 882,0 440,764 882,0 441,764 882,0 441,763 882,0 441,764 882,0 441,764 882,0 441,764 -441,763 441,764 -441,764 441,764 -441,763 441,764 -441,764 441,764 -441,763 441,764 -441,764 -882,0 -441,764 -882,0 -441,764 -882,0 -441,763 -882,0 -441,764 -882,0 -440,764 -882,0 -441,-764 -882,0 -441,-764 -882,0 -441,-763 -882,0 -441,-764 -882,0 -441,-764 -882,0 z"
   id="path64"
   style="fill:#ffce9e;stroke:none" />
        <path
   d="m 1767,13870 -441,-764 441,-764 -441,-763 441,-764 -441,-764 441,-764 -441,-763 441,-764 -441,-764 441,-764 -441,-763 441,-764 882,0 441,-764 882,0 441,-764 882,0 441,-763 882,0 441,-764 882,0 441,-764 882,0 440,764 882,0 441,764 882,0 441,763 882,0 441,764 882,0 441,764 882,0 441,764 -441,763 441,764 -441,764 441,764 -441,763 441,764 -441,764 441,764 -441,763 441,764 -441,764 -882,0 -441,764 -882,0 -441,764 -882,0 -441,763 -882,0 -441,764 -882,0 -440,764 -882,0 -441,-764 -882,0 -441,-764 -882,0 -441,-763 -882,0 -441,-764 -882,0 -441,-764 -882,0 z"
   id="path66"
   style="fill:none;stroke:#000000" />
       </g>
      </g>
      <g
   id="g68">
       <g
   id="id5" />
      </g>
      <g
   id="g71">
       <g
   id="id6" />
      </g>
      <g
   id="g74">
       <g
   id="id7">
        <g
   id="text77"><path
     d="m 2434.87,15008.782 c -7.938,1.764 -11.466,1.764 -15.876,1.764 -25.578,0 -39.69,-13.23 -39.69,-36.162 l 0,-271.656 c 0,-82.026 -59.9761,-126.126 -173.754,-126.126 -67.0319,0 -122.598,19.404 -153.468,53.802 -21.168,23.814 -29.988,50.274 -31.752,96.138 l 74.088,0 c 6.174,-56.448 39.6901,-82.026 108.486,-82.026 66.1499,0 103.194,24.696 103.194,68.796 l 0,19.404 c 0,30.87 -18.5221,44.1 -76.734,51.156 -104.0759,13.23 -119.952,16.758 -148.176,28.224 -53.8019,22.05 -81.144,63.504 -81.144,123.48 0,83.79 58.2121,136.71 151.704,136.71 58.2119,0 104.9581,-20.286 156.996,-67.914 5.292,46.746 28.224,67.914 75.852,67.914 14.994,0 26.46,-1.764 50.274,-7.938 l 0,-55.566 m -128.772,-102.312 c 0,24.696 -7.056,39.69 -29.106,59.976 -29.988,27.342 -66.15,41.454 -109.368,41.454 -57.3299,0 -90.846,-27.342 -90.846,-74.088 0,-48.51 32.6341,-73.206 111.132,-84.672 77.6159,-10.584 93.492,-14.112 118.188,-25.578 l 0,82.908"
     id="path4268"
     style="fill:#000000;stroke:none" /></g>
       </g>
      </g>
      <g
   id="g85">
       <g
   id="id8" />
      </g>
      <g
   id="g88">
       <g
   id="id9">
        <g
   id="text91"><path
     d="m 3333.628,15175.022 0,642.978 66.15,0 0,-59.094 c 35.28,53.802 82.0261,79.38 146.412,79.38 121.7159,0 201.096,-99.666 201.096,-253.134 0,-149.94 -75.8521,-242.55 -197.568,-242.55 -63.5039,0 -108.486,23.814 -142.884,75.852 l 0,-243.432 -73.206,0 m 201.978,236.376 c 82.0259,0 134.946,71.442 134.946,181.692 0,104.958 -54.6841,176.4 -134.946,176.4 -77.6159,0 -128.772,-70.56 -128.772,-179.046 0,-108.486 51.1561,-179.046 128.772,-179.046"
     id="path4271"
     style="fill:#000000;stroke:none" /></g>
       </g>
      </g>
      <g
   id="g99">
       <g
   id="id10" />
      </g>
      <g
   id="g102">
       <g
   id="id11">
        <g
   id="text105"><path
     d="m 5049.422,16273.064 c -3.528,-44.982 -13.23,-74.088 -30.87,-99.666 -31.752,-43.218 -87.3181,-68.796 -151.704,-68.796 -124.3619,0 -205.506,98.784 -205.506,252.252 0,149.058 79.3801,243.432 204.624,243.432 110.2499,0 179.928,-66.15 188.748,-179.046 l -74.088,0 c -12.348,74.088 -50.2741,111.132 -112.896,111.132 -81.1439,0 -129.654,-66.15 -129.654,-175.518 0,-115.542 47.6281,-184.338 127.89,-184.338 61.7399,0 100.548,36.162 109.368,100.548 l 74.088,0"
     id="path4274"
     style="fill:#000000;stroke:none" /></g>
       </g>
      </g>
      <g
   id="g113">
       <g
   id="id12" />
      </g>
      <g
   id="g116">
       <g
   id="id13">
        <g
   id="text119"><path
     d="m 6367.59,16700.022 -73.206,0 0,239.022 c -30.87,-46.746 -80.2621,-71.442 -142.002,-71.442 -119.9519,0 -198.45,96.138 -198.45,243.432 0,156.114 76.7341,252.252 201.096,252.252 63.5039,0 107.604,-23.814 147.294,-81.144 l 0,60.858 65.268,0 0,-642.978 m -202.86,236.376 c 79.3799,0 129.654,70.56 129.654,180.81 0,106.722 -51.1561,177.282 -128.772,177.282 -81.1439,0 -134.946,-71.442 -134.946,-179.046 0,-107.604 53.8021,-179.046 134.064,-179.046"
     id="path4277"
     style="fill:#000000;stroke:none" /></g>
       </g>
      </g>
      <g
   id="g127">
       <g
   id="id14" />
      </g>
      <g
   id="g130">
       <g
   id="id15">
        <g
   id="text133"><path
     d="m 7705.466,17900.612 c 0,-70.56 -5.292,-112.896 -18.522,-147.294 -29.988,-75.852 -100.5481,-121.716 -186.984,-121.716 -128.7719,0 -211.68,98.784 -211.68,250.488 0,151.704 80.2621,245.196 209.916,245.196 105.8399,0 179.046,-59.976 197.568,-160.524 l -74.088,0 c -20.286,60.858 -61.7401,92.61 -120.834,92.61 -46.746,0 -86.436,-21.168 -111.132,-59.976 -17.64,-26.46 -23.814,-52.92 -24.696,-98.784 l 340.452,0 m -338.688,-59.976 c 6.174,-85.554 58.2121,-141.12 132.3,-141.12 72.3239,0 127.89,59.976 127.89,135.828 0,1.764 0,3.528 -0.882,5.292 l -259.308,0"
     id="path4280"
     style="fill:#000000;stroke:none" /></g>
       </g>
      </g>
      <g
   id="g141">
       <g
   id="id16" />
      </g>
      <g
   id="g144">
       <g
   id="id17">
        <g
   id="text147"><path
     d="m 8924.556,18410.832 -76.734,0 0,-72.324 c 0,-30.87 17.64,-46.746 51.156,-46.746 6.174,0 8.82,0 25.578,0.882 l 0,-60.858 c -16.758,-3.528 -26.46,-4.41 -41.454,-4.41 -67.9139,0 -108.486,38.808 -108.486,104.958 l 0,78.498 -61.74,0 0,59.976 61.74,0 0,402.192 73.206,0 0,-402.192 76.734,0 0,-59.976"
     id="path4283"
     style="fill:#000000;stroke:none" /></g>
       </g>
      </g>
      <g
   id="g155">
       <g
   id="id18" />
      </g>
      <g
   id="g158">
       <g
   id="id19">
        <g
   id="text161"><path
     d="m 10261.384,17644.832 0,67.032 c -37.044,-54.684 -82.026,-80.262 -141.12,-80.262 -117.306,0 -196.686,102.312 -196.686,252.252 0,75.852 20.286,137.592 58.212,181.692 34.398,38.808 83.79,61.74 132.3,61.74 58.212,0 98.784,-24.696 140.238,-82.908 l 0,23.814 c 0,62.622 -7.938,100.548 -26.46,126.126 -19.404,27.342 -57.33,43.218 -102.312,43.218 -33.516,0 -63.504,-8.82 -83.79,-24.696 -16.758,-13.23 -23.814,-25.578 -28.224,-52.92 l -74.97,0 c 7.938,87.318 75.852,139.356 184.338,139.356 68.796,0 127.89,-22.05 157.878,-59.094 35.28,-42.336 48.51,-100.548 48.51,-209.034 l 0,-386.316 -67.914,0 m -133.182,54.684 c 79.38,0 126.126,67.032 126.126,182.574 0,110.25 -47.628,177.282 -125.244,177.282 -80.262,0 -128.772,-67.914 -128.772,-179.928 0,-111.132 49.392,-179.928 127.89,-179.928"
     id="path4286"
     style="fill:#000000;stroke:none" /></g>
       </g>
      </g>
      <g
   id="g169">
       <g
   id="id20" />
      </g>
      <g
   id="g172">
       <g
   id="id21">
        <g
   id="text175"><path
     d="m 11282.74,16700.022 0,642.978 73.206,0 0,-254.898 c 0,-94.374 49.392,-156.114 125.244,-156.114 23.814,0 47.628,7.938 65.268,21.168 21.168,14.994 29.988,37.044 29.988,69.678 l 0,320.166 73.206,0 0,-349.272 c 0,-77.616 -55.566,-126.126 -145.53,-126.126 -65.268,0 -104.958,20.286 -148.176,76.734 l 0,-244.314 -73.206,0"
     id="path4289"
     style="fill:#000000;stroke:none" /></g>
       </g>
      </g>
      <g
   id="g183">
       <g
   id="id22" />
      </g>
      <g
   id="g186">
       <g
   id="id23">
        <g
   id="text189"><path
     d="m 12825.3,16117.832 -73.206,0 0,462.168 73.206,0 0,-462.168 m 0,-180.81 -74.088,0 0,92.61 74.088,0 0,-92.61"
     id="path4292"
     style="fill:#000000;stroke:none" /></g>
       </g>
      </g>
      <g
   id="g197">
       <g
   id="id24" />
      </g>
      <g
   id="g200">
       <g
   id="id25">
        <g
   id="text203"><path
     d="m 14018.362,15175.022 -73.206,0 0,642.978 73.206,0 0,-179.928 71.442,-70.56 156.114,250.488 90.846,0 -188.748,-302.526 160.524,-159.642 -94.374,0 -195.804,195.804 0,-376.614"
     id="path4295"
     style="fill:#000000;stroke:none" /></g>
       </g>
      </g>
      <g
   id="g211">
       <g
   id="id26" />
      </g>
      <g
   id="g214">
       <g
   id="id27">
        <g
   id="text217"><path
     d="m 15472.064,14409.022 -74.088,0 0,642.978 74.088,0 0,-642.978"
     id="path4298"
     style="fill:#000000;stroke:none" /></g>
       </g>
      </g>
      <g
   id="g225">
       <g
   id="id28" />
      </g>
      <g
   id="g228">
       <g
   id="id29">
        <g
   id="text231" />
       </g>
      </g>
      <g
   id="g239">
       <g
   id="id30" />
      </g>
      <g
   id="g242">
       <g
   id="id31">
        <g
   id="text245"><path
     d="m 868.438,12317.59 0,445.41 77.616,0 0,-625.338 -51.156,0 c -27.34197,96.138 -44.98212,109.368 -164.934,124.362 l 0,55.566 138.474,0"
     id="path4302"
     style="fill:#000000;stroke:none" /></g>
       </g>
      </g>
      <g
   id="g253">
       <g
   id="id32">
        <path
   d="m 3090,13106 -441,-764 -882,0 -441,764 441,764 882,0 441,-764 z"
   id="path256"
   style="fill:#d18b47;stroke:none" />
       </g>
      </g>
      <g
   id="g258">
       <g
   id="id33">
        <path
   d="m 4413,13870 -441,-764 -882,0 -441,764 441,764 882,0 441,-764 z"
   id="path261"
   style="fill:#e8ab6f;stroke:none" />
       </g>
      </g>
      <g
   id="g263">
       <g
   id="id34">
        <path
   d="m 5735,14634 -441,-764 -882,0 -441,764 441,764 882,0 441,-764 z"
   id="path266"
   style="fill:#ffce9e;stroke:none" />
       </g>
      </g>
      <g
   id="g268">
       <g
   id="id35">
        <path
   d="m 7058,15398 -441,-764 -882,0 -441,764 441,764 882,0 441,-764 z"
   id="path271"
   style="fill:#d18b47;stroke:none" />
       </g>
      </g>
      <g
   id="g273">
       <g
   id="id36">
        <path
   d="m 8381,16161 -441,-764 -882,0 -441,764 441,764 882,0 441,-764 z"
   id="path276"
   style="fill:#e8ab6f;stroke:none" />
       </g>
      </g>
      <g
   id="g278">
       <g
   id="id37">
        <path
   d="m 9263,16161 -882,0 -441,764 441,764 882,0 441,-764 -441,-764 z"
   id="path281"
   style="fill:#ffce9e;stroke:none" />
       </g>
      </g>
      <g
   id="g283">
       <g
   id="id38">
        <path
   d="m 10586,15397 -882,0 -441,764 441,764 882,0 441,-764 -441,-764 z"
   id="path286"
   style="fill:#e8ab6f;stroke:none" />
       </g>
      </g>
      <g
   id="g288">
       <g
   id="id39">
        <path
   d="m 11909,14634 -882,0 -441,764 441,764 882,0 441,-764 -441,-764 z"
   id="path291"
   style="fill:#d18b47;stroke:none" />
       </g>
      </g>
      <g
   id="g293">
       <g
   id="id40">
        <path
   d="m 13232,13872 -882,0 -441,764 441,764 882,0 441,-764 -441,-764 z"
   id="path296"
   style="fill:#ffce9e;stroke:none" />
       </g>
      </g>
      <g
   id="g298">
       <g
   id="id41">
        <path
   d="m 14555,13108 -882,0 -441,764 441,764 882,0 441,-764 -441,-764 z"
   id="path301"
   style="fill:#e8ab6f;stroke:none" />
       </g>
      </g>
      <g
   id="g303">
       <g
   id="id42">
        <path
   d="m 15878,12344 -882,0 -441,764 441,764 882,0 441,-764 -441,-764 z"
   id="path306"
   style="fill:#d18b47;stroke:none" />
       </g>
      </g>
      <g
   id="g308">
       <g
   id="id43" />
      </g>
      <g
   id="g311">
       <g
   id="id44">
        <g
   id="text314"><path
     d="m 16743.438,12317.59 0,445.41 77.616,0 0,-625.338 -51.156,0 c -27.342,96.138 -44.982,109.368 -164.934,124.362 l 0,55.566 138.474,0"
     id="path4305"
     style="fill:#000000;stroke:none" /></g>
       </g>
      </g>
      <g
   id="g322">
       <g
   id="id45" />
      </g>
      <g
   id="g325">
       <g
   id="id46">
        <g
   id="text328"><path
     d="m 1086.292,11160.266 -328.986,0 c 7.93799,-51.156 36.16208,-83.79 112.896,-128.772 l 88.2,-47.628 c 87.3179,-47.628 132.3,-112.014 132.3,-188.748 0,-52.038 -21.168,-100.548 -58.212,-134.064 -37.04396,-33.516 -82.90806,-49.392 -142.002,-49.392 -79.37992,0 -138.47403,28.224 -172.872,81.144 -22.04998,33.516 -31.752,72.324 -33.516,135.828 l 77.616,0 c 2.646,-42.336 7.93801,-67.914 18.522,-88.2 20.28598,-37.926 60.85805,-60.858 107.604,-60.858 70.55993,0 123.48,50.274 123.48,117.306 0,49.392 -29.10606,91.728 -84.672,123.48 l -81.144,45.864 c -130.53587,74.088 -168.46201,133.182 -175.518,270.774 l 416.304,0 0,-76.734"
     id="path4308"
     style="fill:#000000;stroke:none" /></g>
       </g>
      </g>
      <g
   id="g336">
       <g
   id="id47">
        <path
   d="m 3090,11581 -441,-764 -882,0 -441,764 441,764 882,0 441,-764 z"
   id="path339"
   style="fill:#e8ab6f;stroke:none" />
       </g>
      </g>
      <g
   id="g341">
       <g
   id="id48">
        <path
   d="m 4413,12344 -441,-764 -882,0 -441,764 441,764 882,0 441,-764 z"
   id="path344"
   style="fill:#ffce9e;stroke:none" />
       </g>
      </g>
      <g
   id="g346">
       <g
   id="id49">
        <path
   d="m 5735,13108 -441,-764 -882,0 -441,764 441,764 882,0 441,-764 z"
   id="path349"
   style="fill:#d18b47;stroke:none" />
       </g>
      </g>
      <g
   id="g351">
       <g
   id="id50">
        <path
   d="m 7058,13872 -441,-764 -882,0 -441,764 441,764 882,0 441,-764 z"
   id="path354"
   style="fill:#e8ab6f;stroke:none" />
       </g>
      </g>
      <g
   id="g356">
       <g
   id="id51">
        <g
   id="text359"><path
     d="m 6176.5,13720.924 c 46.6335,0 86.4332,16.684 119.3994,50.051 33.3668,32.966 50.0505,72.766 50.0513,119.4 -8e-4,47.036 -16.6845,87.037 -50.0513,120.002 -32.9662,32.966 -72.7659,49.448 -119.3994,49.448 -47.0367,0 -87.0375,-16.482 -120.0024,-49.448 -32.966,-32.965 -49.4487,-72.966 -49.4483,-120.002 -4e-4,-46.634 16.4823,-86.434 49.4483,-119.4 32.9649,-33.367 72.9657,-50.051 120.0024,-50.051"
     id="path4311"
     style="fill:#ffffff;stroke:none" /></g>
       </g>
      </g>
      <g
   id="g367">
       <g
   id="id52">
        <g
   id="text370"><path
     d="m 6176.5,13720.924 c 46.6335,0 86.4332,16.684 119.3994,50.051 33.3668,32.966 50.0505,72.766 50.0513,119.4 -8e-4,47.036 -16.6845,87.037 -50.0513,120.002 -32.9662,32.966 -72.7659,49.448 -119.3994,49.448 -47.0367,0 -87.0375,-16.482 -120.0024,-49.448 -32.966,-32.965 -49.4487,-72.966 -49.4483,-120.002 -4e-4,-46.634 16.4823,-86.434 49.4483,-119.4 32.9649,-33.367 72.9657,-50.051 120.0024,-50.051"
     id="path4314"
     style="fill:#000000;stroke:none" /></g>
       </g>
      </g>
      <g
   id="g378">
       <g
   id="id53">
        <path
   d="m 8381,14636 -441,-764 -882,0 -441,764 441,764 882,0 441,-764 z"
   id="path381"
   style="fill:#ffce9e;stroke:none" />
       </g>
      </g>
      <g
   id="g383">
       <g
   id="id54">
        <path
   d="m 9263,14635 -882,0 -441,764 441,764 882,0 441,-764 -441,-764 z"
   id="path386"
   style="fill:#d18b47;stroke:none" />
       </g>
      </g>
      <g
   id="g388">
       <g
   id="id55">
        <path
   d="m 10586,13872 -882,0 -441,764 441,764 882,0 441,-764 -441,-764 z"
   id="path391"
   style="fill:#ffce9e;stroke:none" />
       </g>
      </g>
      <g
   id="g393">
       <g
   id="id56">
        <path
   d="m 11909,13108 -882,0 -441,764 441,764 882,0 441,-764 -441,-764 z"
   id="path396"
   style="fill:#e8ab6f;stroke:none" />
       </g>
      </g>
      <g
   id="g398">
       <g
   id="id57">
        <g
   id="text401"><path
     d="m 11467.5,13720.924 c 46.633,0 86.433,16.684 119.399,50.051 33.367,32.966 50.051,72.766 50.052,119.4 -10e-4,47.036 -16.685,87.037 -50.052,120.002 -32.966,32.966 -72.766,49.448 -119.399,49.448 -47.037,0 -87.037,-16.482 -120.002,-49.448 -32.966,-32.965 -49.449,-72.966 -49.449,-120.002 0,-46.634 16.483,-86.434 49.449,-119.4 32.965,-33.367 72.965,-50.051 120.002,-50.051"
     id="path4317"
     style="fill:#ffffff;stroke:none" /></g>
       </g>
      </g>
      <g
   id="g409">
       <g
   id="id58">
        <g
   id="text412"><path
     d="m 11467.5,13720.924 c 46.633,0 86.433,16.684 119.399,50.051 33.367,32.966 50.051,72.766 50.052,119.4 -10e-4,47.036 -16.685,87.037 -50.052,120.002 -32.966,32.966 -72.766,49.448 -119.399,49.448 -47.037,0 -87.037,-16.482 -120.002,-49.448 -32.966,-32.965 -49.449,-72.966 -49.449,-120.002 0,-46.634 16.483,-86.434 49.449,-119.4 32.965,-33.367 72.965,-50.051 120.002,-50.051"
     id="path4320"
     style="fill:#000000;stroke:none" /></g>
       </g>
      </g>
      <g
   id="g420">
       <g
   id="id59">
        <path
   d="m 13232,12344 -882,0 -441,764 441,764 882,0 441,-764 -441,-764 z"
   id="path423"
   style="fill:#d18b47;stroke:none" />
       </g>
      </g>
      <g
   id="g425">
       <g
   id="id60">
        <path
   d="m 14555,11580 -882,0 -441,764 441,764 882,0 441,-764 -441,-764 z"
   id="path428"
   style="fill:#ffce9e;stroke:none" />
       </g>
      </g>
      <g
   id="g430">
       <g
   id="id61">
        <path
   d="m 15878,10817 -882,0 -441,764 441,764 882,0 441,-764 -441,-764 z"
   id="path433"
   style="fill:#e8ab6f;stroke:none" />
       </g>
      </g>
      <g
   id="g435">
       <g
   id="id62" />
      </g>
      <g
   id="g438">
       <g
   id="id63">
        <g
   id="text441"><path
     d="m 16961.292,11160.266 -328.986,0 c 7.938,-51.156 36.162,-83.79 112.896,-128.772 l 88.2,-47.628 c 87.318,-47.628 132.3,-112.014 132.3,-188.748 0,-52.038 -21.168,-100.548 -58.212,-134.064 -37.044,-33.516 -82.908,-49.392 -142.002,-49.392 -79.38,0 -138.474,28.224 -172.872,81.144 -22.05,33.516 -31.752,72.324 -33.516,135.828 l 77.616,0 c 2.646,-42.336 7.938,-67.914 18.522,-88.2 20.286,-37.926 60.858,-60.858 107.604,-60.858 70.56,0 123.48,50.274 123.48,117.306 0,49.392 -29.106,91.728 -84.672,123.48 l -81.144,45.864 c -130.536,74.088 -168.462,133.182 -175.518,270.774 l 416.304,0 0,-76.734"
     id="path4323"
     style="fill:#000000;stroke:none" /></g>
       </g>
      </g>
      <g
   id="g449">
       <g
   id="id64" />
      </g>
      <g
   id="g452">
       <g
   id="id65">
        <g
   id="text455"><path
     d="m 834.922,9421.35 9.702,0 32.634,-0.882 c 85.55391,0 129.654,38.8081 129.654,113.778 0,78.4979 -48.51008,125.244 -129.654,125.244 -84.67192,0 -126.12601,-42.3361 -131.418,-133.182 l -77.616,0 c 3.528,50.2739 12.34801,82.908 27.342,111.132 31.75197,59.9759 93.49209,90.846 179.046,90.846 128.7719,0 211.68,-76.7341 211.68,-194.922 0,-79.3799 -30.8701,-123.48 -105.84,-149.058 58.2119,-22.932 87.318,-67.0321 87.318,-129.654 0,-107.6039 -71.44212,-171.99 -190.512,-171.99 -126.12587,0 -193.158,68.7961 -195.804,201.978 l 77.616,0 c 0.882,-37.926 4.41001,-59.094 14.112,-78.498 17.63998,-34.398 56.44805,-55.566 104.958,-55.566 68.79593,0 110.25,40.5721 110.25,106.722 0,44.1 -15.87603,70.56 -50.274,84.672 -21.16798,8.82 -48.51005,12.348 -103.194,13.23 l 0,66.15"
     id="path4326"
     style="fill:#000000;stroke:none" /></g>
       </g>
      </g>
      <g
   id="g463">
       <g
   id="id66">
        <path
   d="m 3090,10053 -441,-764 -882,0 -441,764 441,764 882,0 441,-764 z"
   id="path466"
   style="fill:#ffce9e;stroke:none" />
       </g>
      </g>
      <g
   id="g468">
       <g
   id="id67">
        <path
   d="m 4413,10817 -441,-764 -882,0 -441,764 441,764 882,0 441,-764 z"
   id="path471"
   style="fill:#d18b47;stroke:none" />
       </g>
      </g>
      <g
   id="g473">
       <g
   id="id68">
        <path
   d="m 5735,11581 -441,-764 -882,0 -441,764 441,764 882,0 441,-764 z"
   id="path476"
   style="fill:#e8ab6f;stroke:none" />
       </g>
      </g>
      <g
   id="g478">
       <g
   id="id69">
        <path
   d="m 7058,12344 -441,-764 -882,0 -441,764 441,764 882,0 441,-764 z"
   id="path481"
   style="fill:#ffce9e;stroke:none" />
       </g>
      </g>
      <g
   id="g483">
       <g
   id="id70">
        <path
   d="m 8381,13108 -441,-764 -882,0 -441,764 441,764 882,0 441,-764 z"
   id="path486"
   style="fill:#d18b47;stroke:none" />
       </g>
      </g>
      <g
   id="g488">
       <g
   id="id71">
        <path
   d="m 9263,13108 -882,0 -441,764 441,764 882,0 441,-764 -441,-764 z"
   id="path491"
   style="fill:#e8ab6f;stroke:none" />
       </g>
      </g>
      <g
   id="g493">
       <g
   id="id72">
        <path
   d="m 10586,12342 -882,0 -441,764 441,764 882,0 441,-764 -441,-764 z"
   id="path496"
   style="fill:#d18b47;stroke:none" />
       </g>
      </g>
      <g
   id="g498">
       <g
   id="id73">
        <path
   d="m 11909,11580 -882,0 -441,764 441,764 882,0 441,-764 -441,-764 z"
   id="path501"
   style="fill:#ffce9e;stroke:none" />
       </g>
      </g>
      <g
   id="g503">
       <g
   id="id74">
        <path
   d="m 13232,10817 -882,0 -441,764 441,764 882,0 441,-764 -441,-764 z"
   id="path506"
   style="fill:#e8ab6f;stroke:none" />
       </g>
      </g>
      <g
   id="g508">
       <g
   id="id75">
        <path
   d="m 14555,10051 -882,0 -441,764 441,764 882,0 441,-764 -441,-764 z"
   id="path511"
   style="fill:#d18b47;stroke:none" />
       </g>
      </g>
      <g
   id="g513">
       <g
   id="id76">
        <path
   d="m 15878,9289 -882,0 -441,764 441,764 882,0 441,-764 -441,-764 z"
   id="path516"
   style="fill:#ffce9e;stroke:none" />
       </g>
      </g>
      <g
   id="g518">
       <g
   id="id77" />
      </g>
      <g
   id="g521">
       <g
   id="id78">
        <g
   id="text524"><path
     d="m 16709.922,9421.35 9.702,0 32.634,-0.882 c 85.554,0 129.654,38.8081 129.654,113.778 0,78.4979 -48.51,125.244 -129.654,125.244 -84.672,0 -126.126,-42.3361 -131.418,-133.182 l -77.616,0 c 3.528,50.2739 12.348,82.908 27.342,111.132 31.752,59.9759 93.492,90.846 179.046,90.846 128.772,0 211.68,-76.7341 211.68,-194.922 0,-79.3799 -30.87,-123.48 -105.84,-149.058 58.212,-22.932 87.318,-67.0321 87.318,-129.654 0,-107.6039 -71.442,-171.99 -190.512,-171.99 -126.126,0 -193.158,68.7961 -195.804,201.978 l 77.616,0 c 0.882,-37.926 4.41,-59.094 14.112,-78.498 17.64,-34.398 56.448,-55.566 104.958,-55.566 68.796,0 110.25,40.5721 110.25,106.722 0,44.1 -15.876,70.56 -50.274,84.672 -21.168,8.82 -48.51,12.348 -103.194,13.23 l 0,66.15"
     id="path4329"
     style="fill:#000000;stroke:none" /></g>
       </g>
      </g>
      <g
   id="g532">
       <g
   id="id79" />
      </g>
      <g
   id="g535">
       <g
   id="id80">
        <g
   id="text538"><path
     d="m 928.414,8032.06 0,149.94 77.616,0 0,-149.94 92.61,0 0,-69.678 -92.61,0 0,-405.72 -57.33,0 -284.004,393.372 0,82.026 263.718,0 m 0,-69.678 -195.804,0 195.804,-273.42 0,273.42"
     id="path4332"
     style="fill:#000000;stroke:none" /></g>
       </g>
      </g>
      <g
   id="g546">
       <g
   id="id81">
        <path
   d="m 3090,8526 -441,-764 -882,0 -441,764 441,764 882,0 441,-764 z"
   id="path549"
   style="fill:#d18b47;stroke:none" />
       </g>
      </g>
      <g
   id="g551">
       <g
   id="id82">
        <path
   d="m 4413,9289 -441,-764 -882,0 -441,764 441,764 882,0 441,-764 z"
   id="path554"
   style="fill:#e8ab6f;stroke:none" />
       </g>
      </g>
      <g
   id="g556">
       <g
   id="id83">
        <g
   id="text559"><path
     d="m 3530.5,9137.9238 c 46.6335,6e-4 86.4332,16.6843 119.3994,50.0513 33.3668,32.9659 50.0505,72.7657 50.0513,119.3994 -8e-4,47.0365 -16.6845,87.0372 -50.0513,120.0025 -32.9662,32.9657 -72.7659,49.4484 -119.3994,49.4482 -47.0367,2e-4 -87.0375,-16.4825 -120.0024,-49.4482 -32.966,-32.9653 -49.4487,-72.966 -49.4483,-120.0025 -4e-4,-46.6337 16.4823,-86.4335 49.4483,-119.3994 32.9649,-33.367 72.9657,-50.0507 120.0024,-50.0513"
     id="path4335"
     style="fill:#ffffff;stroke:none" /></g>
       </g>
      </g>
      <g
   id="g567">
       <g
   id="id84">
        <g
   id="text570"><path
     d="m 3530.5,9137.9238 c 46.6335,6e-4 86.4332,16.6843 119.3994,50.0513 33.3668,32.9659 50.0505,72.7657 50.0513,119.3994 -8e-4,47.0365 -16.6845,87.0372 -50.0513,120.0025 -32.9662,32.9657 -72.7659,49.4484 -119.3994,49.4482 -47.0367,2e-4 -87.0375,-16.4825 -120.0024,-49.4482 -32.966,-32.9653 -49.4487,-72.966 -49.4483,-120.0025 -4e-4,-46.6337 16.4823,-86.4335 49.4483,-119.3994 32.9649,-33.367 72.9657,-50.0507 120.0024,-50.0513"
     id="path4338"
     style="fill:#000000;stroke:none" /></g>
       </g>
      </g>
      <g
   id="g578">
       <g
   id="id85">
        <path
   d="m 5735,10053 -441,-764 -882,0 -441,764 441,764 882,0 441,-764 z"
   id="path581"
   style="fill:#ffce9e;stroke:none" />
       </g>
      </g>
      <g
   id="g583">
       <g
   id="id86">
        <path
   d="m 7058,10817 -441,-764 -882,0 -441,764 441,764 882,0 441,-764 z"
   id="path586"
   style="fill:#d18b47;stroke:none" />
       </g>
      </g>
      <g
   id="g588">
       <g
   id="id87">
        <path
   d="m 8381,11581 -441,-764 -882,0 -441,764 441,764 882,0 441,-764 z"
   id="path591"
   style="fill:#e8ab6f;stroke:none" />
       </g>
      </g>
      <g
   id="g593">
       <g
   id="id88">
        <g
   id="text596"><path
     d="m 7497.5,11428.924 c 46.6335,0 86.4332,16.684 119.3994,50.051 33.3668,32.966 50.0505,72.766 50.0513,119.4 -8e-4,47.036 -16.6845,87.037 -50.0513,120.002 -32.9662,32.966 -72.7659,49.448 -119.3994,49.448 -47.0367,0 -87.0375,-16.482 -120.0024,-49.448 -32.966,-32.965 -49.4487,-72.966 -49.4483,-120.002 -4e-4,-46.634 16.4823,-86.434 49.4483,-119.4 32.9649,-33.367 72.9657,-50.051 120.0024,-50.051"
     id="path4341"
     style="fill:#ffffff;stroke:none" /></g>
       </g>
      </g>
      <g
   id="g604">
       <g
   id="id89">
        <g
   id="text607"><path
     d="m 7497.5,11428.924 c 46.6335,0 86.4332,16.684 119.3994,50.051 33.3668,32.966 50.0505,72.766 50.0513,119.4 -8e-4,47.036 -16.6845,87.037 -50.0513,120.002 -32.9662,32.966 -72.7659,49.448 -119.3994,49.448 -47.0367,0 -87.0375,-16.482 -120.0024,-49.448 -32.966,-32.965 -49.4487,-72.966 -49.4483,-120.002 -4e-4,-46.634 16.4823,-86.434 49.4483,-119.4 32.9649,-33.367 72.9657,-50.051 120.0024,-50.051"
     id="path4344"
     style="fill:#000000;stroke:none" /></g>
       </g>
      </g>
      <g
   id="g615">
       <g
   id="id90">
        <path
   d="m 9263,11580 -882,0 -441,764 441,764 882,0 441,-764 -441,-764 z"
   id="path618"
   style="fill:#ffce9e;stroke:none" />
       </g>
      </g>
      <g
   id="g620">
       <g
   id="id91">
        <path
   d="m 10586,10817 -882,0 -441,764 441,764 882,0 441,-764 -441,-764 z"
   id="path623"
   style="fill:#e8ab6f;stroke:none" />
       </g>
      </g>
      <g
   id="g625">
       <g
   id="id92">
        <g
   id="text628"><path
     d="m 10143.5,11428.924 c 46.633,0 86.433,16.684 119.399,50.051 33.367,32.966 50.051,72.766 50.052,119.4 -10e-4,47.036 -16.685,87.037 -50.052,120.002 -32.966,32.966 -72.766,49.448 -119.399,49.448 -47.037,0 -87.037,-16.482 -120.002,-49.448 -32.9664,-32.965 -49.4491,-72.966 -49.4487,-120.002 -4e-4,-46.634 16.4823,-86.434 49.4487,-119.4 32.965,-33.367 72.965,-50.051 120.002,-50.051"
     id="path4347"
     style="fill:#ffffff;stroke:none" /></g>
       </g>
      </g>
      <g
   id="g636">
       <g
   id="id93">
        <g
   id="text639"><path
     d="m 10143.5,11428.924 c 46.633,0 86.433,16.684 119.399,50.051 33.367,32.966 50.051,72.766 50.052,119.4 -10e-4,47.036 -16.685,87.037 -50.052,120.002 -32.966,32.966 -72.766,49.448 -119.399,49.448 -47.037,0 -87.037,-16.482 -120.002,-49.448 -32.9664,-32.965 -49.4491,-72.966 -49.4487,-120.002 -4e-4,-46.634 16.4823,-86.434 49.4487,-119.4 32.965,-33.367 72.965,-50.051 120.002,-50.051"
     id="path4350"
     style="fill:#000000;stroke:none" /></g>
       </g>
      </g>
      <g
   id="g647">
       <g
   id="id94">
        <path
   d="m 11909,10053 -882,0 -441,764 441,764 882,0 441,-764 -441,-764 z"
   id="path650"
   style="fill:#d18b47;stroke:none" />
       </g>
      </g>
      <g
   id="g652">
       <g
   id="id95">
        <path
   d="m 13232,9289 -882,0 -441,764 441,764 882,0 441,-764 -441,-764 z"
   id="path655"
   style="fill:#ffce9e;stroke:none" />
       </g>
      </g>
      <g
   id="g657">
       <g
   id="id96">
        <path
   d="m 14555,8525 -882,0 -441,764 441,764 882,0 441,-764 -441,-764 z"
   id="path660"
   style="fill:#e8ab6f;stroke:none" />
       </g>
      </g>
      <g
   id="g662">
       <g
   id="id97">
        <g
   id="text665"><path
     d="m 14113.5,9137.9238 c 46.633,6e-4 86.433,16.6843 119.399,50.0513 33.367,32.9659 50.051,72.7657 50.052,119.3994 -10e-4,47.0365 -16.685,87.0372 -50.052,120.0025 -32.966,32.9657 -72.766,49.4484 -119.399,49.4482 -47.037,2e-4 -87.037,-16.4825 -120.002,-49.4482 -32.966,-32.9653 -49.449,-72.966 -49.449,-120.0025 0,-46.6337 16.483,-86.4335 49.449,-119.3994 32.965,-33.367 72.965,-50.0507 120.002,-50.0513"
     id="path4353"
     style="fill:#ffffff;stroke:none" /></g>
       </g>
      </g>
      <g
   id="g673">
       <g
   id="id98">
        <g
   id="text676"><path
     d="m 14113.5,9137.9238 c 46.633,6e-4 86.433,16.6843 119.399,50.0513 33.367,32.9659 50.051,72.7657 50.052,119.3994 -10e-4,47.0365 -16.685,87.0372 -50.052,120.0025 -32.966,32.9657 -72.766,49.4484 -119.399,49.4482 -47.037,2e-4 -87.037,-16.4825 -120.002,-49.4482 -32.966,-32.9653 -49.449,-72.966 -49.449,-120.0025 0,-46.6337 16.483,-86.4335 49.449,-119.3994 32.965,-33.367 72.965,-50.0507 120.002,-50.0513"
     id="path4356"
     style="fill:#000000;stroke:none" /></g>
       </g>
      </g>
      <g
   id="g684">
       <g
   id="id99">
        <path
   d="m 15878,7762 -882,0 -441,764 441,764 882,0 441,-764 -441,-764 z"
   id="path687"
   style="fill:#d18b47;stroke:none" />
       </g>
      </g>
      <g
   id="g689">
       <g
   id="id100" />
      </g>
      <g
   id="g692">
       <g
   id="id101">
        <g
   id="text695"><path
     d="m 16803.414,8032.06 0,149.94 77.616,0 0,-149.94 92.61,0 0,-69.678 -92.61,0 0,-405.72 -57.33,0 -284.004,393.372 0,82.026 263.718,0 m 0,-69.678 -195.804,0 195.804,-273.42 0,273.42"
     id="path4359"
     style="fill:#000000;stroke:none" /></g>
       </g>
      </g>
      <g
   id="g703">
       <g
   id="id102" />
      </g>
      <g
   id="g706">
       <g
   id="id103">
        <g
   id="text709"><path
     d="m 1059.832,6027.662 -322.812,0 -46.746,340.452 71.442,0 c 36.16196,-43.218 66.15005,-58.212 114.66,-58.212 83.78992,0 136.71,57.3301 136.71,149.94 0,89.9639 -52.03808,144.648 -136.71,144.648 -67.91393,0 -109.36802,-34.3981 -127.89,-104.958 l -77.616,0 c 10.58399,51.1559 19.40402,75.852 37.926,98.784 35.27996,47.628 98.78407,74.97 169.344,74.97 126.1259,0 214.326,-91.7281 214.326,-224.028 0,-123.4799 -82.0261,-208.152 -201.978,-208.152 -44.09996,0 -79.38004,11.466 -115.542,37.926 l 24.696,-174.636 260.19,0 0,-76.734"
     id="path4362"
     style="fill:#000000;stroke:none" /></g>
       </g>
      </g>
      <g
   id="g717">
       <g
   id="id104">
        <path
   d="m 3090,6998 -441,-764 -882,0 -441,764 441,764 882,0 441,-764 z"
   id="path720"
   style="fill:#e8ab6f;stroke:none" />
       </g>
      </g>
      <g
   id="g722">
       <g
   id="id105">
        <path
   d="m 4413,7762 -441,-764 -882,0 -441,764 441,764 882,0 441,-764 z"
   id="path725"
   style="fill:#ffce9e;stroke:none" />
       </g>
      </g>
      <g
   id="g727">
       <g
   id="id106">
        <path
   d="m 5735,8526 -441,-764 -882,0 -441,764 441,764 882,0 441,-764 z"
   id="path730"
   style="fill:#d18b47;stroke:none" />
       </g>
      </g>
      <g
   id="g732">
       <g
   id="id107">
        <path
   d="m 7058,9289 -441,-764 -882,0 -441,764 441,764 882,0 441,-764 z"
   id="path735"
   style="fill:#e8ab6f;stroke:none" />
       </g>
      </g>
      <g
   id="g737">
       <g
   id="id108">
        <g
   id="text740"><path
     d="m 6176.5,9137.9238 c 46.6335,6e-4 86.4332,16.6843 119.3994,50.0513 33.3668,32.9659 50.0505,72.7657 50.0513,119.3994 -8e-4,47.0365 -16.6845,87.0372 -50.0513,120.0025 -32.9662,32.9657 -72.7659,49.4484 -119.3994,49.4482 -47.0367,2e-4 -87.0375,-16.4825 -120.0024,-49.4482 -32.966,-32.9653 -49.4487,-72.966 -49.4483,-120.0025 -4e-4,-46.6337 16.4823,-86.4335 49.4483,-119.3994 32.9649,-33.367 72.9657,-50.0507 120.0024,-50.0513"
     id="path4365"
     style="fill:#ffffff;stroke:none" /></g>
       </g>
      </g>
      <g
   id="g748">
       <g
   id="id109">
        <g
   id="text751"><path
     d="m 6176.5,9137.9238 c 46.6335,6e-4 86.4332,16.6843 119.3994,50.0513 33.3668,32.9659 50.0505,72.7657 50.0513,119.3994 -8e-4,47.0365 -16.6845,87.0372 -50.0513,120.0025 -32.9662,32.9657 -72.7659,49.4484 -119.3994,49.4482 -47.0367,2e-4 -87.0375,-16.4825 -120.0024,-49.4482 -32.966,-32.9653 -49.4487,-72.966 -49.4483,-120.0025 -4e-4,-46.6337 16.4823,-86.4335 49.4483,-119.3994 32.9649,-33.367 72.9657,-50.0507 120.0024,-50.0513"
     id="path4368"
     style="fill:#000000;stroke:none" /></g>
       </g>
      </g>
      <g
   id="g759">
       <g
   id="id110">
        <path
   d="m 8381,10053 -441,-764 -882,0 -441,764 441,764 882,0 441,-764 z"
   id="path762"
   style="fill:#ffce9e;stroke:none" />
       </g>
      </g>
      <g
   id="g764">
       <g
   id="id111">
        <path
   d="m 9263,10051 -882,0 -441,764 441,764 882,0 441,-764 -441,-764 z"
   id="path767"
   style="fill:#d18b47;stroke:none" />
       </g>
      </g>
      <g
   id="g769">
       <g
   id="id112">
        <path
   d="m 10586,9287 -882,0 -441,764 441,764 882,0 441,-764 -441,-764 z"
   id="path772"
   style="fill:#ffce9e;stroke:none" />
       </g>
      </g>
      <g
   id="g774">
       <g
   id="id113">
        <path
   d="m 11909,8524 -882,0 -441,764 441,764 882,0 441,-764 -441,-764 z"
   id="path777"
   style="fill:#e8ab6f;stroke:none" />
       </g>
      </g>
      <g
   id="g779">
       <g
   id="id114">
        <g
   id="text782"><path
     d="m 11467.5,9135.9238 c 46.633,6e-4 86.433,16.6843 119.399,50.0513 33.367,32.9659 50.051,72.7657 50.052,119.3994 -10e-4,47.0365 -16.685,87.0372 -50.052,120.0025 -32.966,32.9657 -72.766,49.4484 -119.399,49.4482 -47.037,2e-4 -87.037,-16.4825 -120.002,-49.4482 -32.966,-32.9653 -49.449,-72.966 -49.449,-120.0025 0,-46.6337 16.483,-86.4335 49.449,-119.3994 32.965,-33.367 72.965,-50.0507 120.002,-50.0513"
     id="path4371"
     style="fill:#ffffff;stroke:none" /></g>
       </g>
      </g>
      <g
   id="g790">
       <g
   id="id115">
        <g
   id="text793"><path
     d="m 11467.5,9135.9238 c 46.633,6e-4 86.433,16.6843 119.399,50.0513 33.367,32.9659 50.051,72.7657 50.052,119.3994 -10e-4,47.0365 -16.685,87.0372 -50.052,120.0025 -32.966,32.9657 -72.766,49.4484 -119.399,49.4482 -47.037,2e-4 -87.037,-16.4825 -120.002,-49.4482 -32.966,-32.9653 -49.449,-72.966 -49.449,-120.0025 0,-46.6337 16.483,-86.4335 49.449,-119.3994 32.965,-33.367 72.965,-50.0507 120.002,-50.0513"
     id="path4374"
     style="fill:#000000;stroke:none" /></g>
       </g>
      </g>
      <g
   id="g801">
       <g
   id="id116">
        <path
   d="m 13232,7760 -882,0 -441,764 441,764 882,0 441,-764 -441,-764 z"
   id="path804"
   style="fill:#d18b47;stroke:none" />
       </g>
      </g>
      <g
   id="g806">
       <g
   id="id117">
        <path
   d="m 14555,6996 -882,0 -441,764 441,764 882,0 441,-764 -441,-764 z"
   id="path809"
   style="fill:#ffce9e;stroke:none" />
       </g>
      </g>
      <g
   id="g811">
       <g
   id="id118">
        <path
   d="m 15878,6232 -882,0 -441,764 441,764 882,0 441,-764 -441,-764 z"
   id="path814"
   style="fill:#e8ab6f;stroke:none" />
       </g>
      </g>
      <g
   id="g816">
       <g
   id="id119" />
      </g>
      <g
   id="g819">
       <g
   id="id120">
        <g
   id="text822"><path
     d="m 16934.832,6027.662 -322.812,0 -46.746,340.452 71.442,0 c 36.162,-43.218 66.15,-58.212 114.66,-58.212 83.79,0 136.71,57.3301 136.71,149.94 0,89.9639 -52.038,144.648 -136.71,144.648 -67.914,0 -109.368,-34.3981 -127.89,-104.958 l -77.616,0 c 10.584,51.1559 19.404,75.852 37.926,98.784 35.28,47.628 98.784,74.97 169.344,74.97 126.126,0 214.326,-91.7281 214.326,-224.028 0,-123.4799 -82.026,-208.152 -201.978,-208.152 -44.1,0 -79.38,11.466 -115.542,37.926 l 24.696,-174.636 260.19,0 0,-76.734"
     id="path4377"
     style="fill:#000000;stroke:none" /></g>
       </g>
      </g>
      <g
   id="g830">
       <g
   id="id121" />
      </g>
      <g
   id="g833">
       <g
   id="id122">
        <g
   id="text836"><path
     d="m 1079.236,4660.832 c -14.994,-102.3119 -82.0261,-163.17 -177.282,-163.17 -68.79593,0 -130.53604,33.5161 -167.58,89.082 -38.80796,60.8579 -56.448,137.5921 -56.448,251.37 0,104.9579 15.87604,171.9901 52.92,227.556 33.51597,50.2739 88.20007,77.616 156.996,77.616 119.0699,0 204.624,-88.2001 204.624,-210.798 0,-116.4239 -79.3801,-198.45 -191.394,-198.45 -61.73994,0 -110.25003,23.814 -143.766,69.678 0.882,-152.5858 50.27409,-237.258 139.356,-237.258 54.68395,0 92.61001,34.3981 104.958,94.374 l 77.616,0 M 891.37,4802.834 c 74.96993,0 121.716,52.0381 121.716,135.828 0,78.4979 -52.92007,135.828 -124.362,135.828 -72.32393,0 -127.008,-59.9761 -127.008,-140.238 0,-77.6159 52.92008,-131.418 129.654,-131.418"
     id="path4380"
     style="fill:#000000;stroke:none" /></g>
       </g>
      </g>
      <g
   id="g844">
       <g
   id="id123">
        <path
   d="m 3090,5469 -441,-764 -882,0 -441,764 441,764 882,0 441,-764 z"
   id="path847"
   style="fill:#ffce9e;stroke:none" />
       </g>
      </g>
      <g
   id="g849">
       <g
   id="id124">
        <path
   d="m 4413,6233 -441,-764 -882,0 -441,764 441,764 882,0 441,-764 z"
   id="path852"
   style="fill:#d18b47;stroke:none" />
       </g>
      </g>
      <g
   id="g854">
       <g
   id="id125">
        <path
   d="m 5735,6996 -441,-764 -882,0 -441,764 441,764 882,0 441,-764 z"
   id="path857"
   style="fill:#e8ab6f;stroke:none" />
       </g>
      </g>
      <g
   id="g859">
       <g
   id="id126">
        <path
   d="m 7058,7760 -441,-764 -882,0 -441,764 441,764 882,0 441,-764 z"
   id="path862"
   style="fill:#ffce9e;stroke:none" />
       </g>
      </g>
      <g
   id="g864">
       <g
   id="id127">
        <path
   d="m 8381,8524 -441,-764 -882,0 -441,764 441,764 882,0 441,-764 z"
   id="path867"
   style="fill:#d18b47;stroke:none" />
       </g>
      </g>
      <g
   id="g869">
       <g
   id="id128">
        <path
   d="m 9263,8524 -882,0 -441,764 441,764 882,0 441,-764 -441,-764 z"
   id="path872"
   style="fill:#e8ab6f;stroke:none" />
       </g>
      </g>
      <g
   id="g874">
       <g
   id="id129">
        <g
   id="text877"><path
     d="m 8820.5,9686.4878 c -5.6289,22.915 -12.4632,38.7947 -20.5029,47.6392 -8.041,8.8443 -18.6945,18.0907 -31.9605,27.7392 -14.4732,10.0504 -31.5589,18.4927 -51.2573,25.3272 -19.6994,7.2362 -41.6094,9.0452 -65.73,5.4272 l -169.4507,-23.5181 c -6.8345,-0.8041 -13.0658,-0.8041 -18.6938,0 -5.2265,0.804 -10.2517,1.206 -15.0757,1.2061 -8.4426,-1e-4 -19.2971,1.809 -32.5635,5.4272 -12.8648,4.0201 -22.9152,9.6484 -30.1513,16.8848 l -58.4937,-95.8813 c 7.2362,-8.0404 13.6685,-13.6687 19.2969,-16.8848 5.6281,-3.2162 12.2614,-6.6333 19.8999,-10.2515 23.3169,-10.8545 48.242,-17.4877 74.7754,-19.8999 11.2562,-0.804 22.3117,-1.005 33.1665,-0.603 10.8542,0.402 22.1107,0 33.7695,-1.2061 21.7087,3.6182 43.4176,7.0354 65.127,10.2515 22.1106,2.8141 44.2216,5.8293 66.333,9.0454 24.1206,0 40.4023,-2.4121 48.8452,-7.2363 4.4217,-2.4121 11.457,-6.8343 21.1059,-13.2666 9.648,-6.4323 19.2964,-15.8797 28.9454,-28.3423 -21.3075,-2.4121 -43.0165,-6.4322 -65.127,-12.0605 -22.1114,-6.0302 -41.6093,-12.2615 -58.4937,-18.6939 l 62.7149,-155.581 c -31.3579,-18.0906 -53.2678,-32.5633 -65.73,-43.418 -12.4629,-11.2562 -22.3124,-24.1208 -29.5483,-38.5938 -10.4529,-18.4925 -17.2872,-36.3823 -20.503,-53.6694 -2.8144,-17.2864 -4.0205,-32.7641 -3.6181,-46.4331 0.4016,-24.1207 6.0299,-50.6538 16.8847,-79.5996 11.2562,-29.3468 32.1611,-55.478 62.7149,-78.3936 25.3267,-19.2962 50.0508,-39.1961 74.1724,-59.6997 24.1205,-20.5022 48.0406,-44.4223 71.7602,-71.7602 -29.7499,-15.276 -44.6246,-39.5981 -44.624,-72.9663 -6e-4,-22.5123 7.8388,-41.8091 23.518,-57.8907 16.0802,-16.0798 35.5781,-24.1202 58.4937,-24.1211 22.5124,9e-4 41.8092,8.0413 57.8906,24.1211 16.0801,16.0816 24.1204,35.3784 24.1211,57.8907 -7e-4,32.9662 -14.8753,57.2883 -44.624,72.9663 23.3164,27.3379 46.8344,51.258 70.5542,71.7602 24.1203,20.5036 49.2465,40.4035 75.3784,59.6997 30.1505,22.9156 50.6535,49.0468 61.5088,78.3936 10.8536,28.9458 16.6829,55.4789 17.4878,79.5996 -9e-4,13.669 -1.4079,29.1467 -4.2212,46.4331 -2.815,17.2871 -9.2473,35.1769 -19.2969,53.6694 -8.0412,14.473 -18.2926,27.3376 -30.7544,38.5938 -12.0613,10.8547 -33.5693,25.3274 -64.5239,43.418 l 62.7149,155.581 c -17.6897,6.4324 -37.5895,12.6637 -59.6998,18.6939 -22.1117,5.6283 -43.4186,9.6484 -63.9209,12.0605 9.2458,12.4626 18.6932,21.91 28.3423,28.3423 9.6477,6.4323 16.8841,10.8545 21.709,13.2666 8.4416,4.8242 24.7234,7.2363 48.8452,7.2363 21.7082,-3.2161 43.4172,-6.2313 65.127,-9.0454 22.1101,-3.2161 44.2211,-6.6333 66.333,-10.2515 10.8535,1.2061 21.708,1.6081 32.5635,1.2061 11.2555,-0.402 22.713,-0.201 34.3725,0.603 25.7282,2.4122 50.6533,9.0454 74.7754,19.8999 7.2353,3.6182 13.6676,7.0353 19.2969,10.2515 6.0292,3.2161 12.6625,8.8444 19.8999,16.8848 l -59.0967,95.8813 c -7.2374,-7.2364 -17.4888,-12.8647 -30.7544,-16.8848 -12.8656,-3.6182 -23.318,-5.4273 -31.3574,-5.4272 -5.2272,-1e-4 -10.6545,-0.4021 -16.2817,-1.2061 -5.2272,-0.8041 -11.2575,-0.8041 -18.0909,0 l -168.8476,23.5181 c -24.1219,3.618 -46.6349,2.01 -67.5391,-4.8242 -20.5036,-6.8344 -37.3884,-15.8798 -50.6543,-27.1362 -13.2672,-10.8546 -23.9207,-20.302 -31.9604,-28.3423 -7.639,-7.6384 -14.0713,-22.9151 -19.2969,-45.8301"
     id="path4383"
     style="fill:#ffffff;stroke:none" /></g>
       </g>
      </g>
      <g
   id="g885">
       <g
   id="id130">
        <g
   id="text888"><path
     d="m 8798.791,9236.6294 -50.0513,-0.603 c -13.6691,4e-4 -20.5034,-6.8339 -20.5029,-20.503 l 0,0 c -5e-4,-13.6681 6.8338,-20.5024 20.5029,-20.5029 l 50.0513,0 0,-51.8603 c -6e-4,-14.0701 7.2357,-21.1055 21.709,-21.106 l 0,0 c 14.07,5e-4 21.1053,7.0359 21.106,21.106 l 0,51.8603 51.8603,0 c 13.2659,5e-4 19.8992,6.8348 19.8999,20.5029 l 0,0 c -7e-4,13.6691 -6.634,20.5034 -19.8999,20.503 l -51.8603,0 0,49.4482 c -7e-4,14.473 -7.036,21.7094 -21.106,21.709 l 0,0 c -14.4733,4e-4 -21.7096,-7.236 -21.709,-21.709 l 0,-48.8452 m 21.709,348.5498 c 27.3366,10e-5 53.8698,-2.211 79.5996,-6.6333 26.1305,-4.8241 51.2566,-10.4524 75.3784,-16.8848 -47.0368,-12.4624 -98.6961,-18.6937 -154.978,-18.6938 -57.0871,10e-5 -108.7464,6.2314 -154.978,18.6938 23.3165,6.4324 48.0406,12.0607 74.1723,16.8848 26.1307,4.4223 53.0659,6.6334 80.8057,6.6333 m 0,-656.6968 c 27.3366,8e-4 41.0052,-13.6678 41.0059,-41.0058 -7e-4,-27.3365 -13.6693,-41.0051 -41.0059,-41.0059 -27.3378,8e-4 -41.0064,13.6694 -41.0059,41.0059 -5e-4,27.338 13.6681,41.0066 41.0059,41.0058 m 0,572.273 c 47.0355,10e-5 92.2625,4.6233 135.6812,13.8696 l -28.9454,-74.1724 c -35.3783,-5.628 -70.9568,-8.4421 -106.7358,-8.4423 -36.5842,2e-4 -72.3638,2.8143 -107.3389,8.4423 l -28.9453,74.1724 c 43.0154,-9.2463 88.4435,-13.8695 136.2842,-13.8696 m 0,-109.751 c 38.9951,3e-4 76.3828,3.0154 112.1631,9.0454 39.397,-14.0704 67.9403,-35.9803 85.6299,-65.73 15.2758,-25.7288 22.9142,-54.071 22.915,-85.0268 -8e-4,-18.4924 -4.624,-38.7943 -13.8696,-60.9058 -9.2473,-22.5125 -24.3229,-42.8144 -45.2271,-60.9058 -23.7198,-19.6983 -49.65,-41.2062 -77.7905,-64.5239 -28.1419,-23.7184 -56.0822,-51.2566 -83.8208,-82.6147 -28.1419,31.3581 -56.2831,58.8963 -84.4238,82.6147 -28.1418,23.3177 -53.871,44.8256 -77.1875,64.5239 -21.3074,18.0914 -36.5841,38.3933 -45.8301,60.9058 -8.8448,22.1115 -13.267,42.4134 -13.2666,60.9058 -4e-4,30.9558 7.4369,59.298 22.312,85.0268 17.2864,29.7497 46.0306,51.6596 86.2329,65.73 35.3771,-6.03 72.7647,-9.0451 112.1631,-9.0454 m -21.709,227.3413 -19.2969,0 c -22.5135,36.1817 -44.0215,58.8957 -64.5239,68.1421 -9.6489,4.8242 -20.3024,9.2464 -31.9604,13.2666 -11.659,4.0201 -25.1266,6.0302 -40.4029,6.0303 -2.8145,-10e-5 -24.3225,-3.2162 -64.5239,-9.6485 -19.2972,-2.8141 -34.5739,-5.8293 -45.8301,-9.0454 -11.2568,-3.2161 -20.1012,-5.2262 -26.5332,-6.0303 -22.9153,-2.8141 -49.6495,-1.608 -80.2026,3.6182 -18.4931,3.2161 -35.7798,9.0454 -51.8604,17.4878 l 28.9454,47.0361 c 4.824,-4.8243 11.0552,-8.0404 18.6938,-9.6484 8.0401,-1.2061 15.2765,-2.6132 21.709,-4.2212 16.8845,-2.8142 32.9652,-3.2162 48.2422,-1.206 5.2259,1.2059 15.4774,2.613 30.7544,4.2211 15.2763,2.0101 35.5782,5.0252 60.9057,9.0455 30.151,4.4221 50.6539,6.6332 61.5088,6.6333 42.2114,-1e-4 74.5739,-8.0405 97.0874,-24.1211 13.6681,-10.4526 26.5327,-25.1262 38.5938,-44.021 12.4619,-18.4929 18.6932,-41.0059 18.6938,-67.5391 m 21.709,68.1421 c -5.6289,22.915 -12.4632,38.7947 -20.5029,47.6392 -8.041,8.8443 -18.6945,18.0907 -31.9605,27.7392 -14.4732,10.0504 -31.5589,18.4927 -51.2573,25.3272 -19.6994,7.2362 -41.6094,9.0452 -65.73,5.4272 l -169.4507,-23.5181 c -6.8345,-0.8041 -13.0658,-0.8041 -18.6938,0 -5.2265,0.804 -10.2517,1.206 -15.0757,1.2061 -8.4426,-1e-4 -19.2971,1.809 -32.5635,5.4272 -12.8648,4.0201 -22.9152,9.6484 -30.1513,16.8848 l -58.4937,-95.8813 c 7.2362,-8.0404 13.6685,-13.6687 19.2969,-16.8848 5.6281,-3.2162 12.2614,-6.6333 19.8999,-10.2515 23.3169,-10.8545 48.242,-17.4877 74.7754,-19.8999 11.2562,-0.804 22.3117,-1.005 33.1665,-0.603 10.8542,0.402 22.1107,0 33.7695,-1.2061 21.7087,3.6182 43.4176,7.0354 65.127,10.2515 22.1106,2.8141 44.2216,5.8293 66.333,9.0454 24.1206,0 40.4023,-2.4121 48.8452,-7.2363 4.4217,-2.4121 11.457,-6.8343 21.1059,-13.2666 9.648,-6.4323 19.2964,-15.8797 28.9454,-28.3423 -21.3075,-2.4121 -43.0165,-6.4322 -65.127,-12.0605 -22.1114,-6.0302 -41.6093,-12.2615 -58.4937,-18.6939 l 62.7149,-155.581 c -31.3579,-18.0906 -53.2678,-32.5633 -65.73,-43.418 -12.4629,-11.2562 -22.3124,-24.1208 -29.5483,-38.5938 -10.4529,-18.4925 -17.2872,-36.3823 -20.503,-53.6694 -2.8144,-17.2864 -4.0205,-32.7641 -3.6181,-46.4331 0.4016,-24.1207 6.0299,-50.6538 16.8847,-79.5996 11.2562,-29.3468 32.1611,-55.478 62.7149,-78.3936 25.3267,-19.2962 50.0508,-39.1961 74.1724,-59.6997 24.1205,-20.5022 48.0406,-44.4223 71.7602,-71.7602 -29.7499,-15.276 -44.6246,-39.5981 -44.624,-72.9663 -6e-4,-22.5123 7.8388,-41.8091 23.518,-57.8907 16.0802,-16.0798 35.5781,-24.1202 58.4937,-24.1211 22.5124,9e-4 41.8092,8.0413 57.8906,24.1211 16.0801,16.0816 24.1204,35.3784 24.1211,57.8907 -7e-4,32.9662 -14.8753,57.2883 -44.624,72.9663 23.3164,27.3379 46.8344,51.258 70.5542,71.7602 24.1203,20.5036 49.2465,40.4035 75.3784,59.6997 30.1505,22.9156 50.6535,49.0468 61.5088,78.3936 10.8536,28.9458 16.6829,55.4789 17.4878,79.5996 -9e-4,13.669 -1.4079,29.1467 -4.2212,46.4331 -2.815,17.2871 -9.2473,35.1769 -19.2969,53.6694 -8.0412,14.473 -18.2926,27.3376 -30.7544,38.5938 -12.0613,10.8547 -33.5693,25.3274 -64.5239,43.418 l 62.7149,155.581 c -17.6897,6.4324 -37.5895,12.6637 -59.6998,18.6939 -22.1117,5.6283 -43.4186,9.6484 -63.9209,12.0605 9.2458,12.4626 18.6932,21.91 28.3423,28.3423 9.6477,6.4323 16.8841,10.8545 21.709,13.2666 8.4416,4.8242 24.7234,7.2363 48.8452,7.2363 21.7082,-3.2161 43.4172,-6.2313 65.127,-9.0454 22.1101,-3.2161 44.2211,-6.6333 66.333,-10.2515 10.8535,1.2061 21.708,1.6081 32.5635,1.2061 11.2555,-0.402 22.713,-0.201 34.3725,0.603 25.7282,2.4122 50.6533,9.0454 74.7754,19.8999 7.2353,3.6182 13.6676,7.0353 19.2969,10.2515 6.0292,3.2161 12.6625,8.8444 19.8999,16.8848 l -59.0967,95.8813 c -7.2374,-7.2364 -17.4888,-12.8647 -30.7544,-16.8848 -12.8656,-3.6182 -23.318,-5.4273 -31.3574,-5.4272 -5.2272,-1e-4 -10.6545,-0.4021 -16.2817,-1.2061 -5.2272,-0.8041 -11.2575,-0.8041 -18.0909,0 l -168.8476,23.5181 c -24.1219,3.618 -46.6349,2.01 -67.5391,-4.8242 -20.5036,-6.8344 -37.3884,-15.8798 -50.6543,-27.1362 -13.2672,-10.8546 -23.9207,-20.302 -31.9604,-28.3423 -7.639,-7.6384 -14.0713,-22.9151 -19.2969,-45.8301 m 21.106,-68.1421 c -7e-4,26.5332 6.0296,49.0462 18.0908,67.5391 12.4619,18.8948 25.7285,33.5684 39.7998,44.021 22.1103,16.0806 54.4727,24.121 97.0874,24.1211 10.4517,-1e-4 30.9546,-2.2112 61.5088,-6.6333 24.9242,-4.0203 45.0251,-7.0354 60.3027,-9.0455 15.2758,-1.6081 25.5272,-3.0152 30.7544,-4.2211 15.2757,-2.0102 31.3564,-1.6082 48.2422,1.206 6.4313,1.608 13.4666,3.0151 21.1059,4.2212 8.0394,1.608 14.6727,4.8241 19.8999,9.6484 l 28.9454,-47.0361 c -16.4838,-8.4424 -33.9716,-14.2717 -52.4634,-17.4878 -30.5544,-5.2262 -57.2886,-6.4323 -80.2027,-3.6182 -6.8352,0.8041 -15.8806,2.8142 -27.1362,6.0303 -10.8554,3.2161 -25.73,6.2313 -44.624,9.0454 -40.6047,6.4323 -62.1126,9.6484 -64.5239,9.6485 -15.6795,-10e-5 -29.3481,-2.0102 -41.0059,-6.0303 -11.6593,-4.0202 -22.1117,-8.4424 -31.3574,-13.2666 -21.3077,-9.6485 -43.0166,-32.3625 -65.127,-68.1421 l -19.2968,0"
     id="path4386"
     style="fill:#000000;stroke:none" /></g>
       </g>
      </g>
      <g
   id="g896">
       <g
   id="id131">
        <path
   d="m 10586,7760 -882,0 -441,764 441,764 882,0 441,-764 -441,-764 z"
   id="path899"
   style="fill:#d18b47;stroke:none" />
       </g>
      </g>
      <g
   id="g901">
       <g
   id="id132">
        <path
   d="m 11909,6996 -882,0 -441,764 441,764 882,0 441,-764 -441,-764 z"
   id="path904"
   style="fill:#ffce9e;stroke:none" />
       </g>
      </g>
      <g
   id="g906">
       <g
   id="id133">
        <path
   d="m 13232,6232 -882,0 -441,764 441,764 882,0 441,-764 -441,-764 z"
   id="path909"
   style="fill:#e8ab6f;stroke:none" />
       </g>
      </g>
      <g
   id="g911">
       <g
   id="id134">
        <path
   d="m 14555,5469 -882,0 -441,764 441,764 882,0 441,-764 -441,-764 z"
   id="path914"
   style="fill:#d18b47;stroke:none" />
       </g>
      </g>
      <g
   id="g916">
       <g
   id="id135">
        <path
   d="m 15878,4705 -882,0 -441,764 441,764 882,0 441,-764 -441,-764 z"
   id="path919"
   style="fill:#ffce9e;stroke:none" />
       </g>
      </g>
      <g
   id="g921">
       <g
   id="id136" />
      </g>
      <g
   id="g924">
       <g
   id="id137">
        <g
   id="text927"><path
     d="m 16954.236,4660.832 c -14.994,-102.3119 -82.026,-163.17 -177.282,-163.17 -68.796,0 -130.536,33.5161 -167.58,89.082 -38.808,60.8579 -56.448,137.5921 -56.448,251.37 0,104.9579 15.876,171.9901 52.92,227.556 33.516,50.2739 88.2,77.616 156.996,77.616 119.07,0 204.624,-88.2001 204.624,-210.798 0,-116.4239 -79.38,-198.45 -191.394,-198.45 -61.74,0 -110.25,23.814 -143.766,69.678 0.882,-152.5858 50.274,-237.258 139.356,-237.258 54.684,0 92.61,34.3981 104.958,94.374 l 77.616,0 m -187.866,142.002 c 74.97,0 121.716,52.0381 121.716,135.828 0,78.4979 -52.92,135.828 -124.362,135.828 -72.324,0 -127.008,-59.9761 -127.008,-140.238 0,-77.6159 52.92,-131.418 129.654,-131.418"
     id="path4389"
     style="fill:#000000;stroke:none" /></g>
       </g>
      </g>
      <g
   id="g935">
       <g
   id="id138" />
      </g>
      <g
   id="g938">
       <g
   id="id139">
        <g
   id="text941"><path
     d="m 2421.64,3733.662 -418.068,0 0,76.734 337.806,0 C 2192.3201,4022.9578 2131.462,4153.4942 2084.716,4359 l 82.908,0 c 34.398,-200.2138 112.8961,-372.2042 254.016,-560.07 l 0,-65.268"
     id="path4392"
     style="fill:#000000;stroke:none" /></g>
       </g>
      </g>
      <g
   id="g949">
       <g
   id="id140">
        <path
   d="m 4413,4705 -441,-764 -882,0 -441,764 441,764 882,0 441,-764 z"
   id="path952"
   style="fill:#e8ab6f;stroke:none" />
       </g>
      </g>
      <g
   id="g954">
       <g
   id="id141">
        <path
   d="m 5735,5469 -441,-764 -882,0 -441,764 441,764 882,0 441,-764 z"
   id="path957"
   style="fill:#ffce9e;stroke:none" />
       </g>
      </g>
      <g
   id="g959">
       <g
   id="id142">
        <path
   d="m 7058,6233 -441,-764 -882,0 -441,764 441,764 882,0 441,-764 z"
   id="path962"
   style="fill:#d18b47;stroke:none" />
       </g>
      </g>
      <g
   id="g964">
       <g
   id="id143">
        <path
   d="m 8381,6996 -441,-764 -882,0 -441,764 441,764 882,0 441,-764 z"
   id="path967"
   style="fill:#e8ab6f;stroke:none" />
       </g>
      </g>
      <g
   id="g969">
       <g
   id="id144">
        <g
   id="text972"><path
     d="m 7497.5,6844.9238 c 46.6335,6e-4 86.4332,16.6843 119.3994,50.0513 33.3668,32.9659 50.0505,72.7657 50.0513,119.3994 -8e-4,47.0365 -16.6845,87.0372 -50.0513,120.0025 -32.9662,32.9657 -72.7659,49.4484 -119.3994,49.4482 -47.0367,2e-4 -87.0375,-16.4825 -120.0024,-49.4482 -32.966,-32.9653 -49.4487,-72.966 -49.4483,-120.0025 -4e-4,-46.6337 16.4823,-86.4335 49.4483,-119.3994 32.9649,-33.367 72.9657,-50.0507 120.0024,-50.0513"
     id="path4395"
     style="fill:#ffffff;stroke:none" /></g>
       </g>
      </g>
      <g
   id="g980">
       <g
   id="id145">
        <g
   id="text983"><path
     d="m 7497.5,6844.9238 c 46.6335,6e-4 86.4332,16.6843 119.3994,50.0513 33.3668,32.9659 50.0505,72.7657 50.0513,119.3994 -8e-4,47.0365 -16.6845,87.0372 -50.0513,120.0025 -32.9662,32.9657 -72.7659,49.4484 -119.3994,49.4482 -47.0367,2e-4 -87.0375,-16.4825 -120.0024,-49.4482 -32.966,-32.9653 -49.4487,-72.966 -49.4483,-120.0025 -4e-4,-46.6337 16.4823,-86.4335 49.4483,-119.3994 32.9649,-33.367 72.9657,-50.0507 120.0024,-50.0513"
     id="path4398"
     style="fill:#000000;stroke:none" /></g>
       </g>
      </g>
      <g
   id="g991">
       <g
   id="id146">
        <path
   d="m 9263,6996 -882,0 -441,764 441,764 882,0 441,-764 -441,-764 z"
   id="path994"
   style="fill:#ffce9e;stroke:none" />
       </g>
      </g>
      <g
   id="g996">
       <g
   id="id147">
        <path
   d="m 10586,6232 -882,0 -441,764 441,764 882,0 441,-764 -441,-764 z"
   id="path999"
   style="fill:#e8ab6f;stroke:none" />
       </g>
      </g>
      <g
   id="g1001">
       <g
   id="id148">
        <g
   id="text1004"><path
     d="m 10143.5,6844.9238 c 46.633,6e-4 86.433,16.6843 119.399,50.0513 33.367,32.9659 50.051,72.7657 50.052,119.3994 -10e-4,47.0365 -16.685,87.0372 -50.052,120.0025 -32.966,32.9657 -72.766,49.4484 -119.399,49.4482 -47.037,2e-4 -87.037,-16.4825 -120.002,-49.4482 -32.9664,-32.9653 -49.4491,-72.966 -49.4487,-120.0025 -4e-4,-46.6337 16.4823,-86.4335 49.4487,-119.3994 32.965,-33.367 72.965,-50.0507 120.002,-50.0513"
     id="path4401"
     style="fill:#ffffff;stroke:none" /></g>
       </g>
      </g>
      <g
   id="g1012">
       <g
   id="id149">
        <g
   id="text1015"><path
     d="m 10143.5,6844.9238 c 46.633,6e-4 86.433,16.6843 119.399,50.0513 33.367,32.9659 50.051,72.7657 50.052,119.3994 -10e-4,47.0365 -16.685,87.0372 -50.052,120.0025 -32.966,32.9657 -72.766,49.4484 -119.399,49.4482 -47.037,2e-4 -87.037,-16.4825 -120.002,-49.4482 -32.9664,-32.9653 -49.4491,-72.966 -49.4487,-120.0025 -4e-4,-46.6337 16.4823,-86.4335 49.4487,-119.3994 32.965,-33.367 72.965,-50.0507 120.002,-50.0513"
     id="path4404"
     style="fill:#000000;stroke:none" /></g>
       </g>
      </g>
      <g
   id="g1023">
       <g
   id="id150">
        <path
   d="m 11909,5469 -882,0 -441,764 441,764 882,0 441,-764 -441,-764 z"
   id="path1026"
   style="fill:#d18b47;stroke:none" />
       </g>
      </g>
      <g
   id="g1028">
       <g
   id="id151">
        <path
   d="m 13232,4705 -882,0 -441,764 441,764 882,0 441,-764 -441,-764 z"
   id="path1031"
   style="fill:#ffce9e;stroke:none" />
       </g>
      </g>
      <g
   id="g1033">
       <g
   id="id152">
        <path
   d="m 14555,3941 -882,0 -441,764 441,764 882,0 441,-764 -441,-764 z"
   id="path1036"
   style="fill:#e8ab6f;stroke:none" />
       </g>
      </g>
      <g
   id="g1038">
       <g
   id="id153" />
      </g>
      <g
   id="g1041">
       <g
   id="id154">
        <g
   id="text1044"><path
     d="m 15650.64,3733.662 -418.068,0 0,76.734 337.806,0 c -149.058,212.5618 -209.916,343.0982 -256.662,548.604 l 82.908,0 c 34.398,-200.2138 112.896,-372.2042 254.016,-560.07 l 0,-65.268"
     id="path4407"
     style="fill:#000000;stroke:none" /></g>
       </g>
      </g>
      <g
   id="g1052">
       <g
   id="id155" />
      </g>
      <g
   id="g1055">
       <g
   id="id156">
        <g
   id="text1058"><path
     d="m 3630.862,3267.014 c 64.3859,-38.808 85.554,-70.5601 85.554,-129.654 0,-97.9019 -76.7341,-166.698 -187.866,-166.698 -110.2499,0 -187.866,68.7961 -187.866,166.698 0,58.2119 21.1681,89.964 84.672,129.654 -71.4419,34.398 -106.722,86.4361 -106.722,155.232 0,114.6599 86.4361,194.04 209.916,194.04 123.4799,0 209.916,-79.3801 209.916,-193.158 0,-69.6779 -35.2801,-121.716 -107.604,-156.114 M 3528.55,3039.458 c 66.1499,0 108.486,38.8081 108.486,99.666 0,58.2119 -43.2181,97.02 -108.486,97.02 -65.2679,0 -108.486,-38.8081 -108.486,-97.902 0,-59.9759 43.2181,-98.784 108.486,-98.784 m 0,261.954 c 77.6159,0 130.536,49.3921 130.536,122.598 0,74.0879 -52.9201,123.48 -132.3,123.48 -75.8519,0 -128.772,-50.2741 -128.772,-123.48 0,-73.2059 52.9201,-122.598 130.536,-122.598"
     id="path4410"
     style="fill:#000000;stroke:none" /></g>
       </g>
      </g>
      <g
   id="g1066">
       <g
   id="id157">
        <path
   d="m 5735,3941 -441,-764 -882,0 -441,764 441,764 882,0 441,-764 z"
   id="path1069"
   style="fill:#d18b47;stroke:none" />
       </g>
      </g>
      <g
   id="g1071">
       <g
   id="id158">
        <path
   d="m 7058,4705 -441,-764 -882,0 -441,764 441,764 882,0 441,-764 z"
   id="path1074"
   style="fill:#e8ab6f;stroke:none" />
       </g>
      </g>
      <g
   id="g1076">
       <g
   id="id159">
        <g
   id="text1079"><path
     d="m 6176.5,4553.9238 c 46.6335,6e-4 86.4332,16.6843 119.3994,50.0513 33.3668,32.9659 50.0505,72.7657 50.0513,119.3994 -8e-4,47.0365 -16.6845,87.0372 -50.0513,120.0025 -32.9662,32.9657 -72.7659,49.4484 -119.3994,49.4482 -47.0367,2e-4 -87.0375,-16.4825 -120.0024,-49.4482 -32.966,-32.9653 -49.4487,-72.966 -49.4483,-120.0025 -4e-4,-46.6337 16.4823,-86.4335 49.4483,-119.3994 32.9649,-33.367 72.9657,-50.0507 120.0024,-50.0513"
     id="path4413"
     style="fill:#ffffff;stroke:none" /></g>
       </g>
      </g>
      <g
   id="g1087">
       <g
   id="id160">
        <g
   id="text1090"><path
     d="m 6176.5,4553.9238 c 46.6335,6e-4 86.4332,16.6843 119.3994,50.0513 33.3668,32.9659 50.0505,72.7657 50.0513,119.3994 -8e-4,47.0365 -16.6845,87.0372 -50.0513,120.0025 -32.9662,32.9657 -72.7659,49.4484 -119.3994,49.4482 -47.0367,2e-4 -87.0375,-16.4825 -120.0024,-49.4482 -32.966,-32.9653 -49.4487,-72.966 -49.4483,-120.0025 -4e-4,-46.6337 16.4823,-86.4335 49.4483,-119.3994 32.9649,-33.367 72.9657,-50.0507 120.0024,-50.0513"
     id="path4416"
     style="fill:#000000;stroke:none" /></g>
       </g>
      </g>
      <g
   id="g1098">
       <g
   id="id161">
        <path
   d="m 8381,5469 -441,-764 -882,0 -441,764 441,764 882,0 441,-764 z"
   id="path1101"
   style="fill:#ffce9e;stroke:none" />
       </g>
      </g>
      <g
   id="g1103">
       <g
   id="id162">
        <path
   d="m 9263,5469 -882,0 -441,764 441,764 882,0 441,-764 -441,-764 z"
   id="path1106"
   style="fill:#d18b47;stroke:none" />
       </g>
      </g>
      <g
   id="g1108">
       <g
   id="id163">
        <path
   d="m 10586,4705 -882,0 -441,764 441,764 882,0 441,-764 -441,-764 z"
   id="path1111"
   style="fill:#ffce9e;stroke:none" />
       </g>
      </g>
      <g
   id="g1113">
       <g
   id="id164">
        <path
   d="m 11909,3941 -882,0 -441,764 441,764 882,0 441,-764 -441,-764 z"
   id="path1116"
   style="fill:#e8ab6f;stroke:none" />
       </g>
      </g>
      <g
   id="g1118">
       <g
   id="id165">
        <g
   id="text1121"><path
     d="m 11467.5,4553.9238 c 46.633,6e-4 86.433,16.6843 119.399,50.0513 33.367,32.9659 50.051,72.7657 50.052,119.3994 -10e-4,47.0365 -16.685,87.0372 -50.052,120.0025 -32.966,32.9657 -72.766,49.4484 -119.399,49.4482 -47.037,2e-4 -87.037,-16.4825 -120.002,-49.4482 -32.966,-32.9653 -49.449,-72.966 -49.449,-120.0025 0,-46.6337 16.483,-86.4335 49.449,-119.3994 32.965,-33.367 72.965,-50.0507 120.002,-50.0513"
     id="path4419"
     style="fill:#ffffff;stroke:none" /></g>
       </g>
      </g>
      <g
   id="g1129">
       <g
   id="id166">
        <g
   id="text1132"><path
     d="m 11467.5,4553.9238 c 46.633,6e-4 86.433,16.6843 119.399,50.0513 33.367,32.9659 50.051,72.7657 50.052,119.3994 -10e-4,47.0365 -16.685,87.0372 -50.052,120.0025 -32.966,32.9657 -72.766,49.4484 -119.399,49.4482 -47.037,2e-4 -87.037,-16.4825 -120.002,-49.4482 -32.966,-32.9653 -49.449,-72.966 -49.449,-120.0025 0,-46.6337 16.483,-86.4335 49.449,-119.3994 32.965,-33.367 72.965,-50.0507 120.002,-50.0513"
     id="path4422"
     style="fill:#000000;stroke:none" /></g>
       </g>
      </g>
      <g
   id="g1140">
       <g
   id="id167">
        <path
   d="m 13232,3177 -882,0 -441,764 441,764 882,0 441,-764 -441,-764 z"
   id="path1143"
   style="fill:#d18b47;stroke:none" />
       </g>
      </g>
      <g
   id="g1145">
       <g
   id="id168" />
      </g>
      <g
   id="g1148">
       <g
   id="id169">
        <g
   id="text1151"><path
     d="m 14213.862,3267.014 c 64.386,-38.808 85.554,-70.5601 85.554,-129.654 0,-97.9019 -76.734,-166.698 -187.866,-166.698 -110.25,0 -187.866,68.7961 -187.866,166.698 0,58.2119 21.168,89.964 84.672,129.654 -71.442,34.398 -106.722,86.4361 -106.722,155.232 0,114.6599 86.436,194.04 209.916,194.04 123.48,0 209.916,-79.3801 209.916,-193.158 0,-69.6779 -35.28,-121.716 -107.604,-156.114 m -102.312,-227.556 c 66.15,0 108.486,38.8081 108.486,99.666 0,58.2119 -43.218,97.02 -108.486,97.02 -65.268,0 -108.486,-38.8081 -108.486,-97.902 0,-59.9759 43.218,-98.784 108.486,-98.784 m 0,261.954 c 77.616,0 130.536,49.3921 130.536,122.598 0,74.0879 -52.92,123.48 -132.3,123.48 -75.852,0 -128.772,-50.2741 -128.772,-123.48 0,-73.2059 52.92,-122.598 130.536,-122.598"
     id="path4425"
     style="fill:#000000;stroke:none" /></g>
       </g>
      </g>
      <g
   id="g1159">
       <g
   id="id170" />
      </g>
      <g
   id="g1162">
       <g
   id="id171">
        <g
   id="text1165"><path
     d="m 4655.746,2691.116 c 14.994,102.3119 82.0261,163.17 177.282,163.17 68.7959,0 131.418,-33.5161 167.58,-89.082 39.69,-60.8579 57.33,-137.5921 57.33,-251.37 0,-104.9579 -15.876,-171.9901 -52.92,-227.556 -34.398,-50.2739 -89.0821,-77.616 -157.878,-77.616 -119.0699,0 -204.624,88.2001 -204.624,210.798 0,116.4239 79.3801,198.45 192.276,198.45 59.0939,0 102.312,-21.168 142.884,-69.678 -0.882,152.5858 -50.2741,237.258 -139.356,237.258 -54.6839,0 -92.61,-34.3981 -104.958,-94.374 l -77.616,0 m 190.512,-414.54 c 72.3239,0 127.008,59.9761 127.008,141.12 0,76.7339 -53.8021,131.418 -129.654,131.418 -74.9699,0 -121.716,-52.0381 -121.716,-135.828 0,-79.3799 52.9201,-136.71 124.362,-136.71"
     id="path4428"
     style="fill:#000000;stroke:none" /></g>
       </g>
      </g>
      <g
   id="g1173">
       <g
   id="id172">
        <path
   d="m 7058,3177 -441,-764 -882,0 -441,764 441,764 882,0 441,-764 z"
   id="path1176"
   style="fill:#ffce9e;stroke:none" />
       </g>
      </g>
      <g
   id="g1178">
       <g
   id="id173">
        <path
   d="m 8381,3939 -441,-764 -882,0 -441,764 441,764 882,0 441,-764 z"
   id="path1181"
   style="fill:#d18b47;stroke:none" />
       </g>
      </g>
      <g
   id="g1183">
       <g
   id="id174">
        <path
   d="m 9263,3939 -882,0 -441,764 441,764 882,0 441,-764 -441,-764 z"
   id="path1186"
   style="fill:#e8ab6f;stroke:none" />
       </g>
      </g>
      <g
   id="g1188">
       <g
   id="id175">
        <path
   d="m 10586,3175 -882,0 -441,764 441,764 882,0 441,-764 -441,-764 z"
   id="path1191"
   style="fill:#d18b47;stroke:none" />
       </g>
      </g>
      <g
   id="g1193">
       <g
   id="id176">
        <path
   d="m 11909,2412 -882,0 -441,764 441,764 882,0 441,-764 -441,-764 z"
   id="path1196"
   style="fill:#ffce9e;stroke:none" />
       </g>
      </g>
      <g
   id="g1198">
       <g
   id="id177" />
      </g>
      <g
   id="g1201">
       <g
   id="id178">
        <g
   id="text1204"><path
     d="m 12590.746,2687.116 c 14.994,102.3119 82.026,163.17 177.282,163.17 68.796,0 131.418,-33.5161 167.58,-89.082 39.69,-60.8579 57.33,-137.5921 57.33,-251.37 0,-104.9579 -15.876,-171.9901 -52.92,-227.556 -34.398,-50.2739 -89.082,-77.616 -157.878,-77.616 -119.07,0 -204.624,88.2001 -204.624,210.798 0,116.4239 79.38,198.45 192.276,198.45 59.094,0 102.312,-21.168 142.884,-69.678 -0.882,152.5858 -50.274,237.258 -139.356,237.258 -54.684,0 -92.61,-34.3981 -104.958,-94.374 l -77.616,0 m 190.512,-414.54 c 72.324,0 127.008,59.9761 127.008,141.12 0,76.7339 -53.802,131.418 -129.654,131.418 -74.97,0 -121.716,-52.0381 -121.716,-135.828 0,-79.3799 52.92,-136.71 124.362,-136.71"
     id="path4431"
     style="fill:#000000;stroke:none" /></g>
       </g>
      </g>
      <g
   id="g1212">
       <g
   id="id179" />
      </g>
      <g
   id="g1215">
       <g
   id="id180">
        <g
   id="text1218"><path
     d="m 5912.438,1620.59 0,445.41 77.616,0 0,-625.338 -51.156,0 c -27.342,96.1379 -44.9821,109.368 -164.934,124.362 l 0,55.566 138.474,0"
     id="path4434"
     style="fill:#000000;stroke:none" /><path
     d="m 6417.507,1440.662 c -58.2119,0 -111.132,25.578 -143.766,68.796 -40.5719,54.6839 -60.858,138.4741 -60.858,254.016 0,210.7978 70.5602,322.812 204.624,322.812 132.2999,0 204.624,-112.0142 204.624,-317.52 0,-121.7159 -19.404,-202.8601 -60.858,-259.308 -32.6339,-44.1 -84.672,-68.796 -143.766,-68.796 m 0,68.796 c 83.7899,0 125.244,84.6722 125.244,252.252 0,177.2818 -40.5721,260.19 -127.008,260.19 -82.0259,0 -123.48,-86.4362 -123.48,-257.544 0,-171.1078 41.4541,-254.898 125.244,-254.898"
     id="path4436"
     style="fill:#000000;stroke:none" /></g>
       </g>
      </g>
      <g
   id="g1226">
       <g
   id="id181">
        <path
   d="m 8381,2412 -441,-764 -882,0 -441,764 441,764 882,0 441,-764 z"
   id="path1229"
   style="fill:#e8ab6f;stroke:none" />
       </g>
      </g>
      <g
   id="g1231">
       <g
   id="id182">
        <path
   d="m 9263,2412 -882,0 -441,764 441,764 882,0 441,-764 -441,-764 z"
   id="path1234"
   style="fill:#ffce9e;stroke:none" />
       </g>
      </g>
      <g
   id="g1236">
       <g
   id="id183">
        <path
   d="m 10586,1648 -882,0 -441,764 441,764 882,0 441,-764 -441,-764 z"
   id="path1239"
   style="fill:#e8ab6f;stroke:none" />
       </g>
      </g>
      <g
   id="g1241">
       <g
   id="id184" />
      </g>
      <g
   id="g1244">
       <g
   id="id185">
        <g
   id="text1247"><path
     d="m 11204.438,1620.59 0,445.41 77.616,0 0,-625.338 -51.156,0 c -27.342,96.1379 -44.982,109.368 -164.934,124.362 l 0,55.566 138.474,0"
     id="path4439"
     style="fill:#000000;stroke:none" /><path
     d="m 11709.507,1440.662 c -58.212,0 -111.132,25.578 -143.766,68.796 -40.572,54.6839 -60.858,138.4741 -60.858,254.016 0,210.7978 70.56,322.812 204.624,322.812 132.3,0 204.624,-112.0142 204.624,-317.52 0,-121.7159 -19.404,-202.8601 -60.858,-259.308 -32.634,-44.1 -84.672,-68.796 -143.766,-68.796 m 0,68.796 c 83.79,0 125.244,84.6722 125.244,252.252 0,177.2818 -40.572,260.19 -127.008,260.19 -82.026,0 -123.48,-86.4362 -123.48,-257.544 0,-171.1078 41.454,-254.898 125.244,-254.898"
     id="path4441"
     style="fill:#000000;stroke:none" /></g>
       </g>
      </g>
      <g
   id="g1255">
       <g
   id="id186" />
      </g>
      <g
   id="g1258">
       <g
   id="id187">
        <g
   id="text1261"><path
     d="m 7233.438,857.59 0,445.41 77.616,0 0,-625.338 -51.156,0 c -27.342,96.1379 -44.9821,109.36801 -164.934,124.362 l 0,55.566 138.474,0"
     id="path4444"
     style="fill:#000000;stroke:none" /><path
     d="m 7724.395,857.59 0,445.41 77.616,0 0,-625.338 -51.156,0 c -27.3419,96.1379 -44.9821,109.36801 -164.934,124.362 l 0,55.566 138.474,0"
     id="path4446"
     style="fill:#000000;stroke:none" /></g>
       </g>
      </g>
      <g
   id="g1269">
       <g
   id="id188">
        <path
   d="m 9263,884 -882,0 -441,764 441,764 882,0 441,-764 -441,-764 z"
   id="path1272"
   style="fill:#d18b47;stroke:none" />
       </g>
      </g>
      <g
   id="g1274">
       <g
   id="id189" />
      </g>
      <g
   id="g1277">
       <g
   id="id190">
        <g
   id="text1280"><path
     d="m 9879.438,857.59 0,445.41 77.616,0 0,-625.338 -51.156,0 c -27.342,96.1379 -44.9821,109.36801 -164.934,124.362 l 0,55.566 138.474,0"
     id="path4449"
     style="fill:#000000;stroke:none" /><path
     d="m 10370.395,857.59 0,445.41 77.616,0 0,-625.338 -51.156,0 c -27.342,96.1379 -44.982,109.36801 -164.934,124.362 l 0,55.566 138.474,0"
     id="path4451"
     style="fill:#000000;stroke:none" /></g>
       </g>
      </g>
     </g>
    </g>
   </g>
  </g>
 </g>
</svg>