<?xml version="1.0" encoding="UTF-8" standalone="no"?>
<!-- Created with Inkscape (http://www.inkscape.org/) -->

<svg
   xmlns:dc="http://purl.org/dc/elements/1.1/"
   xmlns:cc="http://creativecommons.org/ns#"
   xmlns:rdf="http://www.w3.org/1999/02/22-rdf-syntax-ns#"
   xmlns:svg="http://www.w3.org/2000/svg"
   xmlns="http://www.w3.org/2000/svg"
   version="1.1"
   width="176.42mm"
   height="193.34mm"
   viewBox="0 0 17642 19334"
   clip-path="url(#presentation_clip_path)"
   id="svg2"
   xml:space="preserve"
   style="fill-rule:evenodd;stroke-width:28.22200012;stroke-linejoin:round"><metadata
   id="metadata1290"><rdf:RDF><cc:Work
       rdf:about=""><dc:format>image/svg+xml</dc:format><dc:type
         rdf:resource="http://purl.org/dc/dcmitype/StillImage" /><dc:title></dc:title></cc:Work></rdf:RDF></metadata>
 <defs
   id="defs4">
  <clipPath
   id="presentation_clip_path">
   <rect
   width="17642"
   height="19334"
   x="0"
   y="0"
   id="rect7" />
  </clipPath>
 </defs>
 <defs
   id="defs9">
  
 </defs>
 <defs
   id="defs11">
  <g
   transform="scale(4.8828125e-4,-4.8828125e-4)"
   id="bullet-char-template57356">
   <path
   d="M 580,1141 1163,571 580,0 -4,571 580,1141 z"
   id="path14" />
  </g>
  <g
   transform="scale(4.8828125e-4,-4.8828125e-4)"
   id="bullet-char-template57354">
   <path
   d="m 8,1128 1129,0 L 1137,0 8,0 8,1128 z"
   id="path17" />
  </g>
  <g
   transform="scale(4.8828125e-4,-4.8828125e-4)"
   id="bullet-char-template10146">
   <path
   d="M 174,0 602,739 174,1481 1456,739 174,0 z m 1184,739 -1049,607 350,-607 699,0 z"
   id="path20" />
  </g>
  <g
   transform="scale(4.8828125e-4,-4.8828125e-4)"
   id="bullet-char-template10132">
   <path
   d="M 2015,739 1276,0 717,0 l 543,543 -1086,0 0,393 1086,0 -543,545 557,0 741,-742 z"
   id="path23" />
  </g>
  <g
   transform="scale(4.8828125e-4,-4.8828125e-4)"
   id="bullet-char-template10007">
   <path
   d="m 0,-2 c -7,16 -16,29 -25,39 l 381,530 c -94,256 -141,385 -141,387 0,25 13,38 40,38 9,0 21,-2 34,-5 21,4 42,12 65,25 l 27,-13 111,-251 280,301 64,-25 24,25 c 21,-10 41,-24 62,-43 C 886,937 835,863 770,784 769,783 710,716 594,584 L 774,223 c 0,-27 -21,-55 -63,-84 l 16,-20 C 717,90 699,76 672,76 641,76 570,178 457,381 L 164,-76 c -22,-34 -53,-51 -92,-51 -42,0 -63,17 -64,51 -7,9 -10,24 -10,44 0,9 1,19 2,30 z"
   id="path26" />
  </g>
  <g
   transform="scale(4.8828125e-4,-4.8828125e-4)"
   id="bullet-char-template10004">
   <path
   d="M 285,-33 C 182,-33 111,30 74,156 52,228 41,333 41,471 c 0,78 14,145 41,201 34,71 87,106 158,106 53,0 88,-31 106,-94 l 23,-176 c 8,-64 28,-97 59,-98 l 735,706 c 11,11 33,17 66,17 42,0 63,-15 63,-46 l 0,-122 c 0,-36 -10,-64 -30,-84 L 442,47 C 390,-6 338,-33 285,-33 z"
   id="path29" />
  </g>
  <g
   transform="scale(4.8828125e-4,-4.8828125e-4)"
   id="bullet-char-template9679">
   <path
   d="M 813,0 C 632,0 489,54 383,161 276,268 223,411 223,592 c 0,181 53,324 160,431 106,107 249,161 430,161 179,0 323,-54 432,-161 108,-107 162,-251 162,-431 0,-180 -54,-324 -162,-431 C 1136,54 992,0 813,0 z"
   id="path32" />
  </g>
  <g
   transform="scale(4.8828125e-4,-4.8828125e-4)"
   id="bullet-char-template8226">
   <path
   d="m 346,457 c -73,0 -137,26 -191,78 -54,51 -81,114 -81,188 0,73 27,136 81,188 54,52 118,78 191,78 73,0 134,-26 185,-79 51,-51 77,-114 77,-187 0,-75 -25,-137 -76,-188 -50,-52 -112,-78 -186,-78 z"
   id="path35" />
  </g>
  <g
   transform="scale(4.8828125e-4,-4.8828125e-4)"
   id="bullet-char-template8211">
   <path
   d="m -4,459 1139,0 0,147 -1139,0 0,-147 z"
   id="path38" />
  </g>
 </defs>
 <defs
   id="defs40" />
 <g
   id="g42">
  <g
   id="id2">
   <g
   id="bg-id2" />
   <g
   id="bo-id2" />
  </g>
 </g>
 <g
   id="g47">
  <g
   id="g49">
   <g
   clip-path="url(#presentation_clip_path)"
   id="id1">
    <g
   id="g52">
     <g
   id="g54">
      <g
   id="g56">
       <g
   id="id3">
        <path
   d="m 1767,13868 -441,-764 441,-764 -441,-763 441,-764 -441,-764 441,-764 -441,-763 441,-764 -441,-764 441,-764 -441,-763 441,-764 882,0 441,-764 882,0 441,-764 882,0 441,-763 882,0 441,-764 882,0 441,-764 882,0 440,764 882,0 441,764 882,0 441,763 882,0 441,764 882,0 441,764 882,0 441,764 -441,763 441,764 -441,764 441,764 -441,763 441,764 -441,764 441,764 -441,763 441,764 -441,764 -882,0 -441,764 -882,0 -441,764 -882,0 -441,763 -882,0 -441,764 -882,0 -440,764 -882,0 -441,-764 -882,0 -441,-764 -882,0 -441,-763 -882,0 -441,-764 -882,0 -441,-764 -882,0 z"
   id="path59"
   style="fill:none;stroke:#000000;stroke-width:141" />
       </g>
      </g>
      <g
   id="g61">
       <g
   id="id4">
        <path
   d="m 1767,13868 -441,-764 441,-764 -441,-763 441,-764 -441,-764 441,-764 -441,-763 441,-764 -441,-764 441,-764 -441,-763 441,-764 882,0 441,-764 882,0 441,-764 882,0 441,-763 882,0 441,-764 882,0 441,-764 882,0 440,764 882,0 441,764 882,0 441,763 882,0 441,764 882,0 441,764 882,0 441,764 -441,763 441,764 -441,764 441,764 -441,763 441,764 -441,764 441,764 -441,763 441,764 -441,764 -882,0 -441,764 -882,0 -441,764 -882,0 -441,763 -882,0 -441,764 -882,0 -440,764 -882,0 -441,-764 -882,0 -441,-764 -882,0 -441,-763 -882,0 -441,-764 -882,0 -441,-764 -882,0 z"
   id="path64"
   style="fill:#ffce9e;stroke:none" />
        <path
   d="m 1767,13868 -441,-764 441,-764 -441,-763 441,-764 -441,-764 441,-764 -441,-763 441,-764 -441,-764 441,-764 -441,-763 441,-764 882,0 441,-764 882,0 441,-764 882,0 441,-763 882,0 441,-764 882,0 441,-764 882,0 440,764 882,0 441,764 882,0 441,763 882,0 441,764 882,0 441,764 882,0 441,764 -441,763 441,764 -441,764 441,764 -441,763 441,764 -441,764 441,764 -441,763 441,764 -441,764 -882,0 -441,764 -882,0 -441,764 -882,0 -441,763 -882,0 -441,764 -882,0 -440,764 -882,0 -441,-764 -882,0 -441,-764 -882,0 -441,-763 -882,0 -441,-764 -882,0 -441,-764 -882,0 z"
   id="path66"
   style="fill:none;stroke:#000000" />
       </g>
      </g>
      <g
   id="g68">
       <g
   id="id5" />
      </g>
      <g
   id="g71">
       <g
   id="id6" />
      </g>
      <g
   id="g74">
       <g
   id="id7">
        <g
   id="text77"><path
     d="m 2434.87,15006.782 c -7.938,1.764 -11.466,1.764 -15.876,1.764 -25.578,0 -39.69,-13.23 -39.69,-36.162 l 0,-271.656 c 0,-82.026 -59.9761,-126.126 -173.754,-126.126 -67.0319,0 -122.598,19.404 -153.468,53.802 -21.168,23.814 -29.988,50.274 -31.752,96.138 l 74.088,0 c 6.174,-56.448 39.6901,-82.026 108.486,-82.026 66.1499,0 103.194,24.696 103.194,68.796 l 0,19.404 c 0,30.87 -18.5221,44.1 -76.734,51.156 -104.0759,13.23 -119.952,16.758 -148.176,28.224 -53.8019,22.05 -81.144,63.504 -81.144,123.48 0,83.79 58.2121,136.71 151.704,136.71 58.2119,0 104.9581,-20.286 156.996,-67.914 5.292,46.746 28.224,67.914 75.852,67.914 14.994,0 26.46,-1.764 50.274,-7.938 l 0,-55.566 m -128.772,-102.312 c 0,24.696 -7.056,39.69 -29.106,59.976 -29.988,27.342 -66.15,41.454 -109.368,41.454 -57.3299,0 -90.846,-27.342 -90.846,-74.088 0,-48.51 32.6341,-73.206 111.132,-84.672 77.6159,-10.584 93.492,-14.112 118.188,-25.578 l 0,82.908"
     id="path4268"
     style="fill:#000000;stroke:none" /></g>
       </g>
      </g>
      <g
   id="g85">
       <g
   id="id8" />
      </g>
      <g
   id="g88">
       <g
   id="id9">
        <g
   id="text91"><path
     d="m 3333.628,15173.022 0,642.978 66.15,0 0,-59.094 c 35.28,53.802 82.0261,79.38 146.412,79.38 121.7159,0 201.096,-99.666 201.096,-253.134 0,-149.94 -75.8521,-242.55 -197.568,-242.55 -63.5039,0 -108.486,23.814 -142.884,75.852 l 0,-243.432 -73.206,0 m 201.978,236.376 c 82.0259,0 134.946,71.442 134.946,181.692 0,104.958 -54.6841,176.4 -134.946,176.4 -77.6159,0 -128.772,-70.56 -128.772,-179.046 0,-108.486 51.1561,-179.046 128.772,-179.046"
     id="path4271"
     style="fill:#000000;stroke:none" /></g>
       </g>
      </g>
      <g
   id="g99">
       <g
   id="id10" />
      </g>
      <g
   id="g102">
       <g
   id="id11">
        <g
   id="text105"><path
     d="m 5049.422,16271.064 c -3.528,-44.982 -13.23,-74.088 -30.87,-99.666 -31.752,-43.218 -87.3181,-68.796 -151.704,-68.796 -124.3619,0 -205.506,98.784 -205.506,252.252 0,149.058 79.3801,243.432 204.624,243.432 110.2499,0 179.928,-66.15 188.748,-179.046 l -74.088,0 c -12.348,74.088 -50.2741,111.132 -112.896,111.132 -81.1439,0 -129.654,-66.15 -129.654,-175.518 0,-115.542 47.6281,-184.338 127.89,-184.338 61.7399,0 100.548,36.162 109.368,100.548 l 74.088,0"
     id="path4274"
     style="fill:#000000;stroke:none" /></g>
       </g>
      </g>
      <g
   id="g113">
       <g
   id="id12" />
      </g>
      <g
   id="g116">
       <g
   id="id13">
        <g
   id="text119"><path
     d="m 6367.59,16698.022 -73.206,0 0,239.022 c -30.87,-46.746 -80.2621,-71.442 -142.002,-71.442 -119.9519,0 -198.45,96.138 -198.45,243.432 0,156.114 76.7341,252.252 201.096,252.252 63.5039,0 107.604,-23.814 147.294,-81.144 l 0,60.858 65.268,0 0,-642.978 m -202.86,236.376 c 79.3799,0 129.654,70.56 129.654,180.81 0,106.722 -51.1561,177.282 -128.772,177.282 -81.1439,0 -134.946,-71.442 -134.946,-179.046 0,-107.604 53.8021,-179.046 134.064,-179.046"
     id="path4277"
     style="fill:#000000;stroke:none" /></g>
       </g>
      </g>
      <g
   id="g127">
       <g
   id="id14" />
      </g>
      <g
   id="g130">
       <g
   id="id15">
        <g
   id="text133"><path
     d="m 7705.466,17898.612 c 0,-70.56 -5.292,-112.896 -18.522,-147.294 -29.988,-75.852 -100.5481,-121.716 -186.984,-121.716 -128.7719,0 -211.68,98.784 -211.68,250.488 0,151.704 80.2621,245.196 209.916,245.196 105.8399,0 179.046,-59.976 197.568,-160.524 l -74.088,0 c -20.286,60.858 -61.7401,92.61 -120.834,92.61 -46.746,0 -86.436,-21.168 -111.132,-59.976 -17.64,-26.46 -23.814,-52.92 -24.696,-98.784 l 340.452,0 m -338.688,-59.976 c 6.174,-85.554 58.2121,-141.12 132.3,-141.12 72.3239,0 127.89,59.976 127.89,135.828 0,1.764 0,3.528 -0.882,5.292 l -259.308,0"
     id="path4280"
     style="fill:#000000;stroke:none" /></g>
       </g>
      </g>
      <g
   id="g141">
       <g
   id="id16" />
      </g>
      <g
   id="g144">
       <g
   id="id17">
        <g
   id="text147"><path
     d="m 8924.556,18408.832 -76.734,0 0,-72.324 c 0,-30.87 17.64,-46.746 51.156,-46.746 6.174,0 8.82,0 25.578,0.882 l 0,-60.858 c -16.758,-3.528 -26.46,-4.41 -41.454,-4.41 -67.9139,0 -108.486,38.808 -108.486,104.958 l 0,78.498 -61.74,0 0,59.976 61.74,0 0,402.192 73.206,0 0,-402.192 76.734,0 0,-59.976"
     id="path4283"
     style="fill:#000000;stroke:none" /></g>
       </g>
      </g>
      <g
   id="g155">
       <g
   id="id18" />
      </g>
      <g
   id="g158">
       <g
   id="id19">
        <g
   id="text161"><path
     d="m 10261.384,17642.832 0,67.032 c -37.044,-54.684 -82.026,-80.262 -141.12,-80.262 -117.306,0 -196.686,102.312 -196.686,252.252 0,75.852 20.286,137.592 58.212,181.692 34.398,38.808 83.79,61.74 132.3,61.74 58.212,0 98.784,-24.696 140.238,-82.908 l 0,23.814 c 0,62.622 -7.938,100.548 -26.46,126.126 -19.404,27.342 -57.33,43.218 -102.312,43.218 -33.516,0 -63.504,-8.82 -83.79,-24.696 -16.758,-13.23 -23.814,-25.578 -28.224,-52.92 l -74.97,0 c 7.938,87.318 75.852,139.356 184.338,139.356 68.796,0 127.89,-22.05 157.878,-59.094 35.28,-42.336 48.51,-100.548 48.51,-209.034 l 0,-386.316 -67.914,0 m -133.182,54.684 c 79.38,0 126.126,67.032 126.126,182.574 0,110.25 -47.628,177.282 -125.244,177.282 -80.262,0 -128.772,-67.914 -128.772,-179.928 0,-111.132 49.392,-179.928 127.89,-179.928"
     id="path4286"
     style="fill:#000000;stroke:none" /></g>
       </g>
      </g>
      <g
   id="g169">
       <g
   id="id20" />
      </g>
      <g
   id="g172">
       <g
   id="id21">
        <g
   id="text175"><path
     d="m 11282.74,16698.022 0,642.978 73.206,0 0,-254.898 c 0,-94.374 49.392,-156.114 125.244,-156.114 23.814,0 47.628,7.938 65.268,21.168 21.168,14.994 29.988,37.044 29.988,69.678 l 0,320.166 73.206,0 0,-349.272 c 0,-77.616 -55.566,-126.126 -145.53,-126.126 -65.268,0 -104.958,20.286 -148.176,76.734 l 0,-244.314 -73.206,0"
     id="path4289"
     style="fill:#000000;stroke:none" /></g>
       </g>
      </g>
      <g
   id="g183">
       <g
   id="id22" />
      </g>
      <g
   id="g186">
       <g
   id="id23">
        <g
   id="text189"><path
     d="m 12825.3,16115.832 -73.206,0 0,462.168 73.206,0 0,-462.168 m 0,-180.81 -74.088,0 0,92.61 74.088,0 0,-92.61"
     id="path4292"
     style="fill:#000000;stroke:none" /></g>
       </g>
      </g>
      <g
   id="g197">
       <g
   id="id24" />
      </g>
      <g
   id="g200">
       <g
   id="id25">
        <g
   id="text203"><path
     d="m 14018.362,15173.022 -73.206,0 0,642.978 73.206,0 0,-179.928 71.442,-70.56 156.114,250.488 90.846,0 -188.748,-302.526 160.524,-159.642 -94.374,0 -195.804,195.804 0,-376.614"
     id="path4295"
     style="fill:#000000;stroke:none" /></g>
       </g>
      </g>
      <g
   id="g211">
       <g
   id="id26" />
      </g>
      <g
   id="g214">
       <g
   id="id27">
        <g
   id="text217"><path
     d="m 15472.064,14407.022 -74.088,0 0,642.978 74.088,0 0,-642.978"
     id="path4298"
     style="fill:#000000;stroke:none" /></g>
       </g>
      </g>
      <g
   id="g225">
       <g
   id="id28" />
      </g>
      <g
   id="g228">
       <g
   id="id29">
        <g
   id="text231" />
       </g>
      </g>
      <g
   id="g239">
       <g
   id="id30" />
      </g>
      <g
   id="g242">
       <g
   id="id31">
        <g
   id="text245"><path
     d="m 868.438,12315.59 0,445.41 77.616,0 0,-625.338 -51.156,0 c -27.34197,96.138 -44.98212,109.368 -164.934,124.362 l 0,55.566 138.474,0"
     id="path4302"
     style="fill:#000000;stroke:none" /></g>
       </g>
      </g>
      <g
   id="g253">
       <g
   id="id32">
        <path
   d="m 3090,13104 -441,-764 -882,0 -441,764 441,764 882,0 441,-764 z"
   id="path256"
   style="fill:#d18b47;stroke:none" />
       </g>
      </g>
      <g
   id="g258">
       <g
   id="id33">
        <path
   d="m 4413,13868 -441,-764 -882,0 -441,764 441,764 882,0 441,-764 z"
   id="path261"
   style="fill:#e8ab6f;stroke:none" />
       </g>
      </g>
      <g
   id="g263">
       <g
   id="id34">
        <path
   d="m 5735,14632 -441,-764 -882,0 -441,764 441,764 882,0 441,-764 z"
   id="path266"
   style="fill:#ffce9e;stroke:none" />
       </g>
      </g>
      <g
   id="g268">
       <g
   id="id35">
        <path
   d="m 7058,15396 -441,-764 -882,0 -441,764 441,764 882,0 441,-764 z"
   id="path271"
   style="fill:#d18b47;stroke:none" />
       </g>
      </g>
      <g
   id="g273">
       <g
   id="id36">
        <path
   d="m 8381,16159 -441,-764 -882,0 -441,764 441,764 882,0 441,-764 z"
   id="path276"
   style="fill:#e8ab6f;stroke:none" />
       </g>
      </g>
      <g
   id="g278">
       <g
   id="id37">
        <path
   d="m 9263,16159 -882,0 -441,764 441,764 882,0 441,-764 -441,-764 z"
   id="path281"
   style="fill:#ffce9e;stroke:none" />
       </g>
      </g>
      <g
   id="g283">
       <g
   id="id38">
        <path
   d="m 10586,15395 -882,0 -441,764 441,764 882,0 441,-764 -441,-764 z"
   id="path286"
   style="fill:#e8ab6f;stroke:none" />
       </g>
      </g>
      <g
   id="g288">
       <g
   id="id39">
        <path
   d="m 11909,14632 -882,0 -441,764 441,764 882,0 441,-764 -441,-764 z"
   id="path291"
   style="fill:#d18b47;stroke:none" />
       </g>
      </g>
      <g
   id="g293">
       <g
   id="id40">
        <path
   d="m 13232,13870 -882,0 -441,764 441,764 882,0 441,-764 -441,-764 z"
   id="path296"
   style="fill:#ffce9e;stroke:none" />
       </g>
      </g>
      <g
   id="g298">
       <g
   id="id41">
        <path
   d="m 14555,13106 -882,0 -441,764 441,764 882,0 441,-764 -441,-764 z"
   id="path301"
   style="fill:#e8ab6f;stroke:none" />
       </g>
      </g>
      <g
   id="g303">
       <g
   id="id42">
        <path
   d="m 15878,12342 -882,0 -441,764 441,764 882,0 441,-764 -441,-764 z"
   id="path306"
   style="fill:#d18b47;stroke:none" />
       </g>
      </g>
      <g
   id="g308">
       <g
   id="id43" />
      </g>
      <g
   id="g311">
       <g
   id="id44">
        <g
   id="text314"><path
     d="m 16743.438,12315.59 0,445.41 77.616,0 0,-625.338 -51.156,0 c -27.342,96.138 -44.982,109.368 -164.934,124.362 l 0,55.566 138.474,0"
     id="path4305"
     style="fill:#000000;stroke:none" /></g>
       </g>
      </g>
      <g
   id="g322">
       <g
   id="id45" />
      </g>
      <g
   id="g325">
       <g
   id="id46">
        <g
   id="text328"><path
     d="m 1086.292,11158.266 -328.986,0 c 7.93799,-51.156 36.16208,-83.79 112.896,-128.772 l 88.2,-47.628 c 87.3179,-47.628 132.3,-112.014 132.3,-188.748 0,-52.038 -21.168,-100.548 -58.212,-134.064 -37.04396,-33.516 -82.90806,-49.392 -142.002,-49.392 -79.37992,0 -138.47403,28.224 -172.872,81.144 -22.04998,33.516 -31.752,72.324 -33.516,135.828 l 77.616,0 c 2.646,-42.336 7.93801,-67.914 18.522,-88.2 20.28598,-37.926 60.85805,-60.858 107.604,-60.858 70.55993,0 123.48,50.274 123.48,117.306 0,49.392 -29.10606,91.728 -84.672,123.48 l -81.144,45.864 c -130.53587,74.088 -168.46201,133.182 -175.518,270.774 l 416.304,0 0,-76.734"
     id="path4308"
     style="fill:#000000;stroke:none" /></g>
       </g>
      </g>
      <g
   id="g336">
       <g
   id="id47">
        <path
   d="m 3090,11579 -441,-764 -882,0 -441,764 441,764 882,0 441,-764 z"
   id="path339"
   style="fill:#e8ab6f;stroke:none" />
       </g>
      </g>
      <g
   id="g341">
       <g
   id="id48">
        <path
   d="m 4413,12342 -441,-764 -882,0 -441,764 441,764 882,0 441,-764 z"
   id="path344"
   style="fill:#ffce9e;stroke:none" />
       </g>
      </g>
      <g
   id="g346">
       <g
   id="id49">
        <path
   d="m 5735,13106 -441,-764 -882,0 -441,764 441,764 882,0 441,-764 z"
   id="path349"
   style="fill:#d18b47;stroke:none" />
       </g>
      </g>
      <g
   id="g351">
       <g
   id="id50">
        <path
   d="m 7058,13870 -441,-764 -882,0 -441,764 441,764 882,0 441,-764 z"
   id="path354"
   style="fill:#e8ab6f;stroke:none" />
       </g>
      </g>
      <g
   id="g356">
       <g
   id="id51">
        <path
   d="m 8381,14634 -441,-764 -882,0 -441,764 441,764 882,0 441,-764 z"
   id="path359"
   style="fill:#ffce9e;stroke:none" />
       </g>
      </g>
      <g
   id="g361">
       <g
   id="id52">
        <path
   d="m 9263,14633 -882,0 -441,764 441,764 882,0 441,-764 -441,-764 z"
   id="path364"
   style="fill:#d18b47;stroke:none" />
       </g>
      </g>
      <g
   id="g366">
       <g
   id="id53">
        <path
   d="m 10586,13870 -882,0 -441,764 441,764 882,0 441,-764 -441,-764 z"
   id="path369"
   style="fill:#ffce9e;stroke:none" />
       </g>
      </g>
      <g
   id="g371">
       <g
   id="id54">
        <path
   d="m 11909,13106 -882,0 -441,764 441,764 882,0 441,-764 -441,-764 z"
   id="path374"
   style="fill:#e8ab6f;stroke:none" />
       </g>
      </g>
      <g
   id="g376">
       <g
   id="id55">
        <path
   d="m 13232,12342 -882,0 -441,764 441,764 882,0 441,-764 -441,-764 z"
   id="path379"
   style="fill:#d18b47;stroke:none" />
       </g>
      </g>
      <g
   id="g381">
       <g
   id="id56">
        <path
   d="m 14555,11578 -882,0 -441,764 441,764 882,0 441,-764 -441,-764 z"
   id="path384"
   style="fill:#ffce9e;stroke:none" />
       </g>
      </g>
      <g
   id="g386">
       <g
   id="id57">
        <path
   d="m 15878,10815 -882,0 -441,764 441,764 882,0 441,-764 -441,-764 z"
   id="path389"
   style="fill:#e8ab6f;stroke:none" />
       </g>
      </g>
      <g
   id="g391">
       <g
   id="id58" />
      </g>
      <g
   id="g394">
       <g
   id="id59">
        <g
   id="text397"><path
     d="m 16961.292,11158.266 -328.986,0 c 7.938,-51.156 36.162,-83.79 112.896,-128.772 l 88.2,-47.628 c 87.318,-47.628 132.3,-112.014 132.3,-188.748 0,-52.038 -21.168,-100.548 -58.212,-134.064 -37.044,-33.516 -82.908,-49.392 -142.002,-49.392 -79.38,0 -138.474,28.224 -172.872,81.144 -22.05,33.516 -31.752,72.324 -33.516,135.828 l 77.616,0 c 2.646,-42.336 7.938,-67.914 18.522,-88.2 20.286,-37.926 60.858,-60.858 107.604,-60.858 70.56,0 123.48,50.274 123.48,117.306 0,49.392 -29.106,91.728 -84.672,123.48 l -81.144,45.864 c -130.536,74.088 -168.462,133.182 -175.518,270.774 l 416.304,0 0,-76.734"
     id="path4311"
     style="fill:#000000;stroke:none" /></g>
       </g>
      </g>
      <g
   id="g405">
       <g
   id="id60" />
      </g>
      <g
   id="g408">
       <g
   id="id61">
        <g
   id="text411"><path
     d="m 834.922,9419.35 9.702,0 32.634,-0.882 c 85.55391,0 129.654,38.8081 129.654,113.778 0,78.4979 -48.51008,125.244 -129.654,125.244 -84.67192,0 -126.12601,-42.3361 -131.418,-133.182 l -77.616,0 c 3.528,50.2739 12.34801,82.908 27.342,111.132 31.75197,59.9759 93.49209,90.846 179.046,90.846 128.7719,0 211.68,-76.7341 211.68,-194.922 0,-79.3799 -30.8701,-123.48 -105.84,-149.058 58.2119,-22.932 87.318,-67.0321 87.318,-129.654 0,-107.6039 -71.44212,-171.99 -190.512,-171.99 -126.12587,0 -193.158,68.7961 -195.804,201.978 l 77.616,0 c 0.882,-37.926 4.41001,-59.094 14.112,-78.498 17.63998,-34.398 56.44805,-55.566 104.958,-55.566 68.79593,0 110.25,40.5721 110.25,106.722 0,44.1 -15.87603,70.56 -50.274,84.672 -21.16798,8.82 -48.51005,12.348 -103.194,13.23 l 0,66.15"
     id="path4314"
     style="fill:#000000;stroke:none" /></g>
       </g>
      </g>
      <g
   id="g419">
       <g
   id="id62">
        <path
   d="m 3090,10051 -441,-764 -882,0 -441,764 441,764 882,0 441,-764 z"
   id="path422"
   style="fill:#ffce9e;stroke:none" />
       </g>
      </g>
      <g
   id="g424">
       <g
   id="id63">
        <path
   d="m 4413,10815 -441,-764 -882,0 -441,764 441,764 882,0 441,-764 z"
   id="path427"
   style="fill:#d18b47;stroke:none" />
       </g>
      </g>
      <g
   id="g429">
       <g
   id="id64">
        <path
   d="m 5735,11579 -441,-764 -882,0 -441,764 441,764 882,0 441,-764 z"
   id="path432"
   style="fill:#e8ab6f;stroke:none" />
       </g>
      </g>
      <g
   id="g434">
       <g
   id="id65">
        <path
   d="m 7058,12342 -441,-764 -882,0 -441,764 441,764 882,0 441,-764 z"
   id="path437"
   style="fill:#ffce9e;stroke:none" />
       </g>
      </g>
      <g
   id="g439">
       <g
   id="id66">
        <path
   d="m 8381,13106 -441,-764 -882,0 -441,764 441,764 882,0 441,-764 z"
   id="path442"
   style="fill:#d18b47;stroke:none" />
       </g>
      </g>
      <g
   id="g444">
       <g
   id="id67">
        <path
   d="m 9263,13106 -882,0 -441,764 441,764 882,0 441,-764 -441,-764 z"
   id="path447"
   style="fill:#e8ab6f;stroke:none" />
       </g>
      </g>
      <g
   id="g449">
       <g
   id="id68">
        <path
   d="m 10586,12340 -882,0 -441,764 441,764 882,0 441,-764 -441,-764 z"
   id="path452"
   style="fill:#d18b47;stroke:none" />
       </g>
      </g>
      <g
   id="g454">
       <g
   id="id69">
        <path
   d="m 11909,11578 -882,0 -441,764 441,764 882,0 441,-764 -441,-764 z"
   id="path457"
   style="fill:#ffce9e;stroke:none" />
       </g>
      </g>
      <g
   id="g459">
       <g
   id="id70">
        <path
   d="m 13232,10815 -882,0 -441,764 441,764 882,0 441,-764 -441,-764 z"
   id="path462"
   style="fill:#e8ab6f;stroke:none" />
       </g>
      </g>
      <g
   id="g464">
       <g
   id="id71">
        <path
   d="m 14555,10049 -882,0 -441,764 441,764 882,0 441,-764 -441,-764 z"
   id="path467"
   style="fill:#d18b47;stroke:none" />
       </g>
      </g>
      <g
   id="g469">
       <g
   id="id72">
        <path
   d="m 15878,9287 -882,0 -441,764 441,764 882,0 441,-764 -441,-764 z"
   id="path472"
   style="fill:#ffce9e;stroke:none" />
       </g>
      </g>
      <g
   id="g474">
       <g
   id="id73" />
      </g>
      <g
   id="g477">
       <g
   id="id74">
        <g
   id="text480"><path
     d="m 16709.922,9419.35 9.702,0 32.634,-0.882 c 85.554,0 129.654,38.8081 129.654,113.778 0,78.4979 -48.51,125.244 -129.654,125.244 -84.672,0 -126.126,-42.3361 -131.418,-133.182 l -77.616,0 c 3.528,50.2739 12.348,82.908 27.342,111.132 31.752,59.9759 93.492,90.846 179.046,90.846 128.772,0 211.68,-76.7341 211.68,-194.922 0,-79.3799 -30.87,-123.48 -105.84,-149.058 58.212,-22.932 87.318,-67.0321 87.318,-129.654 0,-107.6039 -71.442,-171.99 -190.512,-171.99 -126.126,0 -193.158,68.7961 -195.804,201.978 l 77.616,0 c 0.882,-37.926 4.41,-59.094 14.112,-78.498 17.64,-34.398 56.448,-55.566 104.958,-55.566 68.796,0 110.25,40.5721 110.25,106.722 0,44.1 -15.876,70.56 -50.274,84.672 -21.168,8.82 -48.51,12.348 -103.194,13.23 l 0,66.15"
     id="path4317"
     style="fill:#000000;stroke:none" /></g>
       </g>
      </g>
      <g
   id="g488">
       <g
   id="id75" />
      </g>
      <g
   id="g491">
       <g
   id="id76">
        <g
   id="text494"><path
     d="m 928.414,8030.06 0,149.94 77.616,0 0,-149.94 92.61,0 0,-69.678 -92.61,0 0,-405.72 -57.33,0 -284.004,393.372 0,82.026 263.718,0 m 0,-69.678 -195.804,0 195.804,-273.42 0,273.42"
     id="path4320"
     style="fill:#000000;stroke:none" /></g>
       </g>
      </g>
      <g
   id="g502">
       <g
   id="id77">
        <path
   d="m 3090,8524 -441,-764 -882,0 -441,764 441,764 882,0 441,-764 z"
   id="path505"
   style="fill:#d18b47;stroke:none" />
       </g>
      </g>
      <g
   id="g507">
       <g
   id="id78">
        <path
   d="m 4413,9287 -441,-764 -882,0 -441,764 441,764 882,0 441,-764 z"
   id="path510"
   style="fill:#e8ab6f;stroke:none" />
       </g>
      </g>
      <g
   id="g512">
       <g
   id="id79">
        <path
   d="m 5735,10051 -441,-764 -882,0 -441,764 441,764 882,0 441,-764 z"
   id="path515"
   style="fill:#ffce9e;stroke:none" />
       </g>
      </g>
      <g
   id="g517">
       <g
   id="id80">
        <path
   d="m 7058,10815 -441,-764 -882,0 -441,764 441,764 882,0 441,-764 z"
   id="path520"
   style="fill:#d18b47;stroke:none" />
       </g>
      </g>
      <g
   id="g522">
       <g
   id="id81">
        <path
   d="m 8381,11579 -441,-764 -882,0 -441,764 441,764 882,0 441,-764 z"
   id="path525"
   style="fill:#e8ab6f;stroke:none" />
       </g>
      </g>
      <g
   id="g527">
       <g
   id="id82">
        <g
   id="text530"><path
     d="m 7497.5,11426.924 c 46.6335,0 86.4332,16.684 119.3994,50.051 33.3668,32.966 50.0505,72.766 50.0513,119.4 -8e-4,47.036 -16.6845,87.037 -50.0513,120.002 -32.9662,32.966 -72.7659,49.448 -119.3994,49.448 -47.0367,0 -87.0375,-16.482 -120.0024,-49.448 -32.966,-32.965 -49.4487,-72.966 -49.4483,-120.002 -4e-4,-46.634 16.4823,-86.434 49.4483,-119.4 32.9649,-33.367 72.9657,-50.051 120.0024,-50.051"
     id="path4323"
     style="fill:#ffffff;stroke:none" /></g>
       </g>
      </g>
      <g
   id="g538">
       <g
   id="id83">
        <g
   id="text541"><path
     d="m 7497.5,11426.924 c 46.6335,0 86.4332,16.684 119.3994,50.051 33.3668,32.966 50.0505,72.766 50.0513,119.4 -8e-4,47.036 -16.6845,87.037 -50.0513,120.002 -32.9662,32.966 -72.7659,49.448 -119.3994,49.448 -47.0367,0 -87.0375,-16.482 -120.0024,-49.448 -32.966,-32.965 -49.4487,-72.966 -49.4483,-120.002 -4e-4,-46.634 16.4823,-86.434 49.4483,-119.4 32.9649,-33.367 72.9657,-50.051 120.0024,-50.051"
     id="path4326"
     style="fill:#000000;stroke:none" /></g>
       </g>
      </g>
      <g
   id="g549">
       <g
   id="id84">
        <path
   d="m 9263,11578 -882,0 -441,764 441,764 882,0 441,-764 -441,-764 z"
   id="path552"
   style="fill:#ffce9e;stroke:none" />
       </g>
      </g>
      <g
   id="g554">
       <g
   id="id85">
        <path
   d="m 10586,10815 -882,0 -441,764 441,764 882,0 441,-764 -441,-764 z"
   id="path557"
   style="fill:#e8ab6f;stroke:none" />
       </g>
      </g>
      <g
   id="g559">
       <g
   id="id86">
        <g
   id="text562"><path
     d="m 10143.5,11426.924 c 46.633,0 86.433,16.684 119.399,50.051 33.367,32.966 50.051,72.766 50.052,119.4 -10e-4,47.036 -16.685,87.037 -50.052,120.002 -32.966,32.966 -72.766,49.448 -119.399,49.448 -47.037,0 -87.037,-16.482 -120.002,-49.448 -32.9664,-32.965 -49.4491,-72.966 -49.4487,-120.002 -4e-4,-46.634 16.4823,-86.434 49.4487,-119.4 32.965,-33.367 72.965,-50.051 120.002,-50.051"
     id="path4329"
     style="fill:#ffffff;stroke:none" /></g>
       </g>
      </g>
      <g
   id="g570">
       <g
   id="id87">
        <g
   id="text573"><path
     d="m 10143.5,11426.924 c 46.633,0 86.433,16.684 119.399,50.051 33.367,32.966 50.051,72.766 50.052,119.4 -10e-4,47.036 -16.685,87.037 -50.052,120.002 -32.966,32.966 -72.766,49.448 -119.399,49.448 -47.037,0 -87.037,-16.482 -120.002,-49.448 -32.9664,-32.965 -49.4491,-72.966 -49.4487,-120.002 -4e-4,-46.634 16.4823,-86.434 49.4487,-119.4 32.965,-33.367 72.965,-50.051 120.002,-50.051"
     id="path4332"
     style="fill:#000000;stroke:none" /></g>
       </g>
      </g>
      <g
   id="g581">
       <g
   id="id88">
        <path
   d="m 11909,10051 -882,0 -441,764 441,764 882,0 441,-764 -441,-764 z"
   id="path584"
   style="fill:#d18b47;stroke:none" />
       </g>
      </g>
      <g
   id="g586">
       <g
   id="id89">
        <path
   d="m 13232,9287 -882,0 -441,764 441,764 882,0 441,-764 -441,-764 z"
   id="path589"
   style="fill:#ffce9e;stroke:none" />
       </g>
      </g>
      <g
   id="g591">
       <g
   id="id90">
        <path
   d="m 14555,8523 -882,0 -441,764 441,764 882,0 441,-764 -441,-764 z"
   id="path594"
   style="fill:#e8ab6f;stroke:none" />
       </g>
      </g>
      <g
   id="g596">
       <g
   id="id91">
        <path
   d="m 15878,7760 -882,0 -441,764 441,764 882,0 441,-764 -441,-764 z"
   id="path599"
   style="fill:#d18b47;stroke:none" />
       </g>
      </g>
      <g
   id="g601">
       <g
   id="id92" />
      </g>
      <g
   id="g604">
       <g
   id="id93">
        <g
   id="text607"><path
     d="m 16803.414,8030.06 0,149.94 77.616,0 0,-149.94 92.61,0 0,-69.678 -92.61,0 0,-405.72 -57.33,0 -284.004,393.372 0,82.026 263.718,0 m 0,-69.678 -195.804,0 195.804,-273.42 0,273.42"
     id="path4335"
     style="fill:#000000;stroke:none" /></g>
       </g>
      </g>
      <g
   id="g615">
       <g
   id="id94" />
      </g>
      <g
   id="g618">
       <g
   id="id95">
        <g
   id="text621"><path
     d="m 1059.832,6025.662 -322.812,0 -46.746,340.452 71.442,0 c 36.16196,-43.218 66.15005,-58.212 114.66,-58.212 83.78992,0 136.71,57.3301 136.71,149.94 0,89.9639 -52.03808,144.648 -136.71,144.648 -67.91393,0 -109.36802,-34.3981 -127.89,-104.958 l -77.616,0 c 10.58399,51.1559 19.40402,75.852 37.926,98.784 35.27996,47.628 98.78407,74.97 169.344,74.97 126.1259,0 214.326,-91.7281 214.326,-224.028 0,-123.4799 -82.0261,-208.152 -201.978,-208.152 -44.09996,0 -79.38004,11.466 -115.542,37.926 l 24.696,-174.636 260.19,0 0,-76.734"
     id="path4338"
     style="fill:#000000;stroke:none" /></g>
       </g>
      </g>
      <g
   id="g629">
       <g
   id="id96">
        <path
   d="m 3090,6996 -441,-764 -882,0 -441,764 441,764 882,0 441,-764 z"
   id="path632"
   style="fill:#e8ab6f;stroke:none" />
       </g>
      </g>
      <g
   id="g634">
       <g
   id="id97">
        <path
   d="m 4413,7760 -441,-764 -882,0 -441,764 441,764 882,0 441,-764 z"
   id="path637"
   style="fill:#ffce9e;stroke:none" />
       </g>
      </g>
      <g
   id="g639">
       <g
   id="id98">
        <path
   d="m 5735,8524 -441,-764 -882,0 -441,764 441,764 882,0 441,-764 z"
   id="path642"
   style="fill:#d18b47;stroke:none" />
       </g>
      </g>
      <g
   id="g644">
       <g
   id="id99">
        <path
   d="m 7058,9287 -441,-764 -882,0 -441,764 441,764 882,0 441,-764 z"
   id="path647"
   style="fill:#e8ab6f;stroke:none" />
       </g>
      </g>
      <g
   id="g649">
       <g
   id="id100">
        <g
   id="text652"><path
     d="m 6176.5,9135.9238 c 46.6335,6e-4 86.4332,16.6843 119.3994,50.0513 33.3668,32.9659 50.0505,72.7657 50.0513,119.3994 -8e-4,47.0365 -16.6845,87.0372 -50.0513,120.0025 -32.9662,32.9657 -72.7659,49.4484 -119.3994,49.4482 -47.0367,2e-4 -87.0375,-16.4825 -120.0024,-49.4482 -32.966,-32.9653 -49.4487,-72.966 -49.4483,-120.0025 -4e-4,-46.6337 16.4823,-86.4335 49.4483,-119.3994 32.9649,-33.367 72.9657,-50.0507 120.0024,-50.0513"
     id="path4341"
     style="fill:#ffffff;stroke:none" /></g>
       </g>
      </g>
      <g
   id="g660">
       <g
   id="id101">
        <g
   id="text663"><path
     d="m 6176.5,9135.9238 c 46.6335,6e-4 86.4332,16.6843 119.3994,50.0513 33.3668,32.9659 50.0505,72.7657 50.0513,119.3994 -8e-4,47.0365 -16.6845,87.0372 -50.0513,120.0025 -32.9662,32.9657 -72.7659,49.4484 -119.3994,49.4482 -47.0367,2e-4 -87.0375,-16.4825 -120.0024,-49.4482 -32.966,-32.9653 -49.4487,-72.966 -49.4483,-120.0025 -4e-4,-46.6337 16.4823,-86.4335 49.4483,-119.3994 32.9649,-33.367 72.9657,-50.0507 120.0024,-50.0513"
     id="path4344"
     style="fill:#000000;stroke:none" /></g>
       </g>
      </g>
      <g
   id="g671">
       <g
   id="id102">
        <path
   d="m 8381,10051 -441,-764 -882,0 -441,764 441,764 882,0 441,-764 z"
   id="path674"
   style="fill:#ffce9e;stroke:none" />
       </g>
      </g>
      <g
   id="g676">
       <g
   id="id103">
        <g
   id="text679"><path
     d="m 7497.5,9897.9238 c 46.6335,6e-4 86.4332,16.6843 119.3994,50.0513 33.3668,32.9659 50.0505,72.7659 50.0513,119.3999 -8e-4,47.036 -16.6845,87.037 -50.0513,120.002 -32.9662,32.966 -72.7659,49.448 -119.3994,49.448 -47.0367,0 -87.0375,-16.482 -120.0024,-49.448 -32.966,-32.965 -49.4487,-72.966 -49.4483,-120.002 -4e-4,-46.634 16.4823,-86.434 49.4483,-119.3999 32.9649,-33.367 72.9657,-50.0507 120.0024,-50.0513"
     id="path4347"
     style="fill:#ffffff;stroke:none" /></g>
       </g>
      </g>
      <g
   id="g687">
       <g
   id="id104">
        <g
   id="text690"><path
     d="m 7497.5,9897.9238 c 46.6335,6e-4 86.4332,16.6843 119.3994,50.0513 33.3668,32.9659 50.0505,72.7659 50.0513,119.3999 -8e-4,47.036 -16.6845,87.037 -50.0513,120.002 -32.9662,32.966 -72.7659,49.448 -119.3994,49.448 -47.0367,0 -87.0375,-16.482 -120.0024,-49.448 -32.966,-32.965 -49.4487,-72.966 -49.4483,-120.002 -4e-4,-46.634 16.4823,-86.434 49.4483,-119.3999 32.9649,-33.367 72.9657,-50.0507 120.0024,-50.0513"
     id="path4350"
     style="fill:#000000;stroke:none" /></g>
       </g>
      </g>
      <g
   id="g698">
       <g
   id="id105">
        <path
   d="m 9263,10049 -882,0 -441,764 441,764 882,0 441,-764 -441,-764 z"
   id="path701"
   style="fill:#d18b47;stroke:none" />
       </g>
      </g>
      <g
   id="g703">
       <g
   id="id106">
        <g
   id="text706"><path
     d="m 8820.5,10661.924 c 46.6335,0 86.4332,16.684 119.3994,50.051 33.3668,32.966 50.0505,72.766 50.0513,119.4 -8e-4,47.036 -16.6845,87.037 -50.0513,120.002 -32.9662,32.966 -72.7659,49.448 -119.3994,49.448 -47.0367,0 -87.0375,-16.482 -120.0024,-49.448 -32.966,-32.965 -49.4487,-72.966 -49.4483,-120.002 -4e-4,-46.634 16.4823,-86.434 49.4483,-119.4 32.9649,-33.367 72.9657,-50.051 120.0024,-50.051"
     id="path4353"
     style="fill:#ffffff;stroke:none" /></g>
       </g>
      </g>
      <g
   id="g714">
       <g
   id="id107">
        <g
   id="text717"><path
     d="m 8820.5,10661.924 c 46.6335,0 86.4332,16.684 119.3994,50.051 33.3668,32.966 50.0505,72.766 50.0513,119.4 -8e-4,47.036 -16.6845,87.037 -50.0513,120.002 -32.9662,32.966 -72.7659,49.448 -119.3994,49.448 -47.0367,0 -87.0375,-16.482 -120.0024,-49.448 -32.966,-32.965 -49.4487,-72.966 -49.4483,-120.002 -4e-4,-46.634 16.4823,-86.434 49.4483,-119.4 32.9649,-33.367 72.9657,-50.051 120.0024,-50.051"
     id="path4356"
     style="fill:#000000;stroke:none" /></g>
       </g>
      </g>
      <g
   id="g725">
       <g
   id="id108">
        <path
   d="m 10586,9285 -882,0 -441,764 441,764 882,0 441,-764 -441,-764 z"
   id="path728"
   style="fill:#ffce9e;stroke:none" />
       </g>
      </g>
      <g
   id="g730">
       <g
   id="id109">
        <g
   id="text733"><path
     d="m 10143.5,9897.9238 c 46.633,6e-4 86.433,16.6843 119.399,50.0513 33.367,32.9659 50.051,72.7659 50.052,119.3999 -10e-4,47.036 -16.685,87.037 -50.052,120.002 -32.966,32.966 -72.766,49.448 -119.399,49.448 -47.037,0 -87.037,-16.482 -120.002,-49.448 -32.9664,-32.965 -49.4491,-72.966 -49.4487,-120.002 -4e-4,-46.634 16.4823,-86.434 49.4487,-119.3999 32.965,-33.367 72.965,-50.0507 120.002,-50.0513"
     id="path4359"
     style="fill:#ffffff;stroke:none" /></g>
       </g>
      </g>
      <g
   id="g741">
       <g
   id="id110">
        <g
   id="text744"><path
     d="m 10143.5,9897.9238 c 46.633,6e-4 86.433,16.6843 119.399,50.0513 33.367,32.9659 50.051,72.7659 50.052,119.3999 -10e-4,47.036 -16.685,87.037 -50.052,120.002 -32.966,32.966 -72.766,49.448 -119.399,49.448 -47.037,0 -87.037,-16.482 -120.002,-49.448 -32.9664,-32.965 -49.4491,-72.966 -49.4487,-120.002 -4e-4,-46.634 16.4823,-86.434 49.4487,-119.3999 32.965,-33.367 72.965,-50.0507 120.002,-50.0513"
     id="path4362"
     style="fill:#000000;stroke:none" /></g>
       </g>
      </g>
      <g
   id="g752">
       <g
   id="id111">
        <path
   d="m 11909,8522 -882,0 -441,764 441,764 882,0 441,-764 -441,-764 z"
   id="path755"
   style="fill:#e8ab6f;stroke:none" />
       </g>
      </g>
      <g
   id="g757">
       <g
   id="id112">
        <g
   id="text760"><path
     d="m 11467.5,9133.9238 c 46.633,6e-4 86.433,16.6843 119.399,50.0513 33.367,32.9659 50.051,72.7657 50.052,119.3994 -10e-4,47.0365 -16.685,87.0372 -50.052,120.0025 -32.966,32.9657 -72.766,49.4484 -119.399,49.4482 -47.037,2e-4 -87.037,-16.4825 -120.002,-49.4482 -32.966,-32.9653 -49.449,-72.966 -49.449,-120.0025 0,-46.6337 16.483,-86.4335 49.449,-119.3994 32.965,-33.367 72.965,-50.0507 120.002,-50.0513"
     id="path4365"
     style="fill:#ffffff;stroke:none" /></g>
       </g>
      </g>
      <g
   id="g768">
       <g
   id="id113">
        <g
   id="text771"><path
     d="m 11467.5,9133.9238 c 46.633,6e-4 86.433,16.6843 119.399,50.0513 33.367,32.9659 50.051,72.7657 50.052,119.3994 -10e-4,47.0365 -16.685,87.0372 -50.052,120.0025 -32.966,32.9657 -72.766,49.4484 -119.399,49.4482 -47.037,2e-4 -87.037,-16.4825 -120.002,-49.4482 -32.966,-32.9653 -49.449,-72.966 -49.449,-120.0025 0,-46.6337 16.483,-86.4335 49.449,-119.3994 32.965,-33.367 72.965,-50.0507 120.002,-50.0513"
     id="path4368"
     style="fill:#000000;stroke:none" /></g>
       </g>
      </g>
      <g
   id="g779">
       <g
   id="id114">
        <path
   d="m 13232,7758 -882,0 -441,764 441,764 882,0 441,-764 -441,-764 z"
   id="path782"
   style="fill:#d18b47;stroke:none" />
       </g>
      </g>
      <g
   id="g784">
       <g
   id="id115">
        <path
   d="m 14555,6994 -882,0 -441,764 441,764 882,0 441,-764 -441,-764 z"
   id="path787"
   style="fill:#ffce9e;stroke:none" />
       </g>
      </g>
      <g
   id="g789">
       <g
   id="id116">
        <path
   d="m 15878,6230 -882,0 -441,764 441,764 882,0 441,-764 -441,-764 z"
   id="path792"
   style="fill:#e8ab6f;stroke:none" />
       </g>
      </g>
      <g
   id="g794">
       <g
   id="id117" />
      </g>
      <g
   id="g797">
       <g
   id="id118">
        <g
   id="text800"><path
     d="m 16934.832,6025.662 -322.812,0 -46.746,340.452 71.442,0 c 36.162,-43.218 66.15,-58.212 114.66,-58.212 83.79,0 136.71,57.3301 136.71,149.94 0,89.9639 -52.038,144.648 -136.71,144.648 -67.914,0 -109.368,-34.3981 -127.89,-104.958 l -77.616,0 c 10.584,51.1559 19.404,75.852 37.926,98.784 35.28,47.628 98.784,74.97 169.344,74.97 126.126,0 214.326,-91.7281 214.326,-224.028 0,-123.4799 -82.026,-208.152 -201.978,-208.152 -44.1,0 -79.38,11.466 -115.542,37.926 l 24.696,-174.636 260.19,0 0,-76.734"
     id="path4371"
     style="fill:#000000;stroke:none" /></g>
       </g>
      </g>
      <g
   id="g808">
       <g
   id="id119" />
      </g>
      <g
   id="g811">
       <g
   id="id120">
        <g
   id="text814"><path
     d="m 1079.236,4658.832 c -14.994,-102.3119 -82.0261,-163.17 -177.282,-163.17 -68.79593,0 -130.53604,33.5161 -167.58,89.082 -38.80796,60.8579 -56.448,137.5921 -56.448,251.37 0,104.9579 15.87604,171.9901 52.92,227.556 33.51597,50.2739 88.20007,77.616 156.996,77.616 119.0699,0 204.624,-88.2001 204.624,-210.798 0,-116.4239 -79.3801,-198.45 -191.394,-198.45 -61.73994,0 -110.25003,23.814 -143.766,69.678 0.882,-152.5858 50.27409,-237.258 139.356,-237.258 54.68395,0 92.61001,34.3981 104.958,94.374 l 77.616,0 M 891.37,4800.834 c 74.96993,0 121.716,52.0381 121.716,135.828 0,78.4979 -52.92007,135.828 -124.362,135.828 -72.32393,0 -127.008,-59.9761 -127.008,-140.238 0,-77.6159 52.92008,-131.418 129.654,-131.418"
     id="path4374"
     style="fill:#000000;stroke:none" /></g>
       </g>
      </g>
      <g
   id="g822">
       <g
   id="id121">
        <path
   d="m 3090,5467 -441,-764 -882,0 -441,764 441,764 882,0 441,-764 z"
   id="path825"
   style="fill:#ffce9e;stroke:none" />
       </g>
      </g>
      <g
   id="g827">
       <g
   id="id122">
        <path
   d="m 4413,6231 -441,-764 -882,0 -441,764 441,764 882,0 441,-764 z"
   id="path830"
   style="fill:#d18b47;stroke:none" />
       </g>
      </g>
      <g
   id="g832">
       <g
   id="id123">
        <path
   d="m 5735,6994 -441,-764 -882,0 -441,764 441,764 882,0 441,-764 z"
   id="path835"
   style="fill:#e8ab6f;stroke:none" />
       </g>
      </g>
      <g
   id="g837">
       <g
   id="id124">
        <path
   d="m 7058,7758 -441,-764 -882,0 -441,764 441,764 882,0 441,-764 z"
   id="path840"
   style="fill:#ffce9e;stroke:none" />
       </g>
      </g>
      <g
   id="g842">
       <g
   id="id125">
        <path
   d="m 8381,8522 -441,-764 -882,0 -441,764 441,764 882,0 441,-764 z"
   id="path845"
   style="fill:#d18b47;stroke:none" />
       </g>
      </g>
      <g
   id="g847">
       <g
   id="id126">
        <g
   id="text850"><path
     d="m 7497.5,8370.9238 c 46.6335,6e-4 86.4332,16.6843 119.3994,50.0513 33.3668,32.9659 50.0505,72.7657 50.0513,119.3994 -8e-4,47.0365 -16.6845,87.0372 -50.0513,120.0025 -32.9662,32.9657 -72.7659,49.4484 -119.3994,49.4482 -47.0367,2e-4 -87.0375,-16.4825 -120.0024,-49.4482 -32.966,-32.9653 -49.4487,-72.966 -49.4483,-120.0025 -4e-4,-46.6337 16.4823,-86.4335 49.4483,-119.3994 32.9649,-33.367 72.9657,-50.0507 120.0024,-50.0513"
     id="path4377"
     style="fill:#ffffff;stroke:none" /></g>
       </g>
      </g>
      <g
   id="g858">
       <g
   id="id127">
        <g
   id="text861"><path
     d="m 7497.5,8370.9238 c 46.6335,6e-4 86.4332,16.6843 119.3994,50.0513 33.3668,32.9659 50.0505,72.7657 50.0513,119.3994 -8e-4,47.0365 -16.6845,87.0372 -50.0513,120.0025 -32.9662,32.9657 -72.7659,49.4484 -119.3994,49.4482 -47.0367,2e-4 -87.0375,-16.4825 -120.0024,-49.4482 -32.966,-32.9653 -49.4487,-72.966 -49.4483,-120.0025 -4e-4,-46.6337 16.4823,-86.4335 49.4483,-119.3994 32.9649,-33.367 72.9657,-50.0507 120.0024,-50.0513"
     id="path4380"
     style="fill:#000000;stroke:none" /></g>
       </g>
      </g>
      <g
   id="g869">
       <g
   id="id128">
        <path
   d="m 9263,8522 -882,0 -441,764 441,764 882,0 441,-764 -441,-764 z"
   id="path872"
   style="fill:#e8ab6f;stroke:none" />
       </g>
      </g>
      <g
   id="g874">
       <g
   id="id129">
        <g
   id="text877"><path
     d="m 8482.2017,9606.0942 -19.8999,-112.7661 c -0.4023,2e-4 -1.0053,-0.8038 -1.8091,-2.4121 -2.0104,-2.8139 -7.8396,-6.4321 -17.4878,-10.8545 -9.2467,-4.824 -20.1011,-12.8644 -32.5635,-24.1211 -17.689,-14.8744 -31.5586,-26.935 -41.6089,-36.1816 -9.6486,-9.2462 -18.493,-19.2966 -26.5332,-30.1514 -24.5232,-33.7692 -38.1918,-74.574 -41.0058,-122.4145 -4.0203,-46.2317 14.6735,-92.2627 56.0815,-138.0933 41.8097,-45.8295 98.2932,-67.3374 169.4507,-64.5239 26.5328,1.6087 57.6892,8.0409 93.4692,19.2969 11.6581,4.8248 23.5176,9.649 35.5786,14.4726 12.4621,4.4228 24.7237,9.046 36.7847,13.8696 6.4318,3.2167 12.06,6.4329 16.8848,9.6485 -2.0106,-8.4418 -3.0157,-16.8842 -3.0152,-25.3272 -5e-4,-31.3568 11.055,-58.091 33.1665,-80.2026 22.5125,-22.1103 49.4477,-33.3668 80.8057,-33.7695 31.3568,6e-4 58.091,11.2571 80.2026,33.7695 22.1103,22.1116 33.1658,48.6448 33.1665,79.5996 -7e-4,6.4329 -0.8047,14.8752 -2.4121,25.3272 5.6276,-3.6177 11.0548,-6.6328 16.2818,-9.0455 18.492,-8.0398 42.8141,-17.4872 72.9663,-28.3422 34.5727,-11.658 65.7291,-18.2913 93.4692,-19.8999 71.1563,-3.2156 127.4388,18.2924 168.8477,64.5239 40.6027,45.8306 59.4975,91.8616 56.6845,138.0932 -3.2172,47.8406 -17.0869,88.6454 -41.6088,122.4146 -8.0415,10.8548 -17.0869,21.1062 -27.1363,30.7544 -10.0515,9.2466 -23.5191,21.1062 -40.4028,35.5786 -13.2676,11.2567 -24.5241,19.2971 -33.7695,24.1211 -9.2474,4.4224 -14.6747,8.0405 -16.2818,10.8545 -0.403,0.8042 -0.805,1.4072 -1.206,1.8091 -0.403,0.4022 -0.604,0.8042 -0.6031,1.206 l -19.2968,113.3692 39.7998,148.9477 c -20.1019,18.0907 -65.1279,32.9654 -135.0782,44.624 -69.9519,11.6584 -150.7575,17.4877 -242.4169,17.4878 -93.2688,-10e-5 -175.2804,-6.2314 -246.0352,-18.6938 -70.7555,-12.0607 -115.1785,-27.3374 -133.269,-45.8301 l 39.7998,-147.1387 m 359.4043,-625.3393 -42.815,0 0,-78.9966 -50.0513,0 c -13.6691,8e-4 -20.5034,-6.6325 -20.5029,-19.8999 l 0,-0.603 c -5e-4,-13.2658 6.8338,-19.8991 20.5029,-19.8999 l 50.0513,0 0,-51.2574 c -6e-4,-14.0697 7.2357,-21.105 21.709,-21.1059 l 0,0 c 14.07,9e-4 21.1053,7.0362 21.106,21.1059 l 0,51.2574 51.8603,0 c 13.2659,8e-4 19.8992,6.6341 19.8999,19.8999 l 0,0.603 c -7e-4,13.2674 -6.634,19.9007 -19.8999,19.8999 l -51.2573,0.603 -0.603,78.3936"
     id="path4383"
     style="fill:#ffffff;stroke:none" /></g>
       </g>
      </g>
      <g
   id="g885">
       <g
   id="id130">
        <g
   id="text888"><path
     d="m 8518.9863,9569.3096 c 76.3831,-19.2968 177.6916,-28.9452 303.9258,-28.9453 123.8209,1e-4 223.7223,9.2465 299.7046,27.7392 l 15.0757,-88.645 c -80.8065,-21.3068 -186.5372,-31.9602 -317.1924,-31.9605 -131.4604,3e-4 -236.9901,10.8547 -316.5894,32.5635 l 15.0757,89.2481 m -36.7846,36.7846 -19.8999,-112.7661 c -0.4023,2e-4 -1.0053,-0.8038 -1.8091,-2.4121 -2.0104,-2.8139 -7.8396,-6.4321 -17.4878,-10.8545 -9.2467,-4.824 -20.1011,-12.8644 -32.5635,-24.1211 -17.689,-14.8744 -31.5586,-26.935 -41.6089,-36.1816 -9.6486,-9.2462 -18.493,-19.2966 -26.5332,-30.1514 -24.5232,-33.7692 -38.1918,-74.574 -41.0058,-122.4145 -4.0203,-46.2317 14.6735,-92.2627 56.0815,-138.0933 41.8097,-45.8295 98.2932,-67.3374 169.4507,-64.5239 26.5328,1.6087 57.6892,8.0409 93.4692,19.2969 11.6581,4.8248 23.5176,9.649 35.5786,14.4726 12.4621,4.4228 24.7237,9.046 36.7847,13.8696 6.4318,3.2167 12.06,6.4329 16.8848,9.6485 -2.0106,-8.4418 -3.0157,-16.8842 -3.0152,-25.3272 -5e-4,-31.3568 11.055,-58.091 33.1665,-80.2026 22.5125,-22.1103 49.4477,-33.3668 80.8057,-33.7695 31.3568,6e-4 58.091,11.2571 80.2026,33.7695 22.1103,22.1116 33.1658,48.6448 33.1665,79.5996 -7e-4,6.4329 -0.8047,14.8752 -2.4121,25.3272 5.6276,-3.6177 11.0548,-6.6328 16.2818,-9.0455 18.492,-8.0398 42.8141,-17.4872 72.9663,-28.3422 34.5727,-11.658 65.7291,-18.2913 93.4692,-19.8999 71.1563,-3.2156 127.4388,18.2924 168.8477,64.5239 40.6027,45.8306 59.4975,91.8616 56.6845,138.0932 -3.2172,47.8406 -17.0869,88.6454 -41.6088,122.4146 -8.0415,10.8548 -17.0869,21.1062 -27.1363,30.7544 -10.0515,9.2466 -23.5191,21.1062 -40.4028,35.5786 -13.2676,11.2567 -24.5241,19.2971 -33.7695,24.1211 -9.2474,4.4224 -14.6747,8.0405 -16.2818,10.8545 -0.403,0.8042 -0.805,1.4072 -1.206,1.8091 -0.403,0.4022 -0.604,0.8042 -0.6031,1.206 l -19.2968,113.3692 39.7998,148.9477 c -20.1019,18.0907 -65.1279,32.9654 -135.0782,44.624 -69.9519,11.6584 -150.7575,17.4877 -242.4169,17.4878 -93.2688,-10e-5 -175.2804,-6.2314 -246.0352,-18.6938 -70.7555,-12.0607 -115.1785,-27.3374 -133.269,-45.8301 l 39.7998,-147.1387 m 651.8725,70.5542 -18.0908,-69.3481 c -79.6004,-17.6887 -178.0948,-26.5331 -295.4834,-26.5332 -116.9878,1e-4 -215.2812,8.8445 -294.8804,26.5332 l -19.2968,69.9512 c 76.7851,-22.513 181.7117,-33.7695 314.7802,-33.7696 132.2633,10e-5 236.5869,11.0555 312.9712,33.1665 m 15.6787,56.6846 c -77.5904,-31.3574 -186.5372,-47.0361 -326.8408,-47.0361 -145.5311,0 -255.6839,16.0807 -330.459,48.2422 70.7549,28.1411 180.3047,42.2118 328.6499,42.2119 70.7545,-1e-4 135.2784,-4.0203 193.5718,-12.0606 58.2918,-7.6384 103.3178,-18.0909 135.0781,-31.3574 M 8799.394,9406.4922 c -0.4026,-15.6784 -1.0056,-31.1561 -1.809,-46.4331 -0.8047,-15.6784 -3.8198,-32.9652 -9.0454,-51.8604 -16.4834,-53.87 -41.4085,-97.2879 -74.7754,-130.2539 -17.2873,-16.8842 -43.8205,-32.5629 -79.5996,-47.0361 -41.0063,-16.0802 -79.801,-24.1205 -116.3843,-24.1211 -63.5192,6e-4 -110.5552,22.7146 -141.1084,68.1421 -17.287,24.1215 -25.9303,54.2729 -25.9302,90.4541 -1e-4,39.3981 9.6483,71.7606 28.9453,97.0874 11.6584,14.875 26.533,29.7496 44.624,44.624 18.0906,14.8749 34.9754,28.3425 50.6543,40.4028 70.3529,-25.3269 178.4957,-38.9955 324.4287,-41.0058 m 21.106,-112.1631 c 2.8135,-11.2561 5.2256,-19.0955 7.2363,-23.5181 4.0196,-15.6783 8.6428,-28.9449 13.8697,-39.7998 2.4114,-6.8338 5.8286,-14.6732 10.2514,-23.518 4.8236,-9.246 9.8488,-19.6984 15.0757,-31.3575 3.2155,-6.8338 6.6326,-15.0751 10.2515,-24.7241 3.6175,-10.0499 7.2356,-19.8993 10.8545,-29.5483 3.2154,-8.0398 4.8235,-16.6832 4.8242,-25.9302 -7e-4,-19.6983 -7.036,-36.382 -21.106,-50.0513 -14.0713,-14.07 -31.157,-21.1053 -51.2573,-21.1059 -47.8407,6e-4 -71.7608,23.9207 -71.7603,71.7602 -5e-4,9.247 1.6076,17.8904 4.8243,25.9302 8.8438,26.1317 15.6781,44.2225 20.5029,54.2725 5.2257,11.659 10.0499,22.1114 14.4727,31.3574 4.4216,8.8448 8.2407,16.6842 11.4575,23.5181 5.2256,13.267 9.6478,26.5336 13.2666,39.7998 0.8034,2.4125 3.2155,10.0508 7.2363,22.915 m 20.5029,112.1631 c 69.1465,0.8043 132.4643,5.0255 189.9536,12.6636 57.4878,7.2365 102.5138,16.4829 135.0782,27.7392 15.2757,-12.0603 31.9594,-25.3269 50.0512,-39.7998 18.0898,-14.8744 33.1655,-29.9501 45.2271,-45.227 19.2958,-24.5228 28.9442,-56.8853 28.9453,-97.0874 0,-36.1812 -8.6445,-66.3326 -25.9302,-90.4541 -30.9564,-45.0255 -77.9925,-67.5385 -141.1084,-67.5391 -37.7906,6e-4 -76.5853,7.8399 -116.3843,23.5181 -34.9763,14.0711 -61.5095,29.7498 -79.5996,47.0361 -33.7702,33.77 -58.6953,77.1879 -74.7754,130.2539 -5.6288,18.8952 -9.046,36.182 -10.2514,51.8604 -0.8047,15.2769 -1.2067,30.9556 -1.2061,47.0361 m 0.6031,-425.7373 -42.815,0 0,-78.9966 -50.0513,0 c -13.6691,8e-4 -20.5034,-6.6325 -20.5029,-19.8999 l 0,-0.603 c -5e-4,-13.2658 6.8338,-19.8991 20.5029,-19.8999 l 50.0513,0 0,-51.2574 c -6e-4,-14.0697 7.2357,-21.105 21.709,-21.1059 l 0,0 c 14.07,9e-4 21.1053,7.0362 21.106,21.1059 l 0,51.2574 51.8603,0 c 13.2659,8e-4 19.8992,6.6341 19.8999,19.8999 l 0,0.603 c -7e-4,13.2674 -6.634,19.9007 -19.8999,19.8999 l -51.2573,0.603 -0.603,78.3936"
     id="path4386"
     style="fill:#000000;stroke:none" /></g>
       </g>
      </g>
      <g
   id="g896">
       <g
   id="id131">
        <path
   d="m 10586,7758 -882,0 -441,764 441,764 882,0 441,-764 -441,-764 z"
   id="path899"
   style="fill:#d18b47;stroke:none" />
       </g>
      </g>
      <g
   id="g901">
       <g
   id="id132">
        <g
   id="text904"><path
     d="m 10143.5,8370.9238 c 46.633,6e-4 86.433,16.6843 119.399,50.0513 33.367,32.9659 50.051,72.7657 50.052,119.3994 -10e-4,47.0365 -16.685,87.0372 -50.052,120.0025 -32.966,32.9657 -72.766,49.4484 -119.399,49.4482 -47.037,2e-4 -87.037,-16.4825 -120.002,-49.4482 -32.9664,-32.9653 -49.4491,-72.966 -49.4487,-120.0025 -4e-4,-46.6337 16.4823,-86.4335 49.4487,-119.3994 32.965,-33.367 72.965,-50.0507 120.002,-50.0513"
     id="path4389"
     style="fill:#ffffff;stroke:none" /></g>
       </g>
      </g>
      <g
   id="g912">
       <g
   id="id133">
        <g
   id="text915"><path
     d="m 10143.5,8370.9238 c 46.633,6e-4 86.433,16.6843 119.399,50.0513 33.367,32.9659 50.051,72.7657 50.052,119.3994 -10e-4,47.0365 -16.685,87.0372 -50.052,120.0025 -32.966,32.9657 -72.766,49.4484 -119.399,49.4482 -47.037,2e-4 -87.037,-16.4825 -120.002,-49.4482 -32.9664,-32.9653 -49.4491,-72.966 -49.4487,-120.0025 -4e-4,-46.6337 16.4823,-86.4335 49.4487,-119.3994 32.965,-33.367 72.965,-50.0507 120.002,-50.0513"
     id="path4392"
     style="fill:#000000;stroke:none" /></g>
       </g>
      </g>
      <g
   id="g923">
       <g
   id="id134">
        <path
   d="m 11909,6994 -882,0 -441,764 441,764 882,0 441,-764 -441,-764 z"
   id="path926"
   style="fill:#ffce9e;stroke:none" />
       </g>
      </g>
      <g
   id="g928">
       <g
   id="id135">
        <path
   d="m 13232,6230 -882,0 -441,764 441,764 882,0 441,-764 -441,-764 z"
   id="path931"
   style="fill:#e8ab6f;stroke:none" />
       </g>
      </g>
      <g
   id="g933">
       <g
   id="id136">
        <path
   d="m 14555,5467 -882,0 -441,764 441,764 882,0 441,-764 -441,-764 z"
   id="path936"
   style="fill:#d18b47;stroke:none" />
       </g>
      </g>
      <g
   id="g938">
       <g
   id="id137">
        <path
   d="m 15878,4703 -882,0 -441,764 441,764 882,0 441,-764 -441,-764 z"
   id="path941"
   style="fill:#ffce9e;stroke:none" />
       </g>
      </g>
      <g
   id="g943">
       <g
   id="id138" />
      </g>
      <g
   id="g946">
       <g
   id="id139">
        <g
   id="text949"><path
     d="m 16954.236,4658.832 c -14.994,-102.3119 -82.026,-163.17 -177.282,-163.17 -68.796,0 -130.536,33.5161 -167.58,89.082 -38.808,60.8579 -56.448,137.5921 -56.448,251.37 0,104.9579 15.876,171.9901 52.92,227.556 33.516,50.2739 88.2,77.616 156.996,77.616 119.07,0 204.624,-88.2001 204.624,-210.798 0,-116.4239 -79.38,-198.45 -191.394,-198.45 -61.74,0 -110.25,23.814 -143.766,69.678 0.882,-152.5858 50.274,-237.258 139.356,-237.258 54.684,0 92.61,34.3981 104.958,94.374 l 77.616,0 m -187.866,142.002 c 74.97,0 121.716,52.0381 121.716,135.828 0,78.4979 -52.92,135.828 -124.362,135.828 -72.324,0 -127.008,-59.9761 -127.008,-140.238 0,-77.6159 52.92,-131.418 129.654,-131.418"
     id="path4395"
     style="fill:#000000;stroke:none" /></g>
       </g>
      </g>
      <g
   id="g957">
       <g
   id="id140" />
      </g>
      <g
   id="g960">
       <g
   id="id141">
        <g
   id="text963"><path
     d="m 2421.64,3731.662 -418.068,0 0,76.734 337.806,0 C 2192.3201,4020.9578 2131.462,4151.4942 2084.716,4357 l 82.908,0 c 34.398,-200.2138 112.8961,-372.2042 254.016,-560.07 l 0,-65.268"
     id="path4398"
     style="fill:#000000;stroke:none" /></g>
       </g>
      </g>
      <g
   id="g971">
       <g
   id="id142">
        <path
   d="m 4413,4703 -441,-764 -882,0 -441,764 441,764 882,0 441,-764 z"
   id="path974"
   style="fill:#e8ab6f;stroke:none" />
       </g>
      </g>
      <g
   id="g976">
       <g
   id="id143">
        <path
   d="m 5735,5467 -441,-764 -882,0 -441,764 441,764 882,0 441,-764 z"
   id="path979"
   style="fill:#ffce9e;stroke:none" />
       </g>
      </g>
      <g
   id="g981">
       <g
   id="id144">
        <path
   d="m 7058,6231 -441,-764 -882,0 -441,764 441,764 882,0 441,-764 z"
   id="path984"
   style="fill:#d18b47;stroke:none" />
       </g>
      </g>
      <g
   id="g986">
       <g
   id="id145">
        <path
   d="m 8381,6994 -441,-764 -882,0 -441,764 441,764 882,0 441,-764 z"
   id="path989"
   style="fill:#e8ab6f;stroke:none" />
       </g>
      </g>
      <g
   id="g991">
       <g
   id="id146">
        <g
   id="text994"><path
     d="m 7497.5,6842.9238 c 46.6335,6e-4 86.4332,16.6843 119.3994,50.0513 33.3668,32.9659 50.0505,72.7657 50.0513,119.3994 -8e-4,47.0365 -16.6845,87.0372 -50.0513,120.0025 -32.9662,32.9657 -72.7659,49.4484 -119.3994,49.4482 -47.0367,2e-4 -87.0375,-16.4825 -120.0024,-49.4482 -32.966,-32.9653 -49.4487,-72.966 -49.4483,-120.0025 -4e-4,-46.6337 16.4823,-86.4335 49.4483,-119.3994 32.9649,-33.367 72.9657,-50.0507 120.0024,-50.0513"
     id="path4401"
     style="fill:#ffffff;stroke:none" /></g>
       </g>
      </g>
      <g
   id="g1002">
       <g
   id="id147">
        <g
   id="text1005"><path
     d="m 7497.5,6842.9238 c 46.6335,6e-4 86.4332,16.6843 119.3994,50.0513 33.3668,32.9659 50.0505,72.7657 50.0513,119.3994 -8e-4,47.0365 -16.6845,87.0372 -50.0513,120.0025 -32.9662,32.9657 -72.7659,49.4484 -119.3994,49.4482 -47.0367,2e-4 -87.0375,-16.4825 -120.0024,-49.4482 -32.966,-32.9653 -49.4487,-72.966 -49.4483,-120.0025 -4e-4,-46.6337 16.4823,-86.4335 49.4483,-119.3994 32.9649,-33.367 72.9657,-50.0507 120.0024,-50.0513"
     id="path4404"
     style="fill:#000000;stroke:none" /></g>
       </g>
      </g>
      <g
   id="g1013">
       <g
   id="id148">
        <path
   d="m 9263,6994 -882,0 -441,764 441,764 882,0 441,-764 -441,-764 z"
   id="path1016"
   style="fill:#ffce9e;stroke:none" />
       </g>
      </g>
      <g
   id="g1018">
       <g
   id="id149">
        <g
   id="text1021"><path
     d="m 8820.5,7606.9238 c 46.6335,6e-4 86.4332,16.6843 119.3994,50.0513 33.3668,32.9659 50.0505,72.7657 50.0513,119.3994 -8e-4,47.0365 -16.6845,87.0372 -50.0513,120.0025 -32.9662,32.9657 -72.7659,49.4484 -119.3994,49.4482 -47.0367,2e-4 -87.0375,-16.4825 -120.0024,-49.4482 -32.966,-32.9653 -49.4487,-72.966 -49.4483,-120.0025 -4e-4,-46.6337 16.4823,-86.4335 49.4483,-119.3994 32.9649,-33.367 72.9657,-50.0507 120.0024,-50.0513"
     id="path4407"
     style="fill:#ffffff;stroke:none" /></g>
       </g>
      </g>
      <g
   id="g1029">
       <g
   id="id150">
        <g
   id="text1032"><path
     d="m 8820.5,7606.9238 c 46.6335,6e-4 86.4332,16.6843 119.3994,50.0513 33.3668,32.9659 50.0505,72.7657 50.0513,119.3994 -8e-4,47.0365 -16.6845,87.0372 -50.0513,120.0025 -32.9662,32.9657 -72.7659,49.4484 -119.3994,49.4482 -47.0367,2e-4 -87.0375,-16.4825 -120.0024,-49.4482 -32.966,-32.9653 -49.4487,-72.966 -49.4483,-120.0025 -4e-4,-46.6337 16.4823,-86.4335 49.4483,-119.3994 32.9649,-33.367 72.9657,-50.0507 120.0024,-50.0513"
     id="path4410"
     style="fill:#000000;stroke:none" /></g>
       </g>
      </g>
      <g
   id="g1040">
       <g
   id="id151">
        <path
   d="m 10586,6230 -882,0 -441,764 441,764 882,0 441,-764 -441,-764 z"
   id="path1043"
   style="fill:#e8ab6f;stroke:none" />
       </g>
      </g>
      <g
   id="g1045">
       <g
   id="id152">
        <g
   id="text1048"><path
     d="m 10143.5,6842.9238 c 46.633,6e-4 86.433,16.6843 119.399,50.0513 33.367,32.9659 50.051,72.7657 50.052,119.3994 -10e-4,47.0365 -16.685,87.0372 -50.052,120.0025 -32.966,32.9657 -72.766,49.4484 -119.399,49.4482 -47.037,2e-4 -87.037,-16.4825 -120.002,-49.4482 -32.9664,-32.9653 -49.4491,-72.966 -49.4487,-120.0025 -4e-4,-46.6337 16.4823,-86.4335 49.4487,-119.3994 32.965,-33.367 72.965,-50.0507 120.002,-50.0513"
     id="path4413"
     style="fill:#ffffff;stroke:none" /></g>
       </g>
      </g>
      <g
   id="g1056">
       <g
   id="id153">
        <g
   id="text1059"><path
     d="m 10143.5,6842.9238 c 46.633,6e-4 86.433,16.6843 119.399,50.0513 33.367,32.9659 50.051,72.7657 50.052,119.3994 -10e-4,47.0365 -16.685,87.0372 -50.052,120.0025 -32.966,32.9657 -72.766,49.4484 -119.399,49.4482 -47.037,2e-4 -87.037,-16.4825 -120.002,-49.4482 -32.9664,-32.9653 -49.4491,-72.966 -49.4487,-120.0025 -4e-4,-46.6337 16.4823,-86.4335 49.4487,-119.3994 32.965,-33.367 72.965,-50.0507 120.002,-50.0513"
     id="path4416"
     style="fill:#000000;stroke:none" /></g>
       </g>
      </g>
      <g
   id="g1067">
       <g
   id="id154">
        <path
   d="m 11909,5467 -882,0 -441,764 441,764 882,0 441,-764 -441,-764 z"
   id="path1070"
   style="fill:#d18b47;stroke:none" />
       </g>
      </g>
      <g
   id="g1072">
       <g
   id="id155">
        <path
   d="m 13232,4703 -882,0 -441,764 441,764 882,0 441,-764 -441,-764 z"
   id="path1075"
   style="fill:#ffce9e;stroke:none" />
       </g>
      </g>
      <g
   id="g1077">
       <g
   id="id156">
        <path
   d="m 14555,3939 -882,0 -441,764 441,764 882,0 441,-764 -441,-764 z"
   id="path1080"
   style="fill:#e8ab6f;stroke:none" />
       </g>
      </g>
      <g
   id="g1082">
       <g
   id="id157" />
      </g>
      <g
   id="g1085">
       <g
   id="id158">
        <g
   id="text1088"><path
     d="m 15650.64,3731.662 -418.068,0 0,76.734 337.806,0 c -149.058,212.5618 -209.916,343.0982 -256.662,548.604 l 82.908,0 c 34.398,-200.2138 112.896,-372.2042 254.016,-560.07 l 0,-65.268"
     id="path4419"
     style="fill:#000000;stroke:none" /></g>
       </g>
      </g>
      <g
   id="g1096">
       <g
   id="id159" />
      </g>
      <g
   id="g1099">
       <g
   id="id160">
        <g
   id="text1102"><path
     d="m 3630.862,3265.014 c 64.3859,-38.808 85.554,-70.5601 85.554,-129.654 0,-97.9019 -76.7341,-166.698 -187.866,-166.698 -110.2499,0 -187.866,68.7961 -187.866,166.698 0,58.2119 21.1681,89.964 84.672,129.654 -71.4419,34.398 -106.722,86.4361 -106.722,155.232 0,114.6599 86.4361,194.04 209.916,194.04 123.4799,0 209.916,-79.3801 209.916,-193.158 0,-69.6779 -35.2801,-121.716 -107.604,-156.114 M 3528.55,3037.458 c 66.1499,0 108.486,38.8081 108.486,99.666 0,58.2119 -43.2181,97.02 -108.486,97.02 -65.2679,0 -108.486,-38.8081 -108.486,-97.902 0,-59.9759 43.2181,-98.784 108.486,-98.784 m 0,261.954 c 77.6159,0 130.536,49.3921 130.536,122.598 0,74.0879 -52.9201,123.48 -132.3,123.48 -75.8519,0 -128.772,-50.2741 -128.772,-123.48 0,-73.2059 52.9201,-122.598 130.536,-122.598"
     id="path4422"
     style="fill:#000000;stroke:none" /></g>
       </g>
      </g>
      <g
   id="g1110">
       <g
   id="id161">
        <path
   d="m 5735,3939 -441,-764 -882,0 -441,764 441,764 882,0 441,-764 z"
   id="path1113"
   style="fill:#d18b47;stroke:none" />
       </g>
      </g>
      <g
   id="g1115">
       <g
   id="id162">
        <path
   d="m 7058,4703 -441,-764 -882,0 -441,764 441,764 882,0 441,-764 z"
   id="path1118"
   style="fill:#e8ab6f;stroke:none" />
       </g>
      </g>
      <g
   id="g1120">
       <g
   id="id163">
        <path
   d="m 8381,5467 -441,-764 -882,0 -441,764 441,764 882,0 441,-764 z"
   id="path1123"
   style="fill:#ffce9e;stroke:none" />
       </g>
      </g>
      <g
   id="g1125">
       <g
   id="id164">
        <path
   d="m 9263,5467 -882,0 -441,764 441,764 882,0 441,-764 -441,-764 z"
   id="path1128"
   style="fill:#d18b47;stroke:none" />
       </g>
      </g>
      <g
   id="g1130">
       <g
   id="id165">
        <path
   d="m 10586,4703 -882,0 -441,764 441,764 882,0 441,-764 -441,-764 z"
   id="path1133"
   style="fill:#ffce9e;stroke:none" />
       </g>
      </g>
      <g
   id="g1135">
       <g
   id="id166">
        <path
   d="m 11909,3939 -882,0 -441,764 441,764 882,0 441,-764 -441,-764 z"
   id="path1138"
   style="fill:#e8ab6f;stroke:none" />
       </g>
      </g>
      <g
   id="g1140">
       <g
   id="id167">
        <path
   d="m 13232,3175 -882,0 -441,764 441,764 882,0 441,-764 -441,-764 z"
   id="path1143"
   style="fill:#d18b47;stroke:none" />
       </g>
      </g>
      <g
   id="g1145">
       <g
   id="id168" />
      </g>
      <g
   id="g1148">
       <g
   id="id169">
        <g
   id="text1151"><path
     d="m 14213.862,3265.014 c 64.386,-38.808 85.554,-70.5601 85.554,-129.654 0,-97.9019 -76.734,-166.698 -187.866,-166.698 -110.25,0 -187.866,68.7961 -187.866,166.698 0,58.2119 21.168,89.964 84.672,129.654 -71.442,34.398 -106.722,86.4361 -106.722,155.232 0,114.6599 86.436,194.04 209.916,194.04 123.48,0 209.916,-79.3801 209.916,-193.158 0,-69.6779 -35.28,-121.716 -107.604,-156.114 m -102.312,-227.556 c 66.15,0 108.486,38.8081 108.486,99.666 0,58.2119 -43.218,97.02 -108.486,97.02 -65.268,0 -108.486,-38.8081 -108.486,-97.902 0,-59.9759 43.218,-98.784 108.486,-98.784 m 0,261.954 c 77.616,0 130.536,49.3921 130.536,122.598 0,74.0879 -52.92,123.48 -132.3,123.48 -75.852,0 -128.772,-50.2741 -128.772,-123.48 0,-73.2059 52.92,-122.598 130.536,-122.598"
     id="path4425"
     style="fill:#000000;stroke:none" /></g>
       </g>
      </g>
      <g
   id="g1159">
       <g
   id="id170" />
      </g>
      <g
   id="g1162">
       <g
   id="id171">
        <g
   id="text1165"><path
     d="m 4655.746,2689.116 c 14.994,102.3119 82.0261,163.17 177.282,163.17 68.7959,0 131.418,-33.5161 167.58,-89.082 39.69,-60.8579 57.33,-137.5921 57.33,-251.37 0,-104.9579 -15.876,-171.9901 -52.92,-227.556 -34.398,-50.2739 -89.0821,-77.616 -157.878,-77.616 -119.0699,0 -204.624,88.2001 -204.624,210.798 0,116.4239 79.3801,198.45 192.276,198.45 59.0939,0 102.312,-21.168 142.884,-69.678 -0.882,152.5858 -50.2741,237.258 -139.356,237.258 -54.6839,0 -92.61,-34.3981 -104.958,-94.374 l -77.616,0 m 190.512,-414.54 c 72.3239,0 127.008,59.9761 127.008,141.12 0,76.7339 -53.8021,131.418 -129.654,131.418 -74.9699,0 -121.716,-52.0381 -121.716,-135.828 0,-79.3799 52.9201,-136.71 124.362,-136.71"
     id="path4428"
     style="fill:#000000;stroke:none" /></g>
       </g>
      </g>
      <g
   id="g1173">
       <g
   id="id172">
        <path
   d="m 7058,3175 -441,-764 -882,0 -441,764 441,764 882,0 441,-764 z"
   id="path1176"
   style="fill:#ffce9e;stroke:none" />
       </g>
      </g>
      <g
   id="g1178">
       <g
   id="id173">
        <path
   d="m 8381,3939 -441,-764 -882,0 -441,764 441,764 882,0 441,-764 z"
   id="path1181"
   style="fill:#d18b47;stroke:none" />
       </g>
      </g>
      <g
   id="g1183">
       <g
   id="id174">
        <path
   d="m 9263,3939 -882,0 -441,764 441,764 882,0 441,-764 -441,-764 z"
   id="path1186"
   style="fill:#e8ab6f;stroke:none" />
       </g>
      </g>
      <g
   id="g1188">
       <g
   id="id175">
        <path
   d="m 10586,3175 -882,0 -441,764 441,764 882,0 441,-764 -441,-764 z"
   id="path1191"
   style="fill:#d18b47;stroke:none" />
       </g>
      </g>
      <g
   id="g1193">
       <g
   id="id176">
        <path
   d="m 11907,2411 -882,0 -441,764 441,764 882,0 441,-764 -441,-764 z"
   id="path1196"
   style="fill:#ffce9e;stroke:none" />
       </g>
      </g>
      <g
   id="g1198">
       <g
   id="id177" />
      </g>
      <g
   id="g1201">
       <g
   id="id178">
        <g
   id="text1204"><path
     d="m 12588.746,2689.116 c 14.994,102.3119 82.026,163.17 177.282,163.17 68.796,0 131.418,-33.5161 167.58,-89.082 39.69,-60.8579 57.33,-137.5921 57.33,-251.37 0,-104.9579 -15.876,-171.9901 -52.92,-227.556 -34.398,-50.2739 -89.082,-77.616 -157.878,-77.616 -119.07,0 -204.624,88.2001 -204.624,210.798 0,116.4239 79.38,198.45 192.276,198.45 59.094,0 102.312,-21.168 142.884,-69.678 -0.882,152.5858 -50.274,237.258 -139.356,237.258 -54.684,0 -92.61,-34.3981 -104.958,-94.374 l -77.616,0 m 190.512,-414.54 c 72.324,0 127.008,59.9761 127.008,141.12 0,76.7339 -53.802,131.418 -129.654,131.418 -74.97,0 -121.716,-52.0381 -121.716,-135.828 0,-79.3799 52.92,-136.71 124.362,-136.71"
     id="path4431"
     style="fill:#000000;stroke:none" /></g>
       </g>
      </g>
      <g
   id="g1212">
       <g
   id="id179" />
      </g>
      <g
   id="g1215">
       <g
   id="id180">
        <g
   id="text1218"><path
     d="m 5911.438,1620.59 0,445.41 77.616,0 0,-625.338 -51.156,0 c -27.342,96.1379 -44.9821,109.368 -164.934,124.362 l 0,55.566 138.474,0"
     id="path4434"
     style="fill:#000000;stroke:none" /><path
     d="m 6416.507,1440.662 c -58.2119,0 -111.132,25.578 -143.766,68.796 -40.5719,54.6839 -60.858,138.4741 -60.858,254.016 0,210.7978 70.5602,322.812 204.624,322.812 132.2999,0 204.624,-112.0142 204.624,-317.52 0,-121.7159 -19.404,-202.8601 -60.858,-259.308 -32.6339,-44.1 -84.672,-68.796 -143.766,-68.796 m 0,68.796 c 83.7899,0 125.244,84.6722 125.244,252.252 0,177.2818 -40.5721,260.19 -127.008,260.19 -82.0259,0 -123.48,-86.4362 -123.48,-257.544 0,-171.1078 41.4541,-254.898 125.244,-254.898"
     id="path4436"
     style="fill:#000000;stroke:none" /></g>
       </g>
      </g>
      <g
   id="g1226">
       <g
   id="id181">
        <path
   d="m 8380,2412 -441,-764 -882,0 -441,764 441,764 882,0 441,-764 z"
   id="path1229"
   style="fill:#e8ab6f;stroke:none" />
       </g>
      </g>
      <g
   id="g1231">
       <g
   id="id182">
        <path
   d="m 9261,2411 -882,0 -441,764 441,764 882,0 441,-764 -441,-764 z"
   id="path1234"
   style="fill:#ffce9e;stroke:none" />
       </g>
      </g>
      <g
   id="g1236">
       <g
   id="id183">
        <path
   d="m 10584,1648 -882,0 -441,764 441,764 882,0 441,-764 -441,-764 z"
   id="path1239"
   style="fill:#e8ab6f;stroke:none" />
       </g>
      </g>
      <g
   id="g1241">
       <g
   id="id184" />
      </g>
      <g
   id="g1244">
       <g
   id="id185">
        <g
   id="text1247"><path
     d="m 11200.438,1620.59 0,445.41 77.616,0 0,-625.338 -51.156,0 c -27.342,96.1379 -44.982,109.368 -164.934,124.362 l 0,55.566 138.474,0"
     id="path4439"
     style="fill:#000000;stroke:none" /><path
     d="m 11705.507,1440.662 c -58.212,0 -111.132,25.578 -143.766,68.796 -40.572,54.6839 -60.858,138.4741 -60.858,254.016 0,210.7978 70.56,322.812 204.624,322.812 132.3,0 204.624,-112.0142 204.624,-317.52 0,-121.7159 -19.404,-202.8601 -60.858,-259.308 -32.634,-44.1 -84.672,-68.796 -143.766,-68.796 m 0,68.796 c 83.79,0 125.244,84.6722 125.244,252.252 0,177.2818 -40.572,260.19 -127.008,260.19 -82.026,0 -123.48,-86.4362 -123.48,-257.544 0,-171.1078 41.454,-254.898 125.244,-254.898"
     id="path4441"
     style="fill:#000000;stroke:none" /></g>
       </g>
      </g>
      <g
   id="g1255">
       <g
   id="id186" />
      </g>
      <g
   id="g1258">
       <g
   id="id187">
        <g
   id="text1261"><path
     d="m 7233.438,856.59 0,445.41 77.616,0 0,-625.338 -51.156,0 c -27.342,96.1379 -44.9821,109.36801 -164.934,124.362 l 0,55.566 138.474,0"
     id="path4444"
     style="fill:#000000;stroke:none" /><path
     d="m 7724.395,856.59 0,445.41 77.616,0 0,-625.338 -51.156,0 c -27.3419,96.1379 -44.9821,109.36801 -164.934,124.362 l 0,55.566 138.474,0"
     id="path4446"
     style="fill:#000000;stroke:none" /></g>
       </g>
      </g>
      <g
   id="g1269">
       <g
   id="id188">
        <path
   d="m 9261,884 -882,0 -441,764 441,764 882,0 441,-764 -441,-764 z"
   id="path1272"
   style="fill:#d18b47;stroke:none" />
       </g>
      </g>
      <g
   id="g1274">
       <g
   id="id189" />
      </g>
      <g
   id="g1277">
       <g
   id="id190">
        <g
   id="text1280"><path
     d="m 9879.438,856.59 0,445.41 77.616,0 0,-625.338 -51.156,0 c -27.342,96.1379 -44.9821,109.36801 -164.934,124.362 l 0,55.566 138.474,0"
     id="path4449"
     style="fill:#000000;stroke:none" /><path
     d="m 10370.395,856.59 0,445.41 77.616,0 0,-625.338 -51.156,0 c -27.342,96.1379 -44.982,109.36801 -164.934,124.362 l 0,55.566 138.474,0"
     id="path4451"
     style="fill:#000000;stroke:none" /></g>
       </g>
      </g>
     </g>
    </g>
   </g>
  </g>
 </g>
</svg>