<svg
        xmlns="http://www.w3.org/2000/svg"
        xml:space="preserve"
        width="666.784"
        height="730.734"
        clip-path="url(#a)"
        style="fill-rule:evenodd;stroke-width:28.22200012;stroke-linejoin:round"
        viewBox="0 0 17642 19334"
>
  <defs>
    <clipPath id="a"><path d="M0 0h17642v19334H0z" /></clipPath>
  </defs>
    <g clip-path="url(#a)">
    <path
            d="m1767 13868-441-764 441-764-441-763 441-764-441-764 441-764-441-763 441-764-441-764 441-764-441-763 441-764h882l441-764h882l441-764h882l441-763h882l441-764h882l441-764h882l440 764h882l441 764h882l441 763h882l441 764h882l441 764h882l441 764-441 763 441 764-441 764 441 764-441 763 441 764-441 764 441 764-441 763 441 764-441 764h-882l-441 764h-882l-441 764h-882l-441 763h-882l-441 764h-882l-440 764h-882l-441-764h-882l-441-764h-882l-441-763h-882l-441-764h-882l-441-764z"
            style="fill:none;stroke:#000;stroke-width:141"
    />
        <path
                d="m1767 13868-441-764 441-764-441-763 441-764-441-764 441-764-441-763 441-764-441-764 441-764-441-763 441-764h882l441-764h882l441-764h882l441-763h882l441-764h882l441-764h882l440 764h882l441 764h882l441 763h882l441 764h882l441 764h882l441 764-441 763 441 764-441 764 441 764-441 763 441 764-441 764 441 764-441 763 441 764-441 764h-882l-441 764h-882l-441 764h-882l-441 763h-882l-441 764h-882l-440 764h-882l-441-764h-882l-441-764h-882l-441-763h-882l-441-764h-882l-441-764z"
                style="fill:#ffce9e;stroke:none"
        />
        <path
                d="m1767 13868-441-764 441-764-441-763 441-764-441-764 441-764-441-763 441-764-441-764 441-764-441-763 441-764h882l441-764h882l441-764h882l441-763h882l441-764h882l441-764h882l440 764h882l441 764h882l441 763h882l441 764h882l441 764h882l441 764-441 763 441 764-441 764 441 764-441 763 441 764-441 764 441 764-441 763 441 764-441 764h-882l-441 764h-882l-441 764h-882l-441 763h-882l-441 764h-882l-440 764h-882l-441-764h-882l-441-764h-882l-441-763h-882l-441-764h-882l-441-764z"
                style="fill:none;stroke:#000"
        />

        <path
                d="m3090 13104-441-764h-882l-441 764 441 764h882z"
                style="fill:#d18b47;stroke:none"
        />
        <path
                d="M2207.5 12952.924q69.95 0 119.4 50.051 50.05 49.449 50.05 119.4 0 70.554-50.05 120.002-49.45 49.449-119.4 49.448-70.555 0-120.002-49.448-49.45-49.448-49.449-120.002 0-69.951 49.449-119.4 49.447-50.05 120.002-50.051"
                style="fill:#fff;stroke:none"
        />
        <path
                d="M2207.5 12952.924q69.95 0 119.4 50.051 50.05 49.449 50.05 119.4 0 70.554-50.05 120.002-49.45 49.449-119.4 49.448-70.555 0-120.002-49.448-49.45-49.448-49.449-120.002 0-69.951 49.449-119.4 49.447-50.05 120.002-50.051"
                style="fill:#000;stroke:none"
        />
        <path
                d="m4413 13868-441-764h-882l-441 764 441 764h882z"
                style="fill:#e8ab6f;stroke:none"
        />
        <path
                d="m5735 14632-441-764h-882l-441 764 441 764h882z"
                style="fill:#ffce9e;stroke:none"
        />
        <path
                d="m7058 15396-441-764h-882l-441 764 441 764h882z"
                style="fill:#d18b47;stroke:none"
        />
        <path
                d="m8381 16159-441-764h-882l-441 764 441 764h882z"
                style="fill:#e8ab6f;stroke:none"
        />
        <path
                d="M9263 16159h-882l-441 764 441 764h882l441-764z"
                style="fill:#ffce9e;stroke:none"
        />
        <path
                d="M8820.5 16771.924q69.95 0 119.4 50.051 50.05 49.449 50.05 119.4 0 70.554-50.05 120.002-49.45 49.449-119.4 49.448-70.555 0-120.002-49.448-49.45-49.448-49.449-120.002 0-69.951 49.449-119.4 49.447-50.05 120.002-50.051"
                style="fill:#fff;stroke:none"
        />
        <path
                d="M8820.5 16771.924q69.95 0 119.4 50.051 50.05 49.449 50.05 119.4 0 70.554-50.05 120.002-49.45 49.449-119.4 49.448-70.555 0-120.002-49.448-49.45-49.448-49.449-120.002 0-69.951 49.449-119.4 49.447-50.05 120.002-50.051"
                style="fill:#000;stroke:none"
        />
        <path
                d="M10586 15395h-882l-441 764 441 764h882l441-764z"
                style="fill:#e8ab6f;stroke:none"
        />
        <path
                d="M11909 14632h-882l-441 764 441 764h882l441-764z"
                style="fill:#d18b47;stroke:none"
        />
        <path
                d="M13232 13870h-882l-441 764 441 764h882l441-764z"
                style="fill:#ffce9e;stroke:none"
        />
        <path
                d="M14555 13106h-882l-441 764 441 764h882l441-764z"
                style="fill:#e8ab6f;stroke:none"
        />
        <path
                d="M15878 12342h-882l-441 764 441 764h882l441-764z"
                style="fill:#d18b47;stroke:none"
        />
        <path
                d="M15436.5 12954.924q69.95 0 119.399 50.051 50.05 49.449 50.052 119.4-.002 70.554-50.052 120.002-49.45 49.449-119.399 49.448-70.555 0-120.002-49.448-49.449-49.448-49.449-120.002 0-69.951 49.449-119.4 49.447-50.05 120.002-50.051"
                style="fill:#fff;stroke:none"
        />
        <path
                d="M15436.5 12954.924q69.95 0 119.399 50.051 50.05 49.449 50.052 119.4-.002 70.554-50.052 120.002-49.45 49.449-119.399 49.448-70.555 0-120.002-49.448-49.449-49.448-49.449-120.002 0-69.951 49.449-119.4 49.447-50.05 120.002-50.051"
                style="fill:#000;stroke:none"
        />
        <path
                d="m3090 11579-441-764h-882l-441 764 441 764h882z"
                style="fill:#e8ab6f;stroke:none"
        />
        <path
                d="m4413 12342-441-764h-882l-441 764 441 764h882z"
                style="fill:#ffce9e;stroke:none"
        />
        <path
                d="M3530.5 12190.924q69.95 0 119.4 50.051 50.05 49.449 50.05 119.4 0 70.554-50.05 120.002-49.45 49.449-119.4 49.448-70.555 0-120.002-49.448-49.45-49.448-49.449-120.002 0-69.951 49.449-119.4 49.447-50.05 120.002-50.051"
                style="fill:#fff;stroke:none"
        />
        <path
                d="M3530.5 12190.924q69.95 0 119.4 50.051 50.05 49.449 50.05 119.4 0 70.554-50.05 120.002-49.45 49.449-119.4 49.448-70.555 0-120.002-49.448-49.45-49.448-49.449-120.002 0-69.951 49.449-119.4 49.447-50.05 120.002-50.051"
                style="fill:#000;stroke:none"
        />
        <path
                d="m5735 13106-441-764h-882l-441 764 441 764h882z"
                style="fill:#d18b47;stroke:none"
        />
        <path
                d="m7058 13870-441-764h-882l-441 764 441 764h882z"
                style="fill:#e8ab6f;stroke:none"
        />
        <path
                d="M6176.5 13718.924q69.95 0 119.4 50.051 50.05 49.449 50.05 119.4 0 70.554-50.05 120.002-49.45 49.449-119.4 49.448-70.555 0-120.002-49.448-49.45-49.448-49.449-120.002 0-69.951 49.449-119.4 49.447-50.05 120.002-50.051"
                style="fill:#fff;stroke:none"
        />
        <path
                d="M6176.5 13718.924q69.95 0 119.4 50.051 50.05 49.449 50.05 119.4 0 70.554-50.05 120.002-49.45 49.449-119.4 49.448-70.555 0-120.002-49.448-49.45-49.448-49.449-120.002 0-69.951 49.449-119.4 49.447-50.05 120.002-50.051"
                style="fill:#000;stroke:none"
        />
        <path
                d="m8381 14634-441-764h-882l-441 764 441 764h882z"
                style="fill:#ffce9e;stroke:none"
        />
        <path
                d="M9263 14633h-882l-441 764 441 764h882l441-764z"
                style="fill:#d18b47;stroke:none"
        />
        <path
                d="M8820.5 15245.924q69.95 0 119.4 50.051 50.05 49.449 50.05 119.4 0 70.554-50.05 120.002-49.45 49.449-119.4 49.448-70.555 0-120.002-49.448-49.45-49.448-49.449-120.002 0-69.951 49.449-119.4 49.447-50.05 120.002-50.051"
                style="fill:#fff;stroke:none"
        />
        <path
                d="M8820.5 15245.924q69.95 0 119.4 50.051 50.05 49.449 50.05 119.4 0 70.554-50.05 120.002-49.45 49.449-119.4 49.448-70.555 0-120.002-49.448-49.45-49.448-49.449-120.002 0-69.951 49.449-119.4 49.447-50.05 120.002-50.051"
                style="fill:#000;stroke:none"
        />
        <path
                d="M10586 13870h-882l-441 764 441 764h882l441-764z"
                style="fill:#ffce9e;stroke:none"
        />
        <path
                d="M11909 13106h-882l-441 764 441 764h882l441-764z"
                style="fill:#e8ab6f;stroke:none"
        />
        <path
                d="M11467.5 13718.924q69.95 0 119.399 50.051 50.05 49.449 50.052 119.4-.002 70.554-50.052 120.002-49.45 49.449-119.399 49.448-70.555 0-120.002-49.448-49.449-49.448-49.449-120.002 0-69.951 49.449-119.4 49.447-50.05 120.002-50.051"
                style="fill:#fff;stroke:none"
        />
        <path
                d="M11467.5 13718.924q69.95 0 119.399 50.051 50.05 49.449 50.052 119.4-.002 70.554-50.052 120.002-49.45 49.449-119.399 49.448-70.555 0-120.002-49.448-49.449-49.448-49.449-120.002 0-69.951 49.449-119.4 49.447-50.05 120.002-50.051"
                style="fill:#000;stroke:none"
        />
        <path
                d="M13232 12342h-882l-441 764 441 764h882l441-764z"
                style="fill:#d18b47;stroke:none"
        />
        <path
                d="M14555 11578h-882l-441 764 441 764h882l441-764z"
                style="fill:#ffce9e;stroke:none"
        />
        <path
                d="M14113.5 12190.924q69.95 0 119.399 50.051 50.05 49.449 50.052 119.4-.002 70.554-50.052 120.002-49.45 49.449-119.399 49.448-70.555 0-120.002-49.448-49.449-49.448-49.449-120.002 0-69.951 49.449-119.4 49.447-50.05 120.002-50.051"
                style="fill:#fff;stroke:none"
        />
        <path
                d="M14113.5 12190.924q69.95 0 119.399 50.051 50.05 49.449 50.052 119.4-.002 70.554-50.052 120.002-49.45 49.449-119.399 49.448-70.555 0-120.002-49.448-49.449-49.448-49.449-120.002 0-69.951 49.449-119.4 49.447-50.05 120.002-50.051"
                style="fill:#000;stroke:none"
        />
        <path
                d="M15878 10815h-882l-441 764 441 764h882l441-764z"
                style="fill:#e8ab6f;stroke:none"
        />

        <path
                d="m3090 10051-441-764h-882l-441 764 441 764h882z"
                style="fill:#ffce9e;stroke:none"
        />
        <path
                d="m4413 10815-441-764h-882l-441 764 441 764h882z"
                style="fill:#d18b47;stroke:none"
        />
        <path
                d="m5735 11579-441-764h-882l-441 764 441 764h882z"
                style="fill:#e8ab6f;stroke:none"
        />
        <path
                d="M4853.5 11426.924q69.95 0 119.4 50.051 50.05 49.449 50.05 119.4 0 70.554-50.05 120.002-49.45 49.449-119.4 49.448-70.555 0-120.002-49.448-49.45-49.448-49.449-120.002 0-69.951 49.449-119.4 49.447-50.05 120.002-50.051"
                style="fill:#fff;stroke:none"
        />
        <path
                d="M4853.5 11426.924q69.95 0 119.4 50.051 50.05 49.449 50.05 119.4 0 70.554-50.05 120.002-49.45 49.449-119.4 49.448-70.555 0-120.002-49.448-49.45-49.448-49.449-120.002 0-69.951 49.449-119.4 49.447-50.05 120.002-50.051"
                style="fill:#000;stroke:none"
        />
        <path
                d="m7058 12342-441-764h-882l-441 764 441 764h882z"
                style="fill:#ffce9e;stroke:none"
        />
        <path
                d="m8381 13106-441-764h-882l-441 764 441 764h882z"
                style="fill:#d18b47;stroke:none"
        />
        <path
                d="M9263 13106h-882l-441 764 441 764h882l441-764z"
                style="fill:#e8ab6f;stroke:none"
        />
        <path
                d="M8820.5 13718.924q69.95 0 119.4 50.051 50.05 49.449 50.05 119.4 0 70.554-50.05 120.002-49.45 49.449-119.4 49.448-70.555 0-120.002-49.448-49.45-49.448-49.449-120.002 0-69.951 49.449-119.4 49.447-50.05 120.002-50.051"
                style="fill:#fff;stroke:none"
        />
        <path
                d="M8820.5 13718.924q69.95 0 119.4 50.051 50.05 49.449 50.05 119.4 0 70.554-50.05 120.002-49.45 49.449-119.4 49.448-70.555 0-120.002-49.448-49.45-49.448-49.449-120.002 0-69.951 49.449-119.4 49.447-50.05 120.002-50.051"
                style="fill:#000;stroke:none"
        />
        <path
                d="M10586 12342h-882l-441 764 441 764h882l441-764z"
                style="fill:#d18b47;stroke:none"
        />
        <path
                d="M11909 11578h-882l-441 764 441 764h882l441-764z"
                style="fill:#ffce9e;stroke:none"
        />
        <path
                d="M13232 10815h-882l-441 764 441 764h882l441-764z"
                style="fill:#e8ab6f;stroke:none"
        />
        <path
                d="M12790.5 11426.924q69.95 0 119.399 50.051 50.05 49.449 50.052 119.4-.002 70.554-50.052 120.002-49.45 49.449-119.399 49.448-70.555 0-120.002-49.448-49.449-49.448-49.449-120.002 0-69.951 49.449-119.4 49.447-50.05 120.002-50.051"
                style="fill:#fff;stroke:none"
        />
        <path
                d="M12790.5 11426.924q69.95 0 119.399 50.051 50.05 49.449 50.052 119.4-.002 70.554-50.052 120.002-49.45 49.449-119.399 49.448-70.555 0-120.002-49.448-49.449-49.448-49.449-120.002 0-69.951 49.449-119.4 49.447-50.05 120.002-50.051"
                style="fill:#000;stroke:none"
        />
        <path
                d="M14555 10051h-882l-441 764 441 764h882l441-764z"
                style="fill:#d18b47;stroke:none"
        />
        <path
                d="M15878 9287h-882l-441 764 441 764h882l441-764z"
                style="fill:#ffce9e;stroke:none"
        />

        <path
                d="m3090 8524-441-764h-882l-441 764 441 764h882z"
                style="fill:#d18b47;stroke:none"
        />
        <path
                d="m4413 9287-441-764h-882l-441 764 441 764h882z"
                style="fill:#e8ab6f;stroke:none"
        />
        <path
                d="M3530.5 9135.924q69.95 0 119.4 50.051 50.05 49.449 50.05 119.4 0 70.554-50.05 120.002-49.45 49.449-119.4 49.448-70.555 0-120.002-49.448-49.45-49.448-49.449-120.002 0-69.951 49.449-119.4 49.447-50.05 120.002-50.051"
                style="fill:#fff;stroke:none"
        />
        <path
                d="M3530.5 9135.924q69.95 0 119.4 50.051 50.05 49.449 50.05 119.4 0 70.554-50.05 120.002-49.45 49.449-119.4 49.448-70.555 0-120.002-49.448-49.45-49.448-49.449-120.002 0-69.951 49.449-119.4 49.447-50.05 120.002-50.051"
                style="fill:#000;stroke:none"
        />
        <path
                d="m5735 10051-441-764h-882l-441 764 441 764h882z"
                style="fill:#ffce9e;stroke:none"
        />
        <path
                d="m7058 10815-441-764h-882l-441 764 441 764h882z"
                style="fill:#d18b47;stroke:none"
        />
        <path
                d="M6176.5 10663.924q69.95 0 119.4 50.051 50.05 49.449 50.05 119.4 0 70.554-50.05 120.002-49.45 49.449-119.4 49.448-70.555 0-120.002-49.448-49.45-49.448-49.449-120.002 0-69.951 49.449-119.4 49.447-50.05 120.002-50.051"
                style="fill:#fff;stroke:none"
        />
        <path
                d="M6176.5 10663.924q69.95 0 119.4 50.051 50.05 49.449 50.05 119.4 0 70.554-50.05 120.002-49.45 49.449-119.4 49.448-70.555 0-120.002-49.448-49.45-49.448-49.449-120.002 0-69.951 49.449-119.4 49.447-50.05 120.002-50.051"
                style="fill:#000;stroke:none"
        />
        <path
                d="m8381 11579-441-764h-882l-441 764 441 764h882z"
                style="fill:#e8ab6f;stroke:none"
        />
        <path
                d="M7497.5 11426.924q69.95 0 119.4 50.051 50.05 49.449 50.05 119.4 0 70.554-50.05 120.002-49.45 49.449-119.4 49.448-70.555 0-120.002-49.448-49.45-49.448-49.449-120.002 0-69.951 49.449-119.4 49.447-50.05 120.002-50.051"
                style="fill:#fff;stroke:none"
        />
        <path
                d="M7497.5 11426.924q69.95 0 119.4 50.051 50.05 49.449 50.05 119.4 0 70.554-50.05 120.002-49.45 49.449-119.4 49.448-70.555 0-120.002-49.448-49.45-49.448-49.449-120.002 0-69.951 49.449-119.4 49.447-50.05 120.002-50.051"
                style="fill:#000;stroke:none"
        />
        <path
                d="M9263 11578h-882l-441 764 441 764h882l441-764z"
                style="fill:#ffce9e;stroke:none"
        />
        <path
                d="M8820.5 12190.924q69.95 0 119.4 50.051 50.05 49.449 50.05 119.4 0 70.554-50.05 120.002-49.45 49.449-119.4 49.448-70.555 0-120.002-49.448-49.45-49.448-49.449-120.002 0-69.951 49.449-119.4 49.447-50.05 120.002-50.051"
                style="fill:#fff;stroke:none"
        />
        <path
                d="M8820.5 12190.924q69.95 0 119.4 50.051 50.05 49.449 50.05 119.4 0 70.554-50.05 120.002-49.45 49.449-119.4 49.448-70.555 0-120.002-49.448-49.45-49.448-49.449-120.002 0-69.951 49.449-119.4 49.447-50.05 120.002-50.051"
                style="fill:#000;stroke:none"
        />
        <path
                d="M10586 10815h-882l-441 764 441 764h882l441-764z"
                style="fill:#e8ab6f;stroke:none"
        />
        <path
                d="M10143.5 11426.924q69.95 0 119.399 50.051 50.05 49.449 50.052 119.4-.002 70.554-50.052 120.002-49.45 49.449-119.399 49.448-70.555 0-120.002-49.448-49.45-49.448-49.449-120.002 0-69.951 49.449-119.4 49.447-50.05 120.002-50.051"
                style="fill:#fff;stroke:none"
        />
        <path
                d="M10143.5 11426.924q69.95 0 119.399 50.051 50.05 49.449 50.052 119.4-.002 70.554-50.052 120.002-49.45 49.449-119.399 49.448-70.555 0-120.002-49.448-49.45-49.448-49.449-120.002 0-69.951 49.449-119.4 49.447-50.05 120.002-50.051"
                style="fill:#000;stroke:none"
        />
        <path
                d="M11909 10051h-882l-441 764 441 764h882l441-764z"
                style="fill:#d18b47;stroke:none"
        />
        <path
                d="M11467.5 10663.924q69.95 0 119.399 50.051 50.05 49.449 50.052 119.4-.002 70.554-50.052 120.002-49.45 49.449-119.399 49.448-70.555 0-120.002-49.448-49.449-49.448-49.449-120.002 0-69.951 49.449-119.4 49.447-50.05 120.002-50.051"
                style="fill:#fff;stroke:none"
        />
        <path
                d="M11467.5 10663.924q69.95 0 119.399 50.051 50.05 49.449 50.052 119.4-.002 70.554-50.052 120.002-49.45 49.449-119.399 49.448-70.555 0-120.002-49.448-49.449-49.448-49.449-120.002 0-69.951 49.449-119.4 49.447-50.05 120.002-50.051"
                style="fill:#000;stroke:none"
        />
        <path
                d="M13232 9287h-882l-441 764 441 764h882l441-764z"
                style="fill:#ffce9e;stroke:none"
        />
        <path
                d="M14555 8523h-882l-441 764 441 764h882l441-764z"
                style="fill:#e8ab6f;stroke:none"
        />
        <path
                d="M14113.5 9135.924q69.95 0 119.399 50.051 50.05 49.449 50.052 119.4-.002 70.554-50.052 120.002-49.45 49.449-119.399 49.448-70.555 0-120.002-49.448-49.449-49.448-49.449-120.002 0-69.951 49.449-119.4 49.447-50.05 120.002-50.051"
                style="fill:#fff;stroke:none"
        />
        <path
                d="M14113.5 9135.924q69.95 0 119.399 50.051 50.05 49.449 50.052 119.4-.002 70.554-50.052 120.002-49.45 49.449-119.399 49.448-70.555 0-120.002-49.448-49.449-49.448-49.449-120.002 0-69.951 49.449-119.4 49.447-50.05 120.002-50.051"
                style="fill:#000;stroke:none"
        />
        <path
                d="M15878 7760h-882l-441 764 441 764h882l441-764z"
                style="fill:#d18b47;stroke:none"
        />

        <path
                d="m3090 6996-441-764h-882l-441 764 441 764h882z"
                style="fill:#e8ab6f;stroke:none"
        />
        <path
                d="m4413 7760-441-764h-882l-441 764 441 764h882z"
                style="fill:#ffce9e;stroke:none"
        />
        <path
                d="m5735 8524-441-764h-882l-441 764 441 764h882z"
                style="fill:#d18b47;stroke:none"
        />
        <path
                d="m7058 9287-441-764h-882l-441 764 441 764h882z"
                style="fill:#e8ab6f;stroke:none"
        />
        <path
                d="M6176.5 9135.924q69.95 0 119.4 50.051 50.05 49.449 50.05 119.4 0 70.554-50.05 120.002-49.45 49.449-119.4 49.448-70.555 0-120.002-49.448-49.45-49.448-49.449-120.002 0-69.951 49.449-119.4 49.447-50.05 120.002-50.051"
                style="fill:#fff;stroke:none"
        />
        <path
                d="M6176.5 9135.924q69.95 0 119.4 50.051 50.05 49.449 50.05 119.4 0 70.554-50.05 120.002-49.45 49.449-119.4 49.448-70.555 0-120.002-49.448-49.45-49.448-49.449-120.002 0-69.951 49.449-119.4 49.447-50.05 120.002-50.051"
                style="fill:#000;stroke:none"
        />
        <path
                d="m8381 10051-441-764h-882l-441 764 441 764h882z"
                style="fill:#ffce9e;stroke:none"
        />
        <path
                d="M7497.5 9899.924q69.95 0 119.4 50.051 50.05 49.449 50.05 119.4 0 70.554-50.05 120.002-49.45 49.449-119.4 49.448-70.555 0-120.002-49.448-49.45-49.448-49.449-120.002 0-69.951 49.449-119.4 49.447-50.05 120.002-50.051"
                style="fill:#fff;stroke:none"
        />
        <path
                d="M7497.5 9899.924q69.95 0 119.4 50.051 50.05 49.449 50.05 119.4 0 70.554-50.05 120.002-49.45 49.449-119.4 49.448-70.555 0-120.002-49.448-49.45-49.448-49.449-120.002 0-69.951 49.449-119.4 49.447-50.05 120.002-50.051"
                style="fill:#000;stroke:none"
        />
        <path
                d="M9263 10051h-882l-441 764 441 764h882l441-764z"
                style="fill:#d18b47;stroke:none"
        />
        <path
                d="M8820.5 10663.924q69.95 0 119.4 50.051 50.05 49.449 50.05 119.4 0 70.554-50.05 120.002-49.45 49.449-119.4 49.448-70.555 0-120.002-49.448-49.45-49.448-49.449-120.002 0-69.951 49.449-119.4 49.447-50.05 120.002-50.051"
                style="fill:#fff;stroke:none"
        />
        <path
                d="M8820.5 10663.924q69.95 0 119.4 50.051 50.05 49.449 50.05 119.4 0 70.554-50.05 120.002-49.45 49.449-119.4 49.448-70.555 0-120.002-49.448-49.45-49.448-49.449-120.002 0-69.951 49.449-119.4 49.447-50.05 120.002-50.051"
                style="fill:#000;stroke:none"
        />
        <path
                d="M10586 9287h-882l-441 764 441 764h882l441-764z"
                style="fill:#ffce9e;stroke:none"
        />
        <path
                d="M10143.5 9899.924q69.95 0 119.399 50.051 50.05 49.449 50.052 119.4-.002 70.554-50.052 120.002-49.45 49.449-119.399 49.448-70.555 0-120.002-49.448-49.45-49.448-49.449-120.002 0-69.951 49.449-119.4 49.447-50.05 120.002-50.051"
                style="fill:#fff;stroke:none"
        />
        <path
                d="M10143.5 9899.924q69.95 0 119.399 50.051 50.05 49.449 50.052 119.4-.002 70.554-50.052 120.002-49.45 49.449-119.399 49.448-70.555 0-120.002-49.448-49.45-49.448-49.449-120.002 0-69.951 49.449-119.4 49.447-50.05 120.002-50.051"
                style="fill:#000;stroke:none"
        />
        <path
                d="M11909 8523h-882l-441 764 441 764h882l441-764z"
                style="fill:#e8ab6f;stroke:none"
        />
        <path
                d="M11467.5 9135.924q69.95 0 119.399 50.051 50.05 49.449 50.052 119.4-.002 70.554-50.052 120.002-49.45 49.449-119.399 49.448-70.555 0-120.002-49.448-49.449-49.448-49.449-120.002 0-69.951 49.449-119.4 49.447-50.05 120.002-50.051"
                style="fill:#fff;stroke:none"
        />
        <path
                d="M11467.5 9135.924q69.95 0 119.399 50.051 50.05 49.449 50.052 119.4-.002 70.554-50.052 120.002-49.45 49.449-119.399 49.448-70.555 0-120.002-49.448-49.449-49.448-49.449-120.002 0-69.951 49.449-119.4 49.447-50.05 120.002-50.051"
                style="fill:#000;stroke:none"
        />
        <path
                d="M13232 7760h-882l-441 764 441 764h882l441-764z"
                style="fill:#d18b47;stroke:none"
        />
        <path
                d="M14555 6996h-882l-441 764 441 764h882l441-764z"
                style="fill:#ffce9e;stroke:none"
        />
        <path
                d="M15878 6232h-882l-441 764 441 764h882l441-764z"
                style="fill:#e8ab6f;stroke:none"
        />

        <path
                d="m3090 5469-441-764h-882l-441 764 441 764h882z"
                style="fill:#ffce9e;stroke:none"
        />
        <path
                d="M2207.5 5316.924q69.95 0 119.4 50.051 50.05 49.449 50.05 119.4 0 70.554-50.05 120.002-49.45 49.448-119.4 49.448-70.555 0-120.002-49.448-49.45-49.448-49.449-120.003 0-69.95 49.449-119.399 49.447-50.05 120.002-50.051"
                style="fill:#fff;stroke:none"
        />
        <path
                d="M2207.5 5316.924q69.95 0 119.4 50.051 50.05 49.449 50.05 119.4 0 70.554-50.05 120.002-49.45 49.448-119.4 49.448-70.555 0-120.002-49.448-49.45-49.448-49.449-120.003 0-69.95 49.449-119.399 49.447-50.05 120.002-50.051"
                style="fill:#000;stroke:none"
        />
        <path
                d="m4413 6232-441-764h-882l-441 764 441 764h882z"
                style="fill:#d18b47;stroke:none"
        />
        <path
                d="M3530.5 6080.924q69.95 0 119.4 50.051 50.05 49.449 50.05 119.4 0 70.554-50.05 120.002-49.45 49.448-119.4 49.448-70.555 0-120.002-49.448-49.45-49.448-49.449-120.003 0-69.95 49.449-119.399 49.447-50.05 120.002-50.051"
                style="fill:#fff;stroke:none"
        />
        <path
                d="M3530.5 6080.924q69.95 0 119.4 50.051 50.05 49.449 50.05 119.4 0 70.554-50.05 120.002-49.45 49.448-119.4 49.448-70.555 0-120.002-49.448-49.45-49.448-49.449-120.003 0-69.95 49.449-119.399 49.447-50.05 120.002-50.051"
                style="fill:#000;stroke:none"
        />
        <path
                d="m5735 6996-441-764h-882l-441 764 441 764h882z"
                style="fill:#e8ab6f;stroke:none"
        />
        <path
                d="M4853.5 6844.924q69.95 0 119.4 50.051 50.05 49.449 50.05 119.4 0 70.554-50.05 120.002-49.45 49.448-119.4 49.448-70.555 0-120.002-49.448-49.45-49.448-49.449-120.003 0-69.95 49.449-119.399 49.447-50.05 120.002-50.051"
                style="fill:#fff;stroke:none"
        />
        <path
                d="M4853.5 6844.924q69.95 0 119.4 50.051 50.05 49.449 50.05 119.4 0 70.554-50.05 120.002-49.45 49.448-119.4 49.448-70.555 0-120.002-49.448-49.45-49.448-49.449-120.003 0-69.95 49.449-119.399 49.447-50.05 120.002-50.051"
                style="fill:#000;stroke:none"
        />
        <path
                d="m7058 7760-441-764h-882l-441 764 441 764h882z"
                style="fill:#ffce9e;stroke:none"
        />
        <path
                d="M6176.5 7608.924q69.95 0 119.4 50.051 50.05 49.449 50.05 119.4 0 70.554-50.05 120.002-49.45 49.448-119.4 49.448-70.555 0-120.002-49.448-49.45-49.448-49.449-120.003 0-69.95 49.449-119.399 49.447-50.05 120.002-50.051"
                style="fill:#fff;stroke:none"
        />
        <path
                d="M6176.5 7608.924q69.95 0 119.4 50.051 50.05 49.449 50.05 119.4 0 70.554-50.05 120.002-49.45 49.448-119.4 49.448-70.555 0-120.002-49.448-49.45-49.448-49.449-120.003 0-69.95 49.449-119.399 49.447-50.05 120.002-50.051"
                style="fill:#000;stroke:none"
        />
        <path
                d="m8380 8524-441-764h-882l-441 764 441 764h882z"
                style="fill:#d18b47;stroke:none"
        />
        <path
                d="M7497.5 8371.924q69.95 0 119.4 50.051 50.05 49.449 50.05 119.4 0 70.554-50.05 120.002-49.45 49.449-119.4 49.448-70.555 0-120.002-49.448-49.45-49.448-49.449-120.002 0-69.951 49.449-119.4 49.447-50.05 120.002-50.051"
                style="fill:#fff;stroke:none"
        />
        <path
                d="M7497.5 8371.924q69.95 0 119.4 50.051 50.05 49.449 50.05 119.4 0 70.554-50.05 120.002-49.45 49.449-119.4 49.448-70.555 0-120.002-49.448-49.45-49.448-49.449-120.002 0-69.951 49.449-119.4 49.447-50.05 120.002-50.051"
                style="fill:#000;stroke:none"
        />
        <path
                d="M9263 8523h-882l-441 764 441 764h882l441-764z"
                style="fill:#e8ab6f;stroke:none"
        />
        <path
                d="M8820.5 8945.367q-34.373 0-58.494-24.12-23.518-24.12-23.518-58.495 0-33.768 23.518-57.89 24.12-24.12 58.494-24.121 33.769 0 57.89 24.12 24.724 24.124 24.725 57.891-.001 34.374-24.724 58.494-24.123 24.123-57.891 24.121m371.465 806.85q-29.55 25.93-132.666 43.419-103.12 17.487-237.593 17.488-136.888 0-240.608-18.091t-130.857-45.227l37.99-144.727-16.884-94.675-53.066-92.263-51.258-375.083 29.549-11.458 165.23 278.599 3.617-331.665 41.006-7.237 126.033 333.474 67.54-358.8h41.608l67.539 357.594 124.827-332.268 41.609 7.237 3.618 331.665 165.832-279.202 28.342 13.267-50.05 373.274-53.67 92.263-16.885 95.881zm-624.737-776.7q-34.373.002-58.493-23.518-24.122-24.12-24.121-58.493 0-33.769 24.12-57.89 24.122-24.12 58.494-24.122 33.77.001 57.891 24.121 24.12 24.123 24.121 57.89 0 34.375-24.12 58.494-24.123 23.52-57.892 23.519m506.543 0q-34.373 0-58.493-23.519-23.52-24.12-23.518-58.493-.002-33.769 23.518-57.89 24.12-24.12 58.493-24.122 34.372.001 58.494 24.121 24.12 24.123 24.121 57.89 0 34.375-24.12 58.494-24.123 23.52-58.495 23.519m-728.457 66.333q-34.373 0-58.493-23.519-23.518-24.12-23.518-58.493 0-33.769 23.518-57.89 24.12-24.724 58.493-24.725 34.373 0 58.494 24.724 24.12 24.123 24.121 57.89 0 34.375-24.12 58.494-24.123 23.52-58.495 23.519m951.578 0q-34.375 0-58.494-23.519-24.123-24.12-24.121-58.493 0-33.769 24.12-57.89 24.12-24.724 58.495-24.725 33.767 0 57.89 24.724 24.12 24.123 24.121 57.89 0 34.375-24.12 58.494-24.124 23.52-57.891 23.519"
                style="fill:#fff;stroke:none"
        />
        <path
                d="M8820.5 8945.367q-34.373 0-58.494-24.12-23.518-24.12-23.518-58.495 0-33.768 23.518-57.89 24.12-24.12 58.494-24.121 33.769 0 57.89 24.12 24.724 24.124 24.725 57.891-.001 34.374-24.724 58.494-24.123 24.123-57.891 24.121m0-42.212q40.402.001 40.403-40.403 0-39.798-40.403-39.8-39.8.003-39.8 39.8 0 40.404 39.8 40.403m306.94 607.249q-116.385-29.548-304.528-29.549-192.97 0-308.147 30.152l9.045 57.89q117.59-27.738 299.102-27.739 180.304 0 294.277 27.136zm15.076-36.182 39.196-69.348q-28.947 11.458-59.096 11.458-80.808 0-129.048-65.73-36.183 30.15-80.806 30.15-57.891.001-92.263-45.226-38.595 42.212-92.263 42.212-43.42 0-79.6-29.549-50.655 64.525-130.857 64.524-30.755 0-60.906-11.457l42.212 72.363q116.988-33.77 321.414-33.77 208.043 0 322.017 34.373M8872.36 9330.1l-51.257-294.88-51.257 291.261q1.808-1.205 8.442-6.03 13.87-27.136 42.212-27.136 30.753 0 39.8 27.136 3.617 3.62 12.06 9.649m167.039 11.457v-279.202l-99.5 273.775q11.457-4.22 19.297-10.855 12.06-15.075 32.564-15.075 24.12 0 38.594 21.106a217 217 0 0 0 4.22 5.427zm-338.901-8.442-98.897-270.76v275.584q1.809-2.412 5.427-6.03 12.06-25.327 39.8-25.327 22.914 0 37.388 19.296zm-153.17 33.77-129.65-223.724 33.166 203.823q34.373 24.122 66.936 24.121 12.663 0 29.549-4.22m544.533 3.014q13.868 4.222 30.755 4.222 36.783 0 68.745-22.915l33.166-208.648zm36.182 305.132-18.09-68.142q-118.196-25.93-289.454-25.93-169.451 0-288.85 25.93l-18.694 68.745q112.162-33.77 308.147-33.77 191.16 0 306.94 33.167m63.922 77.188q-29.55 25.93-132.666 43.418-103.12 17.487-237.593 17.488-136.888 0-240.608-18.091t-130.857-45.227l37.99-144.727-16.884-94.675-53.066-92.263-51.258-375.083 29.549-11.458 165.23 278.599 3.617-331.665 41.006-7.237 126.033 333.474 67.54-358.8h41.608l67.539 357.594 124.827-332.268 41.609 7.237 3.618 331.665 165.832-279.202 28.342 13.267-50.05 373.274-53.67 92.263-16.885 95.881zm-48.845-21.71q-110.355-45.83-320.208-45.83-214.075 0-323.826 47.037 105.53 41.609 322.017 41.609 103.72 0 189.35-11.458 86.232-11.457 132.667-31.357m-575.892-754.99q-34.373 0-58.493-23.519-24.122-24.12-24.121-58.493 0-33.769 24.12-57.89 24.122-24.12 58.494-24.122 33.77.001 57.891 24.121 24.12 24.123 24.121 57.89 0 34.375-24.12 58.494-24.123 23.52-57.892 23.519m0-42.212q39.8 0 39.8-39.8t-39.8-39.8q-40.403 0-40.402 39.8t40.402 39.8m506.543 0q40.402 0 40.403-39.8t-40.403-39.8q-39.8 0-39.8 39.8t39.8 39.8m0 42.212q-34.373 0-58.493-23.519-23.52-24.12-23.518-58.493-.002-33.769 23.518-57.89 24.12-24.12 58.493-24.122 34.372.001 58.494 24.121 24.12 24.123 24.121 57.89 0 34.375-24.12 58.494-24.123 23.52-58.495 23.519m-728.457 66.333q-34.373 0-58.493-23.519-23.518-24.12-23.518-58.493 0-33.769 23.518-57.89 24.12-24.724 58.493-24.725 34.373 0 58.494 24.724 24.12 24.123 24.121 57.89 0 34.375-24.12 58.494-24.123 23.52-58.495 23.519m0-42.212q40.403 0 40.403-39.8 0-40.402-40.403-40.403-39.8 0-39.8 40.403 0 39.8 39.8 39.8m951.578 0q39.798 0 39.8-39.8-.001-40.402-39.8-40.403-40.405 0-40.403 40.403-.001 39.8 40.403 39.8m0 42.212q-34.375 0-58.494-23.519-24.123-24.12-24.121-58.493 0-33.769 24.12-57.89 24.12-24.724 58.495-24.725 33.767 0 57.89 24.724 24.12 24.123 24.121 57.89 0 34.375-24.12 58.494-24.124 23.52-57.891 23.519"
                style="fill:#000;stroke:none"
        />
        <path
                d="M10586 7760h-882l-441 764 441 764h882l441-764z"
                style="fill:#d18b47;stroke:none"
        />
        <path
                d="M10143.5 8371.924q69.95 0 119.399 50.051 50.05 49.449 50.052 119.4-.002 70.554-50.052 120.002-49.45 49.449-119.399 49.448-70.555 0-120.002-49.448-49.45-49.448-49.449-120.002 0-69.951 49.449-119.4 49.447-50.05 120.002-50.051"
                style="fill:#fff;stroke:none"
        />
        <path
                d="M10143.5 8371.924q69.95 0 119.399 50.051 50.05 49.449 50.052 119.4-.002 70.554-50.052 120.002-49.45 49.449-119.399 49.448-70.555 0-120.002-49.448-49.45-49.448-49.449-120.002 0-69.951 49.449-119.4 49.447-50.05 120.002-50.051"
                style="fill:#000;stroke:none"
        />
        <path
                d="M11909 6996h-882l-441 764 441 764h882l441-764z"
                style="fill:#ffce9e;stroke:none"
        />
        <path
                d="M11467.5 7608.924q69.95 0 119.399 50.051 50.05 49.449 50.052 119.4-.002 70.554-50.052 120.002-49.45 49.448-119.399 49.448-70.555 0-120.002-49.448-49.449-49.448-49.449-120.003 0-69.95 49.449-119.399 49.447-50.05 120.002-50.051"
                style="fill:#fff;stroke:none"
        />
        <path
                d="M11467.5 7608.924q69.95 0 119.399 50.051 50.05 49.449 50.052 119.4-.002 70.554-50.052 120.002-49.45 49.448-119.399 49.448-70.555 0-120.002-49.448-49.449-49.448-49.449-120.003 0-69.95 49.449-119.399 49.447-50.05 120.002-50.051"
                style="fill:#000;stroke:none"
        />
        <path
                d="M13232 6232h-882l-441 764 441 764h882l441-764z"
                style="fill:#e8ab6f;stroke:none"
        />
        <path
                d="M12790.5 6844.924q69.95 0 119.399 50.051 50.05 49.449 50.052 119.4-.002 70.554-50.052 120.002-49.45 49.448-119.399 49.448-70.555 0-120.002-49.448-49.449-49.448-49.449-120.003 0-69.95 49.449-119.399 49.447-50.05 120.002-50.051"
                style="fill:#fff;stroke:none"
        />
        <path
                d="M12790.5 6844.924q69.95 0 119.399 50.051 50.05 49.449 50.052 119.4-.002 70.554-50.052 120.002-49.45 49.448-119.399 49.448-70.555 0-120.002-49.448-49.449-49.448-49.449-120.003 0-69.95 49.449-119.399 49.447-50.05 120.002-50.051"
                style="fill:#000;stroke:none"
        />
        <path
                d="M14555 5468h-882l-441 764 441 764h882l441-764z"
                style="fill:#d18b47;stroke:none"
        />
        <path
                d="M14113.5 6078.924q69.95 0 119.399 50.051 50.05 49.449 50.052 119.4-.002 70.554-50.052 120.002-49.45 49.448-119.399 49.448-70.555 0-120.002-49.448-49.449-49.448-49.449-120.003 0-69.95 49.449-119.399 49.447-50.05 120.002-50.051"
                style="fill:#fff;stroke:none"
        />
        <path
                d="M14113.5 6078.924q69.95 0 119.399 50.051 50.05 49.449 50.052 119.4-.002 70.554-50.052 120.002-49.45 49.448-119.399 49.448-70.555 0-120.002-49.448-49.449-49.448-49.449-120.003 0-69.95 49.449-119.399 49.447-50.05 120.002-50.051"
                style="fill:#000;stroke:none"
        />
        <path
                d="M15878 4703h-882l-441 764 441 764h882l441-764z"
                style="fill:#ffce9e;stroke:none"
        />
        <path
                d="M15436.5 5315.924q69.95 0 119.399 50.051 50.05 49.449 50.052 119.4-.002 70.554-50.052 120.002-49.45 49.448-119.399 49.448-70.555 0-120.002-49.448-49.449-49.448-49.449-120.003 0-69.95 49.449-119.399 49.447-50.05 120.002-50.051"
                style="fill:#fff;stroke:none"
        />
        <path
                d="M15436.5 5315.924q69.95 0 119.399 50.051 50.05 49.449 50.052 119.4-.002 70.554-50.052 120.002-49.45 49.448-119.399 49.448-70.555 0-120.002-49.448-49.449-49.448-49.449-120.003 0-69.95 49.449-119.399 49.447-50.05 120.002-50.051"
                style="fill:#000;stroke:none"
        />
        <path
                d="m4413 4703-441-764h-882l-441 764 441 764h882z"
                style="fill:#e8ab6f;stroke:none"
        />
        <path
                d="m5735 5467-441-764h-882l-441 764 441 764h882z"
                style="fill:#ffce9e;stroke:none"
        />
        <path
                d="m7058 6231-441-764h-882l-441 764 441 764h882z"
                style="fill:#d18b47;stroke:none"
        />
        <path
                d="m8381 6994-441-764h-882l-441 764 441 764h882z"
                style="fill:#e8ab6f;stroke:none"
        />
        <path
                d="M7497.5 6842.924q69.95 0 119.4 50.051 50.05 49.449 50.05 119.4 0 70.554-50.05 120.002-49.45 49.448-119.4 49.448-70.555 0-120.002-49.448-49.45-49.448-49.449-120.003 0-69.95 49.449-119.399 49.447-50.05 120.002-50.051"
                style="fill:#fff;stroke:none"
        />
        <path
                d="M7497.5 6842.924q69.95 0 119.4 50.051 50.05 49.449 50.05 119.4 0 70.554-50.05 120.002-49.45 49.448-119.4 49.448-70.555 0-120.002-49.448-49.45-49.448-49.449-120.003 0-69.95 49.449-119.399 49.447-50.05 120.002-50.051"
                style="fill:#000;stroke:none"
        />
        <path
                d="M9263 6994h-882l-441 764 441 764h882l441-764z"
                style="fill:#ffce9e;stroke:none"
        />
        <path
                d="M8820.5 7606.924q69.95 0 119.4 50.051 50.05 49.449 50.05 119.4 0 70.554-50.05 120.002-49.45 49.448-119.4 49.448-70.555 0-120.002-49.448-49.45-49.448-49.449-120.003 0-69.95 49.449-119.399 49.447-50.05 120.002-50.051"
                style="fill:#fff;stroke:none"
        />
        <path
                d="M8820.5 7606.924q69.95 0 119.4 50.051 50.05 49.449 50.05 119.4 0 70.554-50.05 120.002-49.45 49.448-119.4 49.448-70.555 0-120.002-49.448-49.45-49.448-49.449-120.003 0-69.95 49.449-119.399 49.447-50.05 120.002-50.051"
                style="fill:#000;stroke:none"
        />
        <path
                d="M10586 6230h-882l-441 764 441 764h882l441-764z"
                style="fill:#e8ab6f;stroke:none"
        />
        <path
                d="M10143.5 6842.924q69.95 0 119.399 50.051 50.05 49.449 50.052 119.4-.002 70.554-50.052 120.002-49.45 49.448-119.399 49.448-70.555 0-120.002-49.448-49.45-49.448-49.449-120.003 0-69.95 49.449-119.399 49.447-50.05 120.002-50.051"
                style="fill:#fff;stroke:none"
        />
        <path
                d="M10143.5 6842.924q69.95 0 119.399 50.051 50.05 49.449 50.052 119.4-.002 70.554-50.052 120.002-49.45 49.448-119.399 49.448-70.555 0-120.002-49.448-49.45-49.448-49.449-120.003 0-69.95 49.449-119.399 49.447-50.05 120.002-50.051"
                style="fill:#000;stroke:none"
        />
        <path
                d="M11909 5467h-882l-441 764 441 764h882l441-764z"
                style="fill:#d18b47;stroke:none"
        />
        <path
                d="M13232 4703h-882l-441 764 441 764h882l441-764z"
                style="fill:#ffce9e;stroke:none"
        />
        <path
                d="M14555 3939h-882l-441 764 441 764h882l441-764z"
                style="fill:#e8ab6f;stroke:none"
        />

        <path
                d="m5735 3939-441-764h-882l-441 764 441 764h882z"
                style="fill:#d18b47;stroke:none"
        />
        <path
                d="m7058 4703-441-764h-882l-441 764 441 764h882z"
                style="fill:#e8ab6f;stroke:none"
        />
        <path
                d="M6176.5 4551.924q69.95 0 119.4 50.051 50.05 49.449 50.05 119.4 0 70.554-50.05 120.002-49.45 49.448-119.4 49.448-70.555 0-120.002-49.448-49.45-49.448-49.449-120.003 0-69.95 49.449-119.399 49.447-50.05 120.002-50.051"
                style="fill:#fff;stroke:none"
        />
        <path
                d="M6176.5 4551.924q69.95 0 119.4 50.051 50.05 49.449 50.05 119.4 0 70.554-50.05 120.002-49.45 49.448-119.4 49.448-70.555 0-120.002-49.448-49.45-49.448-49.449-120.003 0-69.95 49.449-119.399 49.447-50.05 120.002-50.051"
                style="fill:#000;stroke:none"
        />
        <path
                d="m8381 5467-441-764h-882l-441 764 441 764h882z"
                style="fill:#ffce9e;stroke:none"
        />
        <path
                d="M9263 5467h-882l-441 764 441 764h882l441-764z"
                style="fill:#d18b47;stroke:none"
        />
        <path
                d="M8820.5 6078.924q69.95 0 119.4 50.051 50.05 49.449 50.05 119.4 0 70.554-50.05 120.002-49.45 49.448-119.4 49.448-70.555 0-120.002-49.448-49.45-49.448-49.449-120.003 0-69.95 49.449-119.399 49.447-50.05 120.002-50.051"
                style="fill:#fff;stroke:none"
        />
        <path
                d="M8820.5 6078.924q69.95 0 119.4 50.051 50.05 49.449 50.05 119.4 0 70.554-50.05 120.002-49.45 49.448-119.4 49.448-70.555 0-120.002-49.448-49.45-49.448-49.449-120.003 0-69.95 49.449-119.399 49.447-50.05 120.002-50.051"
                style="fill:#000;stroke:none"
        />
        <path
                d="M10586 4703h-882l-441 764 441 764h882l441-764z"
                style="fill:#ffce9e;stroke:none"
        />
        <path
                d="M11909 3939h-882l-441 764 441 764h882l441-764z"
                style="fill:#e8ab6f;stroke:none"
        />
        <path
                d="M11467.5 4551.924q69.95 0 119.399 50.051 50.05 49.449 50.052 119.4-.002 70.554-50.052 120.002-49.45 49.448-119.399 49.448-70.555 0-120.002-49.448-49.449-49.448-49.449-120.003 0-69.95 49.449-119.399 49.447-50.05 120.002-50.051"
                style="fill:#fff;stroke:none"
        />
        <path
                d="M11467.5 4551.924q69.95 0 119.399 50.051 50.05 49.449 50.052 119.4-.002 70.554-50.052 120.002-49.45 49.448-119.399 49.448-70.555 0-120.002-49.448-49.449-49.448-49.449-120.003 0-69.95 49.449-119.399 49.447-50.05 120.002-50.051"
                style="fill:#000;stroke:none"
        />
        <path
                d="M13232 3175h-882l-441 764 441 764h882l441-764z"
                style="fill:#d18b47;stroke:none"
        />

        <path
                d="m7058 3175-441-764h-882l-441 764 441 764h882z"
                style="fill:#ffce9e;stroke:none"
        />
        <path
                d="m8381 3939-441-764h-882l-441 764 441 764h882z"
                style="fill:#d18b47;stroke:none"
        />
        <path
                d="M9263 3939h-882l-441 764 441 764h882l441-764z"
                style="fill:#e8ab6f;stroke:none"
        />
        <path
                d="M8820.5 4551.924q69.95 0 119.4 50.051 50.05 49.449 50.05 119.4 0 70.554-50.05 120.002-49.45 49.448-119.4 49.448-70.555 0-120.002-49.448-49.45-49.448-49.449-120.003 0-69.95 49.449-119.399 49.447-50.05 120.002-50.051"
                style="fill:#fff;stroke:none"
        />
        <path
                d="M8820.5 4551.924q69.95 0 119.4 50.051 50.05 49.449 50.05 119.4 0 70.554-50.05 120.002-49.45 49.448-119.4 49.448-70.555 0-120.002-49.448-49.45-49.448-49.449-120.003 0-69.95 49.449-119.399 49.447-50.05 120.002-50.051"
                style="fill:#000;stroke:none"
        />
        <path
                d="M10586 3175h-882l-441 764 441 764h882l441-764z"
                style="fill:#d18b47;stroke:none"
        />
        <path
                d="M11909 2411h-882l-441 764 441 764h882l441-764z"
                style="fill:#ffce9e;stroke:none"
        />

        <path
                d="m8381 2412-441-764h-882l-441 764 441 764h882z"
                style="fill:#e8ab6f;stroke:none"
        />
        <path
                d="M9263 2411h-882l-441 764 441 764h882l441-764z"
                style="fill:#ffce9e;stroke:none"
        />
        <path
                d="M8820.5 3023.924q69.95 0 119.4 50.051 50.05 49.449 50.05 119.4 0 70.554-50.05 120.002-49.45 49.448-119.4 49.448-70.555 0-120.002-49.448-49.45-49.448-49.449-120.002 0-69.951 49.449-119.4 49.447-50.05 120.002-50.051"
                style="fill:#fff;stroke:none"
        />
        <path
                d="M8820.5 3023.924q69.95 0 119.4 50.051 50.05 49.449 50.05 119.4 0 70.554-50.05 120.002-49.45 49.448-119.4 49.448-70.555 0-120.002-49.448-49.45-49.448-49.449-120.002 0-69.951 49.449-119.4 49.447-50.05 120.002-50.051"
                style="fill:#000;stroke:none"
        />
        <path
                d="M10586 1648h-882l-441 764 441 764h882l441-764z"
                style="fill:#e8ab6f;stroke:none"
        />

        <path
                d="M9263 884h-882l-441 764 441 764h882l441-764z"
                style="fill:#d18b47;stroke:none"
        />
        <path
                d="M8820.5 1496.924q69.95 0 119.4 50.051 50.05 49.449 50.05 119.4 0 70.554-50.05 120.002-49.45 49.448-119.4 49.448-70.555 0-120.002-49.448-49.45-49.448-49.449-120.002 0-69.951 49.449-119.4 49.447-50.05 120.002-50.051"
                style="fill:#fff;stroke:none"
        />
        <path
                d="M8820.5 1496.924q69.95 0 119.4 50.051 50.05 49.449 50.05 119.4 0 70.554-50.05 120.002-49.45 49.448-119.4 49.448-70.555 0-120.002-49.448-49.45-49.448-49.449-120.002 0-69.951 49.449-119.4 49.447-50.05 120.002-50.051"
                style="fill:#000;stroke:none"
        />
  </g>
</svg>