<svg
        xmlns="http://www.w3.org/2000/svg"
        xml:space="preserve"
        width="666.784"
        height="730.469"
        clip-path="url(#a)"
        style="fill-rule:evenodd;stroke-width:28.22200012;stroke-linejoin:round"
        viewBox="0 0 17642 19327"
>
  <defs>
    <clipPath id="a"><path d="M0 0h17642v19327H0z" /></clipPath>
  </defs>
    <g clip-path="url(#a)">
    <path
            d="m1767 13861-441-764 441-764-441-763 441-764-441-764 441-764-441-763 441-764-441-764 441-764-441-763 441-764h882l441-764h882l441-764h882l441-763h882l441-764h882l441-764h882l440 764h882l441 764h882l441 763h882l441 764h882l441 764h882l441 764-441 763 441 764-441 764 441 764-441 763 441 764-441 764 441 764-441 763 441 764-441 764h-882l-441 764h-882l-441 764h-882l-441 763h-882l-441 764h-882l-440 764h-882l-441-764h-882l-441-764h-882l-441-763h-882l-441-764h-882l-441-764z"
            style="fill:none;stroke:#000;stroke-width:141"
    />
        <path
                d="m1767 13861-441-764 441-764-441-763 441-764-441-764 441-764-441-763 441-764-441-764 441-764-441-763 441-764h882l441-764h882l441-764h882l441-763h882l441-764h882l441-764h882l440 764h882l441 764h882l441 763h882l441 764h882l441 764h882l441 764-441 763 441 764-441 764 441 764-441 763 441 764-441 764 441 764-441 763 441 764-441 764h-882l-441 764h-882l-441 764h-882l-441 763h-882l-441 764h-882l-440 764h-882l-441-764h-882l-441-764h-882l-441-763h-882l-441-764h-882l-441-764z"
                style="fill:#ffce9e;stroke:none"
        />
        <path
                d="m1767 13861-441-764 441-764-441-763 441-764-441-764 441-764-441-763 441-764-441-764 441-764-441-763 441-764h882l441-764h882l441-764h882l441-763h882l441-764h882l441-764h882l440 764h882l441 764h882l441 763h882l441 764h882l441 764h882l441 764-441 763 441 764-441 764 441 764-441 763 441 764-441 764 441 764-441 763 441 764-441 764h-882l-441 764h-882l-441 764h-882l-441 763h-882l-441 764h-882l-440 764h-882l-441-764h-882l-441-764h-882l-441-763h-882l-441-764h-882l-441-764z"
                style="fill:none;stroke:#000"
        />

        <path
                d="m3090 13097-441-764h-882l-441 764 441 764h882z"
                style="fill:#d18b47;stroke:none"
        />
        <path
                d="m4413 13861-441-764h-882l-441 764 441 764h882z"
                style="fill:#e8ab6f;stroke:none"
        />
        <path
                d="m5735 14625-441-764h-882l-441 764 441 764h882z"
                style="fill:#ffce9e;stroke:none"
        />
        <path
                d="m7058 15389-441-764h-882l-441 764 441 764h882z"
                style="fill:#d18b47;stroke:none"
        />
        <path
                d="m8381 16152-441-764h-882l-441 764 441 764h882z"
                style="fill:#e8ab6f;stroke:none"
        />
        <path
                d="M9263 16152h-882l-441 764 441 764h882l441-764z"
                style="fill:#ffce9e;stroke:none"
        />
        <path
                d="M10586 15388h-882l-441 764 441 764h882l441-764z"
                style="fill:#e8ab6f;stroke:none"
        />
        <path
                d="M11909 14625h-882l-441 764 441 764h882l441-764z"
                style="fill:#d18b47;stroke:none"
        />
        <path
                d="M13232 13863h-882l-441 764 441 764h882l441-764z"
                style="fill:#ffce9e;stroke:none"
        />
        <path
                d="M14555 13099h-882l-441 764 441 764h882l441-764z"
                style="fill:#e8ab6f;stroke:none"
        />
        <path
                d="M15878 12335h-882l-441 764 441 764h882l441-764z"
                style="fill:#d18b47;stroke:none"
        />

        <path
                d="m3090 11572-441-764h-882l-441 764 441 764h882z"
                style="fill:#e8ab6f;stroke:none"
        />
        <path
                d="m4413 12335-441-764h-882l-441 764 441 764h882z"
                style="fill:#ffce9e;stroke:none"
        />
        <path
                d="m5735 13099-441-764h-882l-441 764 441 764h882z"
                style="fill:#d18b47;stroke:none"
        />
        <path
                d="m7058 13863-441-764h-882l-441 764 441 764h882z"
                style="fill:#e8ab6f;stroke:none"
        />
        <path
                d="m8381 14627-441-764h-882l-441 764 441 764h882z"
                style="fill:#ffce9e;stroke:none"
        />
        <path
                d="M9263 14626h-882l-441 764 441 764h882l441-764z"
                style="fill:#d18b47;stroke:none"
        />
        <path
                d="M10586 13863h-882l-441 764 441 764h882l441-764z"
                style="fill:#ffce9e;stroke:none"
        />
        <path
                d="M11909 13099h-882l-441 764 441 764h882l441-764z"
                style="fill:#e8ab6f;stroke:none"
        />
        <path
                d="M13232 12335h-882l-441 764 441 764h882l441-764z"
                style="fill:#d18b47;stroke:none"
        />
        <path
                d="M14555 11571h-882l-441 764 441 764h882l441-764z"
                style="fill:#ffce9e;stroke:none"
        />
        <path
                d="M15878 10808h-882l-441 764 441 764h882l441-764z"
                style="fill:#e8ab6f;stroke:none"
        />

        <path
                d="m3090 10044-441-764h-882l-441 764 441 764h882z"
                style="fill:#ffce9e;stroke:none"
        />
        <path
                d="m4413 10808-441-764h-882l-441 764 441 764h882z"
                style="fill:#d18b47;stroke:none"
        />
        <path
                d="m5735 11572-441-764h-882l-441 764 441 764h882z"
                style="fill:#e8ab6f;stroke:none"
        />
        <path
                d="m7058 12335-441-764h-882l-441 764 441 764h882z"
                style="fill:#ffce9e;stroke:none"
        />
        <path
                d="M6176.5 12183.924q69.95 0 119.4 50.051 50.05 49.449 50.05 119.4 0 70.554-50.05 120.002-49.45 49.449-119.4 49.448-70.555 0-120.002-49.448-49.45-49.448-49.449-120.002 0-69.951 49.449-119.4 49.447-50.05 120.002-50.051"
                style="fill:#fff;stroke:none"
        />
        <path
                d="M6176.5 12183.924q69.95 0 119.4 50.051 50.05 49.449 50.05 119.4 0 70.554-50.05 120.002-49.45 49.449-119.4 49.448-70.555 0-120.002-49.448-49.45-49.448-49.449-120.002 0-69.951 49.449-119.4 49.447-50.05 120.002-50.051"
                style="fill:#000;stroke:none"
        />
        <path
                d="m8381 13099-441-764h-882l-441 764 441 764h882z"
                style="fill:#d18b47;stroke:none"
        />
        <path
                d="M7497.5 12947.924q69.95 0 119.4 50.051 50.05 49.449 50.05 119.4 0 70.554-50.05 120.002-49.45 49.449-119.4 49.448-70.555 0-120.002-49.448-49.45-49.448-49.449-120.002 0-69.951 49.449-119.4 49.447-50.05 120.002-50.051"
                style="fill:#fff;stroke:none"
        />
        <path
                d="M7497.5 12947.924q69.95 0 119.4 50.051 50.05 49.449 50.05 119.4 0 70.554-50.05 120.002-49.45 49.449-119.4 49.448-70.555 0-120.002-49.448-49.45-49.448-49.449-120.002 0-69.951 49.449-119.4 49.447-50.05 120.002-50.051"
                style="fill:#000;stroke:none"
        />
        <path
                d="M9263 13099h-882l-441 764 441 764h882l441-764z"
                style="fill:#e8ab6f;stroke:none"
        />
        <path
                d="M10586 12337h-882l-441 764 441 764h882l441-764z"
                style="fill:#d18b47;stroke:none"
        />
        <path
                d="M10143.5 12949.924q69.95 0 119.399 50.051 50.05 49.449 50.052 119.4-.002 70.554-50.052 120.002-49.45 49.449-119.399 49.448-70.555 0-120.002-49.448-49.45-49.448-49.449-120.002 0-69.951 49.449-119.4 49.447-50.05 120.002-50.051"
                style="fill:#fff;stroke:none"
        />
        <path
                d="M10143.5 12949.924q69.95 0 119.399 50.051 50.05 49.449 50.052 119.4-.002 70.554-50.052 120.002-49.45 49.449-119.399 49.448-70.555 0-120.002-49.448-49.45-49.448-49.449-120.002 0-69.951 49.449-119.4 49.447-50.05 120.002-50.051"
                style="fill:#000;stroke:none"
        />
        <path
                d="M11909 11571h-882l-441 764 441 764h882l441-764z"
                style="fill:#ffce9e;stroke:none"
        />
        <path
                d="M11467.5 12185.924q69.95 0 119.399 50.051 50.05 49.449 50.052 119.4-.002 70.554-50.052 120.002-49.45 49.449-119.399 49.448-70.555 0-120.002-49.448-49.449-49.448-49.449-120.002 0-69.951 49.449-119.4 49.447-50.05 120.002-50.051"
                style="fill:#fff;stroke:none"
        />
        <path
                d="M11467.5 12185.924q69.95 0 119.399 50.051 50.05 49.449 50.052 119.4-.002 70.554-50.052 120.002-49.45 49.449-119.399 49.448-70.555 0-120.002-49.448-49.449-49.448-49.449-120.002 0-69.951 49.449-119.4 49.447-50.05 120.002-50.051"
                style="fill:#000;stroke:none"
        />
        <path
                d="M13232 10809h-882l-441 764 441 764h882l441-764z"
                style="fill:#e8ab6f;stroke:none"
        />
        <path
                d="M14555 10046h-882l-441 764 441 764h882l441-764z"
                style="fill:#d18b47;stroke:none"
        />
        <path
                d="M15878 9284h-882l-441 764 441 764h882l441-764z"
                style="fill:#ffce9e;stroke:none"
        />

        <path
                d="m3090 8522-441-764h-882l-441 764 441 764h882z"
                style="fill:#d18b47;stroke:none"
        />
        <path
                d="m4413 9286-441-764h-882l-441 764 441 764h882z"
                style="fill:#e8ab6f;stroke:none"
        />
        <path
                d="m5735 10049-441-764h-882l-441 764 441 764h882z"
                style="fill:#ffce9e;stroke:none"
        />
        <path
                d="M4853.5 9897.924q69.95 0 119.4 50.051 50.05 49.449 50.05 119.4 0 70.554-50.05 120.002-49.45 49.449-119.4 49.448-70.555 0-120.002-49.448-49.45-49.448-49.449-120.002 0-69.951 49.449-119.4 49.447-50.05 120.002-50.051"
                style="fill:#fff;stroke:none"
        />
        <path
                d="M4853.5 9897.924q69.95 0 119.4 50.051 50.05 49.449 50.05 119.4 0 70.554-50.05 120.002-49.45 49.449-119.4 49.448-70.555 0-120.002-49.448-49.45-49.448-49.449-120.002 0-69.951 49.449-119.4 49.447-50.05 120.002-50.051"
                style="fill:#000;stroke:none"
        />
        <path
                d="m7058 10813-441-764h-882l-441 764 441 764h882z"
                style="fill:#d18b47;stroke:none"
        />
        <path
                d="m8381 11577-441-764h-882l-441 764 441 764h882z"
                style="fill:#e8ab6f;stroke:none"
        />
        <path
                d="M9263 11577h-882l-441 764 441 764h882l441-764z"
                style="fill:#ffce9e;stroke:none"
        />
        <path
                d="M10586 10813h-882l-441 764 441 764h882l441-764z"
                style="fill:#e8ab6f;stroke:none"
        />
        <path
                d="M11909 10049h-882l-441 764 441 764h882l441-764z"
                style="fill:#d18b47;stroke:none"
        />
        <path
                d="M13232 9285h-882l-441 764 441 764h882l441-764z"
                style="fill:#ffce9e;stroke:none"
        />
        <path
                d="M12790.5 9897.924q69.95 0 119.399 50.051 50.05 49.449 50.052 119.4-.002 70.554-50.052 120.002-49.45 49.449-119.399 49.448-70.555 0-120.002-49.448-49.449-49.448-49.449-120.002 0-69.951 49.449-119.4 49.447-50.05 120.002-50.051"
                style="fill:#fff;stroke:none"
        />
        <path
                d="M12790.5 9897.924q69.95 0 119.399 50.051 50.05 49.449 50.052 119.4-.002 70.554-50.052 120.002-49.45 49.449-119.399 49.448-70.555 0-120.002-49.448-49.449-49.448-49.449-120.002 0-69.951 49.449-119.4 49.447-50.05 120.002-50.051"
                style="fill:#000;stroke:none"
        />
        <path
                d="M14555 8522h-882l-441 764 441 764h882l441-764z"
                style="fill:#e8ab6f;stroke:none"
        />
        <path
                d="M15878 7758h-882l-441 764 441 764h882l441-764z"
                style="fill:#d18b47;stroke:none"
        />

        <path
                d="m3090 6994-441-764h-882l-441 764 441 764h882z"
                style="fill:#e8ab6f;stroke:none"
        />
        <path
                d="m4413 7758-441-764h-882l-441 764 441 764h882z"
                style="fill:#ffce9e;stroke:none"
        />
        <path
                d="m5735 8522-441-764h-882l-441 764 441 764h882z"
                style="fill:#d18b47;stroke:none"
        />
        <path
                d="M4853.5 8370.924q69.95 0 119.4 50.051 50.05 49.449 50.05 119.4 0 70.554-50.05 120.002-49.45 49.449-119.4 49.448-70.555 0-120.002-49.448-49.45-49.448-49.449-120.002 0-69.951 49.449-119.4 49.447-50.05 120.002-50.051"
                style="fill:#fff;stroke:none"
        />
        <path
                d="M4853.5 8370.924q69.95 0 119.4 50.051 50.05 49.449 50.05 119.4 0 70.554-50.05 120.002-49.45 49.449-119.4 49.448-70.555 0-120.002-49.448-49.45-49.448-49.449-120.002 0-69.951 49.449-119.4 49.447-50.05 120.002-50.051"
                style="fill:#000;stroke:none"
        />
        <path
                d="m7058 9286-441-764h-882l-441 764 441 764h882z"
                style="fill:#e8ab6f;stroke:none"
        />
        <path
                d="m8381 10049-441-764h-882l-441 764 441 764h882z"
                style="fill:#ffce9e;stroke:none"
        />
        <path
                d="M9263 10049h-882l-441 764 441 764h882l441-764z"
                style="fill:#d18b47;stroke:none"
        />
        <path
                d="M10586 9285h-882l-441 764 441 764h882l441-764z"
                style="fill:#ffce9e;stroke:none"
        />
        <path
                d="M11909 8522h-882l-441 764 441 764h882l441-764z"
                style="fill:#e8ab6f;stroke:none"
        />
        <path
                d="M13232 7758h-882l-441 764 441 764h882l441-764z"
                style="fill:#d18b47;stroke:none"
        />
        <path
                d="M12790.5 8370.924q69.95 0 119.399 50.051 50.05 49.449 50.052 119.4-.002 70.554-50.052 120.002-49.45 49.449-119.399 49.448-70.555 0-120.002-49.448-49.449-49.448-49.449-120.002 0-69.951 49.449-119.4 49.447-50.05 120.002-50.051"
                style="fill:#fff;stroke:none"
        />
        <path
                d="M12790.5 8370.924q69.95 0 119.399 50.051 50.05 49.449 50.052 119.4-.002 70.554-50.052 120.002-49.45 49.449-119.399 49.448-70.555 0-120.002-49.448-49.449-49.448-49.449-120.002 0-69.951 49.449-119.4 49.447-50.05 120.002-50.051"
                style="fill:#000;stroke:none"
        />
        <path
                d="M14555 6994h-882l-441 764 441 764h882l441-764z"
                style="fill:#ffce9e;stroke:none"
        />
        <path
                d="M15878 6230h-882l-441 764 441 764h882l441-764z"
                style="fill:#e8ab6f;stroke:none"
        />

        <path
                d="m3090 5467-441-764h-882l-441 764 441 764h882z"
                style="fill:#ffce9e;stroke:none"
        />
        <path
                d="m4413 6231-441-764h-882l-441 764 441 764h882z"
                style="fill:#d18b47;stroke:none"
        />
        <path
                d="m5735 6994-441-764h-882l-441 764 441 764h882z"
                style="fill:#e8ab6f;stroke:none"
        />
        <path
                d="m7058 7758-441-764h-882l-441 764 441 764h882z"
                style="fill:#ffce9e;stroke:none"
        />
        <path
                d="m8381 8522-441-764h-882l-441 764 441 764h882z"
                style="fill:#d18b47;stroke:none"
        />
        <path
                d="M9263 8522h-882l-441 764 441 764h882l441-764z"
                style="fill:#e8ab6f;stroke:none"
        />
        <path
                d="M8853.667 8897.537q94.675 6.032 175.48 48.845 80.805 42.816 137.49 109.751 39.8 47.037 74.776 113.37 35.577 66.333 56.685 140.505 24.12 86.233 30.151 181.511 6.631 94.675 6.633 175.481v131.46H8593.16q-5.428 0-5.428-29.548.604-29.55 4.222-47.64 2.411-14.472 11.457-41.005 9.044-26.534 30.152-64.524 9.647-19.298 45.83-56.082a49352 49352 0 0 0 83.217-86.233q27.135-27.739 42.212-69.95 15.678-42.213 13.267-76.585-22.313 18.09-48.845 29.548-127.843 45.83-185.13 132.666-4.221 5.427-27.136 48.845-12.06 22.916-20.503 31.358-11.458 11.458-33.166 12.663-33.771 1.81-52.464-32.563-25.327 7.236-45.227 6.03-33.77-12.663-48.845-27.136-30.754-30.754-40.403-61.51-9.045-30.753-9.045-66.332 0-50.654 62.715-133.872 73.569-95.88 78.393-145.933 0-21.708 4.221-48.845 3.618-18.693 15.076-36.182 7.839-12.06 10.252-16.281 3.015-4.825 10.25-13.87 5.428-7.236 9.046-10.855 3.618-4.22 9.046-10.854 6.633-7.839 16.884-18.09-31.96-88.042-25.93-181.512 120.003 42.817 201.411 134.475 19.9-68.14 78.394-110.354 48.24 33.77 76.585 89.248"
                style="fill:#fff;stroke:none"
        />
        <path
                d="M8623.31 9101.36q7.839 12.062 6.03 25.327-6.03 38.595-42.815 32.564-10.855-1.809-17.487-7.236-2.413 3.015-7.237 13.266-6.634 19.297-25.327 13.267-18.694-7.237-14.473-27.136 27.135-69.347 98.294-95.279 20.503-6.03 27.136 12.06 7.236 19.298-10.854 26.534a99 99 0 0 0-6.634 3.618q-3.015 1.208-6.633 3.015m-179.1 287.644q-17.487 10.855-21.105 28.946.603 19.9-18.694 21.709-21.105 2.412-21.709-18.091 2.412-39.8 35.579-63.318 15.678-12.663 28.945 2.412 13.267 16.282-3.015 28.342m409.456-491.467q94.675 6.032 175.48 48.845 80.805 42.816 137.49 109.751 39.8 47.037 74.776 113.37 35.577 66.333 56.685 140.505 24.12 86.233 30.151 181.511 6.631 94.675 6.633 175.481v131.46H8593.16q-5.428 0-5.428-29.548.604-29.55 4.222-47.64 2.411-14.472 11.457-41.005 9.044-26.534 30.152-64.524 9.647-19.298 45.83-56.082a49352 49352 0 0 0 83.217-86.233q27.135-27.739 42.212-69.95 15.678-42.213 13.267-76.585-22.313 18.09-48.845 29.548-127.843 45.83-185.13 132.666-4.221 5.427-27.136 48.845-12.06 22.916-20.503 31.358-11.458 11.458-33.166 12.663-33.771 1.81-52.464-32.563-25.327 7.236-45.227 6.03-33.77-12.663-48.845-27.136-30.754-30.754-40.403-61.51-9.045-30.753-9.045-66.332 0-50.654 62.715-133.872 73.569-95.88 78.393-145.933 0-21.708 4.221-48.845 3.618-18.693 15.076-36.182 7.839-12.06 10.252-16.281 3.015-4.825 10.25-13.87 5.428-7.236 9.046-10.855 3.618-4.22 9.046-10.854 6.633-7.839 16.884-18.09-31.96-88.042-25.93-181.512 120.003 42.817 201.411 134.475 19.9-68.14 78.394-110.354 48.24 33.77 76.585 89.248m408.249 858.108q-.605 0 1.206-33.167 1.807-32.564 1.81-70.554.6-75.378 0-155.58-.605-80.806-21.71-161.009-20.504-77.187-45.227-131.46-24.725-54.875-53.67-94.675-43.419-65.126-118.193-110.354-74.776-45.227-156.184-59.097 5.427 29.55 4.824 57.89-1.207 21.71-20.503 21.71-22.312 0-19.9-21.71 1.809-79.597-56.684-136.284-45.831 48.244-49.448 112.164-1.207 21.106-21.71 18.693-19.297-.6-19.296-22.312l1.206-4.824q-24.725 7.84-51.86 22.312-17.49 12.061-28.343-6.03-10.854-18.09 9.649-28.342 25.93-13.266 39.197-19.9-51.861-53.065-118.194-85.63 7.236 83.821 45.83 158.596 10.251 15.68-4.824 27.74-16.885 13.266-28.342-4.222-4.222-6.03-12.06-21.709-12.665 12.664-16.886 18.694-4.222 5.429-15.075 24.121-10.252 18.695-15.076 30.754-5.427 15.077-4.824 24.725 1.206 9.046 1.809 20.502-5.428 35.58-24.724 66.936-18.695 31.359-48.242 76.585-28.343 43.419-43.418 65.127-15.076 21.71-22.915 55.478-5.428 20.504 0 50.052 5.427 28.945 23.518 45.227 27.738 28.342 53.67 25.93 8.441 0 22.311-6.633 14.472-6.633 22.312-25.328 15.678-34.371 25.93-34.372 15.075 0 16.282 16.885 0 3.618-9.648 30.151-5.428 12.06-14.473 25.327-11.459 15.68-10.251 13.267 9.648 34.372 31.96 12.06 6.633-6.633 15.076-24.724 8.442-18.09 26.533-48.845 21.105-35.579 45.227-57.89 24.12-22.313 42.815-36.182 10.854-7.839 26.533-18.091 15.678-10.252 42.212-21.106 21.105-8.442 46.433-20.503 25.93-12.663 45.83-31.96 27.738-27.136 42.815-66.936 7.839-22.312 6.03-54.876-5.427-20.502 20.503-20.503 19.296 0 21.71 19.9-.002 68.143-38.594 124.224 12.662 38.594 6.633 84.424-5.428 36.784-25.93 78.996-19.901 41.61-81.409 92.866-124.827 103.722-118.193 213.472h625.942"
                style="fill:#000;stroke:none"
        />
        <path
                d="M10586 7758h-882l-441 764 441 764h882l441-764z"
                style="fill:#d18b47;stroke:none"
        />
        <path
                d="M11909 6992h-882l-441 764 441 764h882l441-764z"
                style="fill:#ffce9e;stroke:none"
        />
        <path
                d="M13232 6230h-882l-441 764 441 764h882l441-764z"
                style="fill:#e8ab6f;stroke:none"
        />
        <path
                d="M14555 5467h-882l-441 764 441 764h882l441-764z"
                style="fill:#d18b47;stroke:none"
        />
        <path
                d="M15878 4703h-882l-441 764 441 764h882l441-764z"
                style="fill:#ffce9e;stroke:none"
        />

        <path
                d="m4413 4703-441-764h-882l-441 764 441 764h882z"
                style="fill:#e8ab6f;stroke:none"
        />
        <path
                d="m5735 5467-441-764h-882l-441 764 441 764h882z"
                style="fill:#ffce9e;stroke:none"
        />
        <path
                d="m7058 6231-441-764h-882l-441 764 441 764h882z"
                style="fill:#d18b47;stroke:none"
        />
        <path
                d="M6176.5 6078.924q69.95 0 119.4 50.051 50.05 49.449 50.05 119.4 0 70.554-50.05 120.002-49.45 49.448-119.4 49.448-70.555 0-120.002-49.448-49.45-49.448-49.449-120.003 0-69.95 49.449-119.399 49.447-50.05 120.002-50.051"
                style="fill:#fff;stroke:none"
        />
        <path
                d="M6176.5 6078.924q69.95 0 119.4 50.051 50.05 49.449 50.05 119.4 0 70.554-50.05 120.002-49.45 49.448-119.4 49.448-70.555 0-120.002-49.448-49.45-49.448-49.449-120.003 0-69.95 49.449-119.399 49.447-50.05 120.002-50.051"
                style="fill:#000;stroke:none"
        />
        <path
                d="m8381 6994-441-764h-882l-441 764 441 764h882z"
                style="fill:#e8ab6f;stroke:none"
        />
        <path
                d="M9263 6994h-882l-441 764 441 764h882l441-764z"
                style="fill:#ffce9e;stroke:none"
        />
        <path
                d="M10586 6230h-882l-441 764 441 764h882l441-764z"
                style="fill:#e8ab6f;stroke:none"
        />
        <path
                d="M11909 5467h-882l-441 764 441 764h882l441-764z"
                style="fill:#d18b47;stroke:none"
        />
        <path
                d="M11467.5 6078.924q69.95 0 119.399 50.051 50.05 49.449 50.052 119.4-.002 70.554-50.052 120.002-49.45 49.448-119.399 49.448-70.555 0-120.002-49.448-49.449-49.448-49.449-120.003 0-69.95 49.449-119.399 49.447-50.05 120.002-50.051"
                style="fill:#fff;stroke:none"
        />
        <path
                d="M11467.5 6078.924q69.95 0 119.399 50.051 50.05 49.449 50.052 119.4-.002 70.554-50.052 120.002-49.45 49.448-119.399 49.448-70.555 0-120.002-49.448-49.449-49.448-49.449-120.003 0-69.95 49.449-119.399 49.447-50.05 120.002-50.051"
                style="fill:#000;stroke:none"
        />
        <path
                d="M13232 4703h-882l-441 764 441 764h882l441-764z"
                style="fill:#ffce9e;stroke:none"
        />
        <path
                d="M14555 3939h-882l-441 764 441 764h882l441-764z"
                style="fill:#e8ab6f;stroke:none"
        />

        <path
                d="m5735 3939-441-764h-882l-441 764 441 764h882z"
                style="fill:#d18b47;stroke:none"
        />
        <path
                d="m7058 4703-441-764h-882l-441 764 441 764h882z"
                style="fill:#e8ab6f;stroke:none"
        />
        <path
                d="m8381 5467-441-764h-882l-441 764 441 764h882z"
                style="fill:#ffce9e;stroke:none"
        />
        <path
                d="M7497.5 5315.924q69.95 0 119.4 50.051 50.05 49.449 50.05 119.4 0 70.554-50.05 120.002-49.45 49.448-119.4 49.448-70.555 0-120.002-49.448-49.45-49.448-49.449-120.003 0-69.95 49.449-119.399 49.447-50.05 120.002-50.051"
                style="fill:#fff;stroke:none"
        />
        <path
                d="M7497.5 5315.924q69.95 0 119.4 50.051 50.05 49.449 50.05 119.4 0 70.554-50.05 120.002-49.45 49.448-119.4 49.448-70.555 0-120.002-49.448-49.45-49.448-49.449-120.003 0-69.95 49.449-119.399 49.447-50.05 120.002-50.051"
                style="fill:#000;stroke:none"
        />
        <path
                d="M9263 5467h-882l-441 764 441 764h882l441-764z"
                style="fill:#d18b47;stroke:none"
        />
        <path
                d="M10586 4703h-882l-441 764 441 764h882l441-764z"
                style="fill:#ffce9e;stroke:none"
        />
        <path
                d="M10143.5 5315.924q69.95 0 119.399 50.051 50.05 49.449 50.052 119.4-.002 70.554-50.052 120.002-49.45 49.448-119.399 49.448-70.555 0-120.002-49.448-49.45-49.448-49.449-120.003 0-69.95 49.449-119.399 49.447-50.05 120.002-50.051"
                style="fill:#fff;stroke:none"
        />
        <path
                d="M10143.5 5315.924q69.95 0 119.399 50.051 50.05 49.449 50.052 119.4-.002 70.554-50.052 120.002-49.45 49.448-119.399 49.448-70.555 0-120.002-49.448-49.45-49.448-49.449-120.003 0-69.95 49.449-119.399 49.447-50.05 120.002-50.051"
                style="fill:#000;stroke:none"
        />
        <path
                d="M11909 3939h-882l-441 764 441 764h882l441-764z"
                style="fill:#e8ab6f;stroke:none"
        />
        <path
                d="M13232 3175h-882l-441 764 441 764h882l441-764z"
                style="fill:#d18b47;stroke:none"
        />

        <path
                d="m7058 3176-441-764h-882l-441 764 441 764h882z"
                style="fill:#ffce9e;stroke:none"
        />
        <path
                d="m8381 3939-441-764h-882l-441 764 441 764h882z"
                style="fill:#d18b47;stroke:none"
        />
        <path
                d="M9263 3939h-882l-441 764 441 764h882l441-764z"
                style="fill:#e8ab6f;stroke:none"
        />
        <path
                d="M10586 3175h-882l-441 764 441 764h882l441-764z"
                style="fill:#d18b47;stroke:none"
        />
        <path
                d="M11909 2412h-882l-441 764 441 764h882l441-764z"
                style="fill:#ffce9e;stroke:none"
        />

        <path
                d="m8381 2412-441-764h-882l-441 764 441 764h882z"
                style="fill:#e8ab6f;stroke:none"
        />
        <path
                d="M9263 2412h-882l-441 764 441 764h882l441-764z"
                style="fill:#ffce9e;stroke:none"
        />
        <path
                d="M10586 1648h-882l-441 764 441 764h882l441-764z"
                style="fill:#e8ab6f;stroke:none"
        />

        <path
                d="M9263 884h-882l-441 764 441 764h882l441-764z"
                style="fill:#d18b47;stroke:none"
        />
  </g>
</svg>