<svg
        xmlns="http://www.w3.org/2000/svg"
        xml:space="preserve"
        width="666.784"
        height="730.809"
        clip-path="url(#a)"
        style="fill-rule:evenodd;stroke-width:28.22200012;stroke-linejoin:round"
        viewBox="0 0 17642 19336"
>
  <defs>
    <clipPath id="a"><path d="M0 0h17642v19336H0z" /></clipPath>
  </defs>
    <g clip-path="url(#a)">
    <path
            d="m1767 13870-441-764 441-764-441-763 441-764-441-764 441-764-441-763 441-764-441-764 441-764-441-763 441-764h882l441-764h882l441-764h882l441-763h882l441-764h882l441-764h882l440 764h882l441 764h882l441 763h882l441 764h882l441 764h882l441 764-441 763 441 764-441 764 441 764-441 763 441 764-441 764 441 764-441 763 441 764-441 764h-882l-441 764h-882l-441 764h-882l-441 763h-882l-441 764h-882l-440 764h-882l-441-764h-882l-441-764h-882l-441-763h-882l-441-764h-882l-441-764z"
            style="fill:none;stroke:#000;stroke-width:141"
    />
        <path
                d="m1767 13870-441-764 441-764-441-763 441-764-441-764 441-764-441-763 441-764-441-764 441-764-441-763 441-764h882l441-764h882l441-764h882l441-763h882l441-764h882l441-764h882l440 764h882l441 764h882l441 763h882l441 764h882l441 764h882l441 764-441 763 441 764-441 764 441 764-441 763 441 764-441 764 441 764-441 763 441 764-441 764h-882l-441 764h-882l-441 764h-882l-441 763h-882l-441 764h-882l-440 764h-882l-441-764h-882l-441-764h-882l-441-763h-882l-441-764h-882l-441-764z"
                style="fill:#ffce9e;stroke:none"
        />
        <path
                d="m1767 13870-441-764 441-764-441-763 441-764-441-764 441-764-441-763 441-764-441-764 441-764-441-763 441-764h882l441-764h882l441-764h882l441-763h882l441-764h882l441-764h882l440 764h882l441 764h882l441 763h882l441 764h882l441 764h882l441 764-441 763 441 764-441 764 441 764-441 763 441 764-441 764 441 764-441 763 441 764-441 764h-882l-441 764h-882l-441 764h-882l-441 763h-882l-441 764h-882l-440 764h-882l-441-764h-882l-441-764h-882l-441-763h-882l-441-764h-882l-441-764z"
                style="fill:none;stroke:#000"
        />

        <path
                d="m3090 13106-441-764h-882l-441 764 441 764h882z"
                style="fill:#d18b47;stroke:none"
        />
        <path
                d="M2207.5 12954.924q69.95 0 119.4 50.051 50.05 49.449 50.05 119.4 0 70.554-50.05 120.002-49.45 49.449-119.4 49.448-70.555 0-120.002-49.448-49.45-49.448-49.449-120.002 0-69.951 49.449-119.4 49.447-50.05 120.002-50.051"
                style="fill:#fff;stroke:none"
        />
        <path
                d="M2207.5 12954.924q69.95 0 119.4 50.051 50.05 49.449 50.05 119.4 0 70.554-50.05 120.002-49.45 49.449-119.4 49.448-70.555 0-120.002-49.448-49.45-49.448-49.449-120.002 0-69.951 49.449-119.4 49.447-50.05 120.002-50.051"
                style="fill:#000;stroke:none"
        />
        <path
                d="m4413 13870-441-764h-882l-441 764 441 764h882z"
                style="fill:#e8ab6f;stroke:none"
        />
        <path
                d="m5735 14634-441-764h-882l-441 764 441 764h882z"
                style="fill:#ffce9e;stroke:none"
        />
        <path
                d="m7058 15398-441-764h-882l-441 764 441 764h882z"
                style="fill:#d18b47;stroke:none"
        />
        <path
                d="m8380 16161-441-764h-882l-441 764 441 764h882z"
                style="fill:#e8ab6f;stroke:none"
        />
        <path
                d="M9263 16161h-882l-441 764 441 764h882l441-764z"
                style="fill:#ffce9e;stroke:none"
        />
        <path
                d="M8820.5 16773.924q69.95 0 119.4 50.051 50.05 49.449 50.05 119.4 0 70.554-50.05 120.002-49.45 49.449-119.4 49.448-70.555 0-120.002-49.448-49.45-49.448-49.449-120.002 0-69.951 49.449-119.4 49.447-50.05 120.002-50.051"
                style="fill:#fff;stroke:none"
        />
        <path
                d="M8820.5 16773.924q69.95 0 119.4 50.051 50.05 49.449 50.05 119.4 0 70.554-50.05 120.002-49.45 49.449-119.4 49.448-70.555 0-120.002-49.448-49.45-49.448-49.449-120.002 0-69.951 49.449-119.4 49.447-50.05 120.002-50.051"
                style="fill:#000;stroke:none"
        />
        <path
                d="M10586 15397h-882l-441 764 441 764h882l441-764z"
                style="fill:#e8ab6f;stroke:none"
        />
        <path
                d="M11909 14634h-882l-441 764 441 764h882l441-764z"
                style="fill:#d18b47;stroke:none"
        />
        <path
                d="M13232 13870h-882l-441 764 441 764h882l441-764z"
                style="fill:#ffce9e;stroke:none"
        />
        <path
                d="M14555 13106h-882l-441 764 441 764h882l441-764z"
                style="fill:#e8ab6f;stroke:none"
        />
        <path
                d="M15878 12342h-882l-441 764 441 764h882l441-764z"
                style="fill:#d18b47;stroke:none"
        />
        <path
                d="M15436.5 12954.924q69.95 0 119.399 50.051 50.05 49.449 50.052 119.4-.002 70.554-50.052 120.002-49.45 49.449-119.399 49.448-70.555 0-120.002-49.448-49.449-49.448-49.449-120.002 0-69.951 49.449-119.4 49.447-50.05 120.002-50.051"
                style="fill:#fff;stroke:none"
        />
        <path
                d="M15436.5 12954.924q69.95 0 119.399 50.051 50.05 49.449 50.052 119.4-.002 70.554-50.052 120.002-49.45 49.449-119.399 49.448-70.555 0-120.002-49.448-49.449-49.448-49.449-120.002 0-69.951 49.449-119.4 49.447-50.05 120.002-50.051"
                style="fill:#000;stroke:none"
        />

        <path
                d="m3090 11579-441-764h-882l-441 764 441 764h882z"
                style="fill:#e8ab6f;stroke:none"
        />
        <path
                d="m4413 12343-441-764h-882l-441 764 441 764h882z"
                style="fill:#ffce9e;stroke:none"
        />
        <path
                d="M3530.5 12190.924q69.95 0 119.4 50.051 50.05 49.449 50.05 119.4 0 70.554-50.05 120.002-49.45 49.449-119.4 49.448-70.555 0-120.002-49.448-49.45-49.448-49.449-120.002 0-69.951 49.449-119.4 49.447-50.05 120.002-50.051"
                style="fill:#fff;stroke:none"
        />
        <path
                d="M3530.5 12190.924q69.95 0 119.4 50.051 50.05 49.449 50.05 119.4 0 70.554-50.05 120.002-49.45 49.449-119.4 49.448-70.555 0-120.002-49.448-49.45-49.448-49.449-120.002 0-69.951 49.449-119.4 49.447-50.05 120.002-50.051"
                style="fill:#000;stroke:none"
        />
        <path
                d="m5735 13106-441-764h-882l-441 764 441 764h882z"
                style="fill:#d18b47;stroke:none"
        />
        <path
                d="m7058 13870-441-764h-882l-441 764 441 764h882z"
                style="fill:#e8ab6f;stroke:none"
        />
        <path
                d="m8381 14634-441-764h-882l-441 764 441 764h882z"
                style="fill:#ffce9e;stroke:none"
        />
        <path
                d="M9263 14634h-882l-441 764 441 764h882l441-764z"
                style="fill:#d18b47;stroke:none"
        />
        <path
                d="M8820.5 15246.924q69.95 0 119.4 50.051 50.05 49.449 50.05 119.4 0 70.554-50.05 120.002-49.45 49.449-119.4 49.448-70.555 0-120.002-49.448-49.45-49.448-49.449-120.002 0-69.951 49.449-119.4 49.447-50.05 120.002-50.051"
                style="fill:#fff;stroke:none"
        />
        <path
                d="M8820.5 15246.924q69.95 0 119.4 50.051 50.05 49.449 50.05 119.4 0 70.554-50.05 120.002-49.45 49.449-119.4 49.448-70.555 0-120.002-49.448-49.45-49.448-49.449-120.002 0-69.951 49.449-119.4 49.447-50.05 120.002-50.051"
                style="fill:#000;stroke:none"
        />
        <path
                d="M10586 13870h-882l-441 764 441 764h882l441-764z"
                style="fill:#ffce9e;stroke:none"
        />
        <path
                d="M11909 13106h-882l-441 764 441 764h882l441-764z"
                style="fill:#e8ab6f;stroke:none"
        />
        <path
                d="M13232 12342h-882l-441 764 441 764h882l441-764z"
                style="fill:#d18b47;stroke:none"
        />
        <path
                d="M14555 11579h-882l-441 764 441 764h882l441-764z"
                style="fill:#ffce9e;stroke:none"
        />
        <path
                d="M14111.5 12190.924q69.95 0 119.399 50.051 50.05 49.449 50.052 119.4-.002 70.554-50.052 120.002-49.45 49.449-119.399 49.448-70.555 0-120.002-49.448-49.449-49.448-49.449-120.002 0-69.951 49.449-119.4 49.447-50.05 120.002-50.051"
                style="fill:#fff;stroke:none"
        />
        <path
                d="M14111.5 12190.924q69.95 0 119.399 50.051 50.05 49.449 50.052 119.4-.002 70.554-50.052 120.002-49.45 49.449-119.399 49.448-70.555 0-120.002-49.448-49.449-49.448-49.449-120.002 0-69.951 49.449-119.4 49.447-50.05 120.002-50.051"
                style="fill:#000;stroke:none"
        />
        <path
                d="M15878 10813h-882l-441 764 441 764h882l441-764z"
                style="fill:#e8ab6f;stroke:none"
        />

        <path
                d="m3090 10051-441-764h-882l-441 764 441 764h882z"
                style="fill:#ffce9e;stroke:none"
        />
        <path
                d="m4413 10815-441-764h-882l-441 764 441 764h882z"
                style="fill:#d18b47;stroke:none"
        />
        <path
                d="m5735 11579-441-764h-882l-441 764 441 764h882z"
                style="fill:#e8ab6f;stroke:none"
        />
        <path
                d="M4853.5 11427.924q69.95 0 119.4 50.051 50.05 49.449 50.05 119.4 0 70.554-50.05 120.002-49.45 49.449-119.4 49.448-70.555 0-120.002-49.448-49.45-49.448-49.449-120.002 0-69.951 49.449-119.4 49.447-50.05 120.002-50.051"
                style="fill:#fff;stroke:none"
        />
        <path
                d="M4853.5 11427.924q69.95 0 119.4 50.051 50.05 49.449 50.05 119.4 0 70.554-50.05 120.002-49.45 49.449-119.4 49.448-70.555 0-120.002-49.448-49.45-49.448-49.449-120.002 0-69.951 49.449-119.4 49.447-50.05 120.002-50.051"
                style="fill:#000;stroke:none"
        />
        <path
                d="m7058 12343-441-764h-882l-441 764 441 764h882z"
                style="fill:#ffce9e;stroke:none"
        />
        <path
                d="m8381 13106-441-764h-882l-441 764 441 764h882z"
                style="fill:#d18b47;stroke:none"
        />
        <path
                d="M9263 13106h-882l-441 764 441 764h882l441-764z"
                style="fill:#e8ab6f;stroke:none"
        />
        <path
                d="M8820.5 13718.924q69.95 0 119.4 50.051 50.05 49.449 50.05 119.4 0 70.554-50.05 120.002-49.45 49.449-119.4 49.448-70.555 0-120.002-49.448-49.45-49.448-49.449-120.002 0-69.951 49.449-119.4 49.447-50.05 120.002-50.051"
                style="fill:#fff;stroke:none"
        />
        <path
                d="M8820.5 13718.924q69.95 0 119.4 50.051 50.05 49.449 50.05 119.4 0 70.554-50.05 120.002-49.45 49.449-119.4 49.448-70.555 0-120.002-49.448-49.45-49.448-49.449-120.002 0-69.951 49.449-119.4 49.447-50.05 120.002-50.051"
                style="fill:#000;stroke:none"
        />
        <path
                d="M10586 12342h-882l-441 764 441 764h882l441-764z"
                style="fill:#d18b47;stroke:none"
        />
        <path
                d="M11909 11579h-882l-441 764 441 764h882l441-764z"
                style="fill:#ffce9e;stroke:none"
        />
        <path
                d="M13232 10815h-882l-441 764 441 764h882l441-764z"
                style="fill:#e8ab6f;stroke:none"
        />
        <path
                d="M12790.5 11427.924q69.95 0 119.399 50.051 50.05 49.449 50.052 119.4-.002 70.554-50.052 120.002-49.45 49.449-119.399 49.448-70.555 0-120.002-49.448-49.449-49.448-49.449-120.002 0-69.951 49.449-119.4 49.447-50.05 120.002-50.051"
                style="fill:#fff;stroke:none"
        />
        <path
                d="M12790.5 11427.924q69.95 0 119.399 50.051 50.05 49.449 50.052 119.4-.002 70.554-50.052 120.002-49.45 49.449-119.399 49.448-70.555 0-120.002-49.448-49.449-49.448-49.449-120.002 0-69.951 49.449-119.4 49.447-50.05 120.002-50.051"
                style="fill:#000;stroke:none"
        />
        <path
                d="M14555 10051h-882l-441 764 441 764h882l441-764z"
                style="fill:#d18b47;stroke:none"
        />
        <path
                d="M15878 9287h-882l-441 764 441 764h882l441-764z"
                style="fill:#ffce9e;stroke:none"
        />

        <path
                d="m3090 8524-441-764h-882l-441 764 441 764h882z"
                style="fill:#d18b47;stroke:none"
        />
        <path
                d="m4413 9288-441-764h-882l-441 764 441 764h882z"
                style="fill:#e8ab6f;stroke:none"
        />
        <path
                d="m5735 10051-441-764h-882l-441 764 441 764h882z"
                style="fill:#ffce9e;stroke:none"
        />
        <path
                d="m7058 10815-441-764h-882l-441 764 441 764h882z"
                style="fill:#d18b47;stroke:none"
        />
        <path
                d="M6176.5 10663.924q69.95 0 119.4 50.051 50.05 49.449 50.05 119.4 0 70.554-50.05 120.002-49.45 49.449-119.4 49.448-70.555 0-120.002-49.448-49.45-49.448-49.449-120.002 0-69.951 49.449-119.4 49.447-50.05 120.002-50.051"
                style="fill:#fff;stroke:none"
        />
        <path
                d="M6176.5 10663.924q69.95 0 119.4 50.051 50.05 49.449 50.05 119.4 0 70.554-50.05 120.002-49.45 49.449-119.4 49.448-70.555 0-120.002-49.448-49.45-49.448-49.449-120.002 0-69.951 49.449-119.4 49.447-50.05 120.002-50.051"
                style="fill:#000;stroke:none"
        />
        <path
                d="m8381 11579-441-764h-882l-441 764 441 764h882z"
                style="fill:#e8ab6f;stroke:none"
        />
        <path
                d="M9263 11579h-882l-441 764 441 764h882l441-764z"
                style="fill:#ffce9e;stroke:none"
        />
        <path
                d="M8820.5 12190.924q69.95 0 119.4 50.051 50.05 49.449 50.05 119.4 0 70.554-50.05 120.002-49.45 49.449-119.4 49.448-70.555 0-120.002-49.448-49.45-49.448-49.449-120.002 0-69.951 49.449-119.4 49.447-50.05 120.002-50.051"
                style="fill:#fff;stroke:none"
        />
        <path
                d="M8820.5 12190.924q69.95 0 119.4 50.051 50.05 49.449 50.05 119.4 0 70.554-50.05 120.002-49.45 49.449-119.4 49.448-70.555 0-120.002-49.448-49.45-49.448-49.449-120.002 0-69.951 49.449-119.4 49.447-50.05 120.002-50.051"
                style="fill:#000;stroke:none"
        />
        <path
                d="M10586 10815h-882l-441 764 441 764h882l441-764z"
                style="fill:#e8ab6f;stroke:none"
        />
        <path
                d="M11909 10051h-882l-441 764 441 764h882l441-764z"
                style="fill:#d18b47;stroke:none"
        />
        <path
                d="M11467.5 10663.924q69.95 0 119.399 50.051 50.05 49.449 50.052 119.4-.002 70.554-50.052 120.002-49.45 49.449-119.399 49.448-70.555 0-120.002-49.448-49.449-49.448-49.449-120.002 0-69.951 49.449-119.4 49.447-50.05 120.002-50.051"
                style="fill:#fff;stroke:none"
        />
        <path
                d="M11467.5 10663.924q69.95 0 119.399 50.051 50.05 49.449 50.052 119.4-.002 70.554-50.052 120.002-49.45 49.449-119.399 49.448-70.555 0-120.002-49.448-49.449-49.448-49.449-120.002 0-69.951 49.449-119.4 49.447-50.05 120.002-50.051"
                style="fill:#000;stroke:none"
        />
        <path
                d="M13232 9287h-882l-441 764 441 764h882l441-764z"
                style="fill:#ffce9e;stroke:none"
        />
        <path
                d="M14555 8524h-882l-441 764 441 764h882l441-764z"
                style="fill:#e8ab6f;stroke:none"
        />
        <path
                d="M15878 7760h-882l-441 764 441 764h882l441-764z"
                style="fill:#d18b47;stroke:none"
        />

        <path
                d="m3090 6996-441-764h-882l-441 764 441 764h882z"
                style="fill:#e8ab6f;stroke:none"
        />
        <path
                d="m4413 7760-441-764h-882l-441 764 441 764h882z"
                style="fill:#ffce9e;stroke:none"
        />
        <path
                d="m5735 8524-441-764h-882l-441 764 441 764h882z"
                style="fill:#d18b47;stroke:none"
        />
        <path
                d="m7058 9288-441-764h-882l-441 764 441 764h882z"
                style="fill:#e8ab6f;stroke:none"
        />
        <path
                d="m8381 10051-441-764h-882l-441 764 441 764h882z"
                style="fill:#ffce9e;stroke:none"
        />
        <path
                d="M7497.5 9899.924q69.95 0 119.4 50.051 50.05 49.449 50.05 119.4 0 70.554-50.05 120.002-49.45 49.449-119.4 49.448-70.555 0-120.002-49.448-49.45-49.448-49.449-120.002 0-69.951 49.449-119.4 49.447-50.05 120.002-50.051"
                style="fill:#fff;stroke:none"
        />
        <path
                d="M7497.5 9899.924q69.95 0 119.4 50.051 50.05 49.449 50.05 119.4 0 70.554-50.05 120.002-49.45 49.449-119.4 49.448-70.555 0-120.002-49.448-49.45-49.448-49.449-120.002 0-69.951 49.449-119.4 49.447-50.05 120.002-50.051"
                style="fill:#000;stroke:none"
        />
        <path
                d="M9263 10051h-882l-441 764 441 764h882l441-764z"
                style="fill:#d18b47;stroke:none"
        />
        <path
                d="M8820.5 10663.924q69.95 0 119.4 50.051 50.05 49.449 50.05 119.4 0 70.554-50.05 120.002-49.45 49.449-119.4 49.448-70.555 0-120.002-49.448-49.45-49.448-49.449-120.002 0-69.951 49.449-119.4 49.447-50.05 120.002-50.051"
                style="fill:#fff;stroke:none"
        />
        <path
                d="M8820.5 10663.924q69.95 0 119.4 50.051 50.05 49.449 50.05 119.4 0 70.554-50.05 120.002-49.45 49.449-119.4 49.448-70.555 0-120.002-49.448-49.45-49.448-49.449-120.002 0-69.951 49.449-119.4 49.447-50.05 120.002-50.051"
                style="fill:#000;stroke:none"
        />
        <path
                d="M10586 9287h-882l-441 764 441 764h882l441-764z"
                style="fill:#ffce9e;stroke:none"
        />
        <path
                d="M10143.5 9899.924q69.95 0 119.399 50.051 50.05 49.449 50.052 119.4-.002 70.554-50.052 120.002-49.45 49.449-119.399 49.448-70.555 0-120.002-49.448-49.45-49.448-49.449-120.002 0-69.951 49.449-119.4 49.447-50.05 120.002-50.051"
                style="fill:#fff;stroke:none"
        />
        <path
                d="M10143.5 9899.924q69.95 0 119.399 50.051 50.05 49.449 50.052 119.4-.002 70.554-50.052 120.002-49.45 49.449-119.399 49.448-70.555 0-120.002-49.448-49.45-49.448-49.449-120.002 0-69.951 49.449-119.4 49.447-50.05 120.002-50.051"
                style="fill:#000;stroke:none"
        />
        <path
                d="M11909 8524h-882l-441 764 441 764h882l441-764z"
                style="fill:#e8ab6f;stroke:none"
        />
        <path
                d="M13232 7760h-882l-441 764 441 764h882l441-764z"
                style="fill:#d18b47;stroke:none"
        />
        <path
                d="M14555 6996h-882l-441 764 441 764h882l441-764z"
                style="fill:#ffce9e;stroke:none"
        />
        <path
                d="M15878 6231h-882l-441 764 441 764h882l441-764z"
                style="fill:#e8ab6f;stroke:none"
        />

        <path
                d="m3090 5467-441-764h-882l-441 764 441 764h882z"
                style="fill:#ffce9e;stroke:none"
        />
        <path
                d="M2207.5 5315.924q69.95 0 119.4 50.051 50.05 49.449 50.05 119.4 0 70.554-50.05 120.002-49.45 49.448-119.4 49.448-70.555 0-120.002-49.448-49.45-49.448-49.449-120.003 0-69.95 49.449-119.399 49.447-50.05 120.002-50.051"
                style="fill:#fff;stroke:none"
        />
        <path
                d="M2207.5 5315.924q69.95 0 119.4 50.051 50.05 49.449 50.05 119.4 0 70.554-50.05 120.002-49.45 49.448-119.4 49.448-70.555 0-120.002-49.448-49.45-49.448-49.449-120.003 0-69.95 49.449-119.399 49.447-50.05 120.002-50.051"
                style="fill:#000;stroke:none"
        />
        <path
                d="m4413 6231-441-764h-882l-441 764 441 764h882z"
                style="fill:#d18b47;stroke:none"
        />
        <path
                d="M3530.5 6079.924q69.95 0 119.4 50.051 50.05 49.449 50.05 119.4 0 70.554-50.05 120.002-49.45 49.448-119.4 49.448-70.555 0-120.002-49.448-49.45-49.448-49.449-120.003 0-69.95 49.449-119.399 49.447-50.05 120.002-50.051"
                style="fill:#fff;stroke:none"
        />
        <path
                d="M3530.5 6079.924q69.95 0 119.4 50.051 50.05 49.449 50.05 119.4 0 70.554-50.05 120.002-49.45 49.448-119.4 49.448-70.555 0-120.002-49.448-49.45-49.448-49.449-120.003 0-69.95 49.449-119.399 49.447-50.05 120.002-50.051"
                style="fill:#000;stroke:none"
        />
        <path
                d="m5735 6995-441-764h-882l-441 764 441 764h882z"
                style="fill:#e8ab6f;stroke:none"
        />
        <path
                d="M4853.5 6842.924q69.95 0 119.4 50.051 50.05 49.449 50.05 119.4 0 70.554-50.05 120.002-49.45 49.448-119.4 49.448-70.555 0-120.002-49.448-49.45-49.448-49.449-120.003 0-69.95 49.449-119.399 49.447-50.05 120.002-50.051"
                style="fill:#fff;stroke:none"
        />
        <path
                d="M4853.5 6842.924q69.95 0 119.4 50.051 50.05 49.449 50.05 119.4 0 70.554-50.05 120.002-49.45 49.448-119.4 49.448-70.555 0-120.002-49.448-49.45-49.448-49.449-120.003 0-69.95 49.449-119.399 49.447-50.05 120.002-50.051"
                style="fill:#000;stroke:none"
        />
        <path
                d="m7058 7758-441-764h-882l-441 764 441 764h882z"
                style="fill:#ffce9e;stroke:none"
        />
        <path
                d="M6176.5 7606.924q69.95 0 119.4 50.051 50.05 49.449 50.05 119.4 0 70.554-50.05 120.002-49.45 49.448-119.4 49.448-70.555 0-120.002-49.448-49.45-49.448-49.449-120.003 0-69.95 49.449-119.399 49.447-50.05 120.002-50.051"
                style="fill:#fff;stroke:none"
        />
        <path
                d="M6176.5 7606.924q69.95 0 119.4 50.051 50.05 49.449 50.05 119.4 0 70.554-50.05 120.002-49.45 49.448-119.4 49.448-70.555 0-120.002-49.448-49.45-49.448-49.449-120.003 0-69.95 49.449-119.399 49.447-50.05 120.002-50.051"
                style="fill:#000;stroke:none"
        />
        <path
                d="m8381 8522-441-764h-882l-441 764 441 764h882z"
                style="fill:#d18b47;stroke:none"
        />
        <path
                d="M7497.5 8370.924q69.95 0 119.4 50.051 50.05 49.449 50.05 119.4 0 70.554-50.05 120.002-49.45 49.449-119.4 49.448-70.555 0-120.002-49.448-49.45-49.448-49.449-120.002 0-69.951 49.449-119.4 49.447-50.05 120.002-50.051"
                style="fill:#fff;stroke:none"
        />
        <path
                d="M7497.5 8370.924q69.95 0 119.4 50.051 50.05 49.449 50.05 119.4 0 70.554-50.05 120.002-49.45 49.449-119.4 49.448-70.555 0-120.002-49.448-49.45-49.448-49.449-120.002 0-69.951 49.449-119.4 49.447-50.05 120.002-50.051"
                style="fill:#000;stroke:none"
        />
        <path
                d="M9263 8522h-882l-441 764 441 764h882l441-764z"
                style="fill:#e8ab6f;stroke:none"
        />
        <path
                d="M8903.115 8893.11h102.514v-82.615h165.23v226.135l-133.872 103.118v288.247L9139.5 9530.51v123.62h92.264v144.124h-823.133V9654.13h92.263v-123.62l103.118-102.515v-288.247l-133.872-103.118v-226.135h164.627v82.615h103.117v-82.615h165.23z"
                style="fill:#fff;stroke:none"
        />
        <path
                d="M8903.115 8893.11h102.514v-82.615h165.23v226.135l-133.872 103.118v288.247L9139.5 9530.51v123.62h92.264v144.124h-823.133V9654.13h92.263v-123.62l103.118-102.515v-288.247l-133.872-103.118v-226.135h164.627v82.615h103.117v-82.615h165.23zm288.247 802.026h-741.724v62.112h741.724zm-93.47-123.017h-554.785v82.011h554.786zm-102.515-432.371h-349.756v288.247h349.756zm133.872-144.123V8851.5h-82.615v82.615h-185.732V8851.5h-81.409v82.615h-185.13V8851.5h-82.614v144.124zm-46.433 534.885L9020.705 9469h-399.807l-63.318 61.509zm-66.333-431.768 76.584-62.112h-545.136l77.187 62.112z"
                style="fill:#000;stroke:none"
        />
        <path
                d="M10586 7758h-882l-441 764 441 764h882l441-764z"
                style="fill:#d18b47;stroke:none"
        />
        <path
                d="M10143.5 8370.924q69.95 0 119.399 50.051 50.05 49.449 50.052 119.4-.002 70.554-50.052 120.002-49.45 49.449-119.399 49.448-70.555 0-120.002-49.448-49.45-49.448-49.449-120.002 0-69.951 49.449-119.4 49.447-50.05 120.002-50.051"
                style="fill:#fff;stroke:none"
        />
        <path
                d="M10143.5 8370.924q69.95 0 119.399 50.051 50.05 49.449 50.052 119.4-.002 70.554-50.052 120.002-49.45 49.449-119.399 49.448-70.555 0-120.002-49.448-49.45-49.448-49.449-120.002 0-69.951 49.449-119.4 49.447-50.05 120.002-50.051"
                style="fill:#000;stroke:none"
        />
        <path
                d="M11909 6994h-882l-441 764 441 764h882l441-764z"
                style="fill:#ffce9e;stroke:none"
        />
        <path
                d="M11467.5 7606.924q69.95 0 119.399 50.051 50.05 49.449 50.052 119.4-.002 70.554-50.052 120.002-49.45 49.448-119.399 49.448-70.555 0-120.002-49.448-49.449-49.448-49.449-120.003 0-69.95 49.449-119.399 49.447-50.05 120.002-50.051"
                style="fill:#fff;stroke:none"
        />
        <path
                d="M11467.5 7606.924q69.95 0 119.399 50.051 50.05 49.449 50.052 119.4-.002 70.554-50.052 120.002-49.45 49.448-119.399 49.448-70.555 0-120.002-49.448-49.449-49.448-49.449-120.003 0-69.95 49.449-119.399 49.447-50.05 120.002-50.051"
                style="fill:#000;stroke:none"
        />
        <path
                d="M13232 6231h-882l-441 764 441 764h882l441-764z"
                style="fill:#e8ab6f;stroke:none"
        />
        <path
                d="M12790.5 6842.924q69.95 0 119.399 50.051 50.05 49.449 50.052 119.4-.002 70.554-50.052 120.002-49.45 49.448-119.399 49.448-70.555 0-120.002-49.448-49.449-49.448-49.449-120.003 0-69.95 49.449-119.399 49.447-50.05 120.002-50.051"
                style="fill:#fff;stroke:none"
        />
        <path
                d="M12790.5 6842.924q69.95 0 119.399 50.051 50.05 49.449 50.052 119.4-.002 70.554-50.052 120.002-49.45 49.448-119.399 49.448-70.555 0-120.002-49.448-49.449-49.448-49.449-120.003 0-69.95 49.449-119.399 49.447-50.05 120.002-50.051"
                style="fill:#000;stroke:none"
        />
        <path
                d="M14555 5467h-882l-441 764 441 764h882l441-764z"
                style="fill:#d18b47;stroke:none"
        />
        <path
                d="M14113.5 6079.924q69.95 0 119.399 50.051 50.05 49.449 50.052 119.4-.002 70.554-50.052 120.002-49.45 49.448-119.399 49.448-70.555 0-120.002-49.448-49.449-49.448-49.449-120.003 0-69.95 49.449-119.399 49.447-50.05 120.002-50.051"
                style="fill:#fff;stroke:none"
        />
        <path
                d="M14113.5 6079.924q69.95 0 119.399 50.051 50.05 49.449 50.052 119.4-.002 70.554-50.052 120.002-49.45 49.448-119.399 49.448-70.555 0-120.002-49.448-49.449-49.448-49.449-120.003 0-69.95 49.449-119.399 49.447-50.05 120.002-50.051"
                style="fill:#000;stroke:none"
        />
        <path
                d="M15878 4703h-882l-441 764 441 764h882l441-764z"
                style="fill:#ffce9e;stroke:none"
        />
        <path
                d="M15436.5 5315.924q69.95 0 119.399 50.051 50.05 49.449 50.052 119.4-.002 70.554-50.052 120.002-49.45 49.448-119.399 49.448-70.555 0-120.002-49.448-49.449-49.448-49.449-120.003 0-69.95 49.449-119.399 49.447-50.05 120.002-50.051"
                style="fill:#fff;stroke:none"
        />
        <path
                d="M15436.5 5315.924q69.95 0 119.399 50.051 50.05 49.449 50.052 119.4-.002 70.554-50.052 120.002-49.45 49.448-119.399 49.448-70.555 0-120.002-49.448-49.449-49.448-49.449-120.003 0-69.95 49.449-119.399 49.447-50.05 120.002-50.051"
                style="fill:#000;stroke:none"
        />
        <path
                d="m4413 4703-441-764h-882l-441 764 441 764h882z"
                style="fill:#e8ab6f;stroke:none"
        />
        <path
                d="m5735 5467-441-764h-882l-441 764 441 764h882z"
                style="fill:#ffce9e;stroke:none"
        />
        <path
                d="m7058 6231-441-764h-882l-441 764 441 764h882z"
                style="fill:#d18b47;stroke:none"
        />
        <path
                d="m8381 6995-441-764h-882l-441 764 441 764h882z"
                style="fill:#e8ab6f;stroke:none"
        />
        <path
                d="M9263 6994h-882l-441 764 441 764h882l441-764z"
                style="fill:#ffce9e;stroke:none"
        />
        <path
                d="M8820.5 7606.924q69.95 0 119.4 50.051 50.05 49.449 50.05 119.4 0 70.554-50.05 120.002-49.45 49.448-119.4 49.448-70.555 0-120.002-49.448-49.45-49.448-49.449-120.003 0-69.95 49.449-119.399 49.447-50.05 120.002-50.051"
                style="fill:#fff;stroke:none"
        />
        <path
                d="M8820.5 7606.924q69.95 0 119.4 50.051 50.05 49.449 50.05 119.4 0 70.554-50.05 120.002-49.45 49.448-119.4 49.448-70.555 0-120.002-49.448-49.45-49.448-49.449-120.003 0-69.95 49.449-119.399 49.447-50.05 120.002-50.051"
                style="fill:#000;stroke:none"
        />
        <path
                d="M10586 6231h-882l-441 764 441 764h882l441-764z"
                style="fill:#e8ab6f;stroke:none"
        />
        <path
                d="M11909 5467h-882l-441 764 441 764h882l441-764z"
                style="fill:#d18b47;stroke:none"
        />
        <path
                d="M13232 4703h-882l-441 764 441 764h882l441-764z"
                style="fill:#ffce9e;stroke:none"
        />
        <path
                d="M14555 3939h-882l-441 764 441 764h882l441-764z"
                style="fill:#e8ab6f;stroke:none"
        />

        <path
                d="m5735 3939-441-764h-882l-441 764 441 764h882z"
                style="fill:#d18b47;stroke:none"
        />
        <path
                d="m7058 4703-441-764h-882l-441 764 441 764h882z"
                style="fill:#e8ab6f;stroke:none"
        />
        <path
                d="m8381 5467-441-764h-882l-441 764 441 764h882z"
                style="fill:#ffce9e;stroke:none"
        />
        <path
                d="M9263 5467h-882l-441 764 441 764h882l441-764z"
                style="fill:#d18b47;stroke:none"
        />
        <path
                d="M8820.5 6079.924q69.95 0 119.4 50.051 50.05 49.449 50.05 119.4 0 70.554-50.05 120.002-49.45 49.448-119.4 49.448-70.555 0-120.002-49.448-49.45-49.448-49.449-120.003 0-69.95 49.449-119.399 49.447-50.05 120.002-50.051"
                style="fill:#fff;stroke:none"
        />
        <path
                d="M8820.5 6079.924q69.95 0 119.4 50.051 50.05 49.449 50.05 119.4 0 70.554-50.05 120.002-49.45 49.448-119.4 49.448-70.555 0-120.002-49.448-49.45-49.448-49.449-120.003 0-69.95 49.449-119.399 49.447-50.05 120.002-50.051"
                style="fill:#000;stroke:none"
        />
        <path
                d="M10586 4703h-882l-441 764 441 764h882l441-764z"
                style="fill:#ffce9e;stroke:none"
        />
        <path
                d="M11909 3939h-882l-441 764 441 764h882l441-764z"
                style="fill:#e8ab6f;stroke:none"
        />
        <path
                d="M13232 3175h-882l-441 764 441 764h882l441-764z"
                style="fill:#d18b47;stroke:none"
        />

        <path
                d="m7058 3176-441-764h-882l-441 764 441 764h882z"
                style="fill:#ffce9e;stroke:none"
        />
        <path
                d="m8381 3939-441-764h-882l-441 764 441 764h882z"
                style="fill:#d18b47;stroke:none"
        />
        <path
                d="M9263 3939h-882l-441 764 441 764h882l441-764z"
                style="fill:#e8ab6f;stroke:none"
        />
        <path
                d="M8820.5 4551.924q69.95 0 119.4 50.051 50.05 49.449 50.05 119.4 0 70.554-50.05 120.002-49.45 49.448-119.4 49.448-70.555 0-120.002-49.448-49.45-49.448-49.449-120.003 0-69.95 49.449-119.399 49.447-50.05 120.002-50.051"
                style="fill:#fff;stroke:none"
        />
        <path
                d="M8820.5 4551.924q69.95 0 119.4 50.051 50.05 49.449 50.05 119.4 0 70.554-50.05 120.002-49.45 49.448-119.4 49.448-70.555 0-120.002-49.448-49.45-49.448-49.449-120.003 0-69.95 49.449-119.399 49.447-50.05 120.002-50.051"
                style="fill:#000;stroke:none"
        />
        <path
                d="M10586 3175h-882l-441 764 441 764h882l441-764z"
                style="fill:#d18b47;stroke:none"
        />
        <path
                d="M11909 2412h-882l-441 764 441 764h882l441-764z"
                style="fill:#ffce9e;stroke:none"
        />

        <path
                d="m8381 2412-441-764h-882l-441 764 441 764h882z"
                style="fill:#e8ab6f;stroke:none"
        />
        <path
                d="M9263 2412h-882l-441 764 441 764h882l441-764z"
                style="fill:#ffce9e;stroke:none"
        />
        <path
                d="M8820.5 3024.924q69.95 0 119.4 50.051 50.05 49.449 50.05 119.4 0 70.554-50.05 120.002-49.45 49.448-119.4 49.448-70.555 0-120.002-49.448-49.45-49.448-49.449-120.002 0-69.951 49.449-119.4 49.447-50.05 120.002-50.051"
                style="fill:#fff;stroke:none"
        />
        <path
                d="M8820.5 3024.924q69.95 0 119.4 50.051 50.05 49.449 50.05 119.4 0 70.554-50.05 120.002-49.45 49.448-119.4 49.448-70.555 0-120.002-49.448-49.45-49.448-49.449-120.002 0-69.951 49.449-119.4 49.447-50.05 120.002-50.051"
                style="fill:#000;stroke:none"
        />
        <path
                d="M10586 1648h-882l-441 764 441 764h882l441-764z"
                style="fill:#e8ab6f;stroke:none"
        />

        <path
                d="M9263 884h-882l-441 764 441 764h882l441-764z"
                style="fill:#d18b47;stroke:none"
        />
        <path
                d="M8820.5 1496.924q69.95 0 119.4 50.051 50.05 49.449 50.05 119.4 0 70.554-50.05 120.002-49.45 49.448-119.4 49.448-70.555 0-120.002-49.448-49.45-49.448-49.449-120.002 0-69.951 49.449-119.4 49.447-50.05 120.002-50.051"
                style="fill:#fff;stroke:none"
        />
        <path
                d="M8820.5 1496.924q69.95 0 119.4 50.051 50.05 49.449 50.05 119.4 0 70.554-50.05 120.002-49.45 49.448-119.4 49.448-70.555 0-120.002-49.448-49.45-49.448-49.449-120.002 0-69.951 49.449-119.4 49.447-50.05 120.002-50.051"
                style="fill:#000;stroke:none"
        />
  </g>
</svg>