<?xml version="1.0" encoding="UTF-8" standalone="no"?>
<!-- Created with Inkscape (http://www.inkscape.org/) -->

<svg
   xmlns:dc="http://purl.org/dc/elements/1.1/"
   xmlns:cc="http://creativecommons.org/ns#"
   xmlns:rdf="http://www.w3.org/1999/02/22-rdf-syntax-ns#"
   xmlns:svg="http://www.w3.org/2000/svg"
   xmlns="http://www.w3.org/2000/svg"
   version="1.1"
   width="176.50999mm"
   height="193.32001mm"
   viewBox="0 0 17651 19332"
   clip-path="url(#presentation_clip_path)"
   id="svg2"
   xml:space="preserve"
   style="fill-rule:evenodd;stroke-width:28.22200012;stroke-linejoin:round"><metadata
   id="metadata1488"><rdf:RDF><cc:Work
       rdf:about=""><dc:format>image/svg+xml</dc:format><dc:type
         rdf:resource="http://purl.org/dc/dcmitype/StillImage" /><dc:title></dc:title></cc:Work></rdf:RDF></metadata>
 <defs
   id="defs4">
  <clipPath
   id="presentation_clip_path">
   <rect
   width="17651"
   height="19332"
   x="0"
   y="0"
   id="rect7" />
  </clipPath>
 </defs>
 <defs
   id="defs9">
  
 </defs>
 <defs
   id="defs11">
  <g
   transform="scale(4.8828125e-4,-4.8828125e-4)"
   id="bullet-char-template57356">
   <path
   d="M 580,1141 1163,571 580,0 -4,571 580,1141 z"
   id="path14" />
  </g>
  <g
   transform="scale(4.8828125e-4,-4.8828125e-4)"
   id="bullet-char-template57354">
   <path
   d="m 8,1128 1129,0 L 1137,0 8,0 8,1128 z"
   id="path17" />
  </g>
  <g
   transform="scale(4.8828125e-4,-4.8828125e-4)"
   id="bullet-char-template10146">
   <path
   d="M 174,0 602,739 174,1481 1456,739 174,0 z m 1184,739 -1049,607 350,-607 699,0 z"
   id="path20" />
  </g>
  <g
   transform="scale(4.8828125e-4,-4.8828125e-4)"
   id="bullet-char-template10132">
   <path
   d="M 2015,739 1276,0 717,0 l 543,543 -1086,0 0,393 1086,0 -543,545 557,0 741,-742 z"
   id="path23" />
  </g>
  <g
   transform="scale(4.8828125e-4,-4.8828125e-4)"
   id="bullet-char-template10007">
   <path
   d="m 0,-2 c -7,16 -16,29 -25,39 l 381,530 c -94,256 -141,385 -141,387 0,25 13,38 40,38 9,0 21,-2 34,-5 21,4 42,12 65,25 l 27,-13 111,-251 280,301 64,-25 24,25 c 21,-10 41,-24 62,-43 C 886,937 835,863 770,784 769,783 710,716 594,584 L 774,223 c 0,-27 -21,-55 -63,-84 l 16,-20 C 717,90 699,76 672,76 641,76 570,178 457,381 L 164,-76 c -22,-34 -53,-51 -92,-51 -42,0 -63,17 -64,51 -7,9 -10,24 -10,44 0,9 1,19 2,30 z"
   id="path26" />
  </g>
  <g
   transform="scale(4.8828125e-4,-4.8828125e-4)"
   id="bullet-char-template10004">
   <path
   d="M 285,-33 C 182,-33 111,30 74,156 52,228 41,333 41,471 c 0,78 14,145 41,201 34,71 87,106 158,106 53,0 88,-31 106,-94 l 23,-176 c 8,-64 28,-97 59,-98 l 735,706 c 11,11 33,17 66,17 42,0 63,-15 63,-46 l 0,-122 c 0,-36 -10,-64 -30,-84 L 442,47 C 390,-6 338,-33 285,-33 z"
   id="path29" />
  </g>
  <g
   transform="scale(4.8828125e-4,-4.8828125e-4)"
   id="bullet-char-template9679">
   <path
   d="M 813,0 C 632,0 489,54 383,161 276,268 223,411 223,592 c 0,181 53,324 160,431 106,107 249,161 430,161 179,0 323,-54 432,-161 108,-107 162,-251 162,-431 0,-180 -54,-324 -162,-431 C 1136,54 992,0 813,0 z"
   id="path32" />
  </g>
  <g
   transform="scale(4.8828125e-4,-4.8828125e-4)"
   id="bullet-char-template8226">
   <path
   d="m 346,457 c -73,0 -137,26 -191,78 -54,51 -81,114 -81,188 0,73 27,136 81,188 54,52 118,78 191,78 73,0 134,-26 185,-79 51,-51 77,-114 77,-187 0,-75 -25,-137 -76,-188 -50,-52 -112,-78 -186,-78 z"
   id="path35" />
  </g>
  <g
   transform="scale(4.8828125e-4,-4.8828125e-4)"
   id="bullet-char-template8211">
   <path
   d="m -4,459 1139,0 0,147 -1139,0 0,-147 z"
   id="path38" />
  </g>
 </defs>
 <defs
   id="defs40" />
 <g
   id="g42">
  <g
   id="id2">
   <g
   id="bg-id2" />
   <g
   id="bo-id2" />
  </g>
 </g>
 <g
   id="g47">
  <g
   id="g49">
   <g
   clip-path="url(#presentation_clip_path)"
   id="id1">
    <g
   id="g52">
     <g
   id="g54">
      <g
   id="g56">
       <g
   id="id3">
        <path
   d="m 1775,13863 -441,-764 441,-764 -441,-763 441,-764 -441,-764 441,-764 -441,-763 441,-764 -441,-764 441,-764 -441,-763 441,-764 882,0 441,-764 882,0 441,-764 882,0 441,-763 882,0 441,-764 882,0 441,-764 882,0 440,764 882,0 441,764 882,0 441,763 882,0 441,764 882,0 441,764 882,0 441,764 -441,763 441,764 -441,764 441,764 -441,763 441,764 -441,764 441,764 -441,763 441,764 -441,764 -882,0 -441,764 -882,0 -441,764 -882,0 -441,763 -882,0 -441,764 -882,0 -440,764 -882,0 -441,-764 -882,0 -441,-764 -882,0 -441,-763 -882,0 -441,-764 -882,0 -441,-764 -882,0 z"
   id="path59"
   style="fill:none;stroke:#000000;stroke-width:141" />
       </g>
      </g>
      <g
   id="g61">
       <g
   id="id4">
        <path
   d="m 1775,13865 -441,-764 441,-764 -441,-763 441,-764 -441,-764 441,-764 -441,-763 441,-764 -441,-764 441,-764 -441,-763 441,-764 882,0 441,-764 882,0 441,-764 882,0 441,-763 882,0 441,-764 882,0 441,-764 882,0 440,764 882,0 441,764 882,0 441,763 882,0 441,764 882,0 441,764 882,0 441,764 -441,763 441,764 -441,764 441,764 -441,763 441,764 -441,764 441,764 -441,763 441,764 -441,764 -882,0 -441,764 -882,0 -441,764 -882,0 -441,763 -882,0 -441,764 -882,0 -440,764 -882,0 -441,-764 -882,0 -441,-764 -882,0 -441,-763 -882,0 -441,-764 -882,0 -441,-764 -882,0 z"
   id="path64"
   style="fill:#ffce9e;stroke:none" />
        <path
   d="m 1775,13865 -441,-764 441,-764 -441,-763 441,-764 -441,-764 441,-764 -441,-763 441,-764 -441,-764 441,-764 -441,-763 441,-764 882,0 441,-764 882,0 441,-764 882,0 441,-763 882,0 441,-764 882,0 441,-764 882,0 440,764 882,0 441,764 882,0 441,763 882,0 441,764 882,0 441,764 882,0 441,764 -441,763 441,764 -441,764 441,764 -441,763 441,764 -441,764 441,764 -441,763 441,764 -441,764 -882,0 -441,764 -882,0 -441,764 -882,0 -441,763 -882,0 -441,764 -882,0 -440,764 -882,0 -441,-764 -882,0 -441,-764 -882,0 -441,-763 -882,0 -441,-764 -882,0 -441,-764 -882,0 z"
   id="path66"
   style="fill:none;stroke:#000000" />
       </g>
      </g>
      <g
   id="g68">
       <g
   id="id5" />
      </g>
      <g
   id="g71">
       <g
   id="id6" />
      </g>
      <g
   id="g74">
       <g
   id="id7">
        <g
   id="text77"><path
     d="m 2442.87,15003.782 c -7.938,1.764 -11.466,1.764 -15.876,1.764 -25.578,0 -39.69,-13.23 -39.69,-36.162 l 0,-271.656 c 0,-82.026 -59.9761,-126.126 -173.754,-126.126 -67.0319,0 -122.598,19.404 -153.468,53.802 -21.168,23.814 -29.988,50.274 -31.752,96.138 l 74.088,0 c 6.174,-56.448 39.6901,-82.026 108.486,-82.026 66.1499,0 103.194,24.696 103.194,68.796 l 0,19.404 c 0,30.87 -18.5221,44.1 -76.734,51.156 -104.0759,13.23 -119.952,16.758 -148.176,28.224 -53.8019,22.05 -81.144,63.504 -81.144,123.48 0,83.79 58.2121,136.71 151.704,136.71 58.2119,0 104.9581,-20.286 156.996,-67.914 5.292,46.746 28.224,67.914 75.852,67.914 14.994,0 26.46,-1.764 50.274,-7.938 l 0,-55.566 m -128.772,-102.312 c 0,24.696 -7.056,39.69 -29.106,59.976 -29.988,27.342 -66.15,41.454 -109.368,41.454 -57.3299,0 -90.846,-27.342 -90.846,-74.088 0,-48.51 32.6341,-73.206 111.132,-84.672 77.6159,-10.584 93.492,-14.112 118.188,-25.578 l 0,82.908"
     id="path4466"
     style="fill:#000000;stroke:none" /></g>
       </g>
      </g>
      <g
   id="g85">
       <g
   id="id8" />
      </g>
      <g
   id="g88">
       <g
   id="id9">
        <g
   id="text91"><path
     d="m 3341.628,15170.022 0,642.978 66.15,0 0,-59.094 c 35.28,53.802 82.0261,79.38 146.412,79.38 121.7159,0 201.096,-99.666 201.096,-253.134 0,-149.94 -75.8521,-242.55 -197.568,-242.55 -63.5039,0 -108.486,23.814 -142.884,75.852 l 0,-243.432 -73.206,0 m 201.978,236.376 c 82.0259,0 134.946,71.442 134.946,181.692 0,104.958 -54.6841,176.4 -134.946,176.4 -77.6159,0 -128.772,-70.56 -128.772,-179.046 0,-108.486 51.1561,-179.046 128.772,-179.046"
     id="path4469"
     style="fill:#000000;stroke:none" /></g>
       </g>
      </g>
      <g
   id="g99">
       <g
   id="id10" />
      </g>
      <g
   id="g102">
       <g
   id="id11">
        <g
   id="text105"><path
     d="m 5057.422,16268.064 c -3.528,-44.982 -13.23,-74.088 -30.87,-99.666 -31.752,-43.218 -87.3181,-68.796 -151.704,-68.796 -124.3619,0 -205.506,98.784 -205.506,252.252 0,149.058 79.3801,243.432 204.624,243.432 110.2499,0 179.928,-66.15 188.748,-179.046 l -74.088,0 c -12.348,74.088 -50.2741,111.132 -112.896,111.132 -81.1439,0 -129.654,-66.15 -129.654,-175.518 0,-115.542 47.6281,-184.338 127.89,-184.338 61.7399,0 100.548,36.162 109.368,100.548 l 74.088,0"
     id="path4472"
     style="fill:#000000;stroke:none" /></g>
       </g>
      </g>
      <g
   id="g113">
       <g
   id="id12" />
      </g>
      <g
   id="g116">
       <g
   id="id13">
        <g
   id="text119"><path
     d="m 6375.59,16695.022 -73.206,0 0,239.022 c -30.87,-46.746 -80.2621,-71.442 -142.002,-71.442 -119.9519,0 -198.45,96.138 -198.45,243.432 0,156.114 76.7341,252.252 201.096,252.252 63.5039,0 107.604,-23.814 147.294,-81.144 l 0,60.858 65.268,0 0,-642.978 m -202.86,236.376 c 79.3799,0 129.654,70.56 129.654,180.81 0,106.722 -51.1561,177.282 -128.772,177.282 -81.1439,0 -134.946,-71.442 -134.946,-179.046 0,-107.604 53.8021,-179.046 134.064,-179.046"
     id="path4475"
     style="fill:#000000;stroke:none" /></g>
       </g>
      </g>
      <g
   id="g127">
       <g
   id="id14" />
      </g>
      <g
   id="g130">
       <g
   id="id15">
        <g
   id="text133"><path
     d="m 7713.466,17895.612 c 0,-70.56 -5.292,-112.896 -18.522,-147.294 -29.988,-75.852 -100.5481,-121.716 -186.984,-121.716 -128.7719,0 -211.68,98.784 -211.68,250.488 0,151.704 80.2621,245.196 209.916,245.196 105.8399,0 179.046,-59.976 197.568,-160.524 l -74.088,0 c -20.286,60.858 -61.7401,92.61 -120.834,92.61 -46.746,0 -86.436,-21.168 -111.132,-59.976 -17.64,-26.46 -23.814,-52.92 -24.696,-98.784 l 340.452,0 m -338.688,-59.976 c 6.174,-85.554 58.2121,-141.12 132.3,-141.12 72.3239,0 127.89,59.976 127.89,135.828 0,1.764 0,3.528 -0.882,5.292 l -259.308,0"
     id="path4478"
     style="fill:#000000;stroke:none" /></g>
       </g>
      </g>
      <g
   id="g141">
       <g
   id="id16" />
      </g>
      <g
   id="g144">
       <g
   id="id17">
        <g
   id="text147"><path
     d="m 8932.556,18405.832 -76.734,0 0,-72.324 c 0,-30.87 17.64,-46.746 51.156,-46.746 6.174,0 8.82,0 25.578,0.882 l 0,-60.858 c -16.758,-3.528 -26.46,-4.41 -41.454,-4.41 -67.9139,0 -108.486,38.808 -108.486,104.958 l 0,78.498 -61.74,0 0,59.976 61.74,0 0,402.192 73.206,0 0,-402.192 76.734,0 0,-59.976"
     id="path4481"
     style="fill:#000000;stroke:none" /></g>
       </g>
      </g>
      <g
   id="g155">
       <g
   id="id18" />
      </g>
      <g
   id="g158">
       <g
   id="id19">
        <g
   id="text161"><path
     d="m 10269.384,17639.832 0,67.032 c -37.044,-54.684 -82.026,-80.262 -141.12,-80.262 -117.306,0 -196.686,102.312 -196.686,252.252 0,75.852 20.286,137.592 58.212,181.692 34.398,38.808 83.79,61.74 132.3,61.74 58.212,0 98.784,-24.696 140.238,-82.908 l 0,23.814 c 0,62.622 -7.938,100.548 -26.46,126.126 -19.404,27.342 -57.33,43.218 -102.312,43.218 -33.516,0 -63.504,-8.82 -83.79,-24.696 -16.758,-13.23 -23.814,-25.578 -28.224,-52.92 l -74.97,0 c 7.938,87.318 75.852,139.356 184.338,139.356 68.796,0 127.89,-22.05 157.878,-59.094 35.28,-42.336 48.51,-100.548 48.51,-209.034 l 0,-386.316 -67.914,0 m -133.182,54.684 c 79.38,0 126.126,67.032 126.126,182.574 0,110.25 -47.628,177.282 -125.244,177.282 -80.262,0 -128.772,-67.914 -128.772,-179.928 0,-111.132 49.392,-179.928 127.89,-179.928"
     id="path4484"
     style="fill:#000000;stroke:none" /></g>
       </g>
      </g>
      <g
   id="g169">
       <g
   id="id20" />
      </g>
      <g
   id="g172">
       <g
   id="id21">
        <g
   id="text175"><path
     d="m 11290.74,16695.022 0,642.978 73.206,0 0,-254.898 c 0,-94.374 49.392,-156.114 125.244,-156.114 23.814,0 47.628,7.938 65.268,21.168 21.168,14.994 29.988,37.044 29.988,69.678 l 0,320.166 73.206,0 0,-349.272 c 0,-77.616 -55.566,-126.126 -145.53,-126.126 -65.268,0 -104.958,20.286 -148.176,76.734 l 0,-244.314 -73.206,0"
     id="path4487"
     style="fill:#000000;stroke:none" /></g>
       </g>
      </g>
      <g
   id="g183">
       <g
   id="id22" />
      </g>
      <g
   id="g186">
       <g
   id="id23">
        <g
   id="text189"><path
     d="m 12833.3,16112.832 -73.206,0 0,462.168 73.206,0 0,-462.168 m 0,-180.81 -74.088,0 0,92.61 74.088,0 0,-92.61"
     id="path4490"
     style="fill:#000000;stroke:none" /></g>
       </g>
      </g>
      <g
   id="g197">
       <g
   id="id24" />
      </g>
      <g
   id="g200">
       <g
   id="id25">
        <g
   id="text203"><path
     d="m 14026.362,15170.022 -73.206,0 0,642.978 73.206,0 0,-179.928 71.442,-70.56 156.114,250.488 90.846,0 -188.748,-302.526 160.524,-159.642 -94.374,0 -195.804,195.804 0,-376.614"
     id="path4493"
     style="fill:#000000;stroke:none" /></g>
       </g>
      </g>
      <g
   id="g211">
       <g
   id="id26" />
      </g>
      <g
   id="g214">
       <g
   id="id27">
        <g
   id="text217"><path
     d="m 15480.064,14404.022 -74.088,0 0,642.978 74.088,0 0,-642.978"
     id="path4496"
     style="fill:#000000;stroke:none" /></g>
       </g>
      </g>
      <g
   id="g225">
       <g
   id="id28" />
      </g>
      <g
   id="g228">
       <g
   id="id29">
        <g
   id="text231" />
       </g>
      </g>
      <g
   id="g239">
       <g
   id="id30" />
      </g>
      <g
   id="g242">
       <g
   id="id31">
        <g
   id="text245"><path
     d="m 876.438,12312.59 0,445.41 77.616,0 0,-625.338 -51.156,0 c -27.34197,96.138 -44.98212,109.368 -164.934,124.362 l 0,55.566 138.474,0"
     id="path4500"
     style="fill:#000000;stroke:none" /></g>
       </g>
      </g>
      <g
   id="g253">
       <g
   id="id32">
        <path
   d="m 3098,13101 -441,-764 -882,0 -441,764 441,764 882,0 441,-764 z"
   id="path256"
   style="fill:#d18b47;stroke:none" />
       </g>
      </g>
      <g
   id="g258">
       <g
   id="id33">
        <path
   d="m 4421,13865 -441,-764 -882,0 -441,764 441,764 882,0 441,-764 z"
   id="path261"
   style="fill:#e8ab6f;stroke:none" />
       </g>
      </g>
      <g
   id="g263">
       <g
   id="id34">
        <path
   d="m 5743,14629 -441,-764 -882,0 -441,764 441,764 882,0 441,-764 z"
   id="path266"
   style="fill:#ffce9e;stroke:none" />
       </g>
      </g>
      <g
   id="g268">
       <g
   id="id35">
        <path
   d="m 7066,15393 -441,-764 -882,0 -441,764 441,764 882,0 441,-764 z"
   id="path271"
   style="fill:#d18b47;stroke:none" />
       </g>
      </g>
      <g
   id="g273">
       <g
   id="id36">
        <path
   d="m 8389,16155 -441,-764 -882,0 -441,764 441,764 882,0 441,-764 z"
   id="path276"
   style="fill:#e8ab6f;stroke:none" />
       </g>
      </g>
      <g
   id="g278">
       <g
   id="id37">
        <path
   d="m 9271,16156 -882,0 -441,764 441,764 882,0 441,-764 -441,-764 z"
   id="path281"
   style="fill:#ffce9e;stroke:none" />
       </g>
      </g>
      <g
   id="g283">
       <g
   id="id38">
        <path
   d="m 10592,15392 -882,0 -441,764 441,764 882,0 441,-764 -441,-764 z"
   id="path286"
   style="fill:#e8ab6f;stroke:none" />
       </g>
      </g>
      <g
   id="g288">
       <g
   id="id39">
        <path
   d="m 11914,14629 -882,0 -441,764 441,764 882,0 441,-764 -441,-764 z"
   id="path291"
   style="fill:#d18b47;stroke:none" />
       </g>
      </g>
      <g
   id="g293">
       <g
   id="id40">
        <path
   d="m 13236,13865 -882,0 -441,764 441,764 882,0 441,-764 -441,-764 z"
   id="path296"
   style="fill:#ffce9e;stroke:none" />
       </g>
      </g>
      <g
   id="g298">
       <g
   id="id41">
        <path
   d="m 14561,13101 -882,0 -441,764 441,764 882,0 441,-764 -441,-764 z"
   id="path301"
   style="fill:#e8ab6f;stroke:none" />
       </g>
      </g>
      <g
   id="g303">
       <g
   id="id42">
        <path
   d="m 15884,12337 -882,0 -441,764 441,764 882,0 441,-764 -441,-764 z"
   id="path306"
   style="fill:#d18b47;stroke:none" />
       </g>
      </g>
      <g
   id="g308">
       <g
   id="id43" />
      </g>
      <g
   id="g311">
       <g
   id="id44">
        <g
   id="text314"><path
     d="m 16745.438,12312.59 0,445.41 77.616,0 0,-625.338 -51.156,0 c -27.342,96.138 -44.982,109.368 -164.934,124.362 l 0,55.566 138.474,0"
     id="path4503"
     style="fill:#000000;stroke:none" /></g>
       </g>
      </g>
      <g
   id="g322">
       <g
   id="id45" />
      </g>
      <g
   id="g325">
       <g
   id="id46">
        <g
   id="text328"><path
     d="m 1088.292,11151.266 -328.986,0 c 7.93799,-51.156 36.16208,-83.79 112.896,-128.772 l 88.2,-47.628 c 87.3179,-47.628 132.3,-112.014 132.3,-188.748 0,-52.038 -21.168,-100.548 -58.212,-134.064 -37.04396,-33.516 -82.90806,-49.392 -142.002,-49.392 -79.37992,0 -138.47403,28.224 -172.872,81.144 -22.04998,33.516 -31.752,72.324 -33.516,135.828 l 77.616,0 c 2.646,-42.336 7.93801,-67.914 18.522,-88.2 20.28598,-37.926 60.85805,-60.858 107.604,-60.858 70.55993,0 123.48,50.274 123.48,117.306 0,49.392 -29.10606,91.728 -84.672,123.48 l -81.144,45.864 c -130.53587,74.088 -168.46201,133.182 -175.518,270.774 l 416.304,0 0,-76.734"
     id="path4506"
     style="fill:#000000;stroke:none" /></g>
       </g>
      </g>
      <g
   id="g336">
       <g
   id="id47">
        <path
   d="m 3094,11574 -441,-764 -882,0 -441,764 441,764 882,0 441,-764 z"
   id="path339"
   style="fill:#e8ab6f;stroke:none" />
       </g>
      </g>
      <g
   id="g341">
       <g
   id="id48">
        <path
   d="m 4417,12338 -441,-764 -882,0 -441,764 441,764 882,0 441,-764 z"
   id="path344"
   style="fill:#ffce9e;stroke:none" />
       </g>
      </g>
      <g
   id="g346">
       <g
   id="id49">
        <path
   d="m 5740,13101 -441,-764 -882,0 -441,764 441,764 882,0 441,-764 z"
   id="path349"
   style="fill:#d18b47;stroke:none" />
       </g>
      </g>
      <g
   id="g351">
       <g
   id="id50">
        <path
   d="m 7061,13863 -441,-764 -882,0 -441,764 441,764 882,0 441,-764 z"
   id="path354"
   style="fill:#e8ab6f;stroke:none" />
       </g>
      </g>
      <g
   id="g356">
       <g
   id="id51">
        <path
   d="m 8382,14629 -441,-764 -882,0 -441,764 441,764 882,0 441,-764 z"
   id="path359"
   style="fill:#ffce9e;stroke:none" />
       </g>
      </g>
      <g
   id="g361">
       <g
   id="id52">
        <path
   d="m 9262,14630 -882,0 -441,764 441,764 882,0 441,-764 -441,-764 z"
   id="path364"
   style="fill:#d18b47;stroke:none" />
       </g>
      </g>
      <g
   id="g366">
       <g
   id="id53">
        <path
   d="m 10585,13867 -882,0 -441,764 441,764 882,0 441,-764 -441,-764 z"
   id="path369"
   style="fill:#ffce9e;stroke:none" />
       </g>
      </g>
      <g
   id="g371">
       <g
   id="id54">
        <path
   d="m 11908,13103 -882,0 -441,764 441,764 882,0 441,-764 -441,-764 z"
   id="path374"
   style="fill:#e8ab6f;stroke:none" />
       </g>
      </g>
      <g
   id="g376">
       <g
   id="id55">
        <path
   d="m 13231,12339 -882,0 -441,764 441,764 882,0 441,-764 -441,-764 z"
   id="path379"
   style="fill:#d18b47;stroke:none" />
       </g>
      </g>
      <g
   id="g381">
       <g
   id="id56">
        <path
   d="m 14554,11575 -882,0 -441,764 441,764 882,0 441,-764 -441,-764 z"
   id="path384"
   style="fill:#ffce9e;stroke:none" />
       </g>
      </g>
      <g
   id="g386">
       <g
   id="id57">
        <path
   d="m 15875,10812 -882,0 -441,764 441,764 882,0 441,-764 -441,-764 z"
   id="path389"
   style="fill:#e8ab6f;stroke:none" />
       </g>
      </g>
      <g
   id="g391">
       <g
   id="id58" />
      </g>
      <g
   id="g394">
       <g
   id="id59">
        <g
   id="text397"><path
     d="m 16958.292,11153.266 -328.986,0 c 7.938,-51.156 36.162,-83.79 112.896,-128.772 l 88.2,-47.628 c 87.318,-47.628 132.3,-112.014 132.3,-188.748 0,-52.038 -21.168,-100.548 -58.212,-134.064 -37.044,-33.516 -82.908,-49.392 -142.002,-49.392 -79.38,0 -138.474,28.224 -172.872,81.144 -22.05,33.516 -31.752,72.324 -33.516,135.828 l 77.616,0 c 2.646,-42.336 7.938,-67.914 18.522,-88.2 20.286,-37.926 60.858,-60.858 107.604,-60.858 70.56,0 123.48,50.274 123.48,117.306 0,49.392 -29.106,91.728 -84.672,123.48 l -81.144,45.864 c -130.536,74.088 -168.462,133.182 -175.518,270.774 l 416.304,0 0,-76.734"
     id="path4509"
     style="fill:#000000;stroke:none" /></g>
       </g>
      </g>
      <g
   id="g405">
       <g
   id="id60" />
      </g>
      <g
   id="g408">
       <g
   id="id61">
        <g
   id="text411"><path
     d="m 831.922,9416.35 9.702,0 32.634,-0.882 c 85.55391,0 129.654,38.8081 129.654,113.778 0,78.4979 -48.51008,125.244 -129.654,125.244 -84.67192,0 -126.12601,-42.3361 -131.418,-133.182 l -77.616,0 c 3.528,50.2739 12.34801,82.908 27.342,111.132 31.75197,59.9759 93.49209,90.846 179.046,90.846 128.7719,0 211.68,-76.7341 211.68,-194.922 0,-79.3799 -30.8701,-123.48 -105.84,-149.058 58.2119,-22.932 87.318,-67.0321 87.318,-129.654 0,-107.6039 -71.44212,-171.99 -190.512,-171.99 -126.12587,0 -193.158,68.7961 -195.804,201.978 l 77.616,0 c 0.882,-37.926 4.41001,-59.094 14.112,-78.498 17.63998,-34.398 56.44805,-55.566 104.958,-55.566 68.79593,0 110.25,40.5721 110.25,106.722 0,44.1 -15.87603,70.56 -50.274,84.672 -21.16798,8.82 -48.51005,12.348 -103.194,13.23 l 0,66.15"
     id="path4512"
     style="fill:#000000;stroke:none" /></g>
       </g>
      </g>
      <g
   id="g419">
       <g
   id="id62">
        <path
   d="m 3089,10048 -441,-764 -882,0 -441,764 441,764 882,0 441,-764 z"
   id="path422"
   style="fill:#ffce9e;stroke:none" />
       </g>
      </g>
      <g
   id="g424">
       <g
   id="id63">
        <path
   d="m 4412,10812 -441,-764 -882,0 -441,764 441,764 882,0 441,-764 z"
   id="path427"
   style="fill:#d18b47;stroke:none" />
       </g>
      </g>
      <g
   id="g429">
       <g
   id="id64">
        <path
   d="m 5735,11576 -441,-764 -882,0 -441,764 441,764 882,0 441,-764 z"
   id="path432"
   style="fill:#e8ab6f;stroke:none" />
       </g>
      </g>
      <g
   id="g434">
       <g
   id="id65">
        <path
   d="m 7058,12339 -441,-764 -882,0 -441,764 441,764 882,0 441,-764 z"
   id="path437"
   style="fill:#ffce9e;stroke:none" />
       </g>
      </g>
      <g
   id="g439">
       <g
   id="id66">
        <path
   d="m 8380,13103 -441,-764 -882,0 -441,764 441,764 882,0 441,-764 z"
   id="path442"
   style="fill:#d18b47;stroke:none" />
       </g>
      </g>
      <g
   id="g444">
       <g
   id="id67">
        <path
   d="m 9264,13103 -882,0 -441,764 441,764 882,0 441,-764 -441,-764 z"
   id="path447"
   style="fill:#e8ab6f;stroke:none" />
       </g>
      </g>
      <g
   id="g449">
       <g
   id="id68">
        <path
   d="m 10587,12339 -882,0 -441,764 441,764 882,0 441,-764 -441,-764 z"
   id="path452"
   style="fill:#d18b47;stroke:none" />
       </g>
      </g>
      <g
   id="g454">
       <g
   id="id69">
        <path
   d="m 11910,11575 -882,0 -441,764 441,764 882,0 441,-764 -441,-764 z"
   id="path457"
   style="fill:#ffce9e;stroke:none" />
       </g>
      </g>
      <g
   id="g459">
       <g
   id="id70">
        <path
   d="m 13233,10812 -882,0 -441,764 441,764 882,0 441,-764 -441,-764 z"
   id="path462"
   style="fill:#e8ab6f;stroke:none" />
       </g>
      </g>
      <g
   id="g464">
       <g
   id="id71">
        <path
   d="m 14558,10046 -882,0 -441,764 441,764 882,0 441,-764 -441,-764 z"
   id="path467"
   style="fill:#d18b47;stroke:none" />
       </g>
      </g>
      <g
   id="g469">
       <g
   id="id72">
        <path
   d="m 15881,9284 -882,0 -441,764 441,764 882,0 441,-764 -441,-764 z"
   id="path472"
   style="fill:#ffce9e;stroke:none" />
       </g>
      </g>
      <g
   id="g474">
       <g
   id="id73" />
      </g>
      <g
   id="g477">
       <g
   id="id74">
        <g
   id="text480"><path
     d="m 16711.922,9416.35 9.702,0 32.634,-0.882 c 85.554,0 129.654,38.8081 129.654,113.778 0,78.4979 -48.51,125.244 -129.654,125.244 -84.672,0 -126.126,-42.3361 -131.418,-133.182 l -77.616,0 c 3.528,50.2739 12.348,82.908 27.342,111.132 31.752,59.9759 93.492,90.846 179.046,90.846 128.772,0 211.68,-76.7341 211.68,-194.922 0,-79.3799 -30.87,-123.48 -105.84,-149.058 58.212,-22.932 87.318,-67.0321 87.318,-129.654 0,-107.6039 -71.442,-171.99 -190.512,-171.99 -126.126,0 -193.158,68.7961 -195.804,201.978 l 77.616,0 c 0.882,-37.926 4.41,-59.094 14.112,-78.498 17.64,-34.398 56.448,-55.566 104.958,-55.566 68.796,0 110.25,40.5721 110.25,106.722 0,44.1 -15.876,70.56 -50.274,84.672 -21.168,8.82 -48.51,12.348 -103.194,13.23 l 0,66.15"
     id="path4515"
     style="fill:#000000;stroke:none" /></g>
       </g>
      </g>
      <g
   id="g488">
       <g
   id="id75" />
      </g>
      <g
   id="g491">
       <g
   id="id76">
        <g
   id="text494"><path
     d="m 930.414,8025.06 0,149.94 77.616,0 0,-149.94 92.61,0 0,-69.678 -92.61,0 0,-405.72 -57.33,0 -284.004,393.372 0,82.026 263.718,0 m 0,-69.678 -195.804,0 195.804,-273.42 0,273.42"
     id="path4518"
     style="fill:#000000;stroke:none" /></g>
       </g>
      </g>
      <g
   id="g502">
       <g
   id="id77">
        <path
   d="m 3092,8521 -441,-764 -882,0 -441,764 441,764 882,0 441,-764 z"
   id="path505"
   style="fill:#d18b47;stroke:none" />
       </g>
      </g>
      <g
   id="g507">
       <g
   id="id78">
        <path
   d="m 4413,9284 -441,-764 -882,0 -441,764 441,764 882,0 441,-764 z"
   id="path510"
   style="fill:#e8ab6f;stroke:none" />
       </g>
      </g>
      <g
   id="g512">
       <g
   id="id79">
        <path
   d="m 5738,10048 -441,-764 -882,0 -441,764 441,764 882,0 441,-764 z"
   id="path515"
   style="fill:#ffce9e;stroke:none" />
       </g>
      </g>
      <g
   id="g517">
       <g
   id="id80">
        <path
   d="m 7061,10812 -441,-764 -882,0 -441,764 441,764 882,0 441,-764 z"
   id="path520"
   style="fill:#d18b47;stroke:none" />
       </g>
      </g>
      <g
   id="g522">
       <g
   id="id81">
        <g
   id="text525"><path
     d="m 6265.542,10830.375 290.6592,290.659 c 29.3463,29.347 29.3463,58.694 0,88.042 l 0,0 c -29.3483,29.347 -58.4946,29.347 -87.439,0 l -291.2622,-290.659 -290.6592,290.659 c -29.3476,29.347 -58.8959,29.347 -88.645,0 l 0,0 c -28.9455,-29.348 -28.9455,-58.896 0,-88.645 l 290.6592,-290.66 -290.6592,-290.659 c -29.3475,-29.346 -29.3475,-58.694 0,-88.042 l 0,0 c 29.3471,-29.346 58.6944,-29.346 88.042,0 l 291.2622,290.659 290.0562,-290.659 c 29.3463,-28.542 58.8947,-28.542 88.645,0 l 0,0 c 28.9443,30.152 28.9443,59.701 0,88.645 l -290.6592,290.66"
     id="path4521"
     style="fill:#ffffff;stroke:none" /></g>
       </g>
      </g>
      <g
   id="g533">
       <g
   id="id82">
        <g
   id="text536"><path
     d="m 6265.542,10830.375 290.6592,290.659 c 29.3463,29.347 29.3463,58.694 0,88.042 l 0,0 c -29.3483,29.347 -58.4946,29.347 -87.439,0 l -291.2622,-290.659 -290.6592,290.659 c -29.3476,29.347 -58.8959,29.347 -88.645,0 l 0,0 c -28.9455,-29.348 -28.9455,-58.896 0,-88.645 l 290.6592,-290.66 -290.6592,-290.659 c -29.3475,-29.346 -29.3475,-58.694 0,-88.042 l 0,0 c 29.3471,-29.346 58.6944,-29.346 88.042,0 l 291.2622,290.659 290.0562,-290.659 c 29.3463,-28.542 58.8947,-28.542 88.645,0 l 0,0 c 28.9443,30.152 28.9443,59.701 0,88.645 l -290.6592,290.66"
     id="path4524"
     style="fill:#000000;stroke:none" /></g>
       </g>
      </g>
      <g
   id="g544">
       <g
   id="id83">
        <path
   d="m 8382,11576 -441,-764 -882,0 -441,764 441,764 882,0 441,-764 z"
   id="path547"
   style="fill:#e8ab6f;stroke:none" />
       </g>
      </g>
      <g
   id="g549">
       <g
   id="id84">
        <g
   id="text552"><path
     d="m 7501.5,12087.254 -325.6348,0 c -16.081,-40.202 -24.1213,-82.213 -24.1211,-126.033 -2e-4,-74.373 21.1057,-141.108 63.3179,-200.205 42.2116,-59.096 96.484,-101.308 162.8174,-126.636 -28.5438,-13.266 -51.8608,-33.166 -69.9512,-59.699 -17.6892,-26.935 -26.5336,-57.287 -26.5332,-91.057 -4e-4,-42.212 14.0702,-78.795 42.2119,-109.751 28.1408,-30.955 62.7144,-48.845 103.7207,-53.67 -32.564,-24.522 -48.8457,-56.885 -48.8452,-97.087 -5e-4,-33.769 11.8591,-62.714 35.5786,-86.836 24.1206,-24.12 53.2669,-36.181 87.439,-36.182 33.7689,0 62.7142,12.062 86.8359,36.182 24.1204,24.122 36.1809,53.067 36.1817,86.836 -8e-4,40.202 -16.2825,72.565 -48.8452,97.087 41.0051,4.825 75.5786,22.715 103.7207,53.67 28.1404,30.956 42.211,67.539 42.2119,109.751 -9e-4,33.77 -9.2473,64.122 -27.7393,91.057 -18.0916,26.533 -41.2076,46.433 -69.3481,59.699 66.3322,25.328 120.6046,67.54 162.8174,126.636 42.2109,59.097 63.3169,125.832 63.3178,200.205 -9e-4,43.418 -7.8403,85.429 -23.518,126.033 l -325.6348,0"
     id="path4527"
     style="fill:#ffffff;stroke:none" /></g>
       </g>
      </g>
      <g
   id="g560">
       <g
   id="id85">
        <g
   id="text563"><path
     d="m 7501.5,12046.248 296.0864,0 c 8.4415,-28.945 12.6627,-57.288 12.6636,-85.027 -9e-4,-62.715 -17.4887,-119.6 -52.4634,-170.657 -34.5744,-51.056 -79.1984,-88.644 -133.872,-112.766 -26.534,-2.009 -39.8006,-16.482 -39.7999,-43.418 -7e-4,-21.306 13.4669,-36.985 40.4029,-47.036 37.3869,-26.131 56.0807,-60.704 56.0815,-103.72 -8e-4,-30.955 -10.4532,-58.092 -31.3574,-81.409 -20.9057,-23.317 -46.2328,-36.784 -75.9814,-40.403 -24.1218,-2.009 -36.1823,-15.678 -36.1817,-41.006 -6e-4,-11.256 4.4216,-21.708 13.2666,-31.357 21.7083,-16.884 32.5628,-38.995 32.5635,-66.333 -7e-4,-22.513 -8.0411,-41.809 -24.1211,-57.891 -16.0814,-16.08 -35.1772,-24.12 -57.2876,-24.121 -22.9156,0 -42.4135,8.041 -58.4937,24.121 -15.6792,16.082 -23.5186,35.378 -23.518,57.891 -6e-4,26.936 10.8539,49.047 32.5635,66.333 8.8438,8.845 13.266,19.297 13.2666,31.357 -6e-4,25.328 -11.8601,38.997 -35.5787,41.006 -30.1518,3.619 -55.68,17.086 -76.5844,40.403 -20.5034,23.317 -30.7549,50.454 -30.7544,81.409 -5e-4,43.016 18.6934,77.589 56.0815,103.72 26.9347,10.453 40.4023,26.132 40.4029,47.036 -6e-4,26.936 -13.4682,41.409 -40.4029,43.418 -54.6749,24.122 -99.2989,61.71 -133.872,112.766 -34.5739,51.057 -51.8607,107.942 -51.8604,170.657 -3e-4,29.75 4.2209,58.092 12.6636,85.027 l 296.0864,0 m 0,41.006 -325.6348,0 c -16.081,-40.202 -24.1213,-82.213 -24.1211,-126.033 -2e-4,-74.373 21.1057,-141.108 63.3179,-200.205 42.2116,-59.096 96.484,-101.308 162.8174,-126.636 -28.5438,-13.266 -51.8608,-33.166 -69.9512,-59.699 -17.6892,-26.935 -26.5336,-57.287 -26.5332,-91.057 -4e-4,-42.212 14.0702,-78.795 42.2119,-109.751 28.1408,-30.955 62.7144,-48.845 103.7207,-53.67 -32.564,-24.522 -48.8457,-56.885 -48.8452,-97.087 -5e-4,-33.769 11.8591,-62.714 35.5786,-86.836 24.1206,-24.12 53.2669,-36.181 87.439,-36.182 33.7689,0 62.7142,12.062 86.8359,36.182 24.1204,24.122 36.1809,53.067 36.1817,86.836 -8e-4,40.202 -16.2825,72.565 -48.8452,97.087 41.0051,4.825 75.5786,22.715 103.7207,53.67 28.1404,30.956 42.211,67.539 42.2119,109.751 -9e-4,33.77 -9.2473,64.122 -27.7393,91.057 -18.0916,26.533 -41.2076,46.433 -69.3481,59.699 66.3322,25.328 120.6046,67.54 162.8174,126.636 42.2109,59.097 63.3169,125.832 63.3178,200.205 -9e-4,43.418 -7.8403,85.429 -23.518,126.033 l -325.6348,0"
     id="path4530"
     style="fill:#000000;stroke:none" /></g>
       </g>
      </g>
      <g
   id="g571">
       <g
   id="id86">
        <path
   d="m 9266,11575 -882,0 -441,764 441,764 882,0 441,-764 -441,-764 z"
   id="path574"
   style="fill:#ffce9e;stroke:none" />
       </g>
      </g>
      <g
   id="g576">
       <g
   id="id87">
        <path
   d="m 10589,10812 -882,0 -441,764 441,764 882,0 441,-764 -441,-764 z"
   id="path579"
   style="fill:#e8ab6f;stroke:none" />
       </g>
      </g>
      <g
   id="g581">
       <g
   id="id88">
        <path
   d="m 11912,10048 -882,0 -441,764 441,764 882,0 441,-764 -441,-764 z"
   id="path584"
   style="fill:#d18b47;stroke:none" />
       </g>
      </g>
      <g
   id="g586">
       <g
   id="id89">
        <path
   d="m 13235,9282 -882,0 -441,764 441,764 882,0 441,-764 -441,-764 z"
   id="path589"
   style="fill:#ffce9e;stroke:none" />
       </g>
      </g>
      <g
   id="g591">
       <g
   id="id90">
        <path
   d="m 14558,8519 -882,0 -441,764 441,764 882,0 441,-764 -441,-764 z"
   id="path594"
   style="fill:#e8ab6f;stroke:none" />
       </g>
      </g>
      <g
   id="g596">
       <g
   id="id91">
        <g
   id="text599"><path
     d="m 14116.5,9794.2539 -325.635,0 c -16.081,-40.2019 -24.121,-82.2128 -24.121,-126.0327 0,-74.3733 21.106,-141.1083 63.318,-200.2051 42.212,-59.0964 96.484,-101.3083 162.817,-126.6357 -28.543,-13.2663 -51.86,-33.1662 -69.951,-59.6997 -17.689,-26.9348 -26.533,-57.2872 -26.533,-91.0572 0,-42.2114 14.07,-78.795 42.212,-109.7509 28.141,-30.9548 62.714,-48.8446 103.721,-53.6695 -32.564,-24.5224 -48.846,-56.8849 -48.846,-97.0874 0,-33.7687 11.859,-62.714 35.579,-86.8359 24.121,-24.1203 53.267,-36.1808 87.439,-36.1817 33.769,9e-4 62.714,12.0614 86.836,36.1817 24.12,24.1219 36.181,53.0672 36.182,86.8359 0,40.2025 -16.283,72.565 -48.846,97.0874 41.005,4.8249 75.579,22.7147 103.721,53.6695 28.141,30.9559 42.211,67.5395 42.212,109.7509 0,33.77 -9.247,64.1224 -27.739,91.0572 -18.092,26.5335 -41.208,46.4334 -69.348,59.6997 66.332,25.3274 120.604,67.5393 162.817,126.6357 42.211,59.0968 63.317,125.8318 63.318,200.2051 0,43.4179 -7.84,85.4288 -23.518,126.0327 l -325.635,0"
     id="path4533"
     style="fill:#ffffff;stroke:none" /></g>
       </g>
      </g>
      <g
   id="g607">
       <g
   id="id92">
        <g
   id="text610"><path
     d="m 14116.5,9753.248 296.086,0 c 8.442,-28.9453 12.663,-57.2876 12.664,-85.0268 0,-62.7148 -17.489,-119.6003 -52.463,-170.6567 -34.575,-51.0561 -79.199,-88.6448 -133.872,-112.7662 -26.534,-2.0098 -39.801,-16.4824 -39.8,-43.4179 0,-21.3067 13.467,-36.9853 40.403,-47.0362 37.386,-26.1308 56.08,-60.7043 56.081,-103.7207 0,-30.9549 -10.453,-58.0911 -31.357,-81.4087 -20.906,-23.3164 -46.233,-36.784 -75.982,-40.4028 -24.122,-2.0095 -36.182,-15.6781 -36.181,-41.0058 0,-11.2559 4.421,-21.7084 13.266,-31.3575 21.709,-16.8841 32.563,-38.995 32.564,-66.333 0,-22.5122 -8.041,-41.8091 -24.121,-57.8906 -16.082,-16.0799 -35.178,-24.1203 -57.288,-24.1211 -22.916,8e-4 -42.413,8.0412 -58.494,24.1211 -15.679,16.0815 -23.518,35.3784 -23.518,57.8906 0,26.936 10.854,49.0469 32.564,66.333 8.844,8.8451 13.266,19.2976 13.266,31.3575 0,25.3277 -11.86,38.9963 -35.578,41.0058 -30.152,3.6188 -55.68,17.0864 -76.585,40.4028 -20.503,23.3176 -30.755,50.4538 -30.754,81.4087 0,43.0164 18.693,77.5899 56.081,103.7207 26.935,10.4529 40.403,26.1316 40.403,47.0362 0,26.9355 -13.468,41.4081 -40.403,43.4179 -54.674,24.1214 -99.298,61.7101 -133.872,112.7662 -34.574,51.0564 -51.86,107.9419 -51.86,170.6567 0,29.7493 4.221,58.0916 12.664,85.0268 l 296.086,0 m 0,41.0059 -325.635,0 c -16.081,-40.2019 -24.121,-82.2128 -24.121,-126.0327 0,-74.3733 21.106,-141.1083 63.318,-200.2051 42.212,-59.0964 96.484,-101.3083 162.817,-126.6357 -28.543,-13.2663 -51.86,-33.1662 -69.951,-59.6997 -17.689,-26.9348 -26.533,-57.2872 -26.533,-91.0572 0,-42.2114 14.07,-78.795 42.212,-109.7509 28.141,-30.9548 62.714,-48.8446 103.721,-53.6695 -32.564,-24.5224 -48.846,-56.8849 -48.846,-97.0874 0,-33.7687 11.859,-62.714 35.579,-86.8359 24.121,-24.1203 53.267,-36.1808 87.439,-36.1817 33.769,9e-4 62.714,12.0614 86.836,36.1817 24.12,24.1219 36.181,53.0672 36.182,86.8359 0,40.2025 -16.283,72.565 -48.846,97.0874 41.005,4.8249 75.579,22.7147 103.721,53.6695 28.141,30.9559 42.211,67.5395 42.212,109.7509 0,33.77 -9.247,64.1224 -27.739,91.0572 -18.092,26.5335 -41.208,46.4334 -69.348,59.6997 66.332,25.3274 120.604,67.5393 162.817,126.6357 42.211,59.0968 63.317,125.8318 63.318,200.2051 0,43.4179 -7.84,85.4288 -23.518,126.0327 l -325.635,0"
     id="path4536"
     style="fill:#000000;stroke:none" /></g>
       </g>
      </g>
      <g
   id="g618">
       <g
   id="id93">
        <path
   d="m 15881,7755 -882,0 -441,764 441,764 882,0 441,-764 -441,-764 z"
   id="path621"
   style="fill:#d18b47;stroke:none" />
       </g>
      </g>
      <g
   id="g623">
       <g
   id="id94">
        <g
   id="text626"><path
     d="m 15527.542,8537.3745 290.659,290.6592 c 29.346,29.3474 29.346,58.6947 0,88.042 l 0,0 c -29.348,29.3473 -58.494,29.3473 -87.439,0 l -291.262,-290.6592 -290.659,290.6592 c -29.348,29.3473 -58.896,29.3473 -88.645,0 l 0,0 c -28.946,-29.3473 -28.946,-58.8956 0,-88.645 l 290.659,-290.6592 -290.659,-290.6592 c -29.348,-29.3466 -29.348,-58.6939 0,-88.042 l 0,0 c 29.347,-29.3465 58.694,-29.3465 88.042,0 l 291.262,290.6592 290.056,-290.6592 c 29.347,-28.5425 58.895,-28.5425 88.645,0 l 0,0 c 28.944,30.1521 28.944,59.7004 0,88.645 l -290.659,290.6592"
     id="path4539"
     style="fill:#ffffff;stroke:none" /></g>
       </g>
      </g>
      <g
   id="g634">
       <g
   id="id95">
        <g
   id="text637"><path
     d="m 15527.542,8537.3745 290.659,290.6592 c 29.346,29.3474 29.346,58.6947 0,88.042 l 0,0 c -29.348,29.3473 -58.494,29.3473 -87.439,0 l -291.262,-290.6592 -290.659,290.6592 c -29.348,29.3473 -58.896,29.3473 -88.645,0 l 0,0 c -28.946,-29.3473 -28.946,-58.8956 0,-88.645 l 290.659,-290.6592 -290.659,-290.6592 c -29.348,-29.3466 -29.348,-58.6939 0,-88.042 l 0,0 c 29.347,-29.3465 58.694,-29.3465 88.042,0 l 291.262,290.6592 290.056,-290.6592 c 29.347,-28.5425 58.895,-28.5425 88.645,0 l 0,0 c 28.944,30.1521 28.944,59.7004 0,88.645 l -290.659,290.6592"
     id="path4542"
     style="fill:#000000;stroke:none" /></g>
       </g>
      </g>
      <g
   id="g645">
       <g
   id="id96" />
      </g>
      <g
   id="g648">
       <g
   id="id97">
        <g
   id="text651"><path
     d="m 16805.414,8023.06 0,149.94 77.616,0 0,-149.94 92.61,0 0,-69.678 -92.61,0 0,-405.72 -57.33,0 -284.004,393.372 0,82.026 263.718,0 m 0,-69.678 -195.804,0 195.804,-273.42 0,273.42"
     id="path4545"
     style="fill:#000000;stroke:none" /></g>
       </g>
      </g>
      <g
   id="g659">
       <g
   id="id98" />
      </g>
      <g
   id="g662">
       <g
   id="id99">
        <g
   id="text665"><path
     d="m 1061.832,6022.662 -322.812,0 -46.746,340.452 71.442,0 c 36.16196,-43.218 66.15005,-58.212 114.66,-58.212 83.78992,0 136.71,57.3301 136.71,149.94 0,89.9639 -52.03808,144.648 -136.71,144.648 -67.91393,0 -109.36802,-34.3981 -127.89,-104.958 l -77.616,0 c 10.58399,51.1559 19.40402,75.852 37.926,98.784 35.27996,47.628 98.78407,74.97 169.344,74.97 126.1259,0 214.326,-91.7281 214.326,-224.028 0,-123.4799 -82.0261,-208.152 -201.978,-208.152 -44.09996,0 -79.38004,11.466 -115.542,37.926 l 24.696,-174.636 260.19,0 0,-76.734"
     id="path4548"
     style="fill:#000000;stroke:none" /></g>
       </g>
      </g>
      <g
   id="g673">
       <g
   id="id100">
        <path
   d="m 3092,6991 -441,-764 -882,0 -441,764 441,764 882,0 441,-764 z"
   id="path676"
   style="fill:#e8ab6f;stroke:none" />
       </g>
      </g>
      <g
   id="g678">
       <g
   id="id101">
        <path
   d="m 4415,7755 -441,-764 -882,0 -441,764 441,764 882,0 441,-764 z"
   id="path681"
   style="fill:#ffce9e;stroke:none" />
       </g>
      </g>
      <g
   id="g683">
       <g
   id="id102">
        <g
   id="text686"><path
     d="m 3531.5,8267.2539 -325.6348,0 c -16.081,-40.2019 -24.1213,-82.2128 -24.1211,-126.0327 -2e-4,-74.3733 21.1057,-141.1083 63.3179,-200.2051 42.2116,-59.0964 96.484,-101.3083 162.8174,-126.6357 -28.5438,-13.2663 -51.8608,-33.1662 -69.9512,-59.6997 -17.6892,-26.9348 -26.5336,-57.2872 -26.5332,-91.0572 -4e-4,-42.2114 14.0702,-78.795 42.2119,-109.7509 28.1408,-30.9548 62.7144,-48.8446 103.7207,-53.6695 -32.564,-24.5224 -48.8457,-56.8849 -48.8452,-97.0874 -5e-4,-33.7687 11.8591,-62.714 35.5786,-86.8359 24.1206,-24.1203 53.2669,-36.1808 87.439,-36.1817 33.7689,9e-4 62.7142,12.0614 86.8359,36.1817 24.1204,24.1219 36.1809,53.0672 36.1817,86.8359 -8e-4,40.2025 -16.2825,72.565 -48.8452,97.0874 41.0051,4.8249 75.5786,22.7147 103.7207,53.6695 28.1404,30.9559 42.211,67.5395 42.2119,109.7509 -9e-4,33.77 -9.2473,64.1224 -27.7393,91.0572 -18.0916,26.5335 -41.2076,46.4334 -69.3481,59.6997 66.3322,25.3274 120.6046,67.5393 162.8174,126.6357 42.2109,59.0968 63.3169,125.8318 63.3178,200.2051 -9e-4,43.4179 -7.8403,85.4288 -23.518,126.0327 l -325.6348,0"
     id="path4551"
     style="fill:#ffffff;stroke:none" /></g>
       </g>
      </g>
      <g
   id="g694">
       <g
   id="id103">
        <g
   id="text697"><path
     d="m 3531.5,8226.248 296.0864,0 c 8.4415,-28.9453 12.6627,-57.2876 12.6636,-85.0268 -9e-4,-62.7148 -17.4887,-119.6003 -52.4634,-170.6567 -34.5744,-51.0561 -79.1984,-88.6448 -133.872,-112.7662 -26.534,-2.0098 -39.8006,-16.4824 -39.7999,-43.4179 -7e-4,-21.3067 13.4669,-36.9853 40.4029,-47.0362 37.3869,-26.1308 56.0807,-60.7043 56.0815,-103.7207 -8e-4,-30.9549 -10.4532,-58.0911 -31.3574,-81.4087 -20.9057,-23.3164 -46.2328,-36.784 -75.9814,-40.4028 -24.1218,-2.0095 -36.1823,-15.6781 -36.1817,-41.0058 -6e-4,-11.2559 4.4216,-21.7084 13.2666,-31.3575 21.7083,-16.8841 32.5628,-38.995 32.5635,-66.333 -7e-4,-22.5122 -8.0411,-41.8091 -24.1211,-57.8906 -16.0814,-16.0799 -35.1772,-24.1203 -57.2876,-24.1211 -22.9156,8e-4 -42.4135,8.0412 -58.4937,24.1211 -15.6792,16.0815 -23.5186,35.3784 -23.518,57.8906 -6e-4,26.936 10.8539,49.0469 32.5635,66.333 8.8438,8.8451 13.266,19.2976 13.2666,31.3575 -6e-4,25.3277 -11.8601,38.9963 -35.5787,41.0058 -30.1518,3.6188 -55.68,17.0864 -76.5844,40.4028 -20.5034,23.3176 -30.7549,50.4538 -30.7544,81.4087 -5e-4,43.0164 18.6934,77.5899 56.0815,103.7207 26.9347,10.4529 40.4023,26.1316 40.4029,47.0362 -6e-4,26.9355 -13.4682,41.4081 -40.4029,43.4179 -54.6749,24.1214 -99.2989,61.7101 -133.872,112.7662 -34.5739,51.0564 -51.8607,107.9419 -51.8604,170.6567 -3e-4,29.7493 4.2209,58.0916 12.6636,85.0268 l 296.0864,0 m 0,41.0059 -325.6348,0 c -16.081,-40.2019 -24.1213,-82.2128 -24.1211,-126.0327 -2e-4,-74.3733 21.1057,-141.1083 63.3179,-200.2051 42.2116,-59.0964 96.484,-101.3083 162.8174,-126.6357 -28.5438,-13.2663 -51.8608,-33.1662 -69.9512,-59.6997 -17.6892,-26.9348 -26.5336,-57.2872 -26.5332,-91.0572 -4e-4,-42.2114 14.0702,-78.795 42.2119,-109.7509 28.1408,-30.9548 62.7144,-48.8446 103.7207,-53.6695 -32.564,-24.5224 -48.8457,-56.8849 -48.8452,-97.0874 -5e-4,-33.7687 11.8591,-62.714 35.5786,-86.8359 24.1206,-24.1203 53.2669,-36.1808 87.439,-36.1817 33.7689,9e-4 62.7142,12.0614 86.8359,36.1817 24.1204,24.1219 36.1809,53.0672 36.1817,86.8359 -8e-4,40.2025 -16.2825,72.565 -48.8452,97.0874 41.0051,4.8249 75.5786,22.7147 103.7207,53.6695 28.1404,30.9559 42.211,67.5395 42.2119,109.7509 -9e-4,33.77 -9.2473,64.1224 -27.7393,91.0572 -18.0916,26.5335 -41.2076,46.4334 -69.3481,59.6997 66.3322,25.3274 120.6046,67.5393 162.8174,126.6357 42.2109,59.0968 63.3169,125.8318 63.3178,200.2051 -9e-4,43.4179 -7.8403,85.4288 -23.518,126.0327 l -325.6348,0"
     id="path4554"
     style="fill:#000000;stroke:none" /></g>
       </g>
      </g>
      <g
   id="g705">
       <g
   id="id104">
        <path
   d="m 5738,8519 -441,-764 -882,0 -441,764 441,764 882,0 441,-764 z"
   id="path708"
   style="fill:#d18b47;stroke:none" />
       </g>
      </g>
      <g
   id="g710">
       <g
   id="id105">
        <path
   d="m 7061,9283 -441,-764 -882,0 -441,764 441,764 882,0 441,-764 z"
   id="path713"
   style="fill:#e8ab6f;stroke:none" />
       </g>
      </g>
      <g
   id="g715">
       <g
   id="id106">
        <path
   d="m 8384,10046 -441,-764 -882,0 -441,764 441,764 882,0 441,-764 z"
   id="path718"
   style="fill:#ffce9e;stroke:none" />
       </g>
      </g>
      <g
   id="g720">
       <g
   id="id107">
        <g
   id="text723"><path
     d="m 7501.5,9894.9238 c 46.6335,6e-4 86.4332,16.6843 119.3994,50.0513 33.3668,32.9659 50.0505,72.7659 50.0513,119.3999 -8e-4,47.036 -16.6845,87.037 -50.0513,120.002 -32.9662,32.966 -72.7659,49.448 -119.3994,49.448 -47.0367,0 -87.0375,-16.482 -120.0024,-49.448 -32.966,-32.965 -49.4487,-72.966 -49.4483,-120.002 -4e-4,-46.634 16.4823,-86.434 49.4483,-119.3999 32.9649,-33.367 72.9657,-50.0507 120.0024,-50.0513"
     id="path4557"
     style="fill:#ffffff;stroke:none" /></g>
       </g>
      </g>
      <g
   id="g731">
       <g
   id="id108">
        <g
   id="text734"><path
     d="m 7501.5,9894.9238 c 46.6335,6e-4 86.4332,16.6843 119.3994,50.0513 33.3668,32.9659 50.0505,72.7659 50.0513,119.3999 -8e-4,47.036 -16.6845,87.037 -50.0513,120.002 -32.9662,32.966 -72.7659,49.448 -119.3994,49.448 -47.0367,0 -87.0375,-16.482 -120.0024,-49.448 -32.966,-32.965 -49.4487,-72.966 -49.4483,-120.002 -4e-4,-46.634 16.4823,-86.434 49.4483,-119.3999 32.9649,-33.367 72.9657,-50.0507 120.0024,-50.0513"
     id="path4560"
     style="fill:#000000;stroke:none" /></g>
       </g>
      </g>
      <g
   id="g742">
       <g
   id="id109">
        <path
   d="m 9266,10046 -882,0 -441,764 441,764 882,0 441,-764 -441,-764 z"
   id="path745"
   style="fill:#d18b47;stroke:none" />
       </g>
      </g>
      <g
   id="g747">
       <g
   id="id110">
        <g
   id="text750"><path
     d="m 8912.542,10828.375 290.6592,290.659 c 29.3463,29.347 29.3463,58.694 0,88.042 l 0,0 c -29.3483,29.347 -58.4946,29.347 -87.439,0 l -291.2622,-290.659 -290.6592,290.659 c -29.3476,29.347 -58.8959,29.347 -88.645,0 l 0,0 c -28.9455,-29.348 -28.9455,-58.896 0,-88.645 l 290.6592,-290.66 -290.6592,-290.659 c -29.3475,-29.346 -29.3475,-58.694 0,-88.042 l 0,0 c 29.3471,-29.346 58.6944,-29.346 88.042,0 l 291.2622,290.659 290.0562,-290.659 c 29.3463,-28.542 58.8947,-28.542 88.645,0 l 0,0 c 28.9443,30.152 28.9443,59.701 0,88.645 l -290.6592,290.66"
     id="path4563"
     style="fill:#ffffff;stroke:none" /></g>
       </g>
      </g>
      <g
   id="g758">
       <g
   id="id111">
        <g
   id="text761"><path
     d="m 8912.542,10828.375 290.6592,290.659 c 29.3463,29.347 29.3463,58.694 0,88.042 l 0,0 c -29.3483,29.347 -58.4946,29.347 -87.439,0 l -291.2622,-290.659 -290.6592,290.659 c -29.3476,29.347 -58.8959,29.347 -88.645,0 l 0,0 c -28.9455,-29.348 -28.9455,-58.896 0,-88.645 l 290.6592,-290.66 -290.6592,-290.659 c -29.3475,-29.346 -29.3475,-58.694 0,-88.042 l 0,0 c 29.3471,-29.346 58.6944,-29.346 88.042,0 l 291.2622,290.659 290.0562,-290.659 c 29.3463,-28.542 58.8947,-28.542 88.645,0 l 0,0 c 28.9443,30.152 28.9443,59.701 0,88.645 l -290.6592,290.66"
     id="path4566"
     style="fill:#000000;stroke:none" /></g>
       </g>
      </g>
      <g
   id="g769">
       <g
   id="id112">
        <path
   d="m 10589,9282 -882,0 -441,764 441,764 882,0 441,-764 -441,-764 z"
   id="path772"
   style="fill:#ffce9e;stroke:none" />
       </g>
      </g>
      <g
   id="g774">
       <g
   id="id113">
        <path
   d="m 11912,8519 -882,0 -441,764 441,764 882,0 441,-764 -441,-764 z"
   id="path777"
   style="fill:#e8ab6f;stroke:none" />
       </g>
      </g>
      <g
   id="g779">
       <g
   id="id114">
        <path
   d="m 13235,7755 -882,0 -441,764 441,764 882,0 441,-764 -441,-764 z"
   id="path782"
   style="fill:#d18b47;stroke:none" />
       </g>
      </g>
      <g
   id="g784">
       <g
   id="id115">
        <g
   id="text787"><path
     d="m 12879.542,8538.3745 290.659,290.6592 c 29.346,29.3474 29.346,58.6947 0,88.042 l 0,0 c -29.348,29.3473 -58.494,29.3473 -87.439,0 l -291.262,-290.6592 -290.659,290.6592 c -29.348,29.3473 -58.896,29.3473 -88.645,0 l 0,0 c -28.946,-29.3473 -28.946,-58.8956 0,-88.645 l 290.659,-290.6592 -290.659,-290.6592 c -29.348,-29.3466 -29.348,-58.6939 0,-88.042 l 0,0 c 29.347,-29.3465 58.694,-29.3465 88.042,0 l 291.262,290.6592 290.056,-290.6592 c 29.347,-28.5425 58.895,-28.5425 88.645,0 l 0,0 c 28.944,30.1521 28.944,59.7004 0,88.645 l -290.659,290.6592"
     id="path4569"
     style="fill:#ffffff;stroke:none" /></g>
       </g>
      </g>
      <g
   id="g795">
       <g
   id="id116">
        <g
   id="text798"><path
     d="m 12879.542,8538.3745 290.659,290.6592 c 29.346,29.3474 29.346,58.6947 0,88.042 l 0,0 c -29.348,29.3473 -58.494,29.3473 -87.439,0 l -291.262,-290.6592 -290.659,290.6592 c -29.348,29.3473 -58.896,29.3473 -88.645,0 l 0,0 c -28.946,-29.3473 -28.946,-58.8956 0,-88.645 l 290.659,-290.6592 -290.659,-290.6592 c -29.348,-29.3466 -29.348,-58.6939 0,-88.042 l 0,0 c 29.347,-29.3465 58.694,-29.3465 88.042,0 l 291.262,290.6592 290.056,-290.6592 c 29.347,-28.5425 58.895,-28.5425 88.645,0 l 0,0 c 28.944,30.1521 28.944,59.7004 0,88.645 l -290.659,290.6592"
     id="path4572"
     style="fill:#000000;stroke:none" /></g>
       </g>
      </g>
      <g
   id="g806">
       <g
   id="id117">
        <path
   d="m 14558,6993 -882,0 -441,764 441,764 882,0 441,-764 -441,-764 z"
   id="path809"
   style="fill:#ffce9e;stroke:none" />
       </g>
      </g>
      <g
   id="g811">
       <g
   id="id118">
        <g
   id="text814"><path
     d="m 14116.5,7605.9238 c 46.633,6e-4 86.433,16.6843 119.399,50.0513 33.367,32.9659 50.051,72.7657 50.052,119.3994 -10e-4,47.0365 -16.685,87.0372 -50.052,120.0025 -32.966,32.9657 -72.766,49.4484 -119.399,49.4482 -47.037,2e-4 -87.037,-16.4825 -120.002,-49.4482 -32.966,-32.9653 -49.449,-72.966 -49.449,-120.0025 0,-46.6337 16.483,-86.4335 49.449,-119.3994 32.965,-33.367 72.965,-50.0507 120.002,-50.0513"
     id="path4575"
     style="fill:#ffffff;stroke:none" /></g>
       </g>
      </g>
      <g
   id="g822">
       <g
   id="id119">
        <g
   id="text825"><path
     d="m 14116.5,7605.9238 c 46.633,6e-4 86.433,16.6843 119.399,50.0513 33.367,32.9659 50.051,72.7657 50.052,119.3994 -10e-4,47.0365 -16.685,87.0372 -50.052,120.0025 -32.966,32.9657 -72.766,49.4484 -119.399,49.4482 -47.037,2e-4 -87.037,-16.4825 -120.002,-49.4482 -32.966,-32.9653 -49.449,-72.966 -49.449,-120.0025 0,-46.6337 16.483,-86.4335 49.449,-119.3994 32.965,-33.367 72.965,-50.0507 120.002,-50.0513"
     id="path4578"
     style="fill:#000000;stroke:none" /></g>
       </g>
      </g>
      <g
   id="g833">
       <g
   id="id120">
        <path
   d="m 15881,6229 -882,0 -441,764 441,764 882,0 441,-764 -441,-764 z"
   id="path836"
   style="fill:#e8ab6f;stroke:none" />
       </g>
      </g>
      <g
   id="g838">
       <g
   id="id121" />
      </g>
      <g
   id="g841">
       <g
   id="id122">
        <g
   id="text844"><path
     d="m 16936.832,6022.662 -322.812,0 -46.746,340.452 71.442,0 c 36.162,-43.218 66.15,-58.212 114.66,-58.212 83.79,0 136.71,57.3301 136.71,149.94 0,89.9639 -52.038,144.648 -136.71,144.648 -67.914,0 -109.368,-34.3981 -127.89,-104.958 l -77.616,0 c 10.584,51.1559 19.404,75.852 37.926,98.784 35.28,47.628 98.784,74.97 169.344,74.97 126.126,0 214.326,-91.7281 214.326,-224.028 0,-123.4799 -82.026,-208.152 -201.978,-208.152 -44.1,0 -79.38,11.466 -115.542,37.926 l 24.696,-174.636 260.19,0 0,-76.734"
     id="path4581"
     style="fill:#000000;stroke:none" /></g>
       </g>
      </g>
      <g
   id="g852">
       <g
   id="id123" />
      </g>
      <g
   id="g855">
       <g
   id="id124">
        <g
   id="text858"><path
     d="m 1081.236,4659.832 c -14.994,-102.3119 -82.0261,-163.17 -177.282,-163.17 -68.79593,0 -130.53604,33.5161 -167.58,89.082 -38.80796,60.8579 -56.448,137.5921 -56.448,251.37 0,104.9579 15.87604,171.9901 52.92,227.556 33.51597,50.2739 88.20007,77.616 156.996,77.616 119.0699,0 204.624,-88.2001 204.624,-210.798 0,-116.4239 -79.3801,-198.45 -191.394,-198.45 -61.73994,0 -110.25003,23.814 -143.766,69.678 0.882,-152.5858 50.27409,-237.258 139.356,-237.258 54.68395,0 92.61001,34.3981 104.958,94.374 l 77.616,0 M 893.37,4801.834 c 74.96993,0 121.716,52.0381 121.716,135.828 0,78.4979 -52.92007,135.828 -124.362,135.828 -72.32393,0 -127.008,-59.9761 -127.008,-140.238 0,-77.6159 52.92008,-131.418 129.654,-131.418"
     id="path4584"
     style="fill:#000000;stroke:none" /></g>
       </g>
      </g>
      <g
   id="g866">
       <g
   id="id125">
        <path
   d="m 3092,5466 -441,-764 -882,0 -441,764 441,764 882,0 441,-764 z"
   id="path869"
   style="fill:#ffce9e;stroke:none" />
       </g>
      </g>
      <g
   id="g871">
       <g
   id="id126">
        <g
   id="text874"><path
     d="m 2461.64,5411.045 -160.55,117.325 61.75,187.72 -160.55,-116.09 -159.315,116.09 60.515,-187.72 -159.315,-117.325 197.6,0 60.515,-186.485 61.75,186.485 197.6,0"
     id="path4587"
     style="fill:#ffffff;stroke:none" /></g>
       </g>
      </g>
      <g
   id="g882">
       <g
   id="id127">
        <g
   id="text885"><path
     d="m 2461.64,5411.045 -160.55,117.325 61.75,187.72 -160.55,-116.09 -159.315,116.09 60.515,-187.72 -159.315,-117.325 197.6,0 60.515,-186.485 61.75,186.485 197.6,0"
     id="path4590"
     style="fill:#000000;stroke:none" /></g>
       </g>
      </g>
      <g
   id="g893">
       <g
   id="id128">
        <path
   d="m 4415,6229 -441,-764 -882,0 -441,764 441,764 882,0 441,-764 z"
   id="path896"
   style="fill:#d18b47;stroke:none" />
       </g>
      </g>
      <g
   id="g898">
       <g
   id="id129">
        <path
   d="m 5738,6993 -441,-764 -882,0 -441,764 441,764 882,0 441,-764 z"
   id="path901"
   style="fill:#e8ab6f;stroke:none" />
       </g>
      </g>
      <g
   id="g903">
       <g
   id="id130">
        <path
   d="m 7061,7757 -441,-764 -882,0 -441,764 441,764 882,0 441,-764 z"
   id="path906"
   style="fill:#ffce9e;stroke:none" />
       </g>
      </g>
      <g
   id="g908">
       <g
   id="id131">
        <path
   d="m 8384,8521 -441,-764 -882,0 -441,764 441,764 882,0 441,-764 z"
   id="path911"
   style="fill:#d18b47;stroke:none" />
       </g>
      </g>
      <g
   id="g913">
       <g
   id="id132">
        <g
   id="text916"><path
     d="m 7501.5,8368.9238 c 46.6335,6e-4 86.4332,16.6843 119.3994,50.0513 33.3668,32.9659 50.0505,72.7657 50.0513,119.3994 -8e-4,47.0365 -16.6845,87.0372 -50.0513,120.0025 -32.9662,32.9657 -72.7659,49.4484 -119.3994,49.4482 -47.0367,2e-4 -87.0375,-16.4825 -120.0024,-49.4482 -32.966,-32.9653 -49.4487,-72.966 -49.4483,-120.0025 -4e-4,-46.6337 16.4823,-86.4335 49.4483,-119.3994 32.9649,-33.367 72.9657,-50.0507 120.0024,-50.0513"
     id="path4593"
     style="fill:#ffffff;stroke:none" /></g>
       </g>
      </g>
      <g
   id="g924">
       <g
   id="id133">
        <g
   id="text927"><path
     d="m 7501.5,8368.9238 c 46.6335,6e-4 86.4332,16.6843 119.3994,50.0513 33.3668,32.9659 50.0505,72.7657 50.0513,119.3994 -8e-4,47.0365 -16.6845,87.0372 -50.0513,120.0025 -32.9662,32.9657 -72.7659,49.4484 -119.3994,49.4482 -47.0367,2e-4 -87.0375,-16.4825 -120.0024,-49.4482 -32.966,-32.9653 -49.4487,-72.966 -49.4483,-120.0025 -4e-4,-46.6337 16.4823,-86.4335 49.4483,-119.3994 32.9649,-33.367 72.9657,-50.0507 120.0024,-50.0513"
     id="path4596"
     style="fill:#000000;stroke:none" /></g>
       </g>
      </g>
      <g
   id="g935">
       <g
   id="id134">
        <path
   d="m 9266,8520 -882,0 -441,764 441,764 882,0 441,-764 -441,-764 z"
   id="path938"
   style="fill:#e8ab6f;stroke:none" />
       </g>
      </g>
      <g
   id="g940">
       <g
   id="id135">
        <path
   d="m 10589,7757 -882,0 -441,764 441,764 882,0 441,-764 -441,-764 z"
   id="path943"
   style="fill:#d18b47;stroke:none" />
       </g>
      </g>
      <g
   id="g945">
       <g
   id="id136">
        <path
   d="m 11912,6993 -882,0 -441,764 441,764 882,0 441,-764 -441,-764 z"
   id="path948"
   style="fill:#ffce9e;stroke:none" />
       </g>
      </g>
      <g
   id="g950">
       <g
   id="id137">
        <path
   d="m 13235,6229 -882,0 -441,764 441,764 882,0 441,-764 -441,-764 z"
   id="path953"
   style="fill:#e8ab6f;stroke:none" />
       </g>
      </g>
      <g
   id="g955">
       <g
   id="id138">
        <path
   d="m 14558,5465 -882,0 -441,764 441,764 882,0 441,-764 -441,-764 z"
   id="path958"
   style="fill:#d18b47;stroke:none" />
       </g>
      </g>
      <g
   id="g960">
       <g
   id="id139">
        <path
   d="m 15881,4702 -882,0 -441,764 441,764 882,0 441,-764 -441,-764 z"
   id="path963"
   style="fill:#ffce9e;stroke:none" />
       </g>
      </g>
      <g
   id="g965">
       <g
   id="id140">
        <g
   id="text968"><path
     d="m 15690.64,5411.045 -160.55,117.325 61.75,187.72 -160.55,-116.09 -159.315,116.09 60.515,-187.72 -159.315,-117.325 197.6,0 60.515,-186.485 61.75,186.485 197.6,0"
     id="path4599"
     style="fill:#ffffff;stroke:none" /></g>
       </g>
      </g>
      <g
   id="g976">
       <g
   id="id141">
        <g
   id="text979"><path
     d="m 15690.64,5411.045 -160.55,117.325 61.75,187.72 -160.55,-116.09 -159.315,116.09 60.515,-187.72 -159.315,-117.325 197.6,0 60.515,-186.485 61.75,186.485 197.6,0"
     id="path4602"
     style="fill:#000000;stroke:none" /></g>
       </g>
      </g>
      <g
   id="g987">
       <g
   id="id142" />
      </g>
      <g
   id="g990">
       <g
   id="id143">
        <g
   id="text993"><path
     d="m 16956.236,4659.832 c -14.994,-102.3119 -82.026,-163.17 -177.282,-163.17 -68.796,0 -130.536,33.5161 -167.58,89.082 -38.808,60.8579 -56.448,137.5921 -56.448,251.37 0,104.9579 15.876,171.9901 52.92,227.556 33.516,50.2739 88.2,77.616 156.996,77.616 119.07,0 204.624,-88.2001 204.624,-210.798 0,-116.4239 -79.38,-198.45 -191.394,-198.45 -61.74,0 -110.25,23.814 -143.766,69.678 0.882,-152.5858 50.274,-237.258 139.356,-237.258 54.684,0 92.61,34.3981 104.958,94.374 l 77.616,0 m -187.866,142.002 c 74.97,0 121.716,52.0381 121.716,135.828 0,78.4979 -52.92,135.828 -124.362,135.828 -72.324,0 -127.008,-59.9761 -127.008,-140.238 0,-77.6159 52.92,-131.418 129.654,-131.418"
     id="path4605"
     style="fill:#000000;stroke:none" /></g>
       </g>
      </g>
      <g
   id="g1001">
       <g
   id="id144" />
      </g>
      <g
   id="g1004">
       <g
   id="id145">
        <g
   id="text1007"><path
     d="m 2423.64,3730.662 -418.068,0 0,76.734 337.806,0 C 2194.3201,4019.9578 2133.462,4150.4942 2086.716,4356 l 82.908,0 c 34.398,-200.2138 112.8961,-372.2042 254.016,-560.07 l 0,-65.268"
     id="path4608"
     style="fill:#000000;stroke:none" /></g>
       </g>
      </g>
      <g
   id="g1015">
       <g
   id="id146">
        <path
   d="m 4415,4702 -441,-764 -882,0 -441,764 441,764 882,0 441,-764 z"
   id="path1018"
   style="fill:#e8ab6f;stroke:none" />
       </g>
      </g>
      <g
   id="g1020">
       <g
   id="id147">
        <g
   id="text1023"><path
     d="m 3782.64,4648.045 -160.55,117.325 61.75,187.72 -160.55,-116.09 -159.315,116.09 60.515,-187.72 -159.315,-117.325 197.6,0 60.515,-186.485 61.75,186.485 197.6,0"
     id="path4611"
     style="fill:#ffffff;stroke:none" /></g>
       </g>
      </g>
      <g
   id="g1031">
       <g
   id="id148">
        <g
   id="text1034"><path
     d="m 3782.64,4648.045 -160.55,117.325 61.75,187.72 -160.55,-116.09 -159.315,116.09 60.515,-187.72 -159.315,-117.325 197.6,0 60.515,-186.485 61.75,186.485 197.6,0"
     id="path4614"
     style="fill:#000000;stroke:none" /></g>
       </g>
      </g>
      <g
   id="g1042">
       <g
   id="id149">
        <path
   d="m 5738,5466 -441,-764 -882,0 -441,764 441,764 882,0 441,-764 z"
   id="path1045"
   style="fill:#ffce9e;stroke:none" />
       </g>
      </g>
      <g
   id="g1047">
       <g
   id="id150">
        <g
   id="text1050"><path
     d="m 4854.5,5977.2539 -325.6348,0 c -16.081,-40.2019 -24.1213,-82.2128 -24.1211,-126.0327 -2e-4,-74.3733 21.1057,-141.1083 63.3179,-200.2051 42.2116,-59.0964 96.484,-101.3083 162.8174,-126.6357 -28.5438,-13.2663 -51.8608,-33.1662 -69.9512,-59.6997 -17.6892,-26.9348 -26.5336,-57.2872 -26.5332,-91.0572 -4e-4,-42.2114 14.0702,-78.795 42.2119,-109.7509 28.1408,-30.9548 62.7144,-48.8446 103.7207,-53.6695 -32.564,-24.5224 -48.8457,-56.8849 -48.8452,-97.0874 -5e-4,-33.7687 11.8591,-62.714 35.5786,-86.8359 24.1206,-24.1203 53.2669,-36.1808 87.439,-36.1817 33.7689,9e-4 62.7142,12.0614 86.8359,36.1817 24.1204,24.1219 36.1809,53.0672 36.1817,86.8359 -8e-4,40.2025 -16.2825,72.565 -48.8452,97.0874 41.0051,4.8249 75.5786,22.7147 103.7207,53.6695 28.1404,30.9559 42.211,67.5395 42.2119,109.7509 -9e-4,33.77 -9.2473,64.1224 -27.7393,91.0572 -18.0916,26.5335 -41.2076,46.4334 -69.3481,59.6997 66.3322,25.3274 120.6046,67.5393 162.8174,126.6357 42.2109,59.0968 63.3169,125.8318 63.3178,200.2051 -9e-4,43.4179 -7.8403,85.4288 -23.518,126.0327 l -325.6348,0"
     id="path4617"
     style="fill:#ffffff;stroke:none" /></g>
       </g>
      </g>
      <g
   id="g1058">
       <g
   id="id151">
        <g
   id="text1061"><path
     d="m 4854.5,5977.2539 -325.6348,0 c -16.081,-40.2019 -24.1213,-82.2128 -24.1211,-126.0327 -2e-4,-74.3733 21.1057,-141.1083 63.3179,-200.2051 42.2116,-59.0964 96.484,-101.3083 162.8174,-126.6357 -28.5438,-13.2663 -51.8608,-33.1662 -69.9512,-59.6997 -17.6892,-26.9348 -26.5336,-57.2872 -26.5332,-91.0572 -4e-4,-42.2114 14.0702,-78.795 42.2119,-109.7509 28.1408,-30.9548 62.7144,-48.8446 103.7207,-53.6695 -32.564,-24.5224 -48.8457,-56.8849 -48.8452,-97.0874 -5e-4,-33.7687 11.8591,-62.714 35.5786,-86.8359 24.1206,-24.1203 53.2669,-36.1808 87.439,-36.1817 33.7689,9e-4 62.7142,12.0614 86.8359,36.1817 24.1204,24.1219 36.1809,53.0672 36.1817,86.8359 -8e-4,40.2025 -16.2825,72.565 -48.8452,97.0874 41.0051,4.8249 75.5786,22.7147 103.7207,53.6695 28.1404,30.9559 42.211,67.5395 42.2119,109.7509 -9e-4,33.77 -9.2473,64.1224 -27.7393,91.0572 -18.0916,26.5335 -41.2076,46.4334 -69.3481,59.6997 66.3322,25.3274 120.6046,67.5393 162.8174,126.6357 42.2109,59.0968 63.3169,125.8318 63.3178,200.2051 -9e-4,43.4179 -7.8403,85.4288 -23.518,126.0327 l -325.6348,0"
     id="path4620"
     style="fill:#000000;stroke:none" /></g>
       </g>
      </g>
      <g
   id="g1069">
       <g
   id="id152">
        <path
   d="m 7061,6229 -441,-764 -882,0 -441,764 441,764 882,0 441,-764 z"
   id="path1072"
   style="fill:#d18b47;stroke:none" />
       </g>
      </g>
      <g
   id="g1074">
       <g
   id="id153">
        <path
   d="m 8384,6993 -441,-764 -882,0 -441,764 441,764 882,0 441,-764 z"
   id="path1077"
   style="fill:#e8ab6f;stroke:none" />
       </g>
      </g>
      <g
   id="g1079">
       <g
   id="id154">
        <path
   d="m 9266,6993 -882,0 -441,764 441,764 882,0 441,-764 -441,-764 z"
   id="path1082"
   style="fill:#ffce9e;stroke:none" />
       </g>
      </g>
      <g
   id="g1084">
       <g
   id="id155">
        <path
   d="m 10589,6229 -882,0 -441,764 441,764 882,0 441,-764 -441,-764 z"
   id="path1087"
   style="fill:#e8ab6f;stroke:none" />
       </g>
      </g>
      <g
   id="g1089">
       <g
   id="id156">
        <path
   d="m 11912,5465 -882,0 -441,764 441,764 882,0 441,-764 -441,-764 z"
   id="path1092"
   style="fill:#d18b47;stroke:none" />
       </g>
      </g>
      <g
   id="g1094">
       <g
   id="id157">
        <path
   d="m 13235,4702 -882,0 -441,764 441,764 882,0 441,-764 -441,-764 z"
   id="path1097"
   style="fill:#ffce9e;stroke:none" />
       </g>
      </g>
      <g
   id="g1099">
       <g
   id="id158">
        <path
   d="m 14558,3938 -882,0 -441,764 441,764 882,0 441,-764 -441,-764 z"
   id="path1102"
   style="fill:#e8ab6f;stroke:none" />
       </g>
      </g>
      <g
   id="g1104">
       <g
   id="id159">
        <g
   id="text1107"><path
     d="m 14367.64,4648.045 -160.55,117.325 61.75,187.72 -160.55,-116.09 -159.315,116.09 60.515,-187.72 -159.315,-117.325 197.6,0 60.515,-186.485 61.75,186.485 197.6,0"
     id="path4623"
     style="fill:#ffffff;stroke:none" /></g>
       </g>
      </g>
      <g
   id="g1115">
       <g
   id="id160">
        <g
   id="text1118"><path
     d="m 14367.64,4648.045 -160.55,117.325 61.75,187.72 -160.55,-116.09 -159.315,116.09 60.515,-187.72 -159.315,-117.325 197.6,0 60.515,-186.485 61.75,186.485 197.6,0"
     id="path4626"
     style="fill:#000000;stroke:none" /></g>
       </g>
      </g>
      <g
   id="g1126">
       <g
   id="id161" />
      </g>
      <g
   id="g1129">
       <g
   id="id162">
        <g
   id="text1132"><path
     d="m 15653.64,3730.662 -418.068,0 0,76.734 337.806,0 c -149.058,212.5618 -209.916,343.0982 -256.662,548.604 l 82.908,0 c 34.398,-200.2138 112.896,-372.2042 254.016,-560.07 l 0,-65.268"
     id="path4629"
     style="fill:#000000;stroke:none" /></g>
       </g>
      </g>
      <g
   id="g1140">
       <g
   id="id163" />
      </g>
      <g
   id="g1143">
       <g
   id="id164">
        <g
   id="text1146"><path
     d="m 3631.862,3263.014 c 64.3859,-38.808 85.554,-70.5601 85.554,-129.654 0,-97.9019 -76.7341,-166.698 -187.866,-166.698 -110.2499,0 -187.866,68.7961 -187.866,166.698 0,58.2119 21.1681,89.964 84.672,129.654 -71.4419,34.398 -106.722,86.4361 -106.722,155.232 0,114.6599 86.4361,194.04 209.916,194.04 123.4799,0 209.916,-79.3801 209.916,-193.158 0,-69.6779 -35.2801,-121.716 -107.604,-156.114 M 3529.55,3035.458 c 66.1499,0 108.486,38.8081 108.486,99.666 0,58.2119 -43.2181,97.02 -108.486,97.02 -65.2679,0 -108.486,-38.8081 -108.486,-97.902 0,-59.9759 43.2181,-98.784 108.486,-98.784 m 0,261.954 c 77.6159,0 130.536,49.3921 130.536,122.598 0,74.0879 -52.9201,123.48 -132.3,123.48 -75.8519,0 -128.772,-50.2741 -128.772,-123.48 0,-73.2059 52.9201,-122.598 130.536,-122.598"
     id="path4632"
     style="fill:#000000;stroke:none" /></g>
       </g>
      </g>
      <g
   id="g1154">
       <g
   id="id165">
        <path
   d="m 5738,3938 -441,-764 -882,0 -441,764 441,764 882,0 441,-764 z"
   id="path1157"
   style="fill:#d18b47;stroke:none" />
       </g>
      </g>
      <g
   id="g1159">
       <g
   id="id166">
        <g
   id="text1162"><path
     d="m 5105.64,3884.045 -160.55,117.325 61.75,187.72 -160.55,-116.09 -159.315,116.09 60.515,-187.72 -159.315,-117.325 197.6,0 60.515,-186.485 61.75,186.485 197.6,0"
     id="path4635"
     style="fill:#ffffff;stroke:none" /></g>
       </g>
      </g>
      <g
   id="g1170">
       <g
   id="id167">
        <g
   id="text1173"><path
     d="m 5105.64,3884.045 -160.55,117.325 61.75,187.72 -160.55,-116.09 -159.315,116.09 60.515,-187.72 -159.315,-117.325 197.6,0 60.515,-186.485 61.75,186.485 197.6,0"
     id="path4638"
     style="fill:#000000;stroke:none" /></g>
       </g>
      </g>
      <g
   id="g1181">
       <g
   id="id168">
        <path
   d="m 7061,4702 -441,-764 -882,0 -441,764 441,764 882,0 441,-764 z"
   id="path1184"
   style="fill:#e8ab6f;stroke:none" />
       </g>
      </g>
      <g
   id="g1186">
       <g
   id="id169">
        <path
   d="m 8382,5466 -441,-764 -882,0 -441,764 441,764 882,0 441,-764 z"
   id="path1189"
   style="fill:#ffce9e;stroke:none" />
       </g>
      </g>
      <g
   id="g1191">
       <g
   id="id170">
        <path
   d="m 9266,5465 -882,0 -441,764 441,764 882,0 441,-764 -441,-764 z"
   id="path1194"
   style="fill:#d18b47;stroke:none" />
       </g>
      </g>
      <g
   id="g1196">
       <g
   id="id171">
        <path
   d="m 10589,4702 -882,0 -441,764 441,764 882,0 441,-764 -441,-764 z"
   id="path1199"
   style="fill:#ffce9e;stroke:none" />
       </g>
      </g>
      <g
   id="g1201">
       <g
   id="id172">
        <path
   d="m 11912,3938 -882,0 -441,764 441,764 882,0 441,-764 -441,-764 z"
   id="path1204"
   style="fill:#e8ab6f;stroke:none" />
       </g>
      </g>
      <g
   id="g1206">
       <g
   id="id173">
        <path
   d="m 13235,3174 -882,0 -441,764 441,764 882,0 441,-764 -441,-764 z"
   id="path1209"
   style="fill:#d18b47;stroke:none" />
       </g>
      </g>
      <g
   id="g1211">
       <g
   id="id174">
        <g
   id="text1214"><path
     d="m 13044.64,3884.045 -160.55,117.325 61.75,187.72 -160.55,-116.09 -159.315,116.09 60.515,-187.72 -159.315,-117.325 197.6,0 60.515,-186.485 61.75,186.485 197.6,0"
     id="path4641"
     style="fill:#ffffff;stroke:none" /></g>
       </g>
      </g>
      <g
   id="g1222">
       <g
   id="id175">
        <g
   id="text1225"><path
     d="m 13044.64,3884.045 -160.55,117.325 61.75,187.72 -160.55,-116.09 -159.315,116.09 60.515,-187.72 -159.315,-117.325 197.6,0 60.515,-186.485 61.75,186.485 197.6,0"
     id="path4644"
     style="fill:#000000;stroke:none" /></g>
       </g>
      </g>
      <g
   id="g1233">
       <g
   id="id176" />
      </g>
      <g
   id="g1236">
       <g
   id="id177">
        <g
   id="text1239"><path
     d="m 14216.862,3263.014 c 64.386,-38.808 85.554,-70.5601 85.554,-129.654 0,-97.9019 -76.734,-166.698 -187.866,-166.698 -110.25,0 -187.866,68.7961 -187.866,166.698 0,58.2119 21.168,89.964 84.672,129.654 -71.442,34.398 -106.722,86.4361 -106.722,155.232 0,114.6599 86.436,194.04 209.916,194.04 123.48,0 209.916,-79.3801 209.916,-193.158 0,-69.6779 -35.28,-121.716 -107.604,-156.114 m -102.312,-227.556 c 66.15,0 108.486,38.8081 108.486,99.666 0,58.2119 -43.218,97.02 -108.486,97.02 -65.268,0 -108.486,-38.8081 -108.486,-97.902 0,-59.9759 43.218,-98.784 108.486,-98.784 m 0,261.954 c 77.616,0 130.536,49.3921 130.536,122.598 0,74.0879 -52.92,123.48 -132.3,123.48 -75.852,0 -128.772,-50.2741 -128.772,-123.48 0,-73.2059 52.92,-122.598 130.536,-122.598"
     id="path4647"
     style="fill:#000000;stroke:none" /></g>
       </g>
      </g>
      <g
   id="g1247">
       <g
   id="id178" />
      </g>
      <g
   id="g1250">
       <g
   id="id179">
        <g
   id="text1253"><path
     d="m 4655.746,2686.116 c 14.994,102.3119 82.0261,163.17 177.282,163.17 68.7959,0 131.418,-33.5161 167.58,-89.082 39.69,-60.8579 57.33,-137.5921 57.33,-251.37 0,-104.9579 -15.876,-171.9901 -52.92,-227.556 -34.398,-50.2739 -89.0821,-77.616 -157.878,-77.616 -119.0699,0 -204.624,88.2001 -204.624,210.798 0,116.4239 79.3801,198.45 192.276,198.45 59.0939,0 102.312,-21.168 142.884,-69.678 -0.882,152.5858 -50.2741,237.258 -139.356,237.258 -54.6839,0 -92.61,-34.3981 -104.958,-94.374 l -77.616,0 m 190.512,-414.54 c 72.3239,0 127.008,59.9761 127.008,141.12 0,76.7339 -53.8021,131.418 -129.654,131.418 -74.9699,0 -121.716,-52.0381 -121.716,-135.828 0,-79.3799 52.9201,-136.71 124.362,-136.71"
     id="path4650"
     style="fill:#000000;stroke:none" /></g>
       </g>
      </g>
      <g
   id="g1261">
       <g
   id="id180">
        <path
   d="m 7059,3174 -441,-764 -882,0 -441,764 441,764 882,0 441,-764 z"
   id="path1264"
   style="fill:#ffce9e;stroke:none" />
       </g>
      </g>
      <g
   id="g1266">
       <g
   id="id181">
        <g
   id="text1269"><path
     d="m 6429.64,3120.045 -160.55,117.325 61.75,187.72 -160.55,-116.09 -159.315,116.09 60.515,-187.72 -159.315,-117.325 197.6,0 60.515,-186.485 61.75,186.485 197.6,0"
     id="path4653"
     style="fill:#ffffff;stroke:none" /></g>
       </g>
      </g>
      <g
   id="g1277">
       <g
   id="id182">
        <g
   id="text1280"><path
     d="m 6429.64,3120.045 -160.55,117.325 61.75,187.72 -160.55,-116.09 -159.315,116.09 60.515,-187.72 -159.315,-117.325 197.6,0 60.515,-186.485 61.75,186.485 197.6,0"
     id="path4656"
     style="fill:#000000;stroke:none" /></g>
       </g>
      </g>
      <g
   id="g1288">
       <g
   id="id183">
        <path
   d="m 8382,3938 -441,-764 -882,0 -441,764 441,764 882,0 441,-764 z"
   id="path1291"
   style="fill:#d18b47;stroke:none" />
       </g>
      </g>
      <g
   id="g1293">
       <g
   id="id184">
        <path
   d="m 9266,3938 -882,0 -441,764 441,764 882,0 441,-764 -441,-764 z"
   id="path1296"
   style="fill:#e8ab6f;stroke:none" />
       </g>
      </g>
      <g
   id="g1298">
       <g
   id="id185">
        <path
   d="m 10589,3174 -882,0 -441,764 441,764 882,0 441,-764 -441,-764 z"
   id="path1301"
   style="fill:#d18b47;stroke:none" />
       </g>
      </g>
      <g
   id="g1303">
       <g
   id="id186">
        <path
   d="m 11912,2410 -882,0 -441,764 441,764 882,0 441,-764 -441,-764 z"
   id="path1306"
   style="fill:#ffce9e;stroke:none" />
       </g>
      </g>
      <g
   id="g1308">
       <g
   id="id187">
        <g
   id="text1311"><path
     d="m 11721.64,3120.045 -160.55,117.325 61.75,187.72 -160.55,-116.09 -159.315,116.09 60.515,-187.72 -159.315,-117.325 197.6,0 60.515,-186.485 61.75,186.485 197.6,0"
     id="path4659"
     style="fill:#ffffff;stroke:none" /></g>
       </g>
      </g>
      <g
   id="g1319">
       <g
   id="id188">
        <g
   id="text1322"><path
     d="m 11721.64,3120.045 -160.55,117.325 61.75,187.72 -160.55,-116.09 -159.315,116.09 60.515,-187.72 -159.315,-117.325 197.6,0 60.515,-186.485 61.75,186.485 197.6,0"
     id="path4662"
     style="fill:#000000;stroke:none" /></g>
       </g>
      </g>
      <g
   id="g1330">
       <g
   id="id189" />
      </g>
      <g
   id="g1333">
       <g
   id="id190">
        <g
   id="text1336"><path
     d="m 12595.746,2686.116 c 14.994,102.3119 82.026,163.17 177.282,163.17 68.796,0 131.418,-33.5161 167.58,-89.082 39.69,-60.8579 57.33,-137.5921 57.33,-251.37 0,-104.9579 -15.876,-171.9901 -52.92,-227.556 -34.398,-50.2739 -89.082,-77.616 -157.878,-77.616 -119.07,0 -204.624,88.2001 -204.624,210.798 0,116.4239 79.38,198.45 192.276,198.45 59.094,0 102.312,-21.168 142.884,-69.678 -0.882,152.5858 -50.274,237.258 -139.356,237.258 -54.684,0 -92.61,-34.3981 -104.958,-94.374 l -77.616,0 m 190.512,-414.54 c 72.324,0 127.008,59.9761 127.008,141.12 0,76.7339 -53.802,131.418 -129.654,131.418 -74.97,0 -121.716,-52.0381 -121.716,-135.828 0,-79.3799 52.92,-136.71 124.362,-136.71"
     id="path4665"
     style="fill:#000000;stroke:none" /></g>
       </g>
      </g>
      <g
   id="g1344">
       <g
   id="id191" />
      </g>
      <g
   id="g1347">
       <g
   id="id192">
        <g
   id="text1350"><path
     d="m 5913.438,1621.59 0,445.41 77.616,0 0,-625.338 -51.156,0 c -27.342,96.1379 -44.9821,109.368 -164.934,124.362 l 0,55.566 138.474,0"
     id="path4668"
     style="fill:#000000;stroke:none" /><path
     d="m 6418.507,1441.662 c -58.2119,0 -111.132,25.578 -143.766,68.796 -40.5719,54.6839 -60.858,138.4741 -60.858,254.016 0,210.7978 70.5602,322.812 204.624,322.812 132.2999,0 204.624,-112.0142 204.624,-317.52 0,-121.7159 -19.404,-202.8601 -60.858,-259.308 -32.6339,-44.1 -84.672,-68.796 -143.766,-68.796 m 0,68.796 c 83.7899,0 125.244,84.6722 125.244,252.252 0,177.2818 -40.5721,260.19 -127.008,260.19 -82.0259,0 -123.48,-86.4362 -123.48,-257.544 0,-171.1078 41.4541,-254.898 125.244,-254.898"
     id="path4670"
     style="fill:#000000;stroke:none" /></g>
       </g>
      </g>
      <g
   id="g1358">
       <g
   id="id193">
        <path
   d="m 8384,2410 -441,-764 -882,0 -441,764 441,764 882,0 441,-764 z"
   id="path1361"
   style="fill:#e8ab6f;stroke:none" />
       </g>
      </g>
      <g
   id="g1363">
       <g
   id="id194">
        <g
   id="text1366"><path
     d="m 7752.64,2356.045 -160.55,117.325 61.75,187.72 -160.55,-116.09 -159.315,116.09 60.515,-187.72 -159.315,-117.325 197.6,0 60.515,-186.485 61.75,186.485 197.6,0"
     id="path4673"
     style="fill:#ffffff;stroke:none" /></g>
       </g>
      </g>
      <g
   id="g1374">
       <g
   id="id195">
        <g
   id="text1377"><path
     d="m 7752.64,2356.045 -160.55,117.325 61.75,187.72 -160.55,-116.09 -159.315,116.09 60.515,-187.72 -159.315,-117.325 197.6,0 60.515,-186.485 61.75,186.485 197.6,0"
     id="path4676"
     style="fill:#000000;stroke:none" /></g>
       </g>
      </g>
      <g
   id="g1385">
       <g
   id="id196">
        <path
   d="m 9266,2410 -882,0 -441,764 441,764 882,0 441,-764 -441,-764 z"
   id="path1388"
   style="fill:#ffce9e;stroke:none" />
       </g>
      </g>
      <g
   id="g1390">
       <g
   id="id197">
        <path
   d="m 10589,1646 -882,0 -441,764 441,764 882,0 441,-764 -441,-764 z"
   id="path1393"
   style="fill:#e8ab6f;stroke:none" />
       </g>
      </g>
      <g
   id="g1395">
       <g
   id="id198">
        <g
   id="text1398"><path
     d="m 10398.64,2356.045 -160.55,117.325 61.75,187.72 -160.55,-116.09 -159.315,116.09 60.515,-187.72 -159.315,-117.325 197.6,0 60.515,-186.485 61.75,186.485 197.6,0"
     id="path4679"
     style="fill:#ffffff;stroke:none" /></g>
       </g>
      </g>
      <g
   id="g1406">
       <g
   id="id199">
        <g
   id="text1409"><path
     d="m 10398.64,2356.045 -160.55,117.325 61.75,187.72 -160.55,-116.09 -159.315,116.09 60.515,-187.72 -159.315,-117.325 197.6,0 60.515,-186.485 61.75,186.485 197.6,0"
     id="path4682"
     style="fill:#000000;stroke:none" /></g>
       </g>
      </g>
      <g
   id="g1417">
       <g
   id="id200" />
      </g>
      <g
   id="g1420">
       <g
   id="id201">
        <g
   id="text1423"><path
     d="m 11207.438,1621.59 0,445.41 77.616,0 0,-625.338 -51.156,0 c -27.342,96.1379 -44.982,109.368 -164.934,124.362 l 0,55.566 138.474,0"
     id="path4685"
     style="fill:#000000;stroke:none" /><path
     d="m 11712.507,1441.662 c -58.212,0 -111.132,25.578 -143.766,68.796 -40.572,54.6839 -60.858,138.4741 -60.858,254.016 0,210.7978 70.56,322.812 204.624,322.812 132.3,0 204.624,-112.0142 204.624,-317.52 0,-121.7159 -19.404,-202.8601 -60.858,-259.308 -32.634,-44.1 -84.672,-68.796 -143.766,-68.796 m 0,68.796 c 83.79,0 125.244,84.6722 125.244,252.252 0,177.2818 -40.572,260.19 -127.008,260.19 -82.026,0 -123.48,-86.4362 -123.48,-257.544 0,-171.1078 41.454,-254.898 125.244,-254.898"
     id="path4687"
     style="fill:#000000;stroke:none" /></g>
       </g>
      </g>
      <g
   id="g1431">
       <g
   id="id202" />
      </g>
      <g
   id="g1434">
       <g
   id="id203">
        <g
   id="text1437"><path
     d="m 7238.438,855.59 0,445.41 77.616,0 0,-625.338 -51.156,0 c -27.342,96.1379 -44.9821,109.36801 -164.934,124.362 l 0,55.566 138.474,0"
     id="path4690"
     style="fill:#000000;stroke:none" /><path
     d="m 7729.395,855.59 0,445.41 77.616,0 0,-625.338 -51.156,0 c -27.3419,96.1379 -44.9821,109.36801 -164.934,124.362 l 0,55.566 138.474,0"
     id="path4692"
     style="fill:#000000;stroke:none" /></g>
       </g>
      </g>
      <g
   id="g1445">
       <g
   id="id204">
        <path
   d="m 9266,883 -882,0 -441,764 441,764 882,0 441,-764 -441,-764 z"
   id="path1448"
   style="fill:#d18b47;stroke:none" />
       </g>
      </g>
      <g
   id="g1450">
       <g
   id="id205">
        <g
   id="text1453"><path
     d="m 9075.64,1593.045 -160.55,117.325 61.75,187.72 -160.55,-116.09 -159.315,116.09 60.515,-187.72 -159.315,-117.325 197.6,0 60.515,-186.485 61.75,186.485 197.6,0"
     id="path4695"
     style="fill:#ffffff;stroke:none" /></g>
       </g>
      </g>
      <g
   id="g1461">
       <g
   id="id206">
        <g
   id="text1464"><path
     d="m 9075.64,1593.045 -160.55,117.325 61.75,187.72 -160.55,-116.09 -159.315,116.09 60.515,-187.72 -159.315,-117.325 197.6,0 60.515,-186.485 61.75,186.485 197.6,0"
     id="path4698"
     style="fill:#000000;stroke:none" /></g>
       </g>
      </g>
      <g
   id="g1472">
       <g
   id="id207" />
      </g>
      <g
   id="g1475">
       <g
   id="id208">
        <g
   id="text1478"><path
     d="m 9884.438,855.59 0,445.41 77.616,0 0,-625.338 -51.156,0 c -27.342,96.1379 -44.9821,109.36801 -164.934,124.362 l 0,55.566 138.474,0"
     id="path4701"
     style="fill:#000000;stroke:none" /><path
     d="m 10375.395,855.59 0,445.41 77.616,0 0,-625.338 -51.156,0 c -27.342,96.1379 -44.982,109.36801 -164.934,124.362 l 0,55.566 138.474,0"
     id="path4703"
     style="fill:#000000;stroke:none" /></g>
       </g>
      </g>
     </g>
    </g>
   </g>
  </g>
 </g>
</svg>