<svg
        xmlns="http://www.w3.org/2000/svg"
        xml:space="preserve"
        width="667.124"
        height="730.658"
        clip-path="url(#a)"
        style="fill-rule:evenodd;stroke-width:28.22200012;stroke-linejoin:round"
        viewBox="0 0 17651 19332"
>
  <defs>
    <clipPath id="a"><path d="M0 0h17651v19332H0z" /></clipPath>
  </defs>
    <g clip-path="url(#a)">
    <path
            d="m1775 13863-441-764 441-764-441-763 441-764-441-764 441-764-441-763 441-764-441-764 441-764-441-763 441-764h882l441-764h882l441-764h882l441-763h882l441-764h882l441-764h882l440 764h882l441 764h882l441 763h882l441 764h882l441 764h882l441 764-441 763 441 764-441 764 441 764-441 763 441 764-441 764 441 764-441 763 441 764-441 764h-882l-441 764h-882l-441 764h-882l-441 763h-882l-441 764h-882l-440 764h-882l-441-764h-882l-441-764h-882l-441-763h-882l-441-764h-882l-441-764z"
            style="fill:none;stroke:#000;stroke-width:141"
    />
        <path
                d="m1775 13865-441-764 441-764-441-763 441-764-441-764 441-764-441-763 441-764-441-764 441-764-441-763 441-764h882l441-764h882l441-764h882l441-763h882l441-764h882l441-764h882l440 764h882l441 764h882l441 763h882l441 764h882l441 764h882l441 764-441 763 441 764-441 764 441 764-441 763 441 764-441 764 441 764-441 763 441 764-441 764h-882l-441 764h-882l-441 764h-882l-441 763h-882l-441 764h-882l-440 764h-882l-441-764h-882l-441-764h-882l-441-763h-882l-441-764h-882l-441-764z"
                style="fill:#ffce9e;stroke:none"
        />
        <path
                d="m1775 13865-441-764 441-764-441-763 441-764-441-764 441-764-441-763 441-764-441-764 441-764-441-763 441-764h882l441-764h882l441-764h882l441-763h882l441-764h882l441-764h882l440 764h882l441 764h882l441 763h882l441 764h882l441 764h882l441 764-441 763 441 764-441 764 441 764-441 763 441 764-441 764 441 764-441 763 441 764-441 764h-882l-441 764h-882l-441 764h-882l-441 763h-882l-441 764h-882l-440 764h-882l-441-764h-882l-441-764h-882l-441-763h-882l-441-764h-882l-441-764z"
                style="fill:none;stroke:#000"
        />

        <path
                d="m3098 13101-441-764h-882l-441 764 441 764h882z"
                style="fill:#d18b47;stroke:none"
        />
        <path
                d="m4421 13865-441-764h-882l-441 764 441 764h882z"
                style="fill:#e8ab6f;stroke:none"
        />
        <path
                d="m5743 14629-441-764h-882l-441 764 441 764h882z"
                style="fill:#ffce9e;stroke:none"
        />
        <path
                d="m7066 15393-441-764h-882l-441 764 441 764h882z"
                style="fill:#d18b47;stroke:none"
        />
        <path
                d="m8389 16155-441-764h-882l-441 764 441 764h882z"
                style="fill:#e8ab6f;stroke:none"
        />
        <path
                d="M9271 16156h-882l-441 764 441 764h882l441-764z"
                style="fill:#ffce9e;stroke:none"
        />
        <path
                d="M10592 15392h-882l-441 764 441 764h882l441-764z"
                style="fill:#e8ab6f;stroke:none"
        />
        <path
                d="M11914 14629h-882l-441 764 441 764h882l441-764z"
                style="fill:#d18b47;stroke:none"
        />
        <path
                d="M13236 13865h-882l-441 764 441 764h882l441-764z"
                style="fill:#ffce9e;stroke:none"
        />
        <path
                d="M14561 13101h-882l-441 764 441 764h882l441-764z"
                style="fill:#e8ab6f;stroke:none"
        />
        <path
                d="M15884 12337h-882l-441 764 441 764h882l441-764z"
                style="fill:#d18b47;stroke:none"
        />

        <path
                d="m3094 11574-441-764h-882l-441 764 441 764h882z"
                style="fill:#e8ab6f;stroke:none"
        />
        <path
                d="m4417 12338-441-764h-882l-441 764 441 764h882z"
                style="fill:#ffce9e;stroke:none"
        />
        <path
                d="m5740 13101-441-764h-882l-441 764 441 764h882z"
                style="fill:#d18b47;stroke:none"
        />
        <path
                d="m7061 13863-441-764h-882l-441 764 441 764h882z"
                style="fill:#e8ab6f;stroke:none"
        />
        <path
                d="m8382 14629-441-764h-882l-441 764 441 764h882z"
                style="fill:#ffce9e;stroke:none"
        />
        <path
                d="M9262 14630h-882l-441 764 441 764h882l441-764z"
                style="fill:#d18b47;stroke:none"
        />
        <path
                d="M10585 13867h-882l-441 764 441 764h882l441-764z"
                style="fill:#ffce9e;stroke:none"
        />
        <path
                d="M11908 13103h-882l-441 764 441 764h882l441-764z"
                style="fill:#e8ab6f;stroke:none"
        />
        <path
                d="M13231 12339h-882l-441 764 441 764h882l441-764z"
                style="fill:#d18b47;stroke:none"
        />
        <path
                d="M14554 11575h-882l-441 764 441 764h882l441-764z"
                style="fill:#ffce9e;stroke:none"
        />
        <path
                d="M15875 10812h-882l-441 764 441 764h882l441-764z"
                style="fill:#e8ab6f;stroke:none"
        />

        <path
                d="m3089 10048-441-764h-882l-441 764 441 764h882z"
                style="fill:#ffce9e;stroke:none"
        />
        <path
                d="m4412 10812-441-764h-882l-441 764 441 764h882z"
                style="fill:#d18b47;stroke:none"
        />
        <path
                d="m5735 11576-441-764h-882l-441 764 441 764h882z"
                style="fill:#e8ab6f;stroke:none"
        />
        <path
                d="m7058 12339-441-764h-882l-441 764 441 764h882z"
                style="fill:#ffce9e;stroke:none"
        />
        <path
                d="m8380 13103-441-764h-882l-441 764 441 764h882z"
                style="fill:#d18b47;stroke:none"
        />
        <path
                d="M9264 13103h-882l-441 764 441 764h882l441-764z"
                style="fill:#e8ab6f;stroke:none"
        />
        <path
                d="M10587 12339h-882l-441 764 441 764h882l441-764z"
                style="fill:#d18b47;stroke:none"
        />
        <path
                d="M11910 11575h-882l-441 764 441 764h882l441-764z"
                style="fill:#ffce9e;stroke:none"
        />
        <path
                d="M13233 10812h-882l-441 764 441 764h882l441-764z"
                style="fill:#e8ab6f;stroke:none"
        />
        <path
                d="M14558 10046h-882l-441 764 441 764h882l441-764z"
                style="fill:#d18b47;stroke:none"
        />
        <path
                d="M15881 9284h-882l-441 764 441 764h882l441-764z"
                style="fill:#ffce9e;stroke:none"
        />

        <path
                d="m3092 8521-441-764h-882l-441 764 441 764h882z"
                style="fill:#d18b47;stroke:none"
        />
        <path
                d="m4413 9284-441-764h-882l-441 764 441 764h882z"
                style="fill:#e8ab6f;stroke:none"
        />
        <path
                d="m5738 10048-441-764h-882l-441 764 441 764h882z"
                style="fill:#ffce9e;stroke:none"
        />
        <path
                d="m7061 10812-441-764h-882l-441 764 441 764h882z"
                style="fill:#d18b47;stroke:none"
        />
        <path
                d="m6265.542 10830.375 290.66 290.659q44.019 44.02 0 88.042-44.024 44.02-87.44 0l-291.262-290.659-290.66 290.659q-44.02 44.02-88.644 0-43.419-44.022 0-88.645l290.659-290.66-290.66-290.659q-44.02-44.02 0-88.042 44.021-44.019 88.043 0l291.262 290.659 290.056-290.659q44.02-42.813 88.645 0 43.418 45.228 0 88.645z"
                style="fill:#fff;stroke:none"
        />
        <path
                d="m6265.542 10830.375 290.66 290.659q44.019 44.02 0 88.042-44.024 44.02-87.44 0l-291.262-290.659-290.66 290.659q-44.02 44.02-88.644 0-43.419-44.022 0-88.645l290.659-290.66-290.66-290.659q-44.02-44.02 0-88.042 44.021-44.019 88.043 0l291.262 290.659 290.056-290.659q44.02-42.813 88.645 0 43.418 45.228 0 88.645z"
                style="fill:#000;stroke:none"
        />
        <path
                d="m8382 11576-441-764h-882l-441 764 441 764h882z"
                style="fill:#e8ab6f;stroke:none"
        />
        <path
                d="M7501.5 12087.254h-325.635q-24.12-60.303-24.12-126.033-.001-111.56 63.317-200.205 63.318-88.644 162.817-126.636-42.815-19.9-69.95-59.699-26.534-40.402-26.534-91.057 0-63.317 42.212-109.751 42.21-46.432 103.72-53.67-48.845-36.784-48.845-97.087 0-50.653 35.579-86.836 36.18-36.18 87.439-36.182 50.653.001 86.836 36.182 36.18 36.183 36.182 86.836-.002 60.303-48.846 97.087 61.508 7.238 103.721 53.67 42.21 46.434 42.212 109.751 0 50.655-27.74 91.057-27.136 39.8-69.347 59.699 99.498 37.992 162.817 126.636 63.316 88.646 63.318 200.205-.001 65.127-23.518 126.033z"
                style="fill:#fff;stroke:none"
        />
        <path
                d="M7501.5 12046.248h296.086q12.663-43.418 12.664-85.027-.001-94.072-52.463-170.657-51.862-76.584-133.872-112.766-39.801-3.014-39.8-43.418-.001-31.96 40.403-47.036 56.08-39.196 56.081-103.72 0-46.433-31.357-81.409-31.359-34.975-75.982-40.403-36.182-3.014-36.181-41.006-.002-16.884 13.266-31.357 32.563-25.326 32.564-66.333-.001-33.769-24.121-57.891-24.123-24.12-57.288-24.121-34.373 0-58.494 24.121-23.518 24.122-23.518 57.891 0 40.404 32.564 66.333 13.266 13.267 13.266 31.357 0 37.992-35.578 41.006-45.228 5.428-76.585 40.403-30.755 34.976-30.754 81.409 0 64.524 56.081 103.72 40.403 15.68 40.403 47.036 0 40.404-40.403 43.418-82.011 36.182-133.872 112.766-51.86 76.585-51.86 170.657-.001 44.625 12.664 85.027zm0 41.006h-325.635q-24.12-60.303-24.12-126.033-.001-111.56 63.317-200.205 63.318-88.644 162.817-126.636-42.815-19.9-69.95-59.699-26.534-40.402-26.534-91.057 0-63.317 42.212-109.751 42.21-46.433 103.72-53.67-48.845-36.784-48.845-97.087 0-50.653 35.579-86.836 36.18-36.18 87.439-36.182 50.653.001 86.836 36.182 36.18 36.183 36.182 86.836-.002 60.303-48.846 97.087 61.508 7.237 103.721 53.67 42.21 46.434 42.212 109.751 0 50.655-27.74 91.057-27.136 39.8-69.347 59.699 99.498 37.992 162.817 126.636 63.316 88.646 63.318 200.205-.001 65.127-23.518 126.033z"
                style="fill:#000;stroke:none"
        />
        <path
                d="M9266 11575h-882l-441 764 441 764h882l441-764z"
                style="fill:#ffce9e;stroke:none"
        />
        <path
                d="M10589 10812h-882l-441 764 441 764h882l441-764z"
                style="fill:#e8ab6f;stroke:none"
        />
        <path
                d="M11912 10048h-882l-441 764 441 764h882l441-764z"
                style="fill:#d18b47;stroke:none"
        />
        <path
                d="M13235 9282h-882l-441 764 441 764h882l441-764z"
                style="fill:#ffce9e;stroke:none"
        />
        <path
                d="M14558 8519h-882l-441 764 441 764h882l441-764z"
                style="fill:#e8ab6f;stroke:none"
        />
        <path
                d="M14116.5 9794.254h-325.635q-24.121-60.303-24.121-126.033 0-111.56 63.318-200.205 63.318-88.644 162.817-126.636-42.815-19.899-69.951-59.7-26.533-40.401-26.533-91.056 0-63.318 42.212-109.751 42.211-46.432 103.721-53.67-48.846-36.784-48.846-97.087 0-50.653 35.579-86.836 36.181-36.18 87.439-36.182 50.653.002 86.836 36.182 36.18 36.183 36.182 86.836 0 60.303-48.846 97.087 61.508 7.237 103.721 53.67 42.211 46.435 42.212 109.75 0 50.655-27.739 91.058-27.138 39.8-69.348 59.7 99.498 37.99 162.817 126.635 63.316 88.645 63.318 200.205 0 65.127-23.518 126.033z"
                style="fill:#fff;stroke:none"
        />
        <path
                d="M14116.5 9753.248h296.086q12.663-43.418 12.664-85.027-.001-94.072-52.463-170.656-51.863-76.585-133.872-112.767-39.801-3.014-39.8-43.418 0-31.96 40.403-47.036 56.08-39.195 56.081-103.72 0-46.433-31.357-81.41-31.359-34.974-75.982-40.402-36.183-3.014-36.181-41.006 0-16.884 13.266-31.357 32.563-25.326 32.564-66.333 0-33.77-24.121-57.89-24.123-24.12-57.288-24.122-34.373 0-58.494 24.121-23.518 24.123-23.518 57.89 0 40.405 32.564 66.334 13.266 13.267 13.266 31.357 0 37.991-35.578 41.006-45.228 5.428-76.585 40.403-30.755 34.976-30.754 81.408 0 64.525 56.081 103.721 40.403 15.68 40.403 47.036 0 40.404-40.403 43.418-82.011 36.182-133.872 112.766-51.86 76.585-51.86 170.657 0 44.625 12.664 85.027zm0 41.006h-325.635q-24.121-60.303-24.121-126.033 0-111.56 63.318-200.205 63.318-88.644 162.817-126.636-42.815-19.899-69.951-59.7-26.533-40.401-26.533-91.056 0-63.318 42.212-109.751 42.211-46.432 103.721-53.67-48.846-36.784-48.846-97.087 0-50.653 35.579-86.836 36.181-36.18 87.439-36.182 50.653.002 86.836 36.182 36.18 36.183 36.182 86.836 0 60.303-48.846 97.087 61.508 7.237 103.721 53.67 42.211 46.435 42.212 109.75 0 50.655-27.739 91.058-27.138 39.8-69.348 59.7 99.498 37.99 162.817 126.635 63.316 88.645 63.318 200.205 0 65.127-23.518 126.033z"
                style="fill:#000;stroke:none"
        />
        <path
                d="M15881 7755h-882l-441 764 441 764h882l441-764z"
                style="fill:#d18b47;stroke:none"
        />
        <path
                d="m15527.542 8537.375 290.659 290.659q44.019 44.02 0 88.042-44.022 44.02-87.439 0l-291.262-290.66-290.659 290.66q-44.022 44.02-88.645 0-43.419-44.022 0-88.645l290.659-290.66-290.659-290.659q-44.022-44.02 0-88.042 44.02-44.019 88.042 0l291.262 290.66 290.056-290.66q44.02-42.813 88.645 0 43.416 45.228 0 88.645z"
                style="fill:#fff;stroke:none"
        />
        <path
                d="m15527.542 8537.375 290.659 290.659q44.019 44.02 0 88.042-44.022 44.02-87.439 0l-291.262-290.66-290.659 290.66q-44.022 44.02-88.645 0-43.419-44.022 0-88.645l290.659-290.66-290.659-290.659q-44.022-44.02 0-88.042 44.02-44.019 88.042 0l291.262 290.66 290.056-290.66q44.02-42.813 88.645 0 43.416 45.228 0 88.645z"
                style="fill:#000;stroke:none"
        />
        <path
                d="m3092 6991-441-764h-882l-441 764 441 764h882z"
                style="fill:#e8ab6f;stroke:none"
        />
        <path
                d="m4415 7755-441-764h-882l-441 764 441 764h882z"
                style="fill:#ffce9e;stroke:none"
        />
        <path
                d="M3531.5 8267.254h-325.635q-24.12-60.303-24.12-126.033-.001-111.56 63.317-200.205 63.318-88.644 162.817-126.636-42.815-19.899-69.95-59.7-26.535-40.402-26.534-91.057 0-63.315 42.212-109.75 42.21-46.433 103.72-53.67-48.845-36.784-48.845-97.087 0-50.653 35.579-86.836 36.18-36.18 87.439-36.182 50.653.001 86.836 36.182 36.18 36.183 36.182 86.836-.001 60.304-48.846 97.087 61.508 7.238 103.721 53.67 42.21 46.435 42.212 109.75 0 50.655-27.74 91.058-27.136 39.8-69.347 59.7 99.498 37.99 162.817 126.635 63.316 88.646 63.318 200.205-.001 65.127-23.518 126.033z"
                style="fill:#fff;stroke:none"
        />
        <path
                d="M3531.5 8226.248h296.086q12.663-43.418 12.664-85.027-.001-94.072-52.463-170.656-51.862-76.585-133.872-112.767-39.801-3.014-39.8-43.418-.001-31.96 40.403-47.036 56.08-39.196 56.081-103.72 0-46.433-31.357-81.41-31.359-34.974-75.982-40.402-36.183-3.015-36.181-41.006-.002-16.884 13.266-31.357 32.562-25.326 32.564-66.333-.001-33.769-24.121-57.89-24.123-24.12-57.288-24.122-34.373 0-58.494 24.121-23.518 24.123-23.518 57.89 0 40.405 32.564 66.334 13.266 13.267 13.266 31.357 0 37.992-35.578 41.006-45.228 5.428-76.585 40.403-30.755 34.976-30.754 81.409 0 64.524 56.081 103.72 40.403 15.68 40.403 47.036 0 40.404-40.403 43.418-82.012 36.182-133.872 112.767t-51.86 170.656q-.001 44.625 12.664 85.027zm0 41.006h-325.635q-24.12-60.303-24.12-126.033-.001-111.56 63.317-200.205 63.318-88.644 162.817-126.636-42.815-19.899-69.95-59.7-26.535-40.402-26.534-91.057 0-63.315 42.212-109.75 42.21-46.433 103.72-53.67-48.845-36.784-48.845-97.087 0-50.653 35.579-86.836 36.18-36.18 87.439-36.182 50.653.001 86.836 36.182 36.18 36.183 36.182 86.836-.001 60.304-48.846 97.087 61.508 7.238 103.721 53.67 42.21 46.435 42.212 109.75 0 50.655-27.74 91.058-27.136 39.8-69.347 59.7 99.498 37.99 162.817 126.635 63.316 88.646 63.318 200.205-.001 65.127-23.518 126.033z"
                style="fill:#000;stroke:none"
        />
        <path
                d="m5738 8519-441-764h-882l-441 764 441 764h882z"
                style="fill:#d18b47;stroke:none"
        />
        <path
                d="m7061 9283-441-764h-882l-441 764 441 764h882z"
                style="fill:#e8ab6f;stroke:none"
        />
        <path
                d="m8384 10046-441-764h-882l-441 764 441 764h882z"
                style="fill:#ffce9e;stroke:none"
        />
        <path
                d="M7501.5 9894.924q69.95 0 119.4 50.051 50.05 49.449 50.05 119.4 0 70.554-50.05 120.002-49.45 49.449-119.4 49.448-70.555 0-120.002-49.448-49.45-49.448-49.449-120.002 0-69.951 49.449-119.4 49.447-50.05 120.002-50.051"
                style="fill:#fff;stroke:none"
        />
        <path
                d="M7501.5 9894.924q69.95 0 119.4 50.051 50.05 49.449 50.05 119.4 0 70.554-50.05 120.002-49.45 49.449-119.4 49.448-70.555 0-120.002-49.448-49.45-49.448-49.449-120.002 0-69.951 49.449-119.4 49.447-50.05 120.002-50.051"
                style="fill:#000;stroke:none"
        />
        <path
                d="M9266 10046h-882l-441 764 441 764h882l441-764z"
                style="fill:#d18b47;stroke:none"
        />
        <path
                d="m8912.542 10828.375 290.66 290.659q44.019 44.02 0 88.042-44.024 44.02-87.44 0l-291.262-290.659-290.66 290.659q-44.02 44.02-88.644 0-43.419-44.022 0-88.645l290.659-290.66-290.66-290.659q-44.02-44.02 0-88.042 44.021-44.019 88.043 0l291.262 290.659 290.056-290.659q44.02-42.813 88.645 0 43.417 45.228 0 88.645z"
                style="fill:#fff;stroke:none"
        />
        <path
                d="m8912.542 10828.375 290.66 290.659q44.019 44.02 0 88.042-44.024 44.02-87.44 0l-291.262-290.659-290.66 290.659q-44.02 44.02-88.644 0-43.419-44.022 0-88.645l290.659-290.66-290.66-290.659q-44.02-44.02 0-88.042 44.021-44.019 88.043 0l291.262 290.659 290.056-290.659q44.02-42.813 88.645 0 43.417 45.228 0 88.645z"
                style="fill:#000;stroke:none"
        />
        <path
                d="M10589 9282h-882l-441 764 441 764h882l441-764z"
                style="fill:#ffce9e;stroke:none"
        />
        <path
                d="M11912 8519h-882l-441 764 441 764h882l441-764z"
                style="fill:#e8ab6f;stroke:none"
        />
        <path
                d="M13235 7755h-882l-441 764 441 764h882l441-764z"
                style="fill:#d18b47;stroke:none"
        />
        <path
                d="m12879.542 8538.375 290.659 290.659q44.019 44.02 0 88.042-44.022 44.02-87.439 0l-291.262-290.66-290.659 290.66q-44.022 44.02-88.645 0-43.419-44.022 0-88.645l290.659-290.66-290.659-290.659q-44.022-44.02 0-88.042 44.02-44.019 88.042 0l291.262 290.66 290.056-290.66q44.02-42.813 88.645 0 43.416 45.228 0 88.645z"
                style="fill:#fff;stroke:none"
        />
        <path
                d="m12879.542 8538.375 290.659 290.659q44.019 44.02 0 88.042-44.022 44.02-87.439 0l-291.262-290.66-290.659 290.66q-44.022 44.02-88.645 0-43.419-44.022 0-88.645l290.659-290.66-290.659-290.659q-44.022-44.02 0-88.042 44.02-44.019 88.042 0l291.262 290.66 290.056-290.66q44.02-42.813 88.645 0 43.416 45.228 0 88.645z"
                style="fill:#000;stroke:none"
        />
        <path
                d="M14558 6993h-882l-441 764 441 764h882l441-764z"
                style="fill:#ffce9e;stroke:none"
        />
        <path
                d="M14116.5 7605.924q69.95 0 119.399 50.051 50.05 49.449 50.052 119.4-.002 70.554-50.052 120.002-49.45 49.448-119.399 49.448-70.555 0-120.002-49.448-49.449-49.448-49.449-120.003 0-69.95 49.449-119.399 49.447-50.05 120.002-50.051"
                style="fill:#fff;stroke:none"
        />
        <path
                d="M14116.5 7605.924q69.95 0 119.399 50.051 50.05 49.449 50.052 119.4-.002 70.554-50.052 120.002-49.45 49.448-119.399 49.448-70.555 0-120.002-49.448-49.449-49.448-49.449-120.003 0-69.95 49.449-119.399 49.447-50.05 120.002-50.051"
                style="fill:#000;stroke:none"
        />
        <path
                d="M15881 6229h-882l-441 764 441 764h882l441-764z"
                style="fill:#e8ab6f;stroke:none"
        />

        <path
                d="m3092 5466-441-764h-882l-441 764 441 764h882z"
                style="fill:#ffce9e;stroke:none"
        />
        <path
                d="m2461.64 5411.045-160.55 117.325 61.75 187.72L2202.29 5600l-159.315 116.09 60.515-187.72-159.315-117.325h197.6l60.515-186.485 61.75 186.485z"
                style="fill:#fff;stroke:none"
        />
        <path
                d="m2461.64 5411.045-160.55 117.325 61.75 187.72L2202.29 5600l-159.315 116.09 60.515-187.72-159.315-117.325h197.6l60.515-186.485 61.75 186.485z"
                style="fill:#000;stroke:none"
        />
        <path
                d="m4415 6229-441-764h-882l-441 764 441 764h882z"
                style="fill:#d18b47;stroke:none"
        />
        <path
                d="m5738 6993-441-764h-882l-441 764 441 764h882z"
                style="fill:#e8ab6f;stroke:none"
        />
        <path
                d="m7061 7757-441-764h-882l-441 764 441 764h882z"
                style="fill:#ffce9e;stroke:none"
        />
        <path
                d="m8384 8521-441-764h-882l-441 764 441 764h882z"
                style="fill:#d18b47;stroke:none"
        />
        <path
                d="M7501.5 8368.924q69.95 0 119.4 50.051 50.05 49.449 50.05 119.4 0 70.554-50.05 120.002-49.45 49.449-119.4 49.448-70.555 0-120.002-49.448-49.45-49.448-49.449-120.002 0-69.951 49.449-119.4 49.447-50.05 120.002-50.051"
                style="fill:#fff;stroke:none"
        />
        <path
                d="M7501.5 8368.924q69.95 0 119.4 50.051 50.05 49.449 50.05 119.4 0 70.554-50.05 120.002-49.45 49.449-119.4 49.448-70.555 0-120.002-49.448-49.45-49.448-49.449-120.002 0-69.951 49.449-119.4 49.447-50.05 120.002-50.051"
                style="fill:#000;stroke:none"
        />
        <path
                d="M9266 8520h-882l-441 764 441 764h882l441-764z"
                style="fill:#e8ab6f;stroke:none"
        />
        <path
                d="M10589 7757h-882l-441 764 441 764h882l441-764z"
                style="fill:#d18b47;stroke:none"
        />
        <path
                d="M11912 6993h-882l-441 764 441 764h882l441-764z"
                style="fill:#ffce9e;stroke:none"
        />
        <path
                d="M13235 6229h-882l-441 764 441 764h882l441-764z"
                style="fill:#e8ab6f;stroke:none"
        />
        <path
                d="M14558 5465h-882l-441 764 441 764h882l441-764z"
                style="fill:#d18b47;stroke:none"
        />
        <path
                d="M15881 4702h-882l-441 764 441 764h882l441-764z"
                style="fill:#ffce9e;stroke:none"
        />
        <path
                d="m15690.64 5411.045-160.55 117.325 61.75 187.72-160.55-116.09-159.315 116.09 60.515-187.72-159.315-117.325h197.6l60.515-186.485 61.75 186.485z"
                style="fill:#fff;stroke:none"
        />
        <path
                d="m15690.64 5411.045-160.55 117.325 61.75 187.72-160.55-116.09-159.315 116.09 60.515-187.72-159.315-117.325h197.6l60.515-186.485 61.75 186.485z"
                style="fill:#000;stroke:none"
        />
        <path
                d="m4415 4702-441-764h-882l-441 764 441 764h882z"
                style="fill:#e8ab6f;stroke:none"
        />
        <path
                d="m3782.64 4648.045-160.55 117.325 61.75 187.72L3523.29 4837l-159.315 116.09 60.515-187.72-159.315-117.325h197.6l60.515-186.485 61.75 186.485z"
                style="fill:#fff;stroke:none"
        />
        <path
                d="m3782.64 4648.045-160.55 117.325 61.75 187.72L3523.29 4837l-159.315 116.09 60.515-187.72-159.315-117.325h197.6l60.515-186.485 61.75 186.485z"
                style="fill:#000;stroke:none"
        />
        <path
                d="m5738 5466-441-764h-882l-441 764 441 764h882z"
                style="fill:#ffce9e;stroke:none"
        />
        <path
                d="M4854.5 5977.254h-325.635q-24.12-60.303-24.12-126.033-.001-111.56 63.317-200.205 63.318-88.644 162.817-126.636-42.815-19.899-69.95-59.7-26.534-40.402-26.534-91.057 0-63.315 42.212-109.75 42.21-46.432 103.72-53.67-48.845-36.784-48.845-97.087 0-50.653 35.579-86.836 36.18-36.18 87.439-36.182 50.653.001 86.836 36.182 36.18 36.183 36.182 86.836-.002 60.303-48.846 97.087 61.508 7.238 103.721 53.67 42.21 46.435 42.212 109.75 0 50.655-27.74 91.058-27.136 39.8-69.347 59.7 99.498 37.99 162.817 126.635 63.316 88.646 63.318 200.205-.001 65.127-23.518 126.033z"
                style="fill:#fff;stroke:none"
        />
        <path
                d="M4854.5 5977.254h-325.635q-24.12-60.303-24.12-126.033-.001-111.56 63.317-200.205 63.318-88.644 162.817-126.636-42.815-19.899-69.95-59.7-26.534-40.402-26.534-91.057 0-63.315 42.212-109.75 42.21-46.432 103.72-53.67-48.845-36.784-48.845-97.087 0-50.653 35.579-86.836 36.18-36.18 87.439-36.182 50.653.001 86.836 36.182 36.18 36.183 36.182 86.836-.002 60.303-48.846 97.087 61.508 7.238 103.721 53.67 42.21 46.435 42.212 109.75 0 50.655-27.74 91.058-27.136 39.8-69.347 59.7 99.498 37.99 162.817 126.635 63.316 88.646 63.318 200.205-.001 65.127-23.518 126.033z"
                style="fill:#000;stroke:none"
        />
        <path
                d="m7061 6229-441-764h-882l-441 764 441 764h882z"
                style="fill:#d18b47;stroke:none"
        />
        <path
                d="m8384 6993-441-764h-882l-441 764 441 764h882z"
                style="fill:#e8ab6f;stroke:none"
        />
        <path
                d="M9266 6993h-882l-441 764 441 764h882l441-764z"
                style="fill:#ffce9e;stroke:none"
        />
        <path
                d="M10589 6229h-882l-441 764 441 764h882l441-764z"
                style="fill:#e8ab6f;stroke:none"
        />
        <path
                d="M11912 5465h-882l-441 764 441 764h882l441-764z"
                style="fill:#d18b47;stroke:none"
        />
        <path
                d="M13235 4702h-882l-441 764 441 764h882l441-764z"
                style="fill:#ffce9e;stroke:none"
        />
        <path
                d="M14558 3938h-882l-441 764 441 764h882l441-764z"
                style="fill:#e8ab6f;stroke:none"
        />
        <path
                d="m14367.64 4648.045-160.55 117.325 61.75 187.72-160.55-116.09-159.315 116.09 60.515-187.72-159.315-117.325h197.6l60.515-186.485 61.75 186.485z"
                style="fill:#fff;stroke:none"
        />
        <path
                d="m14367.64 4648.045-160.55 117.325 61.75 187.72-160.55-116.09-159.315 116.09 60.515-187.72-159.315-117.325h197.6l60.515-186.485 61.75 186.485z"
                style="fill:#000;stroke:none"
        />
        <path
                d="m5738 3938-441-764h-882l-441 764 441 764h882z"
                style="fill:#d18b47;stroke:none"
        />
        <path
                d="m5105.64 3884.045-160.55 117.325 61.75 187.72L4846.29 4073l-159.315 116.09 60.515-187.72-159.315-117.325h197.6l60.515-186.485 61.75 186.485z"
                style="fill:#fff;stroke:none"
        />
        <path
                d="m5105.64 3884.045-160.55 117.325 61.75 187.72L4846.29 4073l-159.315 116.09 60.515-187.72-159.315-117.325h197.6l60.515-186.485 61.75 186.485z"
                style="fill:#000;stroke:none"
        />
        <path
                d="m7061 4702-441-764h-882l-441 764 441 764h882z"
                style="fill:#e8ab6f;stroke:none"
        />
        <path
                d="m8382 5466-441-764h-882l-441 764 441 764h882z"
                style="fill:#ffce9e;stroke:none"
        />
        <path
                d="M9266 5465h-882l-441 764 441 764h882l441-764z"
                style="fill:#d18b47;stroke:none"
        />
        <path
                d="M10589 4702h-882l-441 764 441 764h882l441-764z"
                style="fill:#ffce9e;stroke:none"
        />
        <path
                d="M11912 3938h-882l-441 764 441 764h882l441-764z"
                style="fill:#e8ab6f;stroke:none"
        />
        <path
                d="M13235 3174h-882l-441 764 441 764h882l441-764z"
                style="fill:#d18b47;stroke:none"
        />
        <path
                d="m13044.64 3884.045-160.55 117.325 61.75 187.72-160.55-116.09-159.315 116.09 60.515-187.72-159.315-117.325h197.6l60.515-186.485 61.75 186.485z"
                style="fill:#fff;stroke:none"
        />
        <path
                d="m13044.64 3884.045-160.55 117.325 61.75 187.72-160.55-116.09-159.315 116.09 60.515-187.72-159.315-117.325h197.6l60.515-186.485 61.75 186.485z"
                style="fill:#000;stroke:none"
        />
        <path
                d="m7059 3174-441-764h-882l-441 764 441 764h882z"
                style="fill:#ffce9e;stroke:none"
        />
        <path
                d="m6429.64 3120.045-160.55 117.325 61.75 187.72L6170.29 3309l-159.315 116.09 60.515-187.72-159.315-117.325h197.6l60.515-186.485 61.75 186.485z"
                style="fill:#fff;stroke:none"
        />
        <path
                d="m6429.64 3120.045-160.55 117.325 61.75 187.72L6170.29 3309l-159.315 116.09 60.515-187.72-159.315-117.325h197.6l60.515-186.485 61.75 186.485z"
                style="fill:#000;stroke:none"
        />
        <path
                d="m8382 3938-441-764h-882l-441 764 441 764h882z"
                style="fill:#d18b47;stroke:none"
        />
        <path
                d="M9266 3938h-882l-441 764 441 764h882l441-764z"
                style="fill:#e8ab6f;stroke:none"
        />
        <path
                d="M10589 3174h-882l-441 764 441 764h882l441-764z"
                style="fill:#d18b47;stroke:none"
        />
        <path
                d="M11912 2410h-882l-441 764 441 764h882l441-764z"
                style="fill:#ffce9e;stroke:none"
        />
        <path
                d="m11721.64 3120.045-160.55 117.325 61.75 187.72-160.55-116.09-159.315 116.09 60.515-187.72-159.315-117.325h197.6l60.515-186.485 61.75 186.485z"
                style="fill:#fff;stroke:none"
        />
        <path
                d="m11721.64 3120.045-160.55 117.325 61.75 187.72-160.55-116.09-159.315 116.09 60.515-187.72-159.315-117.325h197.6l60.515-186.485 61.75 186.485z"
                style="fill:#000;stroke:none"
        />
        <path
                d="m8384 2410-441-764h-882l-441 764 441 764h882z"
                style="fill:#e8ab6f;stroke:none"
        />
        <path
                d="m7752.64 2356.045-160.55 117.325 61.75 187.72L7493.29 2545l-159.315 116.09 60.515-187.72-159.315-117.325h197.6l60.515-186.485 61.75 186.485z"
                style="fill:#fff;stroke:none"
        />
        <path
                d="m7752.64 2356.045-160.55 117.325 61.75 187.72L7493.29 2545l-159.315 116.09 60.515-187.72-159.315-117.325h197.6l60.515-186.485 61.75 186.485z"
                style="fill:#000;stroke:none"
        />
        <path
                d="M9266 2410h-882l-441 764 441 764h882l441-764z"
                style="fill:#ffce9e;stroke:none"
        />
        <path
                d="M10589 1646h-882l-441 764 441 764h882l441-764z"
                style="fill:#e8ab6f;stroke:none"
        />
        <path
                d="m10398.64 2356.045-160.55 117.325 61.75 187.72-160.55-116.09-159.315 116.09 60.515-187.72-159.315-117.325h197.6l60.515-186.485 61.75 186.485z"
                style="fill:#fff;stroke:none"
        />
        <path
                d="m10398.64 2356.045-160.55 117.325 61.75 187.72-160.55-116.09-159.315 116.09 60.515-187.72-159.315-117.325h197.6l60.515-186.485 61.75 186.485z"
                style="fill:#000;stroke:none"
        />
        <path
                d="M9266 883h-882l-441 764 441 764h882l441-764z"
                style="fill:#d18b47;stroke:none"
        />
        <path
                d="m9075.64 1593.045-160.55 117.325 61.75 187.72L8816.29 1782l-159.315 116.09 60.515-187.72-159.315-117.325h197.6l60.515-186.485 61.75 186.485z"
                style="fill:#fff;stroke:none"
        />
        <path
                d="m9075.64 1593.045-160.55 117.325 61.75 187.72L8816.29 1782l-159.315 116.09 60.515-187.72-159.315-117.325h197.6l60.515-186.485 61.75 186.485z"
                style="fill:#000;stroke:none"
        />
  </g>
</svg>