<?xml version="1.0" encoding="UTF-8" standalone="no"?>
<!-- Created with Inkscape (http://www.inkscape.org/) -->

<svg
   xmlns:dc="http://purl.org/dc/elements/1.1/"
   xmlns:cc="http://creativecommons.org/ns#"
   xmlns:rdf="http://www.w3.org/1999/02/22-rdf-syntax-ns#"
   xmlns:svg="http://www.w3.org/2000/svg"
   xmlns="http://www.w3.org/2000/svg"
   version="1.1"
   width="176.42mm"
   height="193.27mm"
   viewBox="0 0 17642 19327"
   clip-path="url(#presentation_clip_path)"
   id="svg2"
   xml:space="preserve"
   style="fill-rule:evenodd;stroke-width:28.22200012;stroke-linejoin:round"><metadata
   id="metadata1290"><rdf:RDF><cc:Work
       rdf:about=""><dc:format>image/svg+xml</dc:format><dc:type
         rdf:resource="http://purl.org/dc/dcmitype/StillImage" /><dc:title></dc:title></cc:Work></rdf:RDF></metadata>
 <defs
   id="defs4">
  <clipPath
   id="presentation_clip_path">
   <rect
   width="17642"
   height="19327"
   x="0"
   y="0"
   id="rect7" />
  </clipPath>
 </defs>
 <defs
   id="defs9">
  
 </defs>
 <defs
   id="defs11">
  <g
   transform="scale(4.8828125e-4,-4.8828125e-4)"
   id="bullet-char-template57356">
   <path
   d="M 580,1141 1163,571 580,0 -4,571 580,1141 z"
   id="path14" />
  </g>
  <g
   transform="scale(4.8828125e-4,-4.8828125e-4)"
   id="bullet-char-template57354">
   <path
   d="m 8,1128 1129,0 L 1137,0 8,0 8,1128 z"
   id="path17" />
  </g>
  <g
   transform="scale(4.8828125e-4,-4.8828125e-4)"
   id="bullet-char-template10146">
   <path
   d="M 174,0 602,739 174,1481 1456,739 174,0 z m 1184,739 -1049,607 350,-607 699,0 z"
   id="path20" />
  </g>
  <g
   transform="scale(4.8828125e-4,-4.8828125e-4)"
   id="bullet-char-template10132">
   <path
   d="M 2015,739 1276,0 717,0 l 543,543 -1086,0 0,393 1086,0 -543,545 557,0 741,-742 z"
   id="path23" />
  </g>
  <g
   transform="scale(4.8828125e-4,-4.8828125e-4)"
   id="bullet-char-template10007">
   <path
   d="m 0,-2 c -7,16 -16,29 -25,39 l 381,530 c -94,256 -141,385 -141,387 0,25 13,38 40,38 9,0 21,-2 34,-5 21,4 42,12 65,25 l 27,-13 111,-251 280,301 64,-25 24,25 c 21,-10 41,-24 62,-43 C 886,937 835,863 770,784 769,783 710,716 594,584 L 774,223 c 0,-27 -21,-55 -63,-84 l 16,-20 C 717,90 699,76 672,76 641,76 570,178 457,381 L 164,-76 c -22,-34 -53,-51 -92,-51 -42,0 -63,17 -64,51 -7,9 -10,24 -10,44 0,9 1,19 2,30 z"
   id="path26" />
  </g>
  <g
   transform="scale(4.8828125e-4,-4.8828125e-4)"
   id="bullet-char-template10004">
   <path
   d="M 285,-33 C 182,-33 111,30 74,156 52,228 41,333 41,471 c 0,78 14,145 41,201 34,71 87,106 158,106 53,0 88,-31 106,-94 l 23,-176 c 8,-64 28,-97 59,-98 l 735,706 c 11,11 33,17 66,17 42,0 63,-15 63,-46 l 0,-122 c 0,-36 -10,-64 -30,-84 L 442,47 C 390,-6 338,-33 285,-33 z"
   id="path29" />
  </g>
  <g
   transform="scale(4.8828125e-4,-4.8828125e-4)"
   id="bullet-char-template9679">
   <path
   d="M 813,0 C 632,0 489,54 383,161 276,268 223,411 223,592 c 0,181 53,324 160,431 106,107 249,161 430,161 179,0 323,-54 432,-161 108,-107 162,-251 162,-431 0,-180 -54,-324 -162,-431 C 1136,54 992,0 813,0 z"
   id="path32" />
  </g>
  <g
   transform="scale(4.8828125e-4,-4.8828125e-4)"
   id="bullet-char-template8226">
   <path
   d="m 346,457 c -73,0 -137,26 -191,78 -54,51 -81,114 -81,188 0,73 27,136 81,188 54,52 118,78 191,78 73,0 134,-26 185,-79 51,-51 77,-114 77,-187 0,-75 -25,-137 -76,-188 -50,-52 -112,-78 -186,-78 z"
   id="path35" />
  </g>
  <g
   transform="scale(4.8828125e-4,-4.8828125e-4)"
   id="bullet-char-template8211">
   <path
   d="m -4,459 1139,0 0,147 -1139,0 0,-147 z"
   id="path38" />
  </g>
 </defs>
 <defs
   id="defs40" />
 <g
   id="g42">
  <g
   id="id2">
   <g
   id="bg-id2" />
   <g
   id="bo-id2" />
  </g>
 </g>
 <g
   id="g47">
  <g
   id="g49">
   <g
   clip-path="url(#presentation_clip_path)"
   id="id1">
    <g
   id="g52">
     <g
   id="g54">
      <g
   id="g56">
       <g
   id="id3">
        <path
   d="m 1767,13861 -441,-764 441,-764 -441,-763 441,-764 -441,-764 441,-764 -441,-763 441,-764 -441,-764 441,-764 -441,-763 441,-764 882,0 441,-764 882,0 441,-764 882,0 441,-763 882,0 441,-764 882,0 441,-764 882,0 440,764 882,0 441,764 882,0 441,763 882,0 441,764 882,0 441,764 882,0 441,764 -441,763 441,764 -441,764 441,764 -441,763 441,764 -441,764 441,764 -441,763 441,764 -441,764 -882,0 -441,764 -882,0 -441,764 -882,0 -441,763 -882,0 -441,764 -882,0 -440,764 -882,0 -441,-764 -882,0 -441,-764 -882,0 -441,-763 -882,0 -441,-764 -882,0 -441,-764 -882,0 z"
   id="path59"
   style="fill:none;stroke:#000000;stroke-width:141" />
       </g>
      </g>
      <g
   id="g61">
       <g
   id="id4">
        <path
   d="m 1767,13861 -441,-764 441,-764 -441,-763 441,-764 -441,-764 441,-764 -441,-763 441,-764 -441,-764 441,-764 -441,-763 441,-764 882,0 441,-764 882,0 441,-764 882,0 441,-763 882,0 441,-764 882,0 441,-764 882,0 440,764 882,0 441,764 882,0 441,763 882,0 441,764 882,0 441,764 882,0 441,764 -441,763 441,764 -441,764 441,764 -441,763 441,764 -441,764 441,764 -441,763 441,764 -441,764 -882,0 -441,764 -882,0 -441,764 -882,0 -441,763 -882,0 -441,764 -882,0 -440,764 -882,0 -441,-764 -882,0 -441,-764 -882,0 -441,-763 -882,0 -441,-764 -882,0 -441,-764 -882,0 z"
   id="path64"
   style="fill:#ffce9e;stroke:none" />
        <path
   d="m 1767,13861 -441,-764 441,-764 -441,-763 441,-764 -441,-764 441,-764 -441,-763 441,-764 -441,-764 441,-764 -441,-763 441,-764 882,0 441,-764 882,0 441,-764 882,0 441,-763 882,0 441,-764 882,0 441,-764 882,0 440,764 882,0 441,764 882,0 441,763 882,0 441,764 882,0 441,764 882,0 441,764 -441,763 441,764 -441,764 441,764 -441,763 441,764 -441,764 441,764 -441,763 441,764 -441,764 -882,0 -441,764 -882,0 -441,764 -882,0 -441,763 -882,0 -441,764 -882,0 -440,764 -882,0 -441,-764 -882,0 -441,-764 -882,0 -441,-763 -882,0 -441,-764 -882,0 -441,-764 -882,0 z"
   id="path66"
   style="fill:none;stroke:#000000" />
       </g>
      </g>
      <g
   id="g68">
       <g
   id="id5" />
      </g>
      <g
   id="g71">
       <g
   id="id6" />
      </g>
      <g
   id="g74">
       <g
   id="id7">
        <g
   id="text77"><path
     d="m 2434.87,14999.782 c -7.938,1.764 -11.466,1.764 -15.876,1.764 -25.578,0 -39.69,-13.23 -39.69,-36.162 l 0,-271.656 c 0,-82.026 -59.9761,-126.126 -173.754,-126.126 -67.0319,0 -122.598,19.404 -153.468,53.802 -21.168,23.814 -29.988,50.274 -31.752,96.138 l 74.088,0 c 6.174,-56.448 39.6901,-82.026 108.486,-82.026 66.1499,0 103.194,24.696 103.194,68.796 l 0,19.404 c 0,30.87 -18.5221,44.1 -76.734,51.156 -104.0759,13.23 -119.952,16.758 -148.176,28.224 -53.8019,22.05 -81.144,63.504 -81.144,123.48 0,83.79 58.2121,136.71 151.704,136.71 58.2119,0 104.9581,-20.286 156.996,-67.914 5.292,46.746 28.224,67.914 75.852,67.914 14.994,0 26.46,-1.764 50.274,-7.938 l 0,-55.566 m -128.772,-102.312 c 0,24.696 -7.056,39.69 -29.106,59.976 -29.988,27.342 -66.15,41.454 -109.368,41.454 -57.3299,0 -90.846,-27.342 -90.846,-74.088 0,-48.51 32.6341,-73.206 111.132,-84.672 77.6159,-10.584 93.492,-14.112 118.188,-25.578 l 0,82.908"
     id="path4268"
     style="fill:#000000;stroke:none" /></g>
       </g>
      </g>
      <g
   id="g85">
       <g
   id="id8" />
      </g>
      <g
   id="g88">
       <g
   id="id9">
        <g
   id="text91"><path
     d="m 3333.628,15166.022 0,642.978 66.15,0 0,-59.094 c 35.28,53.802 82.0261,79.38 146.412,79.38 121.7159,0 201.096,-99.666 201.096,-253.134 0,-149.94 -75.8521,-242.55 -197.568,-242.55 -63.5039,0 -108.486,23.814 -142.884,75.852 l 0,-243.432 -73.206,0 m 201.978,236.376 c 82.0259,0 134.946,71.442 134.946,181.692 0,104.958 -54.6841,176.4 -134.946,176.4 -77.6159,0 -128.772,-70.56 -128.772,-179.046 0,-108.486 51.1561,-179.046 128.772,-179.046"
     id="path4271"
     style="fill:#000000;stroke:none" /></g>
       </g>
      </g>
      <g
   id="g99">
       <g
   id="id10" />
      </g>
      <g
   id="g102">
       <g
   id="id11">
        <g
   id="text105"><path
     d="m 5049.422,16264.064 c -3.528,-44.982 -13.23,-74.088 -30.87,-99.666 -31.752,-43.218 -87.3181,-68.796 -151.704,-68.796 -124.3619,0 -205.506,98.784 -205.506,252.252 0,149.058 79.3801,243.432 204.624,243.432 110.2499,0 179.928,-66.15 188.748,-179.046 l -74.088,0 c -12.348,74.088 -50.2741,111.132 -112.896,111.132 -81.1439,0 -129.654,-66.15 -129.654,-175.518 0,-115.542 47.6281,-184.338 127.89,-184.338 61.7399,0 100.548,36.162 109.368,100.548 l 74.088,0"
     id="path4274"
     style="fill:#000000;stroke:none" /></g>
       </g>
      </g>
      <g
   id="g113">
       <g
   id="id12" />
      </g>
      <g
   id="g116">
       <g
   id="id13">
        <g
   id="text119"><path
     d="m 6367.59,16691.022 -73.206,0 0,239.022 c -30.87,-46.746 -80.2621,-71.442 -142.002,-71.442 -119.9519,0 -198.45,96.138 -198.45,243.432 0,156.114 76.7341,252.252 201.096,252.252 63.5039,0 107.604,-23.814 147.294,-81.144 l 0,60.858 65.268,0 0,-642.978 m -202.86,236.376 c 79.3799,0 129.654,70.56 129.654,180.81 0,106.722 -51.1561,177.282 -128.772,177.282 -81.1439,0 -134.946,-71.442 -134.946,-179.046 0,-107.604 53.8021,-179.046 134.064,-179.046"
     id="path4277"
     style="fill:#000000;stroke:none" /></g>
       </g>
      </g>
      <g
   id="g127">
       <g
   id="id14" />
      </g>
      <g
   id="g130">
       <g
   id="id15">
        <g
   id="text133"><path
     d="m 7705.466,17891.612 c 0,-70.56 -5.292,-112.896 -18.522,-147.294 -29.988,-75.852 -100.5481,-121.716 -186.984,-121.716 -128.7719,0 -211.68,98.784 -211.68,250.488 0,151.704 80.2621,245.196 209.916,245.196 105.8399,0 179.046,-59.976 197.568,-160.524 l -74.088,0 c -20.286,60.858 -61.7401,92.61 -120.834,92.61 -46.746,0 -86.436,-21.168 -111.132,-59.976 -17.64,-26.46 -23.814,-52.92 -24.696,-98.784 l 340.452,0 m -338.688,-59.976 c 6.174,-85.554 58.2121,-141.12 132.3,-141.12 72.3239,0 127.89,59.976 127.89,135.828 0,1.764 0,3.528 -0.882,5.292 l -259.308,0"
     id="path4280"
     style="fill:#000000;stroke:none" /></g>
       </g>
      </g>
      <g
   id="g141">
       <g
   id="id16" />
      </g>
      <g
   id="g144">
       <g
   id="id17">
        <g
   id="text147"><path
     d="m 8924.556,18401.832 -76.734,0 0,-72.324 c 0,-30.87 17.64,-46.746 51.156,-46.746 6.174,0 8.82,0 25.578,0.882 l 0,-60.858 c -16.758,-3.528 -26.46,-4.41 -41.454,-4.41 -67.9139,0 -108.486,38.808 -108.486,104.958 l 0,78.498 -61.74,0 0,59.976 61.74,0 0,402.192 73.206,0 0,-402.192 76.734,0 0,-59.976"
     id="path4283"
     style="fill:#000000;stroke:none" /></g>
       </g>
      </g>
      <g
   id="g155">
       <g
   id="id18" />
      </g>
      <g
   id="g158">
       <g
   id="id19">
        <g
   id="text161"><path
     d="m 10261.384,17635.832 0,67.032 c -37.044,-54.684 -82.026,-80.262 -141.12,-80.262 -117.306,0 -196.686,102.312 -196.686,252.252 0,75.852 20.286,137.592 58.212,181.692 34.398,38.808 83.79,61.74 132.3,61.74 58.212,0 98.784,-24.696 140.238,-82.908 l 0,23.814 c 0,62.622 -7.938,100.548 -26.46,126.126 -19.404,27.342 -57.33,43.218 -102.312,43.218 -33.516,0 -63.504,-8.82 -83.79,-24.696 -16.758,-13.23 -23.814,-25.578 -28.224,-52.92 l -74.97,0 c 7.938,87.318 75.852,139.356 184.338,139.356 68.796,0 127.89,-22.05 157.878,-59.094 35.28,-42.336 48.51,-100.548 48.51,-209.034 l 0,-386.316 -67.914,0 m -133.182,54.684 c 79.38,0 126.126,67.032 126.126,182.574 0,110.25 -47.628,177.282 -125.244,177.282 -80.262,0 -128.772,-67.914 -128.772,-179.928 0,-111.132 49.392,-179.928 127.89,-179.928"
     id="path4286"
     style="fill:#000000;stroke:none" /></g>
       </g>
      </g>
      <g
   id="g169">
       <g
   id="id20" />
      </g>
      <g
   id="g172">
       <g
   id="id21">
        <g
   id="text175"><path
     d="m 11282.74,16691.022 0,642.978 73.206,0 0,-254.898 c 0,-94.374 49.392,-156.114 125.244,-156.114 23.814,0 47.628,7.938 65.268,21.168 21.168,14.994 29.988,37.044 29.988,69.678 l 0,320.166 73.206,0 0,-349.272 c 0,-77.616 -55.566,-126.126 -145.53,-126.126 -65.268,0 -104.958,20.286 -148.176,76.734 l 0,-244.314 -73.206,0"
     id="path4289"
     style="fill:#000000;stroke:none" /></g>
       </g>
      </g>
      <g
   id="g183">
       <g
   id="id22" />
      </g>
      <g
   id="g186">
       <g
   id="id23">
        <g
   id="text189"><path
     d="m 12825.3,16108.832 -73.206,0 0,462.168 73.206,0 0,-462.168 m 0,-180.81 -74.088,0 0,92.61 74.088,0 0,-92.61"
     id="path4292"
     style="fill:#000000;stroke:none" /></g>
       </g>
      </g>
      <g
   id="g197">
       <g
   id="id24" />
      </g>
      <g
   id="g200">
       <g
   id="id25">
        <g
   id="text203"><path
     d="m 14018.362,15166.022 -73.206,0 0,642.978 73.206,0 0,-179.928 71.442,-70.56 156.114,250.488 90.846,0 -188.748,-302.526 160.524,-159.642 -94.374,0 -195.804,195.804 0,-376.614"
     id="path4295"
     style="fill:#000000;stroke:none" /></g>
       </g>
      </g>
      <g
   id="g211">
       <g
   id="id26" />
      </g>
      <g
   id="g214">
       <g
   id="id27">
        <g
   id="text217"><path
     d="m 15472.064,14400.022 -74.088,0 0,642.978 74.088,0 0,-642.978"
     id="path4298"
     style="fill:#000000;stroke:none" /></g>
       </g>
      </g>
      <g
   id="g225">
       <g
   id="id28" />
      </g>
      <g
   id="g228">
       <g
   id="id29">
        <g
   id="text231" />
       </g>
      </g>
      <g
   id="g239">
       <g
   id="id30" />
      </g>
      <g
   id="g242">
       <g
   id="id31">
        <g
   id="text245"><path
     d="m 868.438,12308.59 0,445.41 77.616,0 0,-625.338 -51.156,0 c -27.34197,96.138 -44.98212,109.368 -164.934,124.362 l 0,55.566 138.474,0"
     id="path4302"
     style="fill:#000000;stroke:none" /></g>
       </g>
      </g>
      <g
   id="g253">
       <g
   id="id32">
        <path
   d="m 3090,13097 -441,-764 -882,0 -441,764 441,764 882,0 441,-764 z"
   id="path256"
   style="fill:#d18b47;stroke:none" />
       </g>
      </g>
      <g
   id="g258">
       <g
   id="id33">
        <path
   d="m 4413,13861 -441,-764 -882,0 -441,764 441,764 882,0 441,-764 z"
   id="path261"
   style="fill:#e8ab6f;stroke:none" />
       </g>
      </g>
      <g
   id="g263">
       <g
   id="id34">
        <path
   d="m 5735,14625 -441,-764 -882,0 -441,764 441,764 882,0 441,-764 z"
   id="path266"
   style="fill:#ffce9e;stroke:none" />
       </g>
      </g>
      <g
   id="g268">
       <g
   id="id35">
        <path
   d="m 7058,15389 -441,-764 -882,0 -441,764 441,764 882,0 441,-764 z"
   id="path271"
   style="fill:#d18b47;stroke:none" />
       </g>
      </g>
      <g
   id="g273">
       <g
   id="id36">
        <path
   d="m 8381,16152 -441,-764 -882,0 -441,764 441,764 882,0 441,-764 z"
   id="path276"
   style="fill:#e8ab6f;stroke:none" />
       </g>
      </g>
      <g
   id="g278">
       <g
   id="id37">
        <path
   d="m 9263,16152 -882,0 -441,764 441,764 882,0 441,-764 -441,-764 z"
   id="path281"
   style="fill:#ffce9e;stroke:none" />
       </g>
      </g>
      <g
   id="g283">
       <g
   id="id38">
        <path
   d="m 10586,15388 -882,0 -441,764 441,764 882,0 441,-764 -441,-764 z"
   id="path286"
   style="fill:#e8ab6f;stroke:none" />
       </g>
      </g>
      <g
   id="g288">
       <g
   id="id39">
        <path
   d="m 11909,14625 -882,0 -441,764 441,764 882,0 441,-764 -441,-764 z"
   id="path291"
   style="fill:#d18b47;stroke:none" />
       </g>
      </g>
      <g
   id="g293">
       <g
   id="id40">
        <path
   d="m 13232,13863 -882,0 -441,764 441,764 882,0 441,-764 -441,-764 z"
   id="path296"
   style="fill:#ffce9e;stroke:none" />
       </g>
      </g>
      <g
   id="g298">
       <g
   id="id41">
        <path
   d="m 14555,13099 -882,0 -441,764 441,764 882,0 441,-764 -441,-764 z"
   id="path301"
   style="fill:#e8ab6f;stroke:none" />
       </g>
      </g>
      <g
   id="g303">
       <g
   id="id42">
        <path
   d="m 15878,12335 -882,0 -441,764 441,764 882,0 441,-764 -441,-764 z"
   id="path306"
   style="fill:#d18b47;stroke:none" />
       </g>
      </g>
      <g
   id="g308">
       <g
   id="id43" />
      </g>
      <g
   id="g311">
       <g
   id="id44">
        <g
   id="text314"><path
     d="m 16743.438,12308.59 0,445.41 77.616,0 0,-625.338 -51.156,0 c -27.342,96.138 -44.982,109.368 -164.934,124.362 l 0,55.566 138.474,0"
     id="path4305"
     style="fill:#000000;stroke:none" /></g>
       </g>
      </g>
      <g
   id="g322">
       <g
   id="id45" />
      </g>
      <g
   id="g325">
       <g
   id="id46">
        <g
   id="text328"><path
     d="m 1086.292,11151.266 -328.986,0 c 7.93799,-51.156 36.16208,-83.79 112.896,-128.772 l 88.2,-47.628 c 87.3179,-47.628 132.3,-112.014 132.3,-188.748 0,-52.038 -21.168,-100.548 -58.212,-134.064 -37.04396,-33.516 -82.90806,-49.392 -142.002,-49.392 -79.37992,0 -138.47403,28.224 -172.872,81.144 -22.04998,33.516 -31.752,72.324 -33.516,135.828 l 77.616,0 c 2.646,-42.336 7.93801,-67.914 18.522,-88.2 20.28598,-37.926 60.85805,-60.858 107.604,-60.858 70.55993,0 123.48,50.274 123.48,117.306 0,49.392 -29.10606,91.728 -84.672,123.48 l -81.144,45.864 c -130.53587,74.088 -168.46201,133.182 -175.518,270.774 l 416.304,0 0,-76.734"
     id="path4308"
     style="fill:#000000;stroke:none" /></g>
       </g>
      </g>
      <g
   id="g336">
       <g
   id="id47">
        <path
   d="m 3090,11572 -441,-764 -882,0 -441,764 441,764 882,0 441,-764 z"
   id="path339"
   style="fill:#e8ab6f;stroke:none" />
       </g>
      </g>
      <g
   id="g341">
       <g
   id="id48">
        <path
   d="m 4413,12335 -441,-764 -882,0 -441,764 441,764 882,0 441,-764 z"
   id="path344"
   style="fill:#ffce9e;stroke:none" />
       </g>
      </g>
      <g
   id="g346">
       <g
   id="id49">
        <path
   d="m 5735,13099 -441,-764 -882,0 -441,764 441,764 882,0 441,-764 z"
   id="path349"
   style="fill:#d18b47;stroke:none" />
       </g>
      </g>
      <g
   id="g351">
       <g
   id="id50">
        <path
   d="m 7058,13863 -441,-764 -882,0 -441,764 441,764 882,0 441,-764 z"
   id="path354"
   style="fill:#e8ab6f;stroke:none" />
       </g>
      </g>
      <g
   id="g356">
       <g
   id="id51">
        <path
   d="m 8381,14627 -441,-764 -882,0 -441,764 441,764 882,0 441,-764 z"
   id="path359"
   style="fill:#ffce9e;stroke:none" />
       </g>
      </g>
      <g
   id="g361">
       <g
   id="id52">
        <path
   d="m 9263,14626 -882,0 -441,764 441,764 882,0 441,-764 -441,-764 z"
   id="path364"
   style="fill:#d18b47;stroke:none" />
       </g>
      </g>
      <g
   id="g366">
       <g
   id="id53">
        <path
   d="m 10586,13863 -882,0 -441,764 441,764 882,0 441,-764 -441,-764 z"
   id="path369"
   style="fill:#ffce9e;stroke:none" />
       </g>
      </g>
      <g
   id="g371">
       <g
   id="id54">
        <path
   d="m 11909,13099 -882,0 -441,764 441,764 882,0 441,-764 -441,-764 z"
   id="path374"
   style="fill:#e8ab6f;stroke:none" />
       </g>
      </g>
      <g
   id="g376">
       <g
   id="id55">
        <path
   d="m 13232,12335 -882,0 -441,764 441,764 882,0 441,-764 -441,-764 z"
   id="path379"
   style="fill:#d18b47;stroke:none" />
       </g>
      </g>
      <g
   id="g381">
       <g
   id="id56">
        <path
   d="m 14555,11571 -882,0 -441,764 441,764 882,0 441,-764 -441,-764 z"
   id="path384"
   style="fill:#ffce9e;stroke:none" />
       </g>
      </g>
      <g
   id="g386">
       <g
   id="id57">
        <path
   d="m 15878,10808 -882,0 -441,764 441,764 882,0 441,-764 -441,-764 z"
   id="path389"
   style="fill:#e8ab6f;stroke:none" />
       </g>
      </g>
      <g
   id="g391">
       <g
   id="id58" />
      </g>
      <g
   id="g394">
       <g
   id="id59">
        <g
   id="text397"><path
     d="m 16961.292,11151.266 -328.986,0 c 7.938,-51.156 36.162,-83.79 112.896,-128.772 l 88.2,-47.628 c 87.318,-47.628 132.3,-112.014 132.3,-188.748 0,-52.038 -21.168,-100.548 -58.212,-134.064 -37.044,-33.516 -82.908,-49.392 -142.002,-49.392 -79.38,0 -138.474,28.224 -172.872,81.144 -22.05,33.516 -31.752,72.324 -33.516,135.828 l 77.616,0 c 2.646,-42.336 7.938,-67.914 18.522,-88.2 20.286,-37.926 60.858,-60.858 107.604,-60.858 70.56,0 123.48,50.274 123.48,117.306 0,49.392 -29.106,91.728 -84.672,123.48 l -81.144,45.864 c -130.536,74.088 -168.462,133.182 -175.518,270.774 l 416.304,0 0,-76.734"
     id="path4311"
     style="fill:#000000;stroke:none" /></g>
       </g>
      </g>
      <g
   id="g405">
       <g
   id="id60" />
      </g>
      <g
   id="g408">
       <g
   id="id61">
        <g
   id="text411"><path
     d="m 834.922,9412.35 9.702,0 32.634,-0.882 c 85.55391,0 129.654,38.8081 129.654,113.778 0,78.4979 -48.51008,125.244 -129.654,125.244 -84.67192,0 -126.12601,-42.3361 -131.418,-133.182 l -77.616,0 c 3.528,50.2739 12.34801,82.908 27.342,111.132 31.75197,59.9759 93.49209,90.846 179.046,90.846 128.7719,0 211.68,-76.7341 211.68,-194.922 0,-79.3799 -30.8701,-123.48 -105.84,-149.058 58.2119,-22.932 87.318,-67.0321 87.318,-129.654 0,-107.6039 -71.44212,-171.99 -190.512,-171.99 -126.12587,0 -193.158,68.7961 -195.804,201.978 l 77.616,0 c 0.882,-37.926 4.41001,-59.094 14.112,-78.498 17.63998,-34.398 56.44805,-55.566 104.958,-55.566 68.79593,0 110.25,40.5721 110.25,106.722 0,44.1 -15.87603,70.56 -50.274,84.672 -21.16798,8.82 -48.51005,12.348 -103.194,13.23 l 0,66.15"
     id="path4314"
     style="fill:#000000;stroke:none" /></g>
       </g>
      </g>
      <g
   id="g419">
       <g
   id="id62">
        <path
   d="m 3090,10044 -441,-764 -882,0 -441,764 441,764 882,0 441,-764 z"
   id="path422"
   style="fill:#ffce9e;stroke:none" />
       </g>
      </g>
      <g
   id="g424">
       <g
   id="id63">
        <path
   d="m 4413,10808 -441,-764 -882,0 -441,764 441,764 882,0 441,-764 z"
   id="path427"
   style="fill:#d18b47;stroke:none" />
       </g>
      </g>
      <g
   id="g429">
       <g
   id="id64">
        <path
   d="m 5735,11572 -441,-764 -882,0 -441,764 441,764 882,0 441,-764 z"
   id="path432"
   style="fill:#e8ab6f;stroke:none" />
       </g>
      </g>
      <g
   id="g434">
       <g
   id="id65">
        <path
   d="m 7058,12335 -441,-764 -882,0 -441,764 441,764 882,0 441,-764 z"
   id="path437"
   style="fill:#ffce9e;stroke:none" />
       </g>
      </g>
      <g
   id="g439">
       <g
   id="id66">
        <g
   id="text442"><path
     d="m 6176.5,12183.924 c 46.6335,0 86.4332,16.684 119.3994,50.051 33.3668,32.966 50.0505,72.766 50.0513,119.4 -8e-4,47.036 -16.6845,87.037 -50.0513,120.002 -32.9662,32.966 -72.7659,49.448 -119.3994,49.448 -47.0367,0 -87.0375,-16.482 -120.0024,-49.448 -32.966,-32.965 -49.4487,-72.966 -49.4483,-120.002 -4e-4,-46.634 16.4823,-86.434 49.4483,-119.4 32.9649,-33.367 72.9657,-50.051 120.0024,-50.051"
     id="path4317"
     style="fill:#ffffff;stroke:none" /></g>
       </g>
      </g>
      <g
   id="g450">
       <g
   id="id67">
        <g
   id="text453"><path
     d="m 6176.5,12183.924 c 46.6335,0 86.4332,16.684 119.3994,50.051 33.3668,32.966 50.0505,72.766 50.0513,119.4 -8e-4,47.036 -16.6845,87.037 -50.0513,120.002 -32.9662,32.966 -72.7659,49.448 -119.3994,49.448 -47.0367,0 -87.0375,-16.482 -120.0024,-49.448 -32.966,-32.965 -49.4487,-72.966 -49.4483,-120.002 -4e-4,-46.634 16.4823,-86.434 49.4483,-119.4 32.9649,-33.367 72.9657,-50.051 120.0024,-50.051"
     id="path4320"
     style="fill:#000000;stroke:none" /></g>
       </g>
      </g>
      <g
   id="g461">
       <g
   id="id68">
        <path
   d="m 8381,13099 -441,-764 -882,0 -441,764 441,764 882,0 441,-764 z"
   id="path464"
   style="fill:#d18b47;stroke:none" />
       </g>
      </g>
      <g
   id="g466">
       <g
   id="id69">
        <g
   id="text469"><path
     d="m 7497.5,12947.924 c 46.6335,0 86.4332,16.684 119.3994,50.051 33.3668,32.966 50.0505,72.766 50.0513,119.4 -8e-4,47.036 -16.6845,87.037 -50.0513,120.002 -32.9662,32.966 -72.7659,49.448 -119.3994,49.448 -47.0367,0 -87.0375,-16.482 -120.0024,-49.448 -32.966,-32.965 -49.4487,-72.966 -49.4483,-120.002 -4e-4,-46.634 16.4823,-86.434 49.4483,-119.4 32.9649,-33.367 72.9657,-50.051 120.0024,-50.051"
     id="path4323"
     style="fill:#ffffff;stroke:none" /></g>
       </g>
      </g>
      <g
   id="g477">
       <g
   id="id70">
        <g
   id="text480"><path
     d="m 7497.5,12947.924 c 46.6335,0 86.4332,16.684 119.3994,50.051 33.3668,32.966 50.0505,72.766 50.0513,119.4 -8e-4,47.036 -16.6845,87.037 -50.0513,120.002 -32.9662,32.966 -72.7659,49.448 -119.3994,49.448 -47.0367,0 -87.0375,-16.482 -120.0024,-49.448 -32.966,-32.965 -49.4487,-72.966 -49.4483,-120.002 -4e-4,-46.634 16.4823,-86.434 49.4483,-119.4 32.9649,-33.367 72.9657,-50.051 120.0024,-50.051"
     id="path4326"
     style="fill:#000000;stroke:none" /></g>
       </g>
      </g>
      <g
   id="g488">
       <g
   id="id71">
        <path
   d="m 9263,13099 -882,0 -441,764 441,764 882,0 441,-764 -441,-764 z"
   id="path491"
   style="fill:#e8ab6f;stroke:none" />
       </g>
      </g>
      <g
   id="g493">
       <g
   id="id72">
        <path
   d="m 10586,12337 -882,0 -441,764 441,764 882,0 441,-764 -441,-764 z"
   id="path496"
   style="fill:#d18b47;stroke:none" />
       </g>
      </g>
      <g
   id="g498">
       <g
   id="id73">
        <g
   id="text501"><path
     d="m 10143.5,12949.924 c 46.633,0 86.433,16.684 119.399,50.051 33.367,32.966 50.051,72.766 50.052,119.4 -10e-4,47.036 -16.685,87.037 -50.052,120.002 -32.966,32.966 -72.766,49.448 -119.399,49.448 -47.037,0 -87.037,-16.482 -120.002,-49.448 -32.9664,-32.965 -49.4491,-72.966 -49.4487,-120.002 -4e-4,-46.634 16.4823,-86.434 49.4487,-119.4 32.965,-33.367 72.965,-50.051 120.002,-50.051"
     id="path4329"
     style="fill:#ffffff;stroke:none" /></g>
       </g>
      </g>
      <g
   id="g509">
       <g
   id="id74">
        <g
   id="text512"><path
     d="m 10143.5,12949.924 c 46.633,0 86.433,16.684 119.399,50.051 33.367,32.966 50.051,72.766 50.052,119.4 -10e-4,47.036 -16.685,87.037 -50.052,120.002 -32.966,32.966 -72.766,49.448 -119.399,49.448 -47.037,0 -87.037,-16.482 -120.002,-49.448 -32.9664,-32.965 -49.4491,-72.966 -49.4487,-120.002 -4e-4,-46.634 16.4823,-86.434 49.4487,-119.4 32.965,-33.367 72.965,-50.051 120.002,-50.051"
     id="path4332"
     style="fill:#000000;stroke:none" /></g>
       </g>
      </g>
      <g
   id="g520">
       <g
   id="id75">
        <path
   d="m 11909,11571 -882,0 -441,764 441,764 882,0 441,-764 -441,-764 z"
   id="path523"
   style="fill:#ffce9e;stroke:none" />
       </g>
      </g>
      <g
   id="g525">
       <g
   id="id76">
        <g
   id="text528"><path
     d="m 11467.5,12185.924 c 46.633,0 86.433,16.684 119.399,50.051 33.367,32.966 50.051,72.766 50.052,119.4 -10e-4,47.036 -16.685,87.037 -50.052,120.002 -32.966,32.966 -72.766,49.448 -119.399,49.448 -47.037,0 -87.037,-16.482 -120.002,-49.448 -32.966,-32.965 -49.449,-72.966 -49.449,-120.002 0,-46.634 16.483,-86.434 49.449,-119.4 32.965,-33.367 72.965,-50.051 120.002,-50.051"
     id="path4335"
     style="fill:#ffffff;stroke:none" /></g>
       </g>
      </g>
      <g
   id="g536">
       <g
   id="id77">
        <g
   id="text539"><path
     d="m 11467.5,12185.924 c 46.633,0 86.433,16.684 119.399,50.051 33.367,32.966 50.051,72.766 50.052,119.4 -10e-4,47.036 -16.685,87.037 -50.052,120.002 -32.966,32.966 -72.766,49.448 -119.399,49.448 -47.037,0 -87.037,-16.482 -120.002,-49.448 -32.966,-32.965 -49.449,-72.966 -49.449,-120.002 0,-46.634 16.483,-86.434 49.449,-119.4 32.965,-33.367 72.965,-50.051 120.002,-50.051"
     id="path4338"
     style="fill:#000000;stroke:none" /></g>
       </g>
      </g>
      <g
   id="g547">
       <g
   id="id78">
        <path
   d="m 13232,10809 -882,0 -441,764 441,764 882,0 441,-764 -441,-764 z"
   id="path550"
   style="fill:#e8ab6f;stroke:none" />
       </g>
      </g>
      <g
   id="g552">
       <g
   id="id79">
        <path
   d="m 14555,10046 -882,0 -441,764 441,764 882,0 441,-764 -441,-764 z"
   id="path555"
   style="fill:#d18b47;stroke:none" />
       </g>
      </g>
      <g
   id="g557">
       <g
   id="id80">
        <path
   d="m 15878,9284 -882,0 -441,764 441,764 882,0 441,-764 -441,-764 z"
   id="path560"
   style="fill:#ffce9e;stroke:none" />
       </g>
      </g>
      <g
   id="g562">
       <g
   id="id81" />
      </g>
      <g
   id="g565">
       <g
   id="id82">
        <g
   id="text568"><path
     d="m 16709.922,9419.35 9.702,0 32.634,-0.882 c 85.554,0 129.654,38.8081 129.654,113.778 0,78.4979 -48.51,125.244 -129.654,125.244 -84.672,0 -126.126,-42.3361 -131.418,-133.182 l -77.616,0 c 3.528,50.2739 12.348,82.908 27.342,111.132 31.752,59.9759 93.492,90.846 179.046,90.846 128.772,0 211.68,-76.7341 211.68,-194.922 0,-79.3799 -30.87,-123.48 -105.84,-149.058 58.212,-22.932 87.318,-67.0321 87.318,-129.654 0,-107.6039 -71.442,-171.99 -190.512,-171.99 -126.126,0 -193.158,68.7961 -195.804,201.978 l 77.616,0 c 0.882,-37.926 4.41,-59.094 14.112,-78.498 17.64,-34.398 56.448,-55.566 104.958,-55.566 68.796,0 110.25,40.5721 110.25,106.722 0,44.1 -15.876,70.56 -50.274,84.672 -21.168,8.82 -48.51,12.348 -103.194,13.23 l 0,66.15"
     id="path4341"
     style="fill:#000000;stroke:none" /></g>
       </g>
      </g>
      <g
   id="g576">
       <g
   id="id83" />
      </g>
      <g
   id="g579">
       <g
   id="id84">
        <g
   id="text582"><path
     d="m 928.414,8026.06 0,149.94 77.616,0 0,-149.94 92.61,0 0,-69.678 -92.61,0 0,-405.72 -57.33,0 -284.004,393.372 0,82.026 263.718,0 m 0,-69.678 -195.804,0 195.804,-273.42 0,273.42"
     id="path4344"
     style="fill:#000000;stroke:none" /></g>
       </g>
      </g>
      <g
   id="g590">
       <g
   id="id85">
        <path
   d="m 3090,8522 -441,-764 -882,0 -441,764 441,764 882,0 441,-764 z"
   id="path593"
   style="fill:#d18b47;stroke:none" />
       </g>
      </g>
      <g
   id="g595">
       <g
   id="id86">
        <path
   d="m 4413,9286 -441,-764 -882,0 -441,764 441,764 882,0 441,-764 z"
   id="path598"
   style="fill:#e8ab6f;stroke:none" />
       </g>
      </g>
      <g
   id="g600">
       <g
   id="id87">
        <path
   d="m 5735,10049 -441,-764 -882,0 -441,764 441,764 882,0 441,-764 z"
   id="path603"
   style="fill:#ffce9e;stroke:none" />
       </g>
      </g>
      <g
   id="g605">
       <g
   id="id88">
        <g
   id="text608"><path
     d="m 4853.5,9897.9238 c 46.6335,6e-4 86.4332,16.6843 119.3994,50.0513 33.3668,32.9659 50.0505,72.7659 50.0513,119.3999 -8e-4,47.036 -16.6845,87.037 -50.0513,120.002 -32.9662,32.966 -72.7659,49.448 -119.3994,49.448 -47.0367,0 -87.0375,-16.482 -120.0024,-49.448 -32.966,-32.965 -49.4487,-72.966 -49.4483,-120.002 -4e-4,-46.634 16.4823,-86.434 49.4483,-119.3999 32.9649,-33.367 72.9657,-50.0507 120.0024,-50.0513"
     id="path4347"
     style="fill:#ffffff;stroke:none" /></g>
       </g>
      </g>
      <g
   id="g616">
       <g
   id="id89">
        <g
   id="text619"><path
     d="m 4853.5,9897.9238 c 46.6335,6e-4 86.4332,16.6843 119.3994,50.0513 33.3668,32.9659 50.0505,72.7659 50.0513,119.3999 -8e-4,47.036 -16.6845,87.037 -50.0513,120.002 -32.9662,32.966 -72.7659,49.448 -119.3994,49.448 -47.0367,0 -87.0375,-16.482 -120.0024,-49.448 -32.966,-32.965 -49.4487,-72.966 -49.4483,-120.002 -4e-4,-46.634 16.4823,-86.434 49.4483,-119.3999 32.9649,-33.367 72.9657,-50.0507 120.0024,-50.0513"
     id="path4350"
     style="fill:#000000;stroke:none" /></g>
       </g>
      </g>
      <g
   id="g627">
       <g
   id="id90">
        <path
   d="m 7058,10813 -441,-764 -882,0 -441,764 441,764 882,0 441,-764 z"
   id="path630"
   style="fill:#d18b47;stroke:none" />
       </g>
      </g>
      <g
   id="g632">
       <g
   id="id91">
        <path
   d="m 8381,11577 -441,-764 -882,0 -441,764 441,764 882,0 441,-764 z"
   id="path635"
   style="fill:#e8ab6f;stroke:none" />
       </g>
      </g>
      <g
   id="g637">
       <g
   id="id92">
        <path
   d="m 9263,11577 -882,0 -441,764 441,764 882,0 441,-764 -441,-764 z"
   id="path640"
   style="fill:#ffce9e;stroke:none" />
       </g>
      </g>
      <g
   id="g642">
       <g
   id="id93">
        <path
   d="m 10586,10813 -882,0 -441,764 441,764 882,0 441,-764 -441,-764 z"
   id="path645"
   style="fill:#e8ab6f;stroke:none" />
       </g>
      </g>
      <g
   id="g647">
       <g
   id="id94">
        <path
   d="m 11909,10049 -882,0 -441,764 441,764 882,0 441,-764 -441,-764 z"
   id="path650"
   style="fill:#d18b47;stroke:none" />
       </g>
      </g>
      <g
   id="g652">
       <g
   id="id95">
        <path
   d="m 13232,9285 -882,0 -441,764 441,764 882,0 441,-764 -441,-764 z"
   id="path655"
   style="fill:#ffce9e;stroke:none" />
       </g>
      </g>
      <g
   id="g657">
       <g
   id="id96">
        <g
   id="text660"><path
     d="m 12790.5,9897.9238 c 46.633,6e-4 86.433,16.6843 119.399,50.0513 33.367,32.9659 50.051,72.7659 50.052,119.3999 -10e-4,47.036 -16.685,87.037 -50.052,120.002 -32.966,32.966 -72.766,49.448 -119.399,49.448 -47.037,0 -87.037,-16.482 -120.002,-49.448 -32.966,-32.965 -49.449,-72.966 -49.449,-120.002 0,-46.634 16.483,-86.434 49.449,-119.3999 32.965,-33.367 72.965,-50.0507 120.002,-50.0513"
     id="path4353"
     style="fill:#ffffff;stroke:none" /></g>
       </g>
      </g>
      <g
   id="g668">
       <g
   id="id97">
        <g
   id="text671"><path
     d="m 12790.5,9897.9238 c 46.633,6e-4 86.433,16.6843 119.399,50.0513 33.367,32.9659 50.051,72.7659 50.052,119.3999 -10e-4,47.036 -16.685,87.037 -50.052,120.002 -32.966,32.966 -72.766,49.448 -119.399,49.448 -47.037,0 -87.037,-16.482 -120.002,-49.448 -32.966,-32.965 -49.449,-72.966 -49.449,-120.002 0,-46.634 16.483,-86.434 49.449,-119.3999 32.965,-33.367 72.965,-50.0507 120.002,-50.0513"
     id="path4356"
     style="fill:#000000;stroke:none" /></g>
       </g>
      </g>
      <g
   id="g679">
       <g
   id="id98">
        <path
   d="m 14555,8522 -882,0 -441,764 441,764 882,0 441,-764 -441,-764 z"
   id="path682"
   style="fill:#e8ab6f;stroke:none" />
       </g>
      </g>
      <g
   id="g684">
       <g
   id="id99">
        <path
   d="m 15878,7758 -882,0 -441,764 441,764 882,0 441,-764 -441,-764 z"
   id="path687"
   style="fill:#d18b47;stroke:none" />
       </g>
      </g>
      <g
   id="g689">
       <g
   id="id100" />
      </g>
      <g
   id="g692">
       <g
   id="id101">
        <g
   id="text695"><path
     d="m 16803.414,8026.06 0,149.94 77.616,0 0,-149.94 92.61,0 0,-69.678 -92.61,0 0,-405.72 -57.33,0 -284.004,393.372 0,82.026 263.718,0 m 0,-69.678 -195.804,0 195.804,-273.42 0,273.42"
     id="path4359"
     style="fill:#000000;stroke:none" /></g>
       </g>
      </g>
      <g
   id="g703">
       <g
   id="id102" />
      </g>
      <g
   id="g706">
       <g
   id="id103">
        <g
   id="text709"><path
     d="m 1059.832,6025.662 -322.812,0 -46.746,340.452 71.442,0 c 36.16196,-43.218 66.15005,-58.212 114.66,-58.212 83.78992,0 136.71,57.3301 136.71,149.94 0,89.9639 -52.03808,144.648 -136.71,144.648 -67.91393,0 -109.36802,-34.3981 -127.89,-104.958 l -77.616,0 c 10.58399,51.1559 19.40402,75.852 37.926,98.784 35.27996,47.628 98.78407,74.97 169.344,74.97 126.1259,0 214.326,-91.7281 214.326,-224.028 0,-123.4799 -82.0261,-208.152 -201.978,-208.152 -44.09996,0 -79.38004,11.466 -115.542,37.926 l 24.696,-174.636 260.19,0 0,-76.734"
     id="path4362"
     style="fill:#000000;stroke:none" /></g>
       </g>
      </g>
      <g
   id="g717">
       <g
   id="id104">
        <path
   d="m 3090,6994 -441,-764 -882,0 -441,764 441,764 882,0 441,-764 z"
   id="path720"
   style="fill:#e8ab6f;stroke:none" />
       </g>
      </g>
      <g
   id="g722">
       <g
   id="id105">
        <path
   d="m 4413,7758 -441,-764 -882,0 -441,764 441,764 882,0 441,-764 z"
   id="path725"
   style="fill:#ffce9e;stroke:none" />
       </g>
      </g>
      <g
   id="g727">
       <g
   id="id106">
        <path
   d="m 5735,8522 -441,-764 -882,0 -441,764 441,764 882,0 441,-764 z"
   id="path730"
   style="fill:#d18b47;stroke:none" />
       </g>
      </g>
      <g
   id="g732">
       <g
   id="id107">
        <g
   id="text735"><path
     d="m 4853.5,8370.9238 c 46.6335,6e-4 86.4332,16.6843 119.3994,50.0513 33.3668,32.9659 50.0505,72.7657 50.0513,119.3994 -8e-4,47.0365 -16.6845,87.0372 -50.0513,120.0025 -32.9662,32.9657 -72.7659,49.4484 -119.3994,49.4482 -47.0367,2e-4 -87.0375,-16.4825 -120.0024,-49.4482 -32.966,-32.9653 -49.4487,-72.966 -49.4483,-120.0025 -4e-4,-46.6337 16.4823,-86.4335 49.4483,-119.3994 32.9649,-33.367 72.9657,-50.0507 120.0024,-50.0513"
     id="path4365"
     style="fill:#ffffff;stroke:none" /></g>
       </g>
      </g>
      <g
   id="g743">
       <g
   id="id108">
        <g
   id="text746"><path
     d="m 4853.5,8370.9238 c 46.6335,6e-4 86.4332,16.6843 119.3994,50.0513 33.3668,32.9659 50.0505,72.7657 50.0513,119.3994 -8e-4,47.0365 -16.6845,87.0372 -50.0513,120.0025 -32.9662,32.9657 -72.7659,49.4484 -119.3994,49.4482 -47.0367,2e-4 -87.0375,-16.4825 -120.0024,-49.4482 -32.966,-32.9653 -49.4487,-72.966 -49.4483,-120.0025 -4e-4,-46.6337 16.4823,-86.4335 49.4483,-119.3994 32.9649,-33.367 72.9657,-50.0507 120.0024,-50.0513"
     id="path4368"
     style="fill:#000000;stroke:none" /></g>
       </g>
      </g>
      <g
   id="g754">
       <g
   id="id109">
        <path
   d="m 7058,9286 -441,-764 -882,0 -441,764 441,764 882,0 441,-764 z"
   id="path757"
   style="fill:#e8ab6f;stroke:none" />
       </g>
      </g>
      <g
   id="g759">
       <g
   id="id110">
        <path
   d="m 8381,10049 -441,-764 -882,0 -441,764 441,764 882,0 441,-764 z"
   id="path762"
   style="fill:#ffce9e;stroke:none" />
       </g>
      </g>
      <g
   id="g764">
       <g
   id="id111">
        <path
   d="m 9263,10049 -882,0 -441,764 441,764 882,0 441,-764 -441,-764 z"
   id="path767"
   style="fill:#d18b47;stroke:none" />
       </g>
      </g>
      <g
   id="g769">
       <g
   id="id112">
        <path
   d="m 10586,9285 -882,0 -441,764 441,764 882,0 441,-764 -441,-764 z"
   id="path772"
   style="fill:#ffce9e;stroke:none" />
       </g>
      </g>
      <g
   id="g774">
       <g
   id="id113">
        <path
   d="m 11909,8522 -882,0 -441,764 441,764 882,0 441,-764 -441,-764 z"
   id="path777"
   style="fill:#e8ab6f;stroke:none" />
       </g>
      </g>
      <g
   id="g779">
       <g
   id="id114">
        <path
   d="m 13232,7758 -882,0 -441,764 441,764 882,0 441,-764 -441,-764 z"
   id="path782"
   style="fill:#d18b47;stroke:none" />
       </g>
      </g>
      <g
   id="g784">
       <g
   id="id115">
        <g
   id="text787"><path
     d="m 12790.5,8370.9238 c 46.633,6e-4 86.433,16.6843 119.399,50.0513 33.367,32.9659 50.051,72.7657 50.052,119.3994 -10e-4,47.0365 -16.685,87.0372 -50.052,120.0025 -32.966,32.9657 -72.766,49.4484 -119.399,49.4482 -47.037,2e-4 -87.037,-16.4825 -120.002,-49.4482 -32.966,-32.9653 -49.449,-72.966 -49.449,-120.0025 0,-46.6337 16.483,-86.4335 49.449,-119.3994 32.965,-33.367 72.965,-50.0507 120.002,-50.0513"
     id="path4371"
     style="fill:#ffffff;stroke:none" /></g>
       </g>
      </g>
      <g
   id="g795">
       <g
   id="id116">
        <g
   id="text798"><path
     d="m 12790.5,8370.9238 c 46.633,6e-4 86.433,16.6843 119.399,50.0513 33.367,32.9659 50.051,72.7657 50.052,119.3994 -10e-4,47.0365 -16.685,87.0372 -50.052,120.0025 -32.966,32.9657 -72.766,49.4484 -119.399,49.4482 -47.037,2e-4 -87.037,-16.4825 -120.002,-49.4482 -32.966,-32.9653 -49.449,-72.966 -49.449,-120.0025 0,-46.6337 16.483,-86.4335 49.449,-119.3994 32.965,-33.367 72.965,-50.0507 120.002,-50.0513"
     id="path4374"
     style="fill:#000000;stroke:none" /></g>
       </g>
      </g>
      <g
   id="g806">
       <g
   id="id117">
        <path
   d="m 14555,6994 -882,0 -441,764 441,764 882,0 441,-764 -441,-764 z"
   id="path809"
   style="fill:#ffce9e;stroke:none" />
       </g>
      </g>
      <g
   id="g811">
       <g
   id="id118">
        <path
   d="m 15878,6230 -882,0 -441,764 441,764 882,0 441,-764 -441,-764 z"
   id="path814"
   style="fill:#e8ab6f;stroke:none" />
       </g>
      </g>
      <g
   id="g816">
       <g
   id="id119" />
      </g>
      <g
   id="g819">
       <g
   id="id120">
        <g
   id="text822"><path
     d="m 16934.832,6025.662 -322.812,0 -46.746,340.452 71.442,0 c 36.162,-43.218 66.15,-58.212 114.66,-58.212 83.79,0 136.71,57.3301 136.71,149.94 0,89.9639 -52.038,144.648 -136.71,144.648 -67.914,0 -109.368,-34.3981 -127.89,-104.958 l -77.616,0 c 10.584,51.1559 19.404,75.852 37.926,98.784 35.28,47.628 98.784,74.97 169.344,74.97 126.126,0 214.326,-91.7281 214.326,-224.028 0,-123.4799 -82.026,-208.152 -201.978,-208.152 -44.1,0 -79.38,11.466 -115.542,37.926 l 24.696,-174.636 260.19,0 0,-76.734"
     id="path4377"
     style="fill:#000000;stroke:none" /></g>
       </g>
      </g>
      <g
   id="g830">
       <g
   id="id121" />
      </g>
      <g
   id="g833">
       <g
   id="id122">
        <g
   id="text836"><path
     d="m 1079.236,4658.832 c -14.994,-102.3119 -82.0261,-163.17 -177.282,-163.17 -68.79593,0 -130.53604,33.5161 -167.58,89.082 -38.80796,60.8579 -56.448,137.5921 -56.448,251.37 0,104.9579 15.87604,171.9901 52.92,227.556 33.51597,50.2739 88.20007,77.616 156.996,77.616 119.0699,0 204.624,-88.2001 204.624,-210.798 0,-116.4239 -79.3801,-198.45 -191.394,-198.45 -61.73994,0 -110.25003,23.814 -143.766,69.678 0.882,-152.5858 50.27409,-237.258 139.356,-237.258 54.68395,0 92.61001,34.3981 104.958,94.374 l 77.616,0 M 891.37,4800.834 c 74.96993,0 121.716,52.0381 121.716,135.828 0,78.4979 -52.92007,135.828 -124.362,135.828 -72.32393,0 -127.008,-59.9761 -127.008,-140.238 0,-77.6159 52.92008,-131.418 129.654,-131.418"
     id="path4380"
     style="fill:#000000;stroke:none" /></g>
       </g>
      </g>
      <g
   id="g844">
       <g
   id="id123">
        <path
   d="m 3090,5467 -441,-764 -882,0 -441,764 441,764 882,0 441,-764 z"
   id="path847"
   style="fill:#ffce9e;stroke:none" />
       </g>
      </g>
      <g
   id="g849">
       <g
   id="id124">
        <path
   d="m 4413,6231 -441,-764 -882,0 -441,764 441,764 882,0 441,-764 z"
   id="path852"
   style="fill:#d18b47;stroke:none" />
       </g>
      </g>
      <g
   id="g854">
       <g
   id="id125">
        <path
   d="m 5735,6994 -441,-764 -882,0 -441,764 441,764 882,0 441,-764 z"
   id="path857"
   style="fill:#e8ab6f;stroke:none" />
       </g>
      </g>
      <g
   id="g859">
       <g
   id="id126">
        <path
   d="m 7058,7758 -441,-764 -882,0 -441,764 441,764 882,0 441,-764 z"
   id="path862"
   style="fill:#ffce9e;stroke:none" />
       </g>
      </g>
      <g
   id="g864">
       <g
   id="id127">
        <path
   d="m 8381,8522 -441,-764 -882,0 -441,764 441,764 882,0 441,-764 z"
   id="path867"
   style="fill:#d18b47;stroke:none" />
       </g>
      </g>
      <g
   id="g869">
       <g
   id="id128">
        <path
   d="m 9263,8522 -882,0 -441,764 441,764 882,0 441,-764 -441,-764 z"
   id="path872"
   style="fill:#e8ab6f;stroke:none" />
       </g>
      </g>
      <g
   id="g874">
       <g
   id="id129">
        <g
   id="text877"><path
     d="m 8853.6665,8897.5371 c 63.1162,4.021 121.6097,20.3027 175.481,48.8452 53.8695,28.544 99.6996,65.1276 137.4902,109.751 26.5322,31.358 51.4573,69.1477 74.7754,113.3691 23.718,44.2225 42.6128,91.0576 56.6846,140.5054 16.0796,57.4889 26.13,117.9926 30.1513,181.5112 4.4211,63.117 6.6322,121.6106 6.6333,175.481 l 0,131.46 c 0,-2e-4 -31.3585,-2e-4 -94.0722,0 -62.3138,-2e-4 -143.3204,-2e-4 -243.0201,0 l -404.6313,0 c -3.6186,-2e-4 -5.4276,-9.8496 -5.4273,-29.5484 0.4017,-19.699 1.8087,-35.5787 4.2212,-47.6391 1.6077,-9.6485 5.4269,-23.3171 11.4576,-41.0059 6.0298,-17.6888 16.0803,-39.1967 30.1513,-64.5239 6.4319,-12.8645 21.7086,-31.5584 45.8301,-56.0816 24.1206,-24.925 51.8598,-53.6692 83.2178,-86.2329 18.0902,-18.4926 32.1608,-41.8096 42.2119,-69.9511 10.4519,-28.141 14.874,-53.6692 13.2666,-76.5845 -14.8753,12.0609 -31.157,21.9103 -48.8452,29.5483 -85.2284,30.5537 -146.9381,74.7756 -185.1294,132.666 -2.8145,3.6184 -11.8599,19.9001 -27.1362,48.8452 -8.0408,15.2769 -14.8751,25.7293 -20.503,31.3575 -7.6387,7.6384 -18.6941,11.8596 -33.1665,12.6635 -22.5133,1.2062 -40.0011,-9.6483 -52.4634,-32.5634 -16.885,4.8243 -31.9606,6.8344 -45.227,6.0302 -22.5132,-8.4422 -38.7949,-17.4876 -48.8452,-27.1362 -20.5031,-20.5028 -33.9707,-41.0057 -40.4029,-61.5088 -6.0303,-20.5027 -9.0455,-42.6137 -9.0454,-66.333 -1e-4,-33.7692 20.9049,-78.3932 62.7149,-133.8721 49.046,-63.9204 75.1771,-112.5645 78.3935,-145.9326 -2e-4,-14.4721 1.4068,-30.7538 4.2212,-48.8452 2.4119,-12.4619 7.4371,-24.5225 15.0757,-36.1816 5.226,-8.0398 8.6431,-13.467 10.2515,-16.2818 2.0098,-3.2155 5.4269,-7.8387 10.2514,-13.8696 3.6179,-4.8235 6.633,-8.4417 9.0454,-10.8545 2.4119,-2.8134 5.427,-6.4316 9.0455,-10.8545 4.4218,-5.2255 10.0501,-11.2558 16.8847,-18.0908 -21.3072,-58.6939 -29.9506,-119.1976 -25.9302,-181.5112 80.0013,28.5441 147.1383,73.3691 201.4112,134.4751 13.2661,-45.4273 39.3972,-82.2119 78.3935,-110.354 32.1609,22.5138 57.689,52.2631 76.5845,89.248"
     id="path4383"
     style="fill:#ffffff;stroke:none" /></g>
       </g>
      </g>
      <g
   id="g885">
       <g
   id="id130">
        <g
   id="text888"><path
     d="m 8623.3101,9101.3604 c 5.2258,8.0409 7.2359,16.4832 6.0302,25.3271 -4.0206,25.7297 -18.2922,36.5842 -42.8149,32.5635 -7.2367,-1.2056 -13.066,-3.6177 -17.4878,-7.2364 -1.6084,2.0107 -4.0205,6.4328 -7.2363,13.2667 -4.4226,12.865 -12.865,17.2872 -25.3272,13.2666 -12.4629,-4.8238 -17.2871,-13.8692 -14.4726,-27.1363 18.0904,-46.2315 50.8549,-77.9909 98.2934,-95.2783 13.6682,-4.0196 22.7136,6e-4 27.1363,12.0605 4.8237,12.8652 1.2056,21.7096 -10.8545,26.5333 -2.4126,1.2066 -4.6237,2.4126 -6.6333,3.6181 -2.0106,0.8046 -4.2217,1.8097 -6.6333,3.0152 m -179.0992,287.644 c -11.6587,7.2366 -18.694,16.885 -21.1059,28.9453 0.4018,13.2668 -5.8295,20.5032 -18.6939,21.709 -14.0708,1.6083 -21.3071,-4.422 -21.709,-18.0908 1.6079,-26.533 13.4675,-47.6389 35.5787,-63.3179 10.4522,-8.4421 20.1006,-7.638 28.9453,2.4121 8.8441,10.8548 7.8391,20.3022 -3.0152,28.3423 m 409.4556,-491.4673 c 63.1162,4.021 121.6097,20.3027 175.481,48.8452 53.8695,28.544 99.6996,65.1276 137.4902,109.751 26.5322,31.358 51.4573,69.1477 74.7754,113.3691 23.718,44.2225 42.6128,91.0576 56.6846,140.5054 16.0796,57.4889 26.13,117.9926 30.1513,181.5112 4.4211,63.117 6.6322,121.6106 6.6333,175.481 l 0,131.46 c 0,-2e-4 -31.3585,-2e-4 -94.0722,0 -62.3138,-2e-4 -143.3204,-2e-4 -243.0201,0 l -404.6313,0 c -3.6186,-2e-4 -5.4276,-9.8496 -5.4273,-29.5484 0.4017,-19.699 1.8087,-35.5787 4.2212,-47.6391 1.6077,-9.6485 5.4269,-23.3171 11.4576,-41.0059 6.0298,-17.6888 16.0803,-39.1967 30.1513,-64.5239 6.4319,-12.8645 21.7086,-31.5584 45.8301,-56.0816 24.1206,-24.925 51.8598,-53.6692 83.2178,-86.2329 18.0902,-18.4926 32.1608,-41.8096 42.2119,-69.9511 10.4519,-28.141 14.874,-53.6692 13.2666,-76.5845 -14.8753,12.0609 -31.157,21.9103 -48.8452,29.5483 -85.2284,30.5537 -146.9381,74.7756 -185.1294,132.666 -2.8145,3.6184 -11.8599,19.9001 -27.1362,48.8452 -8.0408,15.2769 -14.8751,25.7293 -20.503,31.3575 -7.6387,7.6384 -18.6941,11.8596 -33.1665,12.6635 -22.5133,1.2062 -40.0011,-9.6483 -52.4634,-32.5634 -16.885,4.8243 -31.9606,6.8344 -45.227,6.0302 -22.5132,-8.4422 -38.7949,-17.4876 -48.8452,-27.1362 -20.5031,-20.5028 -33.9707,-41.0057 -40.4029,-61.5088 -6.0303,-20.5027 -9.0455,-42.6137 -9.0454,-66.333 -1e-4,-33.7692 20.9049,-78.3932 62.7149,-133.8721 49.046,-63.9204 75.1771,-112.5645 78.3935,-145.9326 -2e-4,-14.4721 1.4068,-30.7538 4.2212,-48.8452 2.4119,-12.4619 7.4371,-24.5225 15.0757,-36.1816 5.226,-8.0398 8.6431,-13.467 10.2515,-16.2818 2.0098,-3.2155 5.4269,-7.8387 10.2514,-13.8696 3.6179,-4.8235 6.633,-8.4417 9.0454,-10.8545 2.4119,-2.8134 5.427,-6.4316 9.0455,-10.8545 4.4218,-5.2255 10.0501,-11.2558 16.8847,-18.0908 -21.3072,-58.6939 -29.9506,-119.1976 -25.9302,-181.5112 80.0013,28.5441 147.1383,73.3691 201.4112,134.4751 13.2661,-45.4273 39.3972,-82.2119 78.3935,-110.354 32.1609,22.5138 57.689,52.2631 76.5845,89.248 m 408.2495,858.1079 c -0.4031,-1e-4 -10e-4,-11.0556 1.2061,-33.1665 1.205,-21.709 1.808,-45.227 1.8091,-70.5542 0.4009,-50.2522 0.4009,-102.1125 0,-155.581 -0.4031,-53.8703 -7.6394,-107.5396 -21.709,-161.0083 -13.6697,-51.458 -28.7453,-95.2779 -45.2271,-131.46 -16.4837,-36.5832 -34.3735,-68.1416 -53.6694,-94.6753 -28.9462,-43.4174 -68.344,-80.202 -118.1934,-110.354 -49.851,-30.1507 -101.9123,-49.8495 -156.1841,-59.0967 3.6175,19.6996 5.2256,38.9965 4.8243,57.8906 -0.8047,14.4734 -7.639,21.7097 -20.503,21.709 -14.8753,7e-4 -21.5086,-7.2356 -19.8999,-21.709 1.2055,-53.0656 -17.6894,-98.4936 -56.6845,-136.2841 -30.554,32.1622 -47.0367,69.5499 -49.4483,112.1631 -0.8045,14.0713 -8.0409,20.3025 -21.709,18.6938 -12.865,-0.4013 -19.2973,-7.8387 -19.2968,-22.312 -5e-4,7e-4 0.4015,-1.6074 1.206,-4.8242 -16.4832,5.2269 -33.77,12.6642 -51.8603,22.312 -11.659,8.041 -21.1064,6.0309 -28.3423,-6.0303 -7.2368,-12.0598 -4.0206,-21.5073 9.6484,-28.3423 17.2864,-8.8437 30.3519,-15.4769 39.1968,-19.8999 -34.574,-35.3768 -73.9717,-63.9201 -118.1934,-85.6299 4.8239,55.8813 20.1006,108.7467 45.8301,158.5962 6.8339,10.4532 5.2259,19.6996 -4.8242,27.7393 -11.2569,8.845 -20.7043,7.438 -28.3423,-4.2212 -2.8145,-4.0195 -6.8346,-11.2559 -12.0605,-21.709 -8.4428,8.443 -14.071,14.6743 -16.8848,18.6939 -2.8145,3.6188 -7.8397,11.6591 -15.0757,24.1211 -6.8346,12.4631 -11.8598,22.7146 -15.0757,30.7543 -3.6184,10.0511 -5.2265,18.2924 -4.8242,24.7242 0.8038,6.0308 1.4068,12.8651 1.8091,20.5029 -3.6185,23.7196 -11.8598,46.0316 -24.7241,66.936 -12.4628,20.9054 -28.5436,46.4336 -48.2422,76.5845 -18.8951,28.9457 -33.3677,50.6547 -43.418,65.127 -10.0506,14.4729 -17.6889,32.9658 -22.915,55.4785 -3.6183,13.6689 -3.6183,30.3526 0,50.0512 3.618,19.2971 11.4573,34.3728 23.518,45.2271 18.4927,18.895 36.3825,27.5384 53.6695,25.9302 5.628,10e-5 13.0653,-2.211 22.312,-6.6333 9.6482,-4.4221 17.0855,-12.8644 22.312,-25.3272 10.4522,-22.9148 19.0956,-34.3723 25.9302,-34.3725 10.0501,2e-4 15.4774,5.6284 16.2817,16.8847 -3e-4,2.4123 -3.2164,12.4628 -9.6484,30.1514 -3.6185,8.0405 -8.4427,16.4829 -14.4727,25.3271 -7.6386,10.4527 -11.0558,14.8749 -10.2514,13.2666 6.432,22.9152 17.0854,26.9354 31.9604,12.0606 4.4219,-4.4221 9.4471,-12.6634 15.0757,-24.7241 5.6279,-12.0604 14.4723,-28.3421 26.5332,-48.8452 14.0703,-23.7189 29.1459,-43.0158 45.227,-57.8907 16.0804,-14.8744 30.352,-26.9349 42.815,-36.1816 7.2359,-5.2259 16.0803,-11.2562 26.5332,-18.0908 10.452,-6.834 24.5226,-13.8693 42.2119,-21.106 14.0701,-5.6279 29.5478,-12.4622 46.4331,-20.5029 17.2862,-8.442 32.5629,-19.0955 45.8301,-31.9605 18.4922,-18.0904 32.7638,-40.4024 42.8149,-66.936 5.2256,-14.8742 7.2357,-33.166 6.0303,-54.8755 -3.6188,-13.6681 3.2155,-20.5024 20.5029,-20.5029 12.8639,5e-4 20.1002,6.6338 21.709,19.8999 -7e-4,45.4285 -12.8653,86.8363 -38.5937,124.2236 8.4417,25.7295 10.6528,53.8708 6.6333,84.4238 -3.6189,24.5234 -12.2622,50.8556 -25.9302,78.9966 -13.2672,27.7395 -40.4034,58.6948 -81.4087,92.8662 -83.2182,69.1472 -122.616,140.3044 -118.1934,213.4717 -4e-4,-1e-4 34.1711,-1e-4 102.5147,0 68.7445,-1e-4 133.2684,-1e-4 193.5718,0 l 329.8559,0"
     id="path4386"
     style="fill:#000000;stroke:none" /></g>
       </g>
      </g>
      <g
   id="g896">
       <g
   id="id131">
        <path
   d="m 10586,7758 -882,0 -441,764 441,764 882,0 441,-764 -441,-764 z"
   id="path899"
   style="fill:#d18b47;stroke:none" />
       </g>
      </g>
      <g
   id="g901">
       <g
   id="id132">
        <path
   d="m 11909,6992 -882,0 -441,764 441,764 882,0 441,-764 -441,-764 z"
   id="path904"
   style="fill:#ffce9e;stroke:none" />
       </g>
      </g>
      <g
   id="g906">
       <g
   id="id133">
        <path
   d="m 13232,6230 -882,0 -441,764 441,764 882,0 441,-764 -441,-764 z"
   id="path909"
   style="fill:#e8ab6f;stroke:none" />
       </g>
      </g>
      <g
   id="g911">
       <g
   id="id134">
        <path
   d="m 14555,5467 -882,0 -441,764 441,764 882,0 441,-764 -441,-764 z"
   id="path914"
   style="fill:#d18b47;stroke:none" />
       </g>
      </g>
      <g
   id="g916">
       <g
   id="id135">
        <path
   d="m 15878,4703 -882,0 -441,764 441,764 882,0 441,-764 -441,-764 z"
   id="path919"
   style="fill:#ffce9e;stroke:none" />
       </g>
      </g>
      <g
   id="g921">
       <g
   id="id136" />
      </g>
      <g
   id="g924">
       <g
   id="id137">
        <g
   id="text927"><path
     d="m 16954.236,4658.832 c -14.994,-102.3119 -82.026,-163.17 -177.282,-163.17 -68.796,0 -130.536,33.5161 -167.58,89.082 -38.808,60.8579 -56.448,137.5921 -56.448,251.37 0,104.9579 15.876,171.9901 52.92,227.556 33.516,50.2739 88.2,77.616 156.996,77.616 119.07,0 204.624,-88.2001 204.624,-210.798 0,-116.4239 -79.38,-198.45 -191.394,-198.45 -61.74,0 -110.25,23.814 -143.766,69.678 0.882,-152.5858 50.274,-237.258 139.356,-237.258 54.684,0 92.61,34.3981 104.958,94.374 l 77.616,0 m -187.866,142.002 c 74.97,0 121.716,52.0381 121.716,135.828 0,78.4979 -52.92,135.828 -124.362,135.828 -72.324,0 -127.008,-59.9761 -127.008,-140.238 0,-77.6159 52.92,-131.418 129.654,-131.418"
     id="path4389"
     style="fill:#000000;stroke:none" /></g>
       </g>
      </g>
      <g
   id="g935">
       <g
   id="id138" />
      </g>
      <g
   id="g938">
       <g
   id="id139">
        <g
   id="text941"><path
     d="m 2421.64,3732.662 -418.068,0 0,76.734 337.806,0 C 2192.3201,4021.9578 2131.462,4152.4942 2084.716,4358 l 82.908,0 c 34.398,-200.2138 112.8961,-372.2042 254.016,-560.07 l 0,-65.268"
     id="path4392"
     style="fill:#000000;stroke:none" /></g>
       </g>
      </g>
      <g
   id="g949">
       <g
   id="id140">
        <path
   d="m 4413,4703 -441,-764 -882,0 -441,764 441,764 882,0 441,-764 z"
   id="path952"
   style="fill:#e8ab6f;stroke:none" />
       </g>
      </g>
      <g
   id="g954">
       <g
   id="id141">
        <path
   d="m 5735,5467 -441,-764 -882,0 -441,764 441,764 882,0 441,-764 z"
   id="path957"
   style="fill:#ffce9e;stroke:none" />
       </g>
      </g>
      <g
   id="g959">
       <g
   id="id142">
        <path
   d="m 7058,6231 -441,-764 -882,0 -441,764 441,764 882,0 441,-764 z"
   id="path962"
   style="fill:#d18b47;stroke:none" />
       </g>
      </g>
      <g
   id="g964">
       <g
   id="id143">
        <g
   id="text967"><path
     d="m 6176.5,6078.9238 c 46.6335,6e-4 86.4332,16.6843 119.3994,50.0513 33.3668,32.9659 50.0505,72.7657 50.0513,119.3994 -8e-4,47.0365 -16.6845,87.0372 -50.0513,120.0025 -32.9662,32.9657 -72.7659,49.4484 -119.3994,49.4482 -47.0367,2e-4 -87.0375,-16.4825 -120.0024,-49.4482 -32.966,-32.9653 -49.4487,-72.966 -49.4483,-120.0025 -4e-4,-46.6337 16.4823,-86.4335 49.4483,-119.3994 32.9649,-33.367 72.9657,-50.0507 120.0024,-50.0513"
     id="path4395"
     style="fill:#ffffff;stroke:none" /></g>
       </g>
      </g>
      <g
   id="g975">
       <g
   id="id144">
        <g
   id="text978"><path
     d="m 6176.5,6078.9238 c 46.6335,6e-4 86.4332,16.6843 119.3994,50.0513 33.3668,32.9659 50.0505,72.7657 50.0513,119.3994 -8e-4,47.0365 -16.6845,87.0372 -50.0513,120.0025 -32.9662,32.9657 -72.7659,49.4484 -119.3994,49.4482 -47.0367,2e-4 -87.0375,-16.4825 -120.0024,-49.4482 -32.966,-32.9653 -49.4487,-72.966 -49.4483,-120.0025 -4e-4,-46.6337 16.4823,-86.4335 49.4483,-119.3994 32.9649,-33.367 72.9657,-50.0507 120.0024,-50.0513"
     id="path4398"
     style="fill:#000000;stroke:none" /></g>
       </g>
      </g>
      <g
   id="g986">
       <g
   id="id145">
        <path
   d="m 8381,6994 -441,-764 -882,0 -441,764 441,764 882,0 441,-764 z"
   id="path989"
   style="fill:#e8ab6f;stroke:none" />
       </g>
      </g>
      <g
   id="g991">
       <g
   id="id146">
        <path
   d="m 9263,6994 -882,0 -441,764 441,764 882,0 441,-764 -441,-764 z"
   id="path994"
   style="fill:#ffce9e;stroke:none" />
       </g>
      </g>
      <g
   id="g996">
       <g
   id="id147">
        <path
   d="m 10586,6230 -882,0 -441,764 441,764 882,0 441,-764 -441,-764 z"
   id="path999"
   style="fill:#e8ab6f;stroke:none" />
       </g>
      </g>
      <g
   id="g1001">
       <g
   id="id148">
        <path
   d="m 11909,5467 -882,0 -441,764 441,764 882,0 441,-764 -441,-764 z"
   id="path1004"
   style="fill:#d18b47;stroke:none" />
       </g>
      </g>
      <g
   id="g1006">
       <g
   id="id149">
        <g
   id="text1009"><path
     d="m 11467.5,6078.9238 c 46.633,6e-4 86.433,16.6843 119.399,50.0513 33.367,32.9659 50.051,72.7657 50.052,119.3994 -10e-4,47.0365 -16.685,87.0372 -50.052,120.0025 -32.966,32.9657 -72.766,49.4484 -119.399,49.4482 -47.037,2e-4 -87.037,-16.4825 -120.002,-49.4482 -32.966,-32.9653 -49.449,-72.966 -49.449,-120.0025 0,-46.6337 16.483,-86.4335 49.449,-119.3994 32.965,-33.367 72.965,-50.0507 120.002,-50.0513"
     id="path4401"
     style="fill:#ffffff;stroke:none" /></g>
       </g>
      </g>
      <g
   id="g1017">
       <g
   id="id150">
        <g
   id="text1020"><path
     d="m 11467.5,6078.9238 c 46.633,6e-4 86.433,16.6843 119.399,50.0513 33.367,32.9659 50.051,72.7657 50.052,119.3994 -10e-4,47.0365 -16.685,87.0372 -50.052,120.0025 -32.966,32.9657 -72.766,49.4484 -119.399,49.4482 -47.037,2e-4 -87.037,-16.4825 -120.002,-49.4482 -32.966,-32.9653 -49.449,-72.966 -49.449,-120.0025 0,-46.6337 16.483,-86.4335 49.449,-119.3994 32.965,-33.367 72.965,-50.0507 120.002,-50.0513"
     id="path4404"
     style="fill:#000000;stroke:none" /></g>
       </g>
      </g>
      <g
   id="g1028">
       <g
   id="id151">
        <path
   d="m 13232,4703 -882,0 -441,764 441,764 882,0 441,-764 -441,-764 z"
   id="path1031"
   style="fill:#ffce9e;stroke:none" />
       </g>
      </g>
      <g
   id="g1033">
       <g
   id="id152">
        <path
   d="m 14555,3939 -882,0 -441,764 441,764 882,0 441,-764 -441,-764 z"
   id="path1036"
   style="fill:#e8ab6f;stroke:none" />
       </g>
      </g>
      <g
   id="g1038">
       <g
   id="id153" />
      </g>
      <g
   id="g1041">
       <g
   id="id154">
        <g
   id="text1044"><path
     d="m 15650.64,3732.662 -418.068,0 0,76.734 337.806,0 c -149.058,212.5618 -209.916,343.0982 -256.662,548.604 l 82.908,0 c 34.398,-200.2138 112.896,-372.2042 254.016,-560.07 l 0,-65.268"
     id="path4407"
     style="fill:#000000;stroke:none" /></g>
       </g>
      </g>
      <g
   id="g1052">
       <g
   id="id155" />
      </g>
      <g
   id="g1055">
       <g
   id="id156">
        <g
   id="text1058"><path
     d="m 3630.862,3267.014 c 64.3859,-38.808 85.554,-70.5601 85.554,-129.654 0,-97.9019 -76.7341,-166.698 -187.866,-166.698 -110.2499,0 -187.866,68.7961 -187.866,166.698 0,58.2119 21.1681,89.964 84.672,129.654 -71.4419,34.398 -106.722,86.4361 -106.722,155.232 0,114.6599 86.4361,194.04 209.916,194.04 123.4799,0 209.916,-79.3801 209.916,-193.158 0,-69.6779 -35.2801,-121.716 -107.604,-156.114 M 3528.55,3039.458 c 66.1499,0 108.486,38.8081 108.486,99.666 0,58.2119 -43.2181,97.02 -108.486,97.02 -65.2679,0 -108.486,-38.8081 -108.486,-97.902 0,-59.9759 43.2181,-98.784 108.486,-98.784 m 0,261.954 c 77.6159,0 130.536,49.3921 130.536,122.598 0,74.0879 -52.9201,123.48 -132.3,123.48 -75.8519,0 -128.772,-50.2741 -128.772,-123.48 0,-73.2059 52.9201,-122.598 130.536,-122.598"
     id="path4410"
     style="fill:#000000;stroke:none" /></g>
       </g>
      </g>
      <g
   id="g1066">
       <g
   id="id157">
        <path
   d="m 5735,3939 -441,-764 -882,0 -441,764 441,764 882,0 441,-764 z"
   id="path1069"
   style="fill:#d18b47;stroke:none" />
       </g>
      </g>
      <g
   id="g1071">
       <g
   id="id158">
        <path
   d="m 7058,4703 -441,-764 -882,0 -441,764 441,764 882,0 441,-764 z"
   id="path1074"
   style="fill:#e8ab6f;stroke:none" />
       </g>
      </g>
      <g
   id="g1076">
       <g
   id="id159">
        <path
   d="m 8381,5467 -441,-764 -882,0 -441,764 441,764 882,0 441,-764 z"
   id="path1079"
   style="fill:#ffce9e;stroke:none" />
       </g>
      </g>
      <g
   id="g1081">
       <g
   id="id160">
        <g
   id="text1084"><path
     d="m 7497.5,5315.9238 c 46.6335,6e-4 86.4332,16.6843 119.3994,50.0513 33.3668,32.9659 50.0505,72.7657 50.0513,119.3994 -8e-4,47.0365 -16.6845,87.0372 -50.0513,120.0025 -32.9662,32.9657 -72.7659,49.4484 -119.3994,49.4482 -47.0367,2e-4 -87.0375,-16.4825 -120.0024,-49.4482 -32.966,-32.9653 -49.4487,-72.966 -49.4483,-120.0025 -4e-4,-46.6337 16.4823,-86.4335 49.4483,-119.3994 32.9649,-33.367 72.9657,-50.0507 120.0024,-50.0513"
     id="path4413"
     style="fill:#ffffff;stroke:none" /></g>
       </g>
      </g>
      <g
   id="g1092">
       <g
   id="id161">
        <g
   id="text1095"><path
     d="m 7497.5,5315.9238 c 46.6335,6e-4 86.4332,16.6843 119.3994,50.0513 33.3668,32.9659 50.0505,72.7657 50.0513,119.3994 -8e-4,47.0365 -16.6845,87.0372 -50.0513,120.0025 -32.9662,32.9657 -72.7659,49.4484 -119.3994,49.4482 -47.0367,2e-4 -87.0375,-16.4825 -120.0024,-49.4482 -32.966,-32.9653 -49.4487,-72.966 -49.4483,-120.0025 -4e-4,-46.6337 16.4823,-86.4335 49.4483,-119.3994 32.9649,-33.367 72.9657,-50.0507 120.0024,-50.0513"
     id="path4416"
     style="fill:#000000;stroke:none" /></g>
       </g>
      </g>
      <g
   id="g1103">
       <g
   id="id162">
        <path
   d="m 9263,5467 -882,0 -441,764 441,764 882,0 441,-764 -441,-764 z"
   id="path1106"
   style="fill:#d18b47;stroke:none" />
       </g>
      </g>
      <g
   id="g1108">
       <g
   id="id163">
        <path
   d="m 10586,4703 -882,0 -441,764 441,764 882,0 441,-764 -441,-764 z"
   id="path1111"
   style="fill:#ffce9e;stroke:none" />
       </g>
      </g>
      <g
   id="g1113">
       <g
   id="id164">
        <g
   id="text1116"><path
     d="m 10143.5,5315.9238 c 46.633,6e-4 86.433,16.6843 119.399,50.0513 33.367,32.9659 50.051,72.7657 50.052,119.3994 -10e-4,47.0365 -16.685,87.0372 -50.052,120.0025 -32.966,32.9657 -72.766,49.4484 -119.399,49.4482 -47.037,2e-4 -87.037,-16.4825 -120.002,-49.4482 -32.9664,-32.9653 -49.4491,-72.966 -49.4487,-120.0025 -4e-4,-46.6337 16.4823,-86.4335 49.4487,-119.3994 32.965,-33.367 72.965,-50.0507 120.002,-50.0513"
     id="path4419"
     style="fill:#ffffff;stroke:none" /></g>
       </g>
      </g>
      <g
   id="g1124">
       <g
   id="id165">
        <g
   id="text1127"><path
     d="m 10143.5,5315.9238 c 46.633,6e-4 86.433,16.6843 119.399,50.0513 33.367,32.9659 50.051,72.7657 50.052,119.3994 -10e-4,47.0365 -16.685,87.0372 -50.052,120.0025 -32.966,32.9657 -72.766,49.4484 -119.399,49.4482 -47.037,2e-4 -87.037,-16.4825 -120.002,-49.4482 -32.9664,-32.9653 -49.4491,-72.966 -49.4487,-120.0025 -4e-4,-46.6337 16.4823,-86.4335 49.4487,-119.3994 32.965,-33.367 72.965,-50.0507 120.002,-50.0513"
     id="path4422"
     style="fill:#000000;stroke:none" /></g>
       </g>
      </g>
      <g
   id="g1135">
       <g
   id="id166">
        <path
   d="m 11909,3939 -882,0 -441,764 441,764 882,0 441,-764 -441,-764 z"
   id="path1138"
   style="fill:#e8ab6f;stroke:none" />
       </g>
      </g>
      <g
   id="g1140">
       <g
   id="id167">
        <path
   d="m 13232,3175 -882,0 -441,764 441,764 882,0 441,-764 -441,-764 z"
   id="path1143"
   style="fill:#d18b47;stroke:none" />
       </g>
      </g>
      <g
   id="g1145">
       <g
   id="id168" />
      </g>
      <g
   id="g1148">
       <g
   id="id169">
        <g
   id="text1151"><path
     d="m 14213.862,3267.014 c 64.386,-38.808 85.554,-70.5601 85.554,-129.654 0,-97.9019 -76.734,-166.698 -187.866,-166.698 -110.25,0 -187.866,68.7961 -187.866,166.698 0,58.2119 21.168,89.964 84.672,129.654 -71.442,34.398 -106.722,86.4361 -106.722,155.232 0,114.6599 86.436,194.04 209.916,194.04 123.48,0 209.916,-79.3801 209.916,-193.158 0,-69.6779 -35.28,-121.716 -107.604,-156.114 m -102.312,-227.556 c 66.15,0 108.486,38.8081 108.486,99.666 0,58.2119 -43.218,97.02 -108.486,97.02 -65.268,0 -108.486,-38.8081 -108.486,-97.902 0,-59.9759 43.218,-98.784 108.486,-98.784 m 0,261.954 c 77.616,0 130.536,49.3921 130.536,122.598 0,74.0879 -52.92,123.48 -132.3,123.48 -75.852,0 -128.772,-50.2741 -128.772,-123.48 0,-73.2059 52.92,-122.598 130.536,-122.598"
     id="path4425"
     style="fill:#000000;stroke:none" /></g>
       </g>
      </g>
      <g
   id="g1159">
       <g
   id="id170" />
      </g>
      <g
   id="g1162">
       <g
   id="id171">
        <g
   id="text1165"><path
     d="m 4655.746,2689.116 c 14.994,102.3119 82.0261,163.17 177.282,163.17 68.7959,0 131.418,-33.5161 167.58,-89.082 39.69,-60.8579 57.33,-137.5921 57.33,-251.37 0,-104.9579 -15.876,-171.9901 -52.92,-227.556 -34.398,-50.2739 -89.0821,-77.616 -157.878,-77.616 -119.0699,0 -204.624,88.2001 -204.624,210.798 0,116.4239 79.3801,198.45 192.276,198.45 59.0939,0 102.312,-21.168 142.884,-69.678 -0.882,152.5858 -50.2741,237.258 -139.356,237.258 -54.6839,0 -92.61,-34.3981 -104.958,-94.374 l -77.616,0 m 190.512,-414.54 c 72.3239,0 127.008,59.9761 127.008,141.12 0,76.7339 -53.8021,131.418 -129.654,131.418 -74.9699,0 -121.716,-52.0381 -121.716,-135.828 0,-79.3799 52.9201,-136.71 124.362,-136.71"
     id="path4428"
     style="fill:#000000;stroke:none" /></g>
       </g>
      </g>
      <g
   id="g1173">
       <g
   id="id172">
        <path
   d="m 7058,3176 -441,-764 -882,0 -441,764 441,764 882,0 441,-764 z"
   id="path1176"
   style="fill:#ffce9e;stroke:none" />
       </g>
      </g>
      <g
   id="g1178">
       <g
   id="id173">
        <path
   d="m 8381,3939 -441,-764 -882,0 -441,764 441,764 882,0 441,-764 z"
   id="path1181"
   style="fill:#d18b47;stroke:none" />
       </g>
      </g>
      <g
   id="g1183">
       <g
   id="id174">
        <path
   d="m 9263,3939 -882,0 -441,764 441,764 882,0 441,-764 -441,-764 z"
   id="path1186"
   style="fill:#e8ab6f;stroke:none" />
       </g>
      </g>
      <g
   id="g1188">
       <g
   id="id175">
        <path
   d="m 10586,3175 -882,0 -441,764 441,764 882,0 441,-764 -441,-764 z"
   id="path1191"
   style="fill:#d18b47;stroke:none" />
       </g>
      </g>
      <g
   id="g1193">
       <g
   id="id176">
        <path
   d="m 11909,2412 -882,0 -441,764 441,764 882,0 441,-764 -441,-764 z"
   id="path1196"
   style="fill:#ffce9e;stroke:none" />
       </g>
      </g>
      <g
   id="g1198">
       <g
   id="id177" />
      </g>
      <g
   id="g1201">
       <g
   id="id178">
        <g
   id="text1204"><path
     d="m 12590.746,2689.116 c 14.994,102.3119 82.026,163.17 177.282,163.17 68.796,0 131.418,-33.5161 167.58,-89.082 39.69,-60.8579 57.33,-137.5921 57.33,-251.37 0,-104.9579 -15.876,-171.9901 -52.92,-227.556 -34.398,-50.2739 -89.082,-77.616 -157.878,-77.616 -119.07,0 -204.624,88.2001 -204.624,210.798 0,116.4239 79.38,198.45 192.276,198.45 59.094,0 102.312,-21.168 142.884,-69.678 -0.882,152.5858 -50.274,237.258 -139.356,237.258 -54.684,0 -92.61,-34.3981 -104.958,-94.374 l -77.616,0 m 190.512,-414.54 c 72.324,0 127.008,59.9761 127.008,141.12 0,76.7339 -53.802,131.418 -129.654,131.418 -74.97,0 -121.716,-52.0381 -121.716,-135.828 0,-79.3799 52.92,-136.71 124.362,-136.71"
     id="path4431"
     style="fill:#000000;stroke:none" /></g>
       </g>
      </g>
      <g
   id="g1212">
       <g
   id="id179" />
      </g>
      <g
   id="g1215">
       <g
   id="id180">
        <g
   id="text1218"><path
     d="m 5912.438,1620.59 0,445.41 77.616,0 0,-625.338 -51.156,0 c -27.342,96.1379 -44.9821,109.368 -164.934,124.362 l 0,55.566 138.474,0"
     id="path4434"
     style="fill:#000000;stroke:none" /><path
     d="m 6417.507,1440.662 c -58.2119,0 -111.132,25.578 -143.766,68.796 -40.5719,54.6839 -60.858,138.4741 -60.858,254.016 0,210.7978 70.5602,322.812 204.624,322.812 132.2999,0 204.624,-112.0142 204.624,-317.52 0,-121.7159 -19.404,-202.8601 -60.858,-259.308 -32.6339,-44.1 -84.672,-68.796 -143.766,-68.796 m 0,68.796 c 83.7899,0 125.244,84.6722 125.244,252.252 0,177.2818 -40.5721,260.19 -127.008,260.19 -82.0259,0 -123.48,-86.4362 -123.48,-257.544 0,-171.1078 41.4541,-254.898 125.244,-254.898"
     id="path4436"
     style="fill:#000000;stroke:none" /></g>
       </g>
      </g>
      <g
   id="g1226">
       <g
   id="id181">
        <path
   d="m 8381,2412 -441,-764 -882,0 -441,764 441,764 882,0 441,-764 z"
   id="path1229"
   style="fill:#e8ab6f;stroke:none" />
       </g>
      </g>
      <g
   id="g1231">
       <g
   id="id182">
        <path
   d="m 9263,2412 -882,0 -441,764 441,764 882,0 441,-764 -441,-764 z"
   id="path1234"
   style="fill:#ffce9e;stroke:none" />
       </g>
      </g>
      <g
   id="g1236">
       <g
   id="id183">
        <path
   d="m 10586,1648 -882,0 -441,764 441,764 882,0 441,-764 -441,-764 z"
   id="path1239"
   style="fill:#e8ab6f;stroke:none" />
       </g>
      </g>
      <g
   id="g1241">
       <g
   id="id184" />
      </g>
      <g
   id="g1244">
       <g
   id="id185">
        <g
   id="text1247"><path
     d="m 11204.438,1620.59 0,445.41 77.616,0 0,-625.338 -51.156,0 c -27.342,96.1379 -44.982,109.368 -164.934,124.362 l 0,55.566 138.474,0"
     id="path4439"
     style="fill:#000000;stroke:none" /><path
     d="m 11709.507,1440.662 c -58.212,0 -111.132,25.578 -143.766,68.796 -40.572,54.6839 -60.858,138.4741 -60.858,254.016 0,210.7978 70.56,322.812 204.624,322.812 132.3,0 204.624,-112.0142 204.624,-317.52 0,-121.7159 -19.404,-202.8601 -60.858,-259.308 -32.634,-44.1 -84.672,-68.796 -143.766,-68.796 m 0,68.796 c 83.79,0 125.244,84.6722 125.244,252.252 0,177.2818 -40.572,260.19 -127.008,260.19 -82.026,0 -123.48,-86.4362 -123.48,-257.544 0,-171.1078 41.454,-254.898 125.244,-254.898"
     id="path4441"
     style="fill:#000000;stroke:none" /></g>
       </g>
      </g>
      <g
   id="g1255">
       <g
   id="id186" />
      </g>
      <g
   id="g1258">
       <g
   id="id187">
        <g
   id="text1261"><path
     d="m 7233.438,856.59 0,445.41 77.616,0 0,-625.338 -51.156,0 c -27.342,96.1379 -44.9821,109.36801 -164.934,124.362 l 0,55.566 138.474,0"
     id="path4444"
     style="fill:#000000;stroke:none" /><path
     d="m 7724.395,856.59 0,445.41 77.616,0 0,-625.338 -51.156,0 c -27.3419,96.1379 -44.9821,109.36801 -164.934,124.362 l 0,55.566 138.474,0"
     id="path4446"
     style="fill:#000000;stroke:none" /></g>
       </g>
      </g>
      <g
   id="g1269">
       <g
   id="id188">
        <path
   d="m 9263,884 -882,0 -441,764 441,764 882,0 441,-764 -441,-764 z"
   id="path1272"
   style="fill:#d18b47;stroke:none" />
       </g>
      </g>
      <g
   id="g1274">
       <g
   id="id189" />
      </g>
      <g
   id="g1277">
       <g
   id="id190">
        <g
   id="text1280"><path
     d="m 9879.438,856.59 0,445.41 77.616,0 0,-625.338 -51.156,0 c -27.342,96.1379 -44.9821,109.36801 -164.934,124.362 l 0,55.566 138.474,0"
     id="path4449"
     style="fill:#000000;stroke:none" /><path
     d="m 10370.395,856.59 0,445.41 77.616,0 0,-625.338 -51.156,0 c -27.342,96.1379 -44.982,109.36801 -164.934,124.362 l 0,55.566 138.474,0"
     id="path4451"
     style="fill:#000000;stroke:none" /></g>
       </g>
      </g>
     </g>
    </g>
   </g>
  </g>
 </g>
</svg>