<svg
        xmlns="http://www.w3.org/2000/svg"
        xml:space="preserve"
        width="666.784"
        height="730.809"
        clip-path="url(#a)"
        style="fill-rule:evenodd;stroke-width:28.22200012;stroke-linejoin:round"
        viewBox="0 0 17642 19336"
>
  <defs>
    <clipPath id="a"><path d="M0 0h17642v19336H0z" /></clipPath>
  </defs>
 <g clip-path="url(#a)">
    <path
            d="m1767 13870-441-764 441-764-441-763 441-764-441-764 441-764-441-763 441-764-441-764 441-764-441-763 441-764h882l441-764h882l441-764h882l441-763h882l441-764h882l441-764h882l440 764h882l441 764h882l441 763h882l441 764h882l441 764h882l441 764-441 763 441 764-441 764 441 764-441 763 441 764-441 764 441 764-441 763 441 764-441 764h-882l-441 764h-882l-441 764h-882l-441 763h-882l-441 764h-882l-440 764h-882l-441-764h-882l-441-764h-882l-441-763h-882l-441-764h-882l-441-764z"
            style="fill:none;stroke:#000;stroke-width:141"
    />

  <path
          d="m1767 13870-441-764 441-764-441-763 441-764-441-764 441-764-441-763 441-764-441-764 441-764-441-763 441-764h882l441-764h882l441-764h882l441-763h882l441-764h882l441-764h882l440 764h882l441 764h882l441 763h882l441 764h882l441 764h882l441 764-441 763 441 764-441 764 441 764-441 763 441 764-441 764 441 764-441 763 441 764-441 764h-882l-441 764h-882l-441 764h-882l-441 763h-882l-441 764h-882l-440 764h-882l-441-764h-882l-441-764h-882l-441-763h-882l-441-764h-882l-441-764z"
          style="fill:none;stroke:#000"
  />
  <path
          d="m3090 13106-441-764h-882l-441 764 441 764h882z"
          style="fill:#d18b47;stroke:none"
  />
  <path
          d="m4413 13870-441-764h-882l-441 764 441 764h882z"
          style="fill:#e8ab6f;stroke:none"
  />
  <path
          d="m5735 14634-441-764h-882l-441 764 441 764h882z"
          style="fill:#ffce9e;stroke:none"
  />
  <path
          d="m7058 15398-441-764h-882l-441 764 441 764h882z"
          style="fill:#d18b47;stroke:none"
  />
  <path
          d="m8381 16161-441-764h-882l-441 764 441 764h882z"
          style="fill:#e8ab6f;stroke:none"
  />
  <path
          d="M9263 16161h-882l-441 764 441 764h882l441-764z"
          style="fill:#ffce9e;stroke:none"
  />
  <path
          d="M10586 15397h-882l-441 764 441 764h882l441-764z"
          style="fill:#e8ab6f;stroke:none"
  />
  <path
          d="M11909 14634h-882l-441 764 441 764h882l441-764z"
          style="fill:#d18b47;stroke:none"
  />
  <path
          d="M13232 13872h-882l-441 764 441 764h882l441-764z"
          style="fill:#ffce9e;stroke:none"
  />
  <path
          d="M14555 13108h-882l-441 764 441 764h882l441-764z"
          style="fill:#e8ab6f;stroke:none"
  />
  <path
          d="M15878 12344h-882l-441 764 441 764h882l441-764z"
          style="fill:#d18b47;stroke:none"
  />

  <path
          d="m3090 11581-441-764h-882l-441 764 441 764h882z"
          style="fill:#e8ab6f;stroke:none"
  />
  <path
          d="m4413 12344-441-764h-882l-441 764 441 764h882z"
          style="fill:#ffce9e;stroke:none"
  />
  <path
          d="m5735 13108-441-764h-882l-441 764 441 764h882z"
          style="fill:#d18b47;stroke:none"
  />
  <path
          d="m7058 13872-441-764h-882l-441 764 441 764h882z"
          style="fill:#e8ab6f;stroke:none"
  />
  <path
          d="M6176.5 13720.924q69.95 0 119.4 50.051 50.05 49.449 50.05 119.4 0 70.554-50.05 120.002-49.45 49.449-119.4 49.448-70.555 0-120.002-49.448-49.45-49.448-49.449-120.002 0-69.951 49.449-119.4 49.447-50.05 120.002-50.051"
          style="fill:#fff;stroke:none"
  />
  <path
          d="M6176.5 13720.924q69.95 0 119.4 50.051 50.05 49.449 50.05 119.4 0 70.554-50.05 120.002-49.45 49.449-119.4 49.448-70.555 0-120.002-49.448-49.45-49.448-49.449-120.002 0-69.951 49.449-119.4 49.447-50.05 120.002-50.051"
          style="fill:#000;stroke:none"
  />
  <path
          d="m8381 14636-441-764h-882l-441 764 441 764h882z"
          style="fill:#ffce9e;stroke:none"
  />
  <path
          d="M9263 14635h-882l-441 764 441 764h882l441-764z"
          style="fill:#d18b47;stroke:none"
  />
  <path
          d="M10586 13872h-882l-441 764 441 764h882l441-764z"
          style="fill:#ffce9e;stroke:none"
  />
  <path
          d="M11909 13108h-882l-441 764 441 764h882l441-764z"
          style="fill:#e8ab6f;stroke:none"
  />
  <path
          d="M11467.5 13720.924q69.95 0 119.399 50.051 50.05 49.449 50.052 119.4-.002 70.554-50.052 120.002-49.45 49.449-119.399 49.448-70.555 0-120.002-49.448-49.449-49.448-49.449-120.002 0-69.951 49.449-119.4 49.447-50.05 120.002-50.051"
          style="fill:#fff;stroke:none"
  />
  <path
          d="M11467.5 13720.924q69.95 0 119.399 50.051 50.05 49.449 50.052 119.4-.002 70.554-50.052 120.002-49.45 49.449-119.399 49.448-70.555 0-120.002-49.448-49.449-49.448-49.449-120.002 0-69.951 49.449-119.4 49.447-50.05 120.002-50.051"
          style="fill:#000;stroke:none"
  />
  <path
          d="M13232 12344h-882l-441 764 441 764h882l441-764z"
          style="fill:#d18b47;stroke:none"
  />
  <path
          d="M14555 11580h-882l-441 764 441 764h882l441-764z"
          style="fill:#ffce9e;stroke:none"
  />
  <path
          d="M15878 10817h-882l-441 764 441 764h882l441-764z"
          style="fill:#e8ab6f;stroke:none"
  />

  <path
          d="m3090 10053-441-764h-882l-441 764 441 764h882z"
          style="fill:#ffce9e;stroke:none"
  />
  <path
          d="m4413 10817-441-764h-882l-441 764 441 764h882z"
          style="fill:#d18b47;stroke:none"
  />
  <path
          d="m5735 11581-441-764h-882l-441 764 441 764h882z"
          style="fill:#e8ab6f;stroke:none"
  />
  <path
          d="m7058 12344-441-764h-882l-441 764 441 764h882z"
          style="fill:#ffce9e;stroke:none"
  />
  <path
          d="m8381 13108-441-764h-882l-441 764 441 764h882z"
          style="fill:#d18b47;stroke:none"
  />
  <path
          d="M9263 13108h-882l-441 764 441 764h882l441-764z"
          style="fill:#e8ab6f;stroke:none"
  />
  <path
          d="M10586 12342h-882l-441 764 441 764h882l441-764z"
          style="fill:#d18b47;stroke:none"
  />
  <path
          d="M11909 11580h-882l-441 764 441 764h882l441-764z"
          style="fill:#ffce9e;stroke:none"
  />
  <path
          d="M13232 10817h-882l-441 764 441 764h882l441-764z"
          style="fill:#e8ab6f;stroke:none"
  />
  <path
          d="M14555 10051h-882l-441 764 441 764h882l441-764z"
          style="fill:#d18b47;stroke:none"
  />
  <path
          d="M15878 9289h-882l-441 764 441 764h882l441-764z"
          style="fill:#ffce9e;stroke:none"
  />

  <path
          d="m3090 8526-441-764h-882l-441 764 441 764h882z"
          style="fill:#d18b47;stroke:none"
  />
  <path
          d="m4413 9289-441-764h-882l-441 764 441 764h882z"
          style="fill:#e8ab6f;stroke:none"
  />
  <path
          d="M3530.5 9137.924q69.95 0 119.4 50.051 50.05 49.449 50.05 119.4 0 70.554-50.05 120.002-49.45 49.449-119.4 49.448-70.555 0-120.002-49.448-49.45-49.448-49.449-120.002 0-69.951 49.449-119.4 49.447-50.05 120.002-50.051"
          style="fill:#fff;stroke:none"
  />
  <path
          d="M3530.5 9137.924q69.95 0 119.4 50.051 50.05 49.449 50.05 119.4 0 70.554-50.05 120.002-49.45 49.449-119.4 49.448-70.555 0-120.002-49.448-49.45-49.448-49.449-120.002 0-69.951 49.449-119.4 49.447-50.05 120.002-50.051"
          style="fill:#000;stroke:none"
  />
  <path
          d="m5735 10053-441-764h-882l-441 764 441 764h882z"
          style="fill:#ffce9e;stroke:none"
  />
  <path
          d="m7058 10817-441-764h-882l-441 764 441 764h882z"
          style="fill:#d18b47;stroke:none"
  />
  <path
          d="m8381 11581-441-764h-882l-441 764 441 764h882z"
          style="fill:#e8ab6f;stroke:none"
  />
  <path
          d="M7497.5 11428.924q69.95 0 119.4 50.051 50.05 49.449 50.05 119.4 0 70.554-50.05 120.002-49.45 49.449-119.4 49.448-70.555 0-120.002-49.448-49.45-49.448-49.449-120.002 0-69.951 49.449-119.4 49.447-50.05 120.002-50.051"
          style="fill:#fff;stroke:none"
  />
  <path
          d="M7497.5 11428.924q69.95 0 119.4 50.051 50.05 49.449 50.05 119.4 0 70.554-50.05 120.002-49.45 49.449-119.4 49.448-70.555 0-120.002-49.448-49.45-49.448-49.449-120.002 0-69.951 49.449-119.4 49.447-50.05 120.002-50.051"
          style="fill:#000;stroke:none"
  />
  <path
          d="M9263 11580h-882l-441 764 441 764h882l441-764z"
          style="fill:#ffce9e;stroke:none"
  />
  <path
          d="M10586 10817h-882l-441 764 441 764h882l441-764z"
          style="fill:#e8ab6f;stroke:none"
  />
  <path
          d="M10143.5 11428.924q69.95 0 119.399 50.051 50.05 49.449 50.052 119.4-.002 70.554-50.052 120.002-49.45 49.449-119.399 49.448-70.555 0-120.002-49.448-49.45-49.448-49.449-120.002 0-69.951 49.449-119.4 49.447-50.05 120.002-50.051"
          style="fill:#fff;stroke:none"
  />
  <path
          d="M10143.5 11428.924q69.95 0 119.399 50.051 50.05 49.449 50.052 119.4-.002 70.554-50.052 120.002-49.45 49.449-119.399 49.448-70.555 0-120.002-49.448-49.45-49.448-49.449-120.002 0-69.951 49.449-119.4 49.447-50.05 120.002-50.051"
          style="fill:#000;stroke:none"
  />
  <path
          d="M11909 10053h-882l-441 764 441 764h882l441-764z"
          style="fill:#d18b47;stroke:none"
  />
  <path
          d="M13232 9289h-882l-441 764 441 764h882l441-764z"
          style="fill:#ffce9e;stroke:none"
  />
  <path
          d="M14555 8525h-882l-441 764 441 764h882l441-764z"
          style="fill:#e8ab6f;stroke:none"
  />
  <path
          d="M14113.5 9137.924q69.95 0 119.399 50.051 50.05 49.449 50.052 119.4-.002 70.554-50.052 120.002-49.45 49.449-119.399 49.448-70.555 0-120.002-49.448-49.449-49.448-49.449-120.002 0-69.951 49.449-119.4 49.447-50.05 120.002-50.051"
          style="fill:#fff;stroke:none"
  />
  <path
          d="M14113.5 9137.924q69.95 0 119.399 50.051 50.05 49.449 50.052 119.4-.002 70.554-50.052 120.002-49.45 49.449-119.399 49.448-70.555 0-120.002-49.448-49.449-49.448-49.449-120.002 0-69.951 49.449-119.4 49.447-50.05 120.002-50.051"
          style="fill:#000;stroke:none"
  />
  <path
          d="M15878 7762h-882l-441 764 441 764h882l441-764z"
          style="fill:#d18b47;stroke:none"
  />

  <path
          d="m3090 6998-441-764h-882l-441 764 441 764h882z"
          style="fill:#e8ab6f;stroke:none"
  />
  <path
          d="m4413 7762-441-764h-882l-441 764 441 764h882z"
          style="fill:#ffce9e;stroke:none"
  />
  <path
          d="m5735 8526-441-764h-882l-441 764 441 764h882z"
          style="fill:#d18b47;stroke:none"
  />
  <path
          d="m7058 9289-441-764h-882l-441 764 441 764h882z"
          style="fill:#e8ab6f;stroke:none"
  />
  <path
          d="M6176.5 9137.924q69.95 0 119.4 50.051 50.05 49.449 50.05 119.4 0 70.554-50.05 120.002-49.45 49.449-119.4 49.448-70.555 0-120.002-49.448-49.45-49.448-49.449-120.002 0-69.951 49.449-119.4 49.447-50.05 120.002-50.051"
          style="fill:#fff;stroke:none"
  />
  <path
          d="M6176.5 9137.924q69.95 0 119.4 50.051 50.05 49.449 50.05 119.4 0 70.554-50.05 120.002-49.45 49.449-119.4 49.448-70.555 0-120.002-49.448-49.45-49.448-49.449-120.002 0-69.951 49.449-119.4 49.447-50.05 120.002-50.051"
          style="fill:#000;stroke:none"
  />
  <path
          d="m8381 10053-441-764h-882l-441 764 441 764h882z"
          style="fill:#ffce9e;stroke:none"
  />
  <path
          d="M9263 10051h-882l-441 764 441 764h882l441-764z"
          style="fill:#d18b47;stroke:none"
  />
  <path
          d="M10586 9287h-882l-441 764 441 764h882l441-764z"
          style="fill:#ffce9e;stroke:none"
  />
  <path
          d="M11909 8524h-882l-441 764 441 764h882l441-764z"
          style="fill:#e8ab6f;stroke:none"
  />
  <path
          d="M11467.5 9135.924q69.95 0 119.399 50.051 50.05 49.449 50.052 119.4-.002 70.554-50.052 120.002-49.45 49.449-119.399 49.448-70.555 0-120.002-49.448-49.449-49.448-49.449-120.002 0-69.951 49.449-119.4 49.447-50.05 120.002-50.051"
          style="fill:#fff;stroke:none"
  />
  <path
          d="M11467.5 9135.924q69.95 0 119.399 50.051 50.05 49.449 50.052 119.4-.002 70.554-50.052 120.002-49.45 49.449-119.399 49.448-70.555 0-120.002-49.448-49.449-49.448-49.449-120.002 0-69.951 49.449-119.4 49.447-50.05 120.002-50.051"
          style="fill:#000;stroke:none"
  />
  <path
          d="M13232 7760h-882l-441 764 441 764h882l441-764z"
          style="fill:#d18b47;stroke:none"
  />
  <path
          d="M14555 6996h-882l-441 764 441 764h882l441-764z"
          style="fill:#ffce9e;stroke:none"
  />
  <path
          d="M15878 6232h-882l-441 764 441 764h882l441-764z"
          style="fill:#e8ab6f;stroke:none"
  />

  <path
          d="m3090 5469-441-764h-882l-441 764 441 764h882z"
          style="fill:#ffce9e;stroke:none"
  />
  <path
          d="m4413 6233-441-764h-882l-441 764 441 764h882z"
          style="fill:#d18b47;stroke:none"
  />
  <path
          d="m5735 6996-441-764h-882l-441 764 441 764h882z"
          style="fill:#e8ab6f;stroke:none"
  />
  <path
          d="m7058 7760-441-764h-882l-441 764 441 764h882z"
          style="fill:#ffce9e;stroke:none"
  />
  <path
          d="m8381 8524-441-764h-882l-441 764 441 764h882z"
          style="fill:#d18b47;stroke:none"
  />
  <path
          d="M9263 8524h-882l-441 764 441 764h882l441-764z"
          style="fill:#e8ab6f;stroke:none"
  />
  <path
          d="M8820.5 9686.488q-8.443 34.373-20.503 47.639-12.06 13.265-31.96 27.74-21.711 15.075-51.258 25.326-29.55 10.855-65.73 5.428l-169.45-23.518q-10.252-1.208-18.694 0-7.84 1.206-15.076 1.206-12.664 0-32.563 5.427-19.298 6.03-30.152 16.885l-58.493-95.882q10.854-12.06 19.297-16.884 8.441-4.825 19.9-10.252 34.974-16.281 74.775-19.9 16.885-1.206 33.166-.603 16.282.603 33.77-1.206a3647 3647 0 0 0 65.127 10.252q33.165 4.221 66.333 9.045 36.18 0 48.845-7.236 6.633-3.619 21.106-13.267 14.472-9.648 28.945-28.342-31.96-3.618-65.127-12.06-33.167-9.046-58.493-18.695l62.715-155.58q-47.037-27.137-65.73-43.419-18.695-16.884-29.549-38.593-15.68-27.74-20.503-53.67-4.221-25.93-3.618-46.433.603-36.18 16.885-79.6 16.883-44.02 62.715-78.393a1782 1782 0 0 0 74.172-59.7q36.18-30.753 71.76-71.76-44.624-22.914-44.624-72.966 0-33.77 23.518-57.891 24.12-24.12 58.494-24.121 33.769 0 57.89 24.12 24.12 24.124 24.122 57.892-.002 49.449-44.624 72.966 34.974 41.007 70.554 71.76 36.18 30.756 75.378 59.7 45.226 34.373 61.51 78.393 16.28 43.42 17.487 79.6-.001 20.504-4.221 46.433-4.223 25.93-19.297 53.67-12.062 21.71-30.755 38.593-18.091 16.283-64.523 43.418l62.714 155.581q-26.535 9.65-59.7 18.694-33.167 8.443-63.92 12.06 13.869 18.694 28.342 28.343 14.472 9.648 21.709 13.267 12.662 7.236 48.845 7.236a3617 3617 0 0 1 65.127-9.045 3782 3782 0 0 0 66.333-10.252 220.5 220.5 0 0 0 32.564 1.206q16.883-.602 34.372.603 38.592 3.619 74.776 19.9 10.852 5.427 19.297 10.252 9.043 4.824 19.9 16.884l-59.097 95.882q-10.857-10.855-30.755-16.885-19.298-5.428-31.357-5.427-7.841 0-16.282-1.206-7.84-1.208-18.09 0l-168.848 23.518q-36.183 5.427-67.54-4.825-30.755-10.252-50.654-27.136-19.9-16.281-31.96-28.342-11.459-11.457-19.297-45.83"
          style="fill:#fff;stroke:none"
  />
  <path
          d="m8798.791 9236.63-50.051-.604q-20.505.001-20.503-20.503 0-20.502 20.503-20.502h50.051v-51.86q0-21.105 21.709-21.107 21.105 0 21.106 21.106v51.86h51.86q19.9.001 19.9 20.503 0 20.505-19.9 20.503h-51.86v49.449q0 21.71-21.106 21.709-21.71 0-21.709-21.71zm21.709 348.55q41.005 0 79.6-6.633 39.195-7.236 75.378-16.885-70.555-18.693-154.978-18.694-85.63 0-154.978 18.694 34.975 9.649 74.172 16.885 39.196 6.633 80.806 6.633m0-656.697q41.005.002 41.006-41.005-.001-41.005-41.006-41.006-41.006.001-41.006 41.006 0 41.007 41.006 41.005m0 572.273q70.554 0 135.681 13.87l-28.945-74.172a678.4 678.4 0 0 0-106.736-8.443q-54.876 0-107.339 8.443l-28.945 74.172q64.522-13.87 136.284-13.87m0-109.75q58.493 0 112.163 9.045 59.095-21.105 85.63-65.73 22.914-38.593 22.915-85.027 0-27.738-13.87-60.906-13.87-33.768-45.227-60.906a93196 93196 0 0 0-77.79-64.523q-42.213-35.578-83.821-82.615-42.213 47.037-84.424 82.615-42.212 34.976-77.187 64.523-31.962 27.138-45.83 60.906-13.267 33.168-13.267 60.906 0 46.434 22.312 85.027 25.929 44.625 86.233 65.73 53.066-9.045 112.163-9.046m-21.709 227.342h-19.297q-33.77 54.272-64.524 68.142-14.473 7.236-31.96 13.266-17.49 6.03-40.403 6.03-4.223 0-64.524-9.648-28.946-4.222-45.83-9.045-16.885-4.824-26.533-6.03-34.374-4.222-80.203 3.618-27.74 4.824-51.86 17.488l28.945 47.036q7.236-7.237 18.694-9.649 12.06-1.809 21.709-4.221 25.326-4.221 48.242-1.206 7.84 1.809 30.755 4.221 22.914 3.015 60.905 9.046 45.227 6.633 61.509 6.633 63.317 0 97.087-24.121 20.503-15.679 38.594-44.021 18.693-27.74 18.694-67.54m21.709 68.143q-8.443 34.373-20.503 47.639-12.06 13.265-31.96 27.74-21.711 15.075-51.258 25.326-29.55 10.855-65.73 5.428l-169.45-23.518q-10.252-1.208-18.694 0-7.84 1.206-15.076 1.206-12.663 0-32.563 5.427-19.298 6.03-30.152 16.885l-58.493-95.882q10.854-12.06 19.297-16.884 8.441-4.825 19.9-10.252 34.974-16.281 74.775-19.9 16.885-1.206 33.166-.603 16.282.603 33.77-1.206a3647 3647 0 0 0 65.127 10.252q33.165 4.221 66.333 9.045 36.18 0 48.845-7.236 6.633-3.619 21.106-13.267 14.472-9.648 28.945-28.342-31.96-3.618-65.127-12.06-33.167-9.046-58.493-18.695l62.715-155.58q-47.037-27.137-65.73-43.419-18.695-16.884-29.549-38.593-15.68-27.74-20.503-53.67-4.221-25.93-3.618-46.433.603-36.18 16.885-79.6 16.883-44.02 62.715-78.393a1782 1782 0 0 0 74.172-59.7q36.18-30.753 71.76-71.76-44.624-22.914-44.624-72.966 0-33.77 23.518-57.891 24.12-24.12 58.494-24.121 33.769 0 57.89 24.12 24.12 24.124 24.122 57.892-.002 49.449-44.624 72.966 34.974 41.007 70.554 71.76 36.18 30.756 75.378 59.7 45.225 34.373 61.51 78.393 16.28 43.42 17.487 79.6-.002 20.504-4.221 46.433-4.223 25.93-19.297 53.67-12.062 21.71-30.755 38.593-18.091 16.283-64.523 43.418l62.714 155.581q-26.535 9.65-59.7 18.694-33.167 8.443-63.92 12.06 13.869 18.694 28.342 28.343 14.472 9.648 21.709 13.267 12.663 7.236 48.845 7.236a3617 3617 0 0 1 65.127-9.045 3782 3782 0 0 0 66.333-10.252 220.5 220.5 0 0 0 32.564 1.206q16.883-.602 34.372.603 38.593 3.619 74.776 19.9 10.852 5.427 19.297 10.252 9.043 4.824 19.9 16.884l-59.097 95.882q-10.857-10.855-30.755-16.885-19.298-5.428-31.357-5.427-7.841 0-16.282-1.206-7.84-1.208-18.09 0l-168.848 23.518q-36.183 5.427-67.54-4.825-30.755-10.252-50.654-27.136-19.9-16.281-31.96-28.342-11.459-11.457-19.297-45.83m21.106-68.142q0 39.8 18.09 67.539 18.695 28.342 39.8 44.02 33.165 24.122 97.088 24.122 15.678 0 61.509-6.633 37.386-6.03 60.303-9.046 22.913-2.412 30.754-4.221 22.914-3.015 48.242 1.206 9.647 2.412 21.106 4.221 12.06 2.412 19.9 9.649l28.945-47.036q-24.725-12.664-52.463-17.488-45.832-7.84-80.203-3.618-10.252 1.206-27.136 6.03-16.283 4.824-44.624 9.045-60.907 9.65-64.524 9.649-23.52 0-41.006-6.03-17.489-6.03-31.357-13.267-31.962-14.473-65.127-68.142z"
          style="fill:#000;stroke:none"
  />
  <path
          d="M10586 7760h-882l-441 764 441 764h882l441-764z"
          style="fill:#d18b47;stroke:none"
  />
  <path
          d="M11909 6996h-882l-441 764 441 764h882l441-764z"
          style="fill:#ffce9e;stroke:none"
  />
  <path
          d="M13232 6232h-882l-441 764 441 764h882l441-764z"
          style="fill:#e8ab6f;stroke:none"
  />
  <path
          d="M14555 5469h-882l-441 764 441 764h882l441-764z"
          style="fill:#d18b47;stroke:none"
  />
  <path
          d="M15878 4705h-882l-441 764 441 764h882l441-764z"
          style="fill:#ffce9e;stroke:none"
  />

  <path
          d="m4413 4705-441-764h-882l-441 764 441 764h882z"
          style="fill:#e8ab6f;stroke:none"
  />
  <path
          d="m5735 5469-441-764h-882l-441 764 441 764h882z"
          style="fill:#ffce9e;stroke:none"
  />
  <path
          d="m7058 6233-441-764h-882l-441 764 441 764h882z"
          style="fill:#d18b47;stroke:none"
  />
  <path
          d="m8381 6996-441-764h-882l-441 764 441 764h882z"
          style="fill:#e8ab6f;stroke:none"
  />
  <path
          d="M7497.5 6844.924q69.95 0 119.4 50.051 50.05 49.449 50.05 119.4 0 70.554-50.05 120.002-49.45 49.448-119.4 49.448-70.555 0-120.002-49.448-49.45-49.448-49.449-120.003 0-69.95 49.449-119.399 49.447-50.05 120.002-50.051"
          style="fill:#fff;stroke:none"
  />
  <path
          d="M7497.5 6844.924q69.95 0 119.4 50.051 50.05 49.449 50.05 119.4 0 70.554-50.05 120.002-49.45 49.448-119.4 49.448-70.555 0-120.002-49.448-49.45-49.448-49.449-120.003 0-69.95 49.449-119.399 49.447-50.05 120.002-50.051"
          style="fill:#000;stroke:none"
  />
  <path
          d="M9263 6996h-882l-441 764 441 764h882l441-764z"
          style="fill:#ffce9e;stroke:none"
  />
  <path
          d="M10586 6232h-882l-441 764 441 764h882l441-764z"
          style="fill:#e8ab6f;stroke:none"
  />
  <path
          d="M10143.5 6844.924q69.95 0 119.399 50.051 50.05 49.449 50.052 119.4-.002 70.554-50.052 120.002-49.45 49.448-119.399 49.448-70.555 0-120.002-49.448-49.45-49.448-49.449-120.003 0-69.95 49.449-119.399 49.447-50.05 120.002-50.051"
          style="fill:#fff;stroke:none"
  />
  <path
          d="M10143.5 6844.924q69.95 0 119.399 50.051 50.05 49.449 50.052 119.4-.002 70.554-50.052 120.002-49.45 49.448-119.399 49.448-70.555 0-120.002-49.448-49.45-49.448-49.449-120.003 0-69.95 49.449-119.399 49.447-50.05 120.002-50.051"
          style="fill:#000;stroke:none"
  />
  <path
          d="M11909 5469h-882l-441 764 441 764h882l441-764z"
          style="fill:#d18b47;stroke:none"
  />
  <path
          d="M13232 4705h-882l-441 764 441 764h882l441-764z"
          style="fill:#ffce9e;stroke:none"
  />
  <path
          d="M14555 3941h-882l-441 764 441 764h882l441-764z"
          style="fill:#e8ab6f;stroke:none"
  />

  <path
          d="m5735 3941-441-764h-882l-441 764 441 764h882z"
          style="fill:#d18b47;stroke:none"
  />
  <path
          d="m7058 4705-441-764h-882l-441 764 441 764h882z"
          style="fill:#e8ab6f;stroke:none"
  />
  <path
          d="M6176.5 4553.924q69.95 0 119.4 50.051 50.05 49.449 50.05 119.4 0 70.554-50.05 120.002-49.45 49.448-119.4 49.448-70.555 0-120.002-49.448-49.45-49.448-49.449-120.003 0-69.95 49.449-119.399 49.447-50.05 120.002-50.051"
          style="fill:#fff;stroke:none"
  />
  <path
          d="M6176.5 4553.924q69.95 0 119.4 50.051 50.05 49.449 50.05 119.4 0 70.554-50.05 120.002-49.45 49.448-119.4 49.448-70.555 0-120.002-49.448-49.45-49.448-49.449-120.003 0-69.95 49.449-119.399 49.447-50.05 120.002-50.051"
          style="fill:#000;stroke:none"
  />
  <path
          d="m8381 5469-441-764h-882l-441 764 441 764h882z"
          style="fill:#ffce9e;stroke:none"
  />
  <path
          d="M9263 5469h-882l-441 764 441 764h882l441-764z"
          style="fill:#d18b47;stroke:none"
  />
  <path
          d="M10586 4705h-882l-441 764 441 764h882l441-764z"
          style="fill:#ffce9e;stroke:none"
  />
  <path
          d="M11909 3941h-882l-441 764 441 764h882l441-764z"
          style="fill:#e8ab6f;stroke:none"
  />
  <path
          d="M11467.5 4553.924q69.95 0 119.399 50.051 50.05 49.449 50.052 119.4-.002 70.554-50.052 120.002-49.45 49.448-119.399 49.448-70.555 0-120.002-49.448-49.449-49.448-49.449-120.003 0-69.95 49.449-119.399 49.447-50.05 120.002-50.051"
          style="fill:#fff;stroke:none"
  />
  <path
          d="M11467.5 4553.924q69.95 0 119.399 50.051 50.05 49.449 50.052 119.4-.002 70.554-50.052 120.002-49.45 49.448-119.399 49.448-70.555 0-120.002-49.448-49.449-49.448-49.449-120.003 0-69.95 49.449-119.399 49.447-50.05 120.002-50.051"
          style="fill:#000;stroke:none"
  />
  <path
          d="M13232 3177h-882l-441 764 441 764h882l441-764z"
          style="fill:#d18b47;stroke:none"
  />

  <path
          d="m7058 3177-441-764h-882l-441 764 441 764h882z"
          style="fill:#ffce9e;stroke:none"
  />
  <path
          d="m8381 3939-441-764h-882l-441 764 441 764h882z"
          style="fill:#d18b47;stroke:none"
  />
  <path
          d="M9263 3939h-882l-441 764 441 764h882l441-764z"
          style="fill:#e8ab6f;stroke:none"
  />
  <path
          d="M10586 3175h-882l-441 764 441 764h882l441-764z"
          style="fill:#d18b47;stroke:none"
  />
  <path
          d="M11909 2412h-882l-441 764 441 764h882l441-764z"
          style="fill:#ffce9e;stroke:none"
  />

  <path
          d="m8381 2412-441-764h-882l-441 764 441 764h882z"
          style="fill:#e8ab6f;stroke:none"
  />
  <path
          d="M9263 2412h-882l-441 764 441 764h882l441-764z"
          style="fill:#ffce9e;stroke:none"
  />
  <path
          d="M10586 1648h-882l-441 764 441 764h882l441-764z"
          style="fill:#e8ab6f;stroke:none"
  />

  <path
          d="M9263 884h-882l-441 764 441 764h882l441-764z"
          style="fill:#d18b47;stroke:none"
  />
  </g>
</svg>