<?xml version="1.0" encoding="UTF-8" standalone="no"?>
<!-- Created with Inkscape (http://www.inkscape.org/) -->

<svg
   xmlns:dc="http://purl.org/dc/elements/1.1/"
   xmlns:cc="http://creativecommons.org/ns#"
   xmlns:rdf="http://www.w3.org/1999/02/22-rdf-syntax-ns#"
   xmlns:svg="http://www.w3.org/2000/svg"
   xmlns="http://www.w3.org/2000/svg"
   version="1.1"
   width="176.42mm"
   height="193.36mm"
   viewBox="0 0 17642 19336"
   clip-path="url(#presentation_clip_path)"
   id="svg2"
   xml:space="preserve"
   style="fill-rule:evenodd;stroke-width:28.22200012;stroke-linejoin:round"><metadata
   id="metadata1686"><rdf:RDF><cc:Work
       rdf:about=""><dc:format>image/svg+xml</dc:format><dc:type
         rdf:resource="http://purl.org/dc/dcmitype/StillImage" /><dc:title></dc:title></cc:Work></rdf:RDF></metadata>
 <defs
   id="defs4">
  <clipPath
   id="presentation_clip_path">
   <rect
   width="17642"
   height="19336"
   x="0"
   y="0"
   id="rect7" />
  </clipPath>
 </defs>
 <defs
   id="defs9">
  
 </defs>
 <defs
   id="defs11">
  <g
   transform="scale(4.8828125e-4,-4.8828125e-4)"
   id="bullet-char-template57356">
   <path
   d="M 580,1141 1163,571 580,0 -4,571 580,1141 z"
   id="path14" />
  </g>
  <g
   transform="scale(4.8828125e-4,-4.8828125e-4)"
   id="bullet-char-template57354">
   <path
   d="m 8,1128 1129,0 L 1137,0 8,0 8,1128 z"
   id="path17" />
  </g>
  <g
   transform="scale(4.8828125e-4,-4.8828125e-4)"
   id="bullet-char-template10146">
   <path
   d="M 174,0 602,739 174,1481 1456,739 174,0 z m 1184,739 -1049,607 350,-607 699,0 z"
   id="path20" />
  </g>
  <g
   transform="scale(4.8828125e-4,-4.8828125e-4)"
   id="bullet-char-template10132">
   <path
   d="M 2015,739 1276,0 717,0 l 543,543 -1086,0 0,393 1086,0 -543,545 557,0 741,-742 z"
   id="path23" />
  </g>
  <g
   transform="scale(4.8828125e-4,-4.8828125e-4)"
   id="bullet-char-template10007">
   <path
   d="m 0,-2 c -7,16 -16,29 -25,39 l 381,530 c -94,256 -141,385 -141,387 0,25 13,38 40,38 9,0 21,-2 34,-5 21,4 42,12 65,25 l 27,-13 111,-251 280,301 64,-25 24,25 c 21,-10 41,-24 62,-43 C 886,937 835,863 770,784 769,783 710,716 594,584 L 774,223 c 0,-27 -21,-55 -63,-84 l 16,-20 C 717,90 699,76 672,76 641,76 570,178 457,381 L 164,-76 c -22,-34 -53,-51 -92,-51 -42,0 -63,17 -64,51 -7,9 -10,24 -10,44 0,9 1,19 2,30 z"
   id="path26" />
  </g>
  <g
   transform="scale(4.8828125e-4,-4.8828125e-4)"
   id="bullet-char-template10004">
   <path
   d="M 285,-33 C 182,-33 111,30 74,156 52,228 41,333 41,471 c 0,78 14,145 41,201 34,71 87,106 158,106 53,0 88,-31 106,-94 l 23,-176 c 8,-64 28,-97 59,-98 l 735,706 c 11,11 33,17 66,17 42,0 63,-15 63,-46 l 0,-122 c 0,-36 -10,-64 -30,-84 L 442,47 C 390,-6 338,-33 285,-33 z"
   id="path29" />
  </g>
  <g
   transform="scale(4.8828125e-4,-4.8828125e-4)"
   id="bullet-char-template9679">
   <path
   d="M 813,0 C 632,0 489,54 383,161 276,268 223,411 223,592 c 0,181 53,324 160,431 106,107 249,161 430,161 179,0 323,-54 432,-161 108,-107 162,-251 162,-431 0,-180 -54,-324 -162,-431 C 1136,54 992,0 813,0 z"
   id="path32" />
  </g>
  <g
   transform="scale(4.8828125e-4,-4.8828125e-4)"
   id="bullet-char-template8226">
   <path
   d="m 346,457 c -73,0 -137,26 -191,78 -54,51 -81,114 -81,188 0,73 27,136 81,188 54,52 118,78 191,78 73,0 134,-26 185,-79 51,-51 77,-114 77,-187 0,-75 -25,-137 -76,-188 -50,-52 -112,-78 -186,-78 z"
   id="path35" />
  </g>
  <g
   transform="scale(4.8828125e-4,-4.8828125e-4)"
   id="bullet-char-template8211">
   <path
   d="m -4,459 1139,0 0,147 -1139,0 0,-147 z"
   id="path38" />
  </g>
 </defs>
 <defs
   id="defs40" />
 <g
   id="g42">
  <g
   id="id2">
   <g
   id="bg-id2" />
   <g
   id="bo-id2" />
  </g>
 </g>
 <g
   id="g47">
  <g
   id="g49">
   <g
   clip-path="url(#presentation_clip_path)"
   id="id1">
    <g
   id="g52">
     <g
   id="g54">
      <g
   id="g56">
       <g
   id="id3">
        <path
   d="m 1767,13870 -441,-764 441,-764 -441,-763 441,-764 -441,-764 441,-764 -441,-763 441,-764 -441,-764 441,-764 -441,-763 441,-764 882,0 441,-764 882,0 441,-764 882,0 441,-763 882,0 441,-764 882,0 441,-764 882,0 440,764 882,0 441,764 882,0 441,763 882,0 441,764 882,0 441,764 882,0 441,764 -441,763 441,764 -441,764 441,764 -441,763 441,764 -441,764 441,764 -441,763 441,764 -441,764 -882,0 -441,764 -882,0 -441,764 -882,0 -441,763 -882,0 -441,764 -882,0 -440,764 -882,0 -441,-764 -882,0 -441,-764 -882,0 -441,-763 -882,0 -441,-764 -882,0 -441,-764 -882,0 z"
   id="path59"
   style="fill:none;stroke:#000000;stroke-width:141" />
       </g>
      </g>
      <g
   id="g61">
       <g
   id="id4">
        <path
   d="m 1767,13870 -441,-764 441,-764 -441,-763 441,-764 -441,-764 441,-764 -441,-763 441,-764 -441,-764 441,-764 -441,-763 441,-764 882,0 441,-764 882,0 441,-764 882,0 441,-763 882,0 441,-764 882,0 441,-764 882,0 440,764 882,0 441,764 882,0 441,763 882,0 441,764 882,0 441,764 882,0 441,764 -441,763 441,764 -441,764 441,764 -441,763 441,764 -441,764 441,764 -441,763 441,764 -441,764 -882,0 -441,764 -882,0 -441,764 -882,0 -441,763 -882,0 -441,764 -882,0 -440,764 -882,0 -441,-764 -882,0 -441,-764 -882,0 -441,-763 -882,0 -441,-764 -882,0 -441,-764 -882,0 z"
   id="path64"
   style="fill:#ffce9e;stroke:none" />
        <path
   d="m 1767,13870 -441,-764 441,-764 -441,-763 441,-764 -441,-764 441,-764 -441,-763 441,-764 -441,-764 441,-764 -441,-763 441,-764 882,0 441,-764 882,0 441,-764 882,0 441,-763 882,0 441,-764 882,0 441,-764 882,0 440,764 882,0 441,764 882,0 441,763 882,0 441,764 882,0 441,764 882,0 441,764 -441,763 441,764 -441,764 441,764 -441,763 441,764 -441,764 441,764 -441,763 441,764 -441,764 -882,0 -441,764 -882,0 -441,764 -882,0 -441,763 -882,0 -441,764 -882,0 -440,764 -882,0 -441,-764 -882,0 -441,-764 -882,0 -441,-763 -882,0 -441,-764 -882,0 -441,-764 -882,0 z"
   id="path66"
   style="fill:none;stroke:#000000" />
       </g>
      </g>
      <g
   id="g68">
       <g
   id="id5" />
      </g>
      <g
   id="g71">
       <g
   id="id6" />
      </g>
      <g
   id="g74">
       <g
   id="id7">
        <g
   id="text77"><path
     d="m 2434.87,15008.782 c -7.938,1.764 -11.466,1.764 -15.876,1.764 -25.578,0 -39.69,-13.23 -39.69,-36.162 l 0,-271.656 c 0,-82.026 -59.9761,-126.126 -173.754,-126.126 -67.0319,0 -122.598,19.404 -153.468,53.802 -21.168,23.814 -29.988,50.274 -31.752,96.138 l 74.088,0 c 6.174,-56.448 39.6901,-82.026 108.486,-82.026 66.1499,0 103.194,24.696 103.194,68.796 l 0,19.404 c 0,30.87 -18.5221,44.1 -76.734,51.156 -104.0759,13.23 -119.952,16.758 -148.176,28.224 -53.8019,22.05 -81.144,63.504 -81.144,123.48 0,83.79 58.2121,136.71 151.704,136.71 58.2119,0 104.9581,-20.286 156.996,-67.914 5.292,46.746 28.224,67.914 75.852,67.914 14.994,0 26.46,-1.764 50.274,-7.938 l 0,-55.566 m -128.772,-102.312 c 0,24.696 -7.056,39.69 -29.106,59.976 -29.988,27.342 -66.15,41.454 -109.368,41.454 -57.3299,0 -90.846,-27.342 -90.846,-74.088 0,-48.51 32.6341,-73.206 111.132,-84.672 77.6159,-10.584 93.492,-14.112 118.188,-25.578 l 0,82.908"
     id="path4664"
     style="fill:#000000;stroke:none" /></g>
       </g>
      </g>
      <g
   id="g85">
       <g
   id="id8" />
      </g>
      <g
   id="g88">
       <g
   id="id9">
        <g
   id="text91"><path
     d="m 3333.628,15175.022 0,642.978 66.15,0 0,-59.094 c 35.28,53.802 82.0261,79.38 146.412,79.38 121.7159,0 201.096,-99.666 201.096,-253.134 0,-149.94 -75.8521,-242.55 -197.568,-242.55 -63.5039,0 -108.486,23.814 -142.884,75.852 l 0,-243.432 -73.206,0 m 201.978,236.376 c 82.0259,0 134.946,71.442 134.946,181.692 0,104.958 -54.6841,176.4 -134.946,176.4 -77.6159,0 -128.772,-70.56 -128.772,-179.046 0,-108.486 51.1561,-179.046 128.772,-179.046"
     id="path4667"
     style="fill:#000000;stroke:none" /></g>
       </g>
      </g>
      <g
   id="g99">
       <g
   id="id10" />
      </g>
      <g
   id="g102">
       <g
   id="id11">
        <g
   id="text105"><path
     d="m 5049.422,16273.064 c -3.528,-44.982 -13.23,-74.088 -30.87,-99.666 -31.752,-43.218 -87.3181,-68.796 -151.704,-68.796 -124.3619,0 -205.506,98.784 -205.506,252.252 0,149.058 79.3801,243.432 204.624,243.432 110.2499,0 179.928,-66.15 188.748,-179.046 l -74.088,0 c -12.348,74.088 -50.2741,111.132 -112.896,111.132 -81.1439,0 -129.654,-66.15 -129.654,-175.518 0,-115.542 47.6281,-184.338 127.89,-184.338 61.7399,0 100.548,36.162 109.368,100.548 l 74.088,0"
     id="path4670"
     style="fill:#000000;stroke:none" /></g>
       </g>
      </g>
      <g
   id="g113">
       <g
   id="id12" />
      </g>
      <g
   id="g116">
       <g
   id="id13">
        <g
   id="text119"><path
     d="m 6367.59,16700.022 -73.206,0 0,239.022 c -30.87,-46.746 -80.2621,-71.442 -142.002,-71.442 -119.9519,0 -198.45,96.138 -198.45,243.432 0,156.114 76.7341,252.252 201.096,252.252 63.5039,0 107.604,-23.814 147.294,-81.144 l 0,60.858 65.268,0 0,-642.978 m -202.86,236.376 c 79.3799,0 129.654,70.56 129.654,180.81 0,106.722 -51.1561,177.282 -128.772,177.282 -81.1439,0 -134.946,-71.442 -134.946,-179.046 0,-107.604 53.8021,-179.046 134.064,-179.046"
     id="path4673"
     style="fill:#000000;stroke:none" /></g>
       </g>
      </g>
      <g
   id="g127">
       <g
   id="id14" />
      </g>
      <g
   id="g130">
       <g
   id="id15">
        <g
   id="text133"><path
     d="m 7705.466,17900.612 c 0,-70.56 -5.292,-112.896 -18.522,-147.294 -29.988,-75.852 -100.5481,-121.716 -186.984,-121.716 -128.7719,0 -211.68,98.784 -211.68,250.488 0,151.704 80.2621,245.196 209.916,245.196 105.8399,0 179.046,-59.976 197.568,-160.524 l -74.088,0 c -20.286,60.858 -61.7401,92.61 -120.834,92.61 -46.746,0 -86.436,-21.168 -111.132,-59.976 -17.64,-26.46 -23.814,-52.92 -24.696,-98.784 l 340.452,0 m -338.688,-59.976 c 6.174,-85.554 58.2121,-141.12 132.3,-141.12 72.3239,0 127.89,59.976 127.89,135.828 0,1.764 0,3.528 -0.882,5.292 l -259.308,0"
     id="path4676"
     style="fill:#000000;stroke:none" /></g>
       </g>
      </g>
      <g
   id="g141">
       <g
   id="id16" />
      </g>
      <g
   id="g144">
       <g
   id="id17">
        <g
   id="text147"><path
     d="m 8924.556,18410.832 -76.734,0 0,-72.324 c 0,-30.87 17.64,-46.746 51.156,-46.746 6.174,0 8.82,0 25.578,0.882 l 0,-60.858 c -16.758,-3.528 -26.46,-4.41 -41.454,-4.41 -67.9139,0 -108.486,38.808 -108.486,104.958 l 0,78.498 -61.74,0 0,59.976 61.74,0 0,402.192 73.206,0 0,-402.192 76.734,0 0,-59.976"
     id="path4679"
     style="fill:#000000;stroke:none" /></g>
       </g>
      </g>
      <g
   id="g155">
       <g
   id="id18" />
      </g>
      <g
   id="g158">
       <g
   id="id19">
        <g
   id="text161"><path
     d="m 10261.384,17644.832 0,67.032 c -37.044,-54.684 -82.026,-80.262 -141.12,-80.262 -117.306,0 -196.686,102.312 -196.686,252.252 0,75.852 20.286,137.592 58.212,181.692 34.398,38.808 83.79,61.74 132.3,61.74 58.212,0 98.784,-24.696 140.238,-82.908 l 0,23.814 c 0,62.622 -7.938,100.548 -26.46,126.126 -19.404,27.342 -57.33,43.218 -102.312,43.218 -33.516,0 -63.504,-8.82 -83.79,-24.696 -16.758,-13.23 -23.814,-25.578 -28.224,-52.92 l -74.97,0 c 7.938,87.318 75.852,139.356 184.338,139.356 68.796,0 127.89,-22.05 157.878,-59.094 35.28,-42.336 48.51,-100.548 48.51,-209.034 l 0,-386.316 -67.914,0 m -133.182,54.684 c 79.38,0 126.126,67.032 126.126,182.574 0,110.25 -47.628,177.282 -125.244,177.282 -80.262,0 -128.772,-67.914 -128.772,-179.928 0,-111.132 49.392,-179.928 127.89,-179.928"
     id="path4682"
     style="fill:#000000;stroke:none" /></g>
       </g>
      </g>
      <g
   id="g169">
       <g
   id="id20" />
      </g>
      <g
   id="g172">
       <g
   id="id21">
        <g
   id="text175"><path
     d="m 11282.74,16700.022 0,642.978 73.206,0 0,-254.898 c 0,-94.374 49.392,-156.114 125.244,-156.114 23.814,0 47.628,7.938 65.268,21.168 21.168,14.994 29.988,37.044 29.988,69.678 l 0,320.166 73.206,0 0,-349.272 c 0,-77.616 -55.566,-126.126 -145.53,-126.126 -65.268,0 -104.958,20.286 -148.176,76.734 l 0,-244.314 -73.206,0"
     id="path4685"
     style="fill:#000000;stroke:none" /></g>
       </g>
      </g>
      <g
   id="g183">
       <g
   id="id22" />
      </g>
      <g
   id="g186">
       <g
   id="id23">
        <g
   id="text189"><path
     d="m 12825.3,16117.832 -73.206,0 0,462.168 73.206,0 0,-462.168 m 0,-180.81 -74.088,0 0,92.61 74.088,0 0,-92.61"
     id="path4688"
     style="fill:#000000;stroke:none" /></g>
       </g>
      </g>
      <g
   id="g197">
       <g
   id="id24" />
      </g>
      <g
   id="g200">
       <g
   id="id25">
        <g
   id="text203"><path
     d="m 14018.362,15175.022 -73.206,0 0,642.978 73.206,0 0,-179.928 71.442,-70.56 156.114,250.488 90.846,0 -188.748,-302.526 160.524,-159.642 -94.374,0 -195.804,195.804 0,-376.614"
     id="path4691"
     style="fill:#000000;stroke:none" /></g>
       </g>
      </g>
      <g
   id="g211">
       <g
   id="id26" />
      </g>
      <g
   id="g214">
       <g
   id="id27">
        <g
   id="text217"><path
     d="m 15472.064,14409.022 -74.088,0 0,642.978 74.088,0 0,-642.978"
     id="path4694"
     style="fill:#000000;stroke:none" /></g>
       </g>
      </g>
      <g
   id="g225">
       <g
   id="id28" />
      </g>
      <g
   id="g228">
       <g
   id="id29">
        <g
   id="text231" />
       </g>
      </g>
      <g
   id="g239">
       <g
   id="id30" />
      </g>
      <g
   id="g242">
       <g
   id="id31">
        <g
   id="text245"><path
     d="m 868.438,12317.59 0,445.41 77.616,0 0,-625.338 -51.156,0 c -27.34197,96.138 -44.98212,109.368 -164.934,124.362 l 0,55.566 138.474,0"
     id="path4698"
     style="fill:#000000;stroke:none" /></g>
       </g>
      </g>
      <g
   id="g253">
       <g
   id="id32">
        <path
   d="m 3090,13106 -441,-764 -882,0 -441,764 441,764 882,0 441,-764 z"
   id="path256"
   style="fill:#d18b47;stroke:none" />
       </g>
      </g>
      <g
   id="g258">
       <g
   id="id33">
        <g
   id="text261"><path
     d="m 2207.5,12954.924 c 46.6335,0 86.4332,16.684 119.3994,50.051 33.3668,32.966 50.0505,72.766 50.0513,119.4 -8e-4,47.036 -16.6845,87.037 -50.0513,120.002 -32.9662,32.966 -72.7659,49.448 -119.3994,49.448 -47.0367,0 -87.0375,-16.482 -120.0024,-49.448 -32.966,-32.965 -49.4487,-72.966 -49.4483,-120.002 -4e-4,-46.634 16.4823,-86.434 49.4483,-119.4 32.9649,-33.367 72.9657,-50.051 120.0024,-50.051"
     id="path4701"
     style="fill:#ffffff;stroke:none" /></g>
       </g>
      </g>
      <g
   id="g269">
       <g
   id="id34">
        <g
   id="text272"><path
     d="m 2207.5,12954.924 c 46.6335,0 86.4332,16.684 119.3994,50.051 33.3668,32.966 50.0505,72.766 50.0513,119.4 -8e-4,47.036 -16.6845,87.037 -50.0513,120.002 -32.9662,32.966 -72.7659,49.448 -119.3994,49.448 -47.0367,0 -87.0375,-16.482 -120.0024,-49.448 -32.966,-32.965 -49.4487,-72.966 -49.4483,-120.002 -4e-4,-46.634 16.4823,-86.434 49.4483,-119.4 32.9649,-33.367 72.9657,-50.051 120.0024,-50.051"
     id="path4704"
     style="fill:#000000;stroke:none" /></g>
       </g>
      </g>
      <g
   id="g280">
       <g
   id="id35">
        <path
   d="m 4413,13870 -441,-764 -882,0 -441,764 441,764 882,0 441,-764 z"
   id="path283"
   style="fill:#e8ab6f;stroke:none" />
       </g>
      </g>
      <g
   id="g285">
       <g
   id="id36">
        <path
   d="m 5735,14634 -441,-764 -882,0 -441,764 441,764 882,0 441,-764 z"
   id="path288"
   style="fill:#ffce9e;stroke:none" />
       </g>
      </g>
      <g
   id="g290">
       <g
   id="id37">
        <path
   d="m 7058,15398 -441,-764 -882,0 -441,764 441,764 882,0 441,-764 z"
   id="path293"
   style="fill:#d18b47;stroke:none" />
       </g>
      </g>
      <g
   id="g295">
       <g
   id="id38">
        <path
   d="m 8380,16161 -441,-764 -882,0 -441,764 441,764 882,0 441,-764 z"
   id="path298"
   style="fill:#e8ab6f;stroke:none" />
       </g>
      </g>
      <g
   id="g300">
       <g
   id="id39">
        <path
   d="m 9263,16161 -882,0 -441,764 441,764 882,0 441,-764 -441,-764 z"
   id="path303"
   style="fill:#ffce9e;stroke:none" />
       </g>
      </g>
      <g
   id="g305">
       <g
   id="id40">
        <g
   id="text308"><path
     d="m 8820.5,16773.924 c 46.6335,0 86.4332,16.684 119.3994,50.051 33.3668,32.966 50.0505,72.766 50.0513,119.4 -8e-4,47.036 -16.6845,87.037 -50.0513,120.002 -32.9662,32.966 -72.7659,49.448 -119.3994,49.448 -47.0367,0 -87.0375,-16.482 -120.0024,-49.448 -32.966,-32.965 -49.4487,-72.966 -49.4483,-120.002 -4e-4,-46.634 16.4823,-86.434 49.4483,-119.4 32.9649,-33.367 72.9657,-50.051 120.0024,-50.051"
     id="path4707"
     style="fill:#ffffff;stroke:none" /></g>
       </g>
      </g>
      <g
   id="g316">
       <g
   id="id41">
        <g
   id="text319"><path
     d="m 8820.5,16773.924 c 46.6335,0 86.4332,16.684 119.3994,50.051 33.3668,32.966 50.0505,72.766 50.0513,119.4 -8e-4,47.036 -16.6845,87.037 -50.0513,120.002 -32.9662,32.966 -72.7659,49.448 -119.3994,49.448 -47.0367,0 -87.0375,-16.482 -120.0024,-49.448 -32.966,-32.965 -49.4487,-72.966 -49.4483,-120.002 -4e-4,-46.634 16.4823,-86.434 49.4483,-119.4 32.9649,-33.367 72.9657,-50.051 120.0024,-50.051"
     id="path4710"
     style="fill:#000000;stroke:none" /></g>
       </g>
      </g>
      <g
   id="g327">
       <g
   id="id42">
        <path
   d="m 10586,15397 -882,0 -441,764 441,764 882,0 441,-764 -441,-764 z"
   id="path330"
   style="fill:#e8ab6f;stroke:none" />
       </g>
      </g>
      <g
   id="g332">
       <g
   id="id43">
        <path
   d="m 11909,14634 -882,0 -441,764 441,764 882,0 441,-764 -441,-764 z"
   id="path335"
   style="fill:#d18b47;stroke:none" />
       </g>
      </g>
      <g
   id="g337">
       <g
   id="id44">
        <path
   d="m 13232,13870 -882,0 -441,764 441,764 882,0 441,-764 -441,-764 z"
   id="path340"
   style="fill:#ffce9e;stroke:none" />
       </g>
      </g>
      <g
   id="g342">
       <g
   id="id45">
        <path
   d="m 14555,13106 -882,0 -441,764 441,764 882,0 441,-764 -441,-764 z"
   id="path345"
   style="fill:#e8ab6f;stroke:none" />
       </g>
      </g>
      <g
   id="g347">
       <g
   id="id46">
        <path
   d="m 15878,12342 -882,0 -441,764 441,764 882,0 441,-764 -441,-764 z"
   id="path350"
   style="fill:#d18b47;stroke:none" />
       </g>
      </g>
      <g
   id="g352">
       <g
   id="id47">
        <g
   id="text355"><path
     d="m 15436.5,12954.924 c 46.633,0 86.433,16.684 119.399,50.051 33.367,32.966 50.051,72.766 50.052,119.4 -10e-4,47.036 -16.685,87.037 -50.052,120.002 -32.966,32.966 -72.766,49.448 -119.399,49.448 -47.037,0 -87.037,-16.482 -120.002,-49.448 -32.966,-32.965 -49.449,-72.966 -49.449,-120.002 0,-46.634 16.483,-86.434 49.449,-119.4 32.965,-33.367 72.965,-50.051 120.002,-50.051"
     id="path4713"
     style="fill:#ffffff;stroke:none" /></g>
       </g>
      </g>
      <g
   id="g363">
       <g
   id="id48">
        <g
   id="text366"><path
     d="m 15436.5,12954.924 c 46.633,0 86.433,16.684 119.399,50.051 33.367,32.966 50.051,72.766 50.052,119.4 -10e-4,47.036 -16.685,87.037 -50.052,120.002 -32.966,32.966 -72.766,49.448 -119.399,49.448 -47.037,0 -87.037,-16.482 -120.002,-49.448 -32.966,-32.965 -49.449,-72.966 -49.449,-120.002 0,-46.634 16.483,-86.434 49.449,-119.4 32.965,-33.367 72.965,-50.051 120.002,-50.051"
     id="path4716"
     style="fill:#000000;stroke:none" /></g>
       </g>
      </g>
      <g
   id="g374">
       <g
   id="id49" />
      </g>
      <g
   id="g377">
       <g
   id="id50">
        <g
   id="text380"><path
     d="m 16743.438,12317.59 0,445.41 77.616,0 0,-625.338 -51.156,0 c -27.342,96.138 -44.982,109.368 -164.934,124.362 l 0,55.566 138.474,0"
     id="path4719"
     style="fill:#000000;stroke:none" /></g>
       </g>
      </g>
      <g
   id="g388">
       <g
   id="id51" />
      </g>
      <g
   id="g391">
       <g
   id="id52">
        <g
   id="text394"><path
     d="m 1086.292,11156.266 -328.986,0 c 7.93799,-51.156 36.16208,-83.79 112.896,-128.772 l 88.2,-47.628 c 87.3179,-47.628 132.3,-112.014 132.3,-188.748 0,-52.038 -21.168,-100.548 -58.212,-134.064 -37.04396,-33.516 -82.90806,-49.392 -142.002,-49.392 -79.37992,0 -138.47403,28.224 -172.872,81.144 -22.04998,33.516 -31.752,72.324 -33.516,135.828 l 77.616,0 c 2.646,-42.336 7.93801,-67.914 18.522,-88.2 20.28598,-37.926 60.85805,-60.858 107.604,-60.858 70.55993,0 123.48,50.274 123.48,117.306 0,49.392 -29.10606,91.728 -84.672,123.48 l -81.144,45.864 c -130.53587,74.088 -168.46201,133.182 -175.518,270.774 l 416.304,0 0,-76.734"
     id="path4722"
     style="fill:#000000;stroke:none" /></g>
       </g>
      </g>
      <g
   id="g402">
       <g
   id="id53">
        <path
   d="m 3090,11579 -441,-764 -882,0 -441,764 441,764 882,0 441,-764 z"
   id="path405"
   style="fill:#e8ab6f;stroke:none" />
       </g>
      </g>
      <g
   id="g407">
       <g
   id="id54">
        <path
   d="m 4413,12343 -441,-764 -882,0 -441,764 441,764 882,0 441,-764 z"
   id="path410"
   style="fill:#ffce9e;stroke:none" />
       </g>
      </g>
      <g
   id="g412">
       <g
   id="id55">
        <g
   id="text415"><path
     d="m 3530.5,12190.924 c 46.6335,0 86.4332,16.684 119.3994,50.051 33.3668,32.966 50.0505,72.766 50.0513,119.4 -8e-4,47.036 -16.6845,87.037 -50.0513,120.002 -32.9662,32.966 -72.7659,49.448 -119.3994,49.448 -47.0367,0 -87.0375,-16.482 -120.0024,-49.448 -32.966,-32.965 -49.4487,-72.966 -49.4483,-120.002 -4e-4,-46.634 16.4823,-86.434 49.4483,-119.4 32.9649,-33.367 72.9657,-50.051 120.0024,-50.051"
     id="path4725"
     style="fill:#ffffff;stroke:none" /></g>
       </g>
      </g>
      <g
   id="g423">
       <g
   id="id56">
        <g
   id="text426"><path
     d="m 3530.5,12190.924 c 46.6335,0 86.4332,16.684 119.3994,50.051 33.3668,32.966 50.0505,72.766 50.0513,119.4 -8e-4,47.036 -16.6845,87.037 -50.0513,120.002 -32.9662,32.966 -72.7659,49.448 -119.3994,49.448 -47.0367,0 -87.0375,-16.482 -120.0024,-49.448 -32.966,-32.965 -49.4487,-72.966 -49.4483,-120.002 -4e-4,-46.634 16.4823,-86.434 49.4483,-119.4 32.9649,-33.367 72.9657,-50.051 120.0024,-50.051"
     id="path4728"
     style="fill:#000000;stroke:none" /></g>
       </g>
      </g>
      <g
   id="g434">
       <g
   id="id57">
        <path
   d="m 5735,13106 -441,-764 -882,0 -441,764 441,764 882,0 441,-764 z"
   id="path437"
   style="fill:#d18b47;stroke:none" />
       </g>
      </g>
      <g
   id="g439">
       <g
   id="id58">
        <path
   d="m 7058,13870 -441,-764 -882,0 -441,764 441,764 882,0 441,-764 z"
   id="path442"
   style="fill:#e8ab6f;stroke:none" />
       </g>
      </g>
      <g
   id="g444">
       <g
   id="id59">
        <path
   d="m 8381,14634 -441,-764 -882,0 -441,764 441,764 882,0 441,-764 z"
   id="path447"
   style="fill:#ffce9e;stroke:none" />
       </g>
      </g>
      <g
   id="g449">
       <g
   id="id60">
        <path
   d="m 9263,14634 -882,0 -441,764 441,764 882,0 441,-764 -441,-764 z"
   id="path452"
   style="fill:#d18b47;stroke:none" />
       </g>
      </g>
      <g
   id="g454">
       <g
   id="id61">
        <g
   id="text457"><path
     d="m 8820.5,15246.924 c 46.6335,0 86.4332,16.684 119.3994,50.051 33.3668,32.966 50.0505,72.766 50.0513,119.4 -8e-4,47.036 -16.6845,87.037 -50.0513,120.002 -32.9662,32.966 -72.7659,49.448 -119.3994,49.448 -47.0367,0 -87.0375,-16.482 -120.0024,-49.448 -32.966,-32.965 -49.4487,-72.966 -49.4483,-120.002 -4e-4,-46.634 16.4823,-86.434 49.4483,-119.4 32.9649,-33.367 72.9657,-50.051 120.0024,-50.051"
     id="path4731"
     style="fill:#ffffff;stroke:none" /></g>
       </g>
      </g>
      <g
   id="g465">
       <g
   id="id62">
        <g
   id="text468"><path
     d="m 8820.5,15246.924 c 46.6335,0 86.4332,16.684 119.3994,50.051 33.3668,32.966 50.0505,72.766 50.0513,119.4 -8e-4,47.036 -16.6845,87.037 -50.0513,120.002 -32.9662,32.966 -72.7659,49.448 -119.3994,49.448 -47.0367,0 -87.0375,-16.482 -120.0024,-49.448 -32.966,-32.965 -49.4487,-72.966 -49.4483,-120.002 -4e-4,-46.634 16.4823,-86.434 49.4483,-119.4 32.9649,-33.367 72.9657,-50.051 120.0024,-50.051"
     id="path4734"
     style="fill:#000000;stroke:none" /></g>
       </g>
      </g>
      <g
   id="g476">
       <g
   id="id63">
        <path
   d="m 10586,13870 -882,0 -441,764 441,764 882,0 441,-764 -441,-764 z"
   id="path479"
   style="fill:#ffce9e;stroke:none" />
       </g>
      </g>
      <g
   id="g481">
       <g
   id="id64">
        <path
   d="m 11909,13106 -882,0 -441,764 441,764 882,0 441,-764 -441,-764 z"
   id="path484"
   style="fill:#e8ab6f;stroke:none" />
       </g>
      </g>
      <g
   id="g486">
       <g
   id="id65">
        <path
   d="m 13232,12342 -882,0 -441,764 441,764 882,0 441,-764 -441,-764 z"
   id="path489"
   style="fill:#d18b47;stroke:none" />
       </g>
      </g>
      <g
   id="g491">
       <g
   id="id66">
        <path
   d="m 14555,11579 -882,0 -441,764 441,764 882,0 441,-764 -441,-764 z"
   id="path494"
   style="fill:#ffce9e;stroke:none" />
       </g>
      </g>
      <g
   id="g496">
       <g
   id="id67">
        <g
   id="text499"><path
     d="m 14111.5,12190.924 c 46.633,0 86.433,16.684 119.399,50.051 33.367,32.966 50.051,72.766 50.052,119.4 -10e-4,47.036 -16.685,87.037 -50.052,120.002 -32.966,32.966 -72.766,49.448 -119.399,49.448 -47.037,0 -87.037,-16.482 -120.002,-49.448 -32.966,-32.965 -49.449,-72.966 -49.449,-120.002 0,-46.634 16.483,-86.434 49.449,-119.4 32.965,-33.367 72.965,-50.051 120.002,-50.051"
     id="path4737"
     style="fill:#ffffff;stroke:none" /></g>
       </g>
      </g>
      <g
   id="g507">
       <g
   id="id68">
        <g
   id="text510"><path
     d="m 14111.5,12190.924 c 46.633,0 86.433,16.684 119.399,50.051 33.367,32.966 50.051,72.766 50.052,119.4 -10e-4,47.036 -16.685,87.037 -50.052,120.002 -32.966,32.966 -72.766,49.448 -119.399,49.448 -47.037,0 -87.037,-16.482 -120.002,-49.448 -32.966,-32.965 -49.449,-72.966 -49.449,-120.002 0,-46.634 16.483,-86.434 49.449,-119.4 32.965,-33.367 72.965,-50.051 120.002,-50.051"
     id="path4740"
     style="fill:#000000;stroke:none" /></g>
       </g>
      </g>
      <g
   id="g518">
       <g
   id="id69">
        <path
   d="m 15878,10813 -882,0 -441,764 441,764 882,0 441,-764 -441,-764 z"
   id="path521"
   style="fill:#e8ab6f;stroke:none" />
       </g>
      </g>
      <g
   id="g523">
       <g
   id="id70" />
      </g>
      <g
   id="g526">
       <g
   id="id71">
        <g
   id="text529"><path
     d="m 16959.292,11156.266 -328.986,0 c 7.938,-51.156 36.162,-83.79 112.896,-128.772 l 88.2,-47.628 c 87.318,-47.628 132.3,-112.014 132.3,-188.748 0,-52.038 -21.168,-100.548 -58.212,-134.064 -37.044,-33.516 -82.908,-49.392 -142.002,-49.392 -79.38,0 -138.474,28.224 -172.872,81.144 -22.05,33.516 -31.752,72.324 -33.516,135.828 l 77.616,0 c 2.646,-42.336 7.938,-67.914 18.522,-88.2 20.286,-37.926 60.858,-60.858 107.604,-60.858 70.56,0 123.48,50.274 123.48,117.306 0,49.392 -29.106,91.728 -84.672,123.48 l -81.144,45.864 c -130.536,74.088 -168.462,133.182 -175.518,270.774 l 416.304,0 0,-76.734"
     id="path4743"
     style="fill:#000000;stroke:none" /></g>
       </g>
      </g>
      <g
   id="g537">
       <g
   id="id72" />
      </g>
      <g
   id="g540">
       <g
   id="id73">
        <g
   id="text543"><path
     d="m 834.922,9421.35 9.702,0 32.634,-0.882 c 85.55391,0 129.654,38.8081 129.654,113.778 0,78.4979 -48.51008,125.244 -129.654,125.244 -84.67192,0 -126.12601,-42.3361 -131.418,-133.182 l -77.616,0 c 3.528,50.2739 12.34801,82.908 27.342,111.132 31.75197,59.9759 93.49209,90.846 179.046,90.846 128.7719,0 211.68,-76.7341 211.68,-194.922 0,-79.3799 -30.8701,-123.48 -105.84,-149.058 58.2119,-22.932 87.318,-67.0321 87.318,-129.654 0,-107.6039 -71.44212,-171.99 -190.512,-171.99 -126.12587,0 -193.158,68.7961 -195.804,201.978 l 77.616,0 c 0.882,-37.926 4.41001,-59.094 14.112,-78.498 17.63998,-34.398 56.44805,-55.566 104.958,-55.566 68.79593,0 110.25,40.5721 110.25,106.722 0,44.1 -15.87603,70.56 -50.274,84.672 -21.16798,8.82 -48.51005,12.348 -103.194,13.23 l 0,66.15"
     id="path4746"
     style="fill:#000000;stroke:none" /></g>
       </g>
      </g>
      <g
   id="g551">
       <g
   id="id74">
        <path
   d="m 3090,10051 -441,-764 -882,0 -441,764 441,764 882,0 441,-764 z"
   id="path554"
   style="fill:#ffce9e;stroke:none" />
       </g>
      </g>
      <g
   id="g556">
       <g
   id="id75">
        <path
   d="m 4413,10815 -441,-764 -882,0 -441,764 441,764 882,0 441,-764 z"
   id="path559"
   style="fill:#d18b47;stroke:none" />
       </g>
      </g>
      <g
   id="g561">
       <g
   id="id76">
        <path
   d="m 5735,11579 -441,-764 -882,0 -441,764 441,764 882,0 441,-764 z"
   id="path564"
   style="fill:#e8ab6f;stroke:none" />
       </g>
      </g>
      <g
   id="g566">
       <g
   id="id77">
        <g
   id="text569"><path
     d="m 4853.5,11427.924 c 46.6335,0 86.4332,16.684 119.3994,50.051 33.3668,32.966 50.0505,72.766 50.0513,119.4 -8e-4,47.036 -16.6845,87.037 -50.0513,120.002 -32.9662,32.966 -72.7659,49.448 -119.3994,49.448 -47.0367,0 -87.0375,-16.482 -120.0024,-49.448 -32.966,-32.965 -49.4487,-72.966 -49.4483,-120.002 -4e-4,-46.634 16.4823,-86.434 49.4483,-119.4 32.9649,-33.367 72.9657,-50.051 120.0024,-50.051"
     id="path4749"
     style="fill:#ffffff;stroke:none" /></g>
       </g>
      </g>
      <g
   id="g577">
       <g
   id="id78">
        <g
   id="text580"><path
     d="m 4853.5,11427.924 c 46.6335,0 86.4332,16.684 119.3994,50.051 33.3668,32.966 50.0505,72.766 50.0513,119.4 -8e-4,47.036 -16.6845,87.037 -50.0513,120.002 -32.9662,32.966 -72.7659,49.448 -119.3994,49.448 -47.0367,0 -87.0375,-16.482 -120.0024,-49.448 -32.966,-32.965 -49.4487,-72.966 -49.4483,-120.002 -4e-4,-46.634 16.4823,-86.434 49.4483,-119.4 32.9649,-33.367 72.9657,-50.051 120.0024,-50.051"
     id="path4752"
     style="fill:#000000;stroke:none" /></g>
       </g>
      </g>
      <g
   id="g588">
       <g
   id="id79">
        <path
   d="m 7058,12343 -441,-764 -882,0 -441,764 441,764 882,0 441,-764 z"
   id="path591"
   style="fill:#ffce9e;stroke:none" />
       </g>
      </g>
      <g
   id="g593">
       <g
   id="id80">
        <path
   d="m 8381,13106 -441,-764 -882,0 -441,764 441,764 882,0 441,-764 z"
   id="path596"
   style="fill:#d18b47;stroke:none" />
       </g>
      </g>
      <g
   id="g598">
       <g
   id="id81">
        <path
   d="m 9263,13106 -882,0 -441,764 441,764 882,0 441,-764 -441,-764 z"
   id="path601"
   style="fill:#e8ab6f;stroke:none" />
       </g>
      </g>
      <g
   id="g603">
       <g
   id="id82">
        <g
   id="text606"><path
     d="m 8820.5,13718.924 c 46.6335,0 86.4332,16.684 119.3994,50.051 33.3668,32.966 50.0505,72.766 50.0513,119.4 -8e-4,47.036 -16.6845,87.037 -50.0513,120.002 -32.9662,32.966 -72.7659,49.448 -119.3994,49.448 -47.0367,0 -87.0375,-16.482 -120.0024,-49.448 -32.966,-32.965 -49.4487,-72.966 -49.4483,-120.002 -4e-4,-46.634 16.4823,-86.434 49.4483,-119.4 32.9649,-33.367 72.9657,-50.051 120.0024,-50.051"
     id="path4755"
     style="fill:#ffffff;stroke:none" /></g>
       </g>
      </g>
      <g
   id="g614">
       <g
   id="id83">
        <g
   id="text617"><path
     d="m 8820.5,13718.924 c 46.6335,0 86.4332,16.684 119.3994,50.051 33.3668,32.966 50.0505,72.766 50.0513,119.4 -8e-4,47.036 -16.6845,87.037 -50.0513,120.002 -32.9662,32.966 -72.7659,49.448 -119.3994,49.448 -47.0367,0 -87.0375,-16.482 -120.0024,-49.448 -32.966,-32.965 -49.4487,-72.966 -49.4483,-120.002 -4e-4,-46.634 16.4823,-86.434 49.4483,-119.4 32.9649,-33.367 72.9657,-50.051 120.0024,-50.051"
     id="path4758"
     style="fill:#000000;stroke:none" /></g>
       </g>
      </g>
      <g
   id="g625">
       <g
   id="id84">
        <path
   d="m 10586,12342 -882,0 -441,764 441,764 882,0 441,-764 -441,-764 z"
   id="path628"
   style="fill:#d18b47;stroke:none" />
       </g>
      </g>
      <g
   id="g630">
       <g
   id="id85">
        <path
   d="m 11909,11579 -882,0 -441,764 441,764 882,0 441,-764 -441,-764 z"
   id="path633"
   style="fill:#ffce9e;stroke:none" />
       </g>
      </g>
      <g
   id="g635">
       <g
   id="id86">
        <path
   d="m 13232,10815 -882,0 -441,764 441,764 882,0 441,-764 -441,-764 z"
   id="path638"
   style="fill:#e8ab6f;stroke:none" />
       </g>
      </g>
      <g
   id="g640">
       <g
   id="id87">
        <g
   id="text643"><path
     d="m 12790.5,11427.924 c 46.633,0 86.433,16.684 119.399,50.051 33.367,32.966 50.051,72.766 50.052,119.4 -10e-4,47.036 -16.685,87.037 -50.052,120.002 -32.966,32.966 -72.766,49.448 -119.399,49.448 -47.037,0 -87.037,-16.482 -120.002,-49.448 -32.966,-32.965 -49.449,-72.966 -49.449,-120.002 0,-46.634 16.483,-86.434 49.449,-119.4 32.965,-33.367 72.965,-50.051 120.002,-50.051"
     id="path4761"
     style="fill:#ffffff;stroke:none" /></g>
       </g>
      </g>
      <g
   id="g651">
       <g
   id="id88">
        <g
   id="text654"><path
     d="m 12790.5,11427.924 c 46.633,0 86.433,16.684 119.399,50.051 33.367,32.966 50.051,72.766 50.052,119.4 -10e-4,47.036 -16.685,87.037 -50.052,120.002 -32.966,32.966 -72.766,49.448 -119.399,49.448 -47.037,0 -87.037,-16.482 -120.002,-49.448 -32.966,-32.965 -49.449,-72.966 -49.449,-120.002 0,-46.634 16.483,-86.434 49.449,-119.4 32.965,-33.367 72.965,-50.051 120.002,-50.051"
     id="path4764"
     style="fill:#000000;stroke:none" /></g>
       </g>
      </g>
      <g
   id="g662">
       <g
   id="id89">
        <path
   d="m 14555,10051 -882,0 -441,764 441,764 882,0 441,-764 -441,-764 z"
   id="path665"
   style="fill:#d18b47;stroke:none" />
       </g>
      </g>
      <g
   id="g667">
       <g
   id="id90">
        <path
   d="m 15878,9287 -882,0 -441,764 441,764 882,0 441,-764 -441,-764 z"
   id="path670"
   style="fill:#ffce9e;stroke:none" />
       </g>
      </g>
      <g
   id="g672">
       <g
   id="id91" />
      </g>
      <g
   id="g675">
       <g
   id="id92">
        <g
   id="text678"><path
     d="m 16709.922,9421.35 9.702,0 32.634,-0.882 c 85.554,0 129.654,38.8081 129.654,113.778 0,78.4979 -48.51,125.244 -129.654,125.244 -84.672,0 -126.126,-42.3361 -131.418,-133.182 l -77.616,0 c 3.528,50.2739 12.348,82.908 27.342,111.132 31.752,59.9759 93.492,90.846 179.046,90.846 128.772,0 211.68,-76.7341 211.68,-194.922 0,-79.3799 -30.87,-123.48 -105.84,-149.058 58.212,-22.932 87.318,-67.0321 87.318,-129.654 0,-107.6039 -71.442,-171.99 -190.512,-171.99 -126.126,0 -193.158,68.7961 -195.804,201.978 l 77.616,0 c 0.882,-37.926 4.41,-59.094 14.112,-78.498 17.64,-34.398 56.448,-55.566 104.958,-55.566 68.796,0 110.25,40.5721 110.25,106.722 0,44.1 -15.876,70.56 -50.274,84.672 -21.168,8.82 -48.51,12.348 -103.194,13.23 l 0,66.15"
     id="path4767"
     style="fill:#000000;stroke:none" /></g>
       </g>
      </g>
      <g
   id="g686">
       <g
   id="id93" />
      </g>
      <g
   id="g689">
       <g
   id="id94">
        <g
   id="text692"><path
     d="m 928.414,8028.06 0,149.94 77.616,0 0,-149.94 92.61,0 0,-69.678 -92.61,0 0,-405.72 -57.33,0 -284.004,393.372 0,82.026 263.718,0 m 0,-69.678 -195.804,0 195.804,-273.42 0,273.42"
     id="path4770"
     style="fill:#000000;stroke:none" /></g>
       </g>
      </g>
      <g
   id="g700">
       <g
   id="id95">
        <path
   d="m 3090,8524 -441,-764 -882,0 -441,764 441,764 882,0 441,-764 z"
   id="path703"
   style="fill:#d18b47;stroke:none" />
       </g>
      </g>
      <g
   id="g705">
       <g
   id="id96">
        <path
   d="m 4413,9288 -441,-764 -882,0 -441,764 441,764 882,0 441,-764 z"
   id="path708"
   style="fill:#e8ab6f;stroke:none" />
       </g>
      </g>
      <g
   id="g710">
       <g
   id="id97">
        <path
   d="m 5735,10051 -441,-764 -882,0 -441,764 441,764 882,0 441,-764 z"
   id="path713"
   style="fill:#ffce9e;stroke:none" />
       </g>
      </g>
      <g
   id="g715">
       <g
   id="id98">
        <path
   d="m 7058,10815 -441,-764 -882,0 -441,764 441,764 882,0 441,-764 z"
   id="path718"
   style="fill:#d18b47;stroke:none" />
       </g>
      </g>
      <g
   id="g720">
       <g
   id="id99">
        <g
   id="text723"><path
     d="m 6176.5,10663.924 c 46.6335,0 86.4332,16.684 119.3994,50.051 33.3668,32.966 50.0505,72.766 50.0513,119.4 -8e-4,47.036 -16.6845,87.037 -50.0513,120.002 -32.9662,32.966 -72.7659,49.448 -119.3994,49.448 -47.0367,0 -87.0375,-16.482 -120.0024,-49.448 -32.966,-32.965 -49.4487,-72.966 -49.4483,-120.002 -4e-4,-46.634 16.4823,-86.434 49.4483,-119.4 32.9649,-33.367 72.9657,-50.051 120.0024,-50.051"
     id="path4773"
     style="fill:#ffffff;stroke:none" /></g>
       </g>
      </g>
      <g
   id="g731">
       <g
   id="id100">
        <g
   id="text734"><path
     d="m 6176.5,10663.924 c 46.6335,0 86.4332,16.684 119.3994,50.051 33.3668,32.966 50.0505,72.766 50.0513,119.4 -8e-4,47.036 -16.6845,87.037 -50.0513,120.002 -32.9662,32.966 -72.7659,49.448 -119.3994,49.448 -47.0367,0 -87.0375,-16.482 -120.0024,-49.448 -32.966,-32.965 -49.4487,-72.966 -49.4483,-120.002 -4e-4,-46.634 16.4823,-86.434 49.4483,-119.4 32.9649,-33.367 72.9657,-50.051 120.0024,-50.051"
     id="path4776"
     style="fill:#000000;stroke:none" /></g>
       </g>
      </g>
      <g
   id="g742">
       <g
   id="id101">
        <path
   d="m 8381,11579 -441,-764 -882,0 -441,764 441,764 882,0 441,-764 z"
   id="path745"
   style="fill:#e8ab6f;stroke:none" />
       </g>
      </g>
      <g
   id="g747">
       <g
   id="id102">
        <path
   d="m 9263,11579 -882,0 -441,764 441,764 882,0 441,-764 -441,-764 z"
   id="path750"
   style="fill:#ffce9e;stroke:none" />
       </g>
      </g>
      <g
   id="g752">
       <g
   id="id103">
        <g
   id="text755"><path
     d="m 8820.5,12190.924 c 46.6335,0 86.4332,16.684 119.3994,50.051 33.3668,32.966 50.0505,72.766 50.0513,119.4 -8e-4,47.036 -16.6845,87.037 -50.0513,120.002 -32.9662,32.966 -72.7659,49.448 -119.3994,49.448 -47.0367,0 -87.0375,-16.482 -120.0024,-49.448 -32.966,-32.965 -49.4487,-72.966 -49.4483,-120.002 -4e-4,-46.634 16.4823,-86.434 49.4483,-119.4 32.9649,-33.367 72.9657,-50.051 120.0024,-50.051"
     id="path4779"
     style="fill:#ffffff;stroke:none" /></g>
       </g>
      </g>
      <g
   id="g763">
       <g
   id="id104">
        <g
   id="text766"><path
     d="m 8820.5,12190.924 c 46.6335,0 86.4332,16.684 119.3994,50.051 33.3668,32.966 50.0505,72.766 50.0513,119.4 -8e-4,47.036 -16.6845,87.037 -50.0513,120.002 -32.9662,32.966 -72.7659,49.448 -119.3994,49.448 -47.0367,0 -87.0375,-16.482 -120.0024,-49.448 -32.966,-32.965 -49.4487,-72.966 -49.4483,-120.002 -4e-4,-46.634 16.4823,-86.434 49.4483,-119.4 32.9649,-33.367 72.9657,-50.051 120.0024,-50.051"
     id="path4782"
     style="fill:#000000;stroke:none" /></g>
       </g>
      </g>
      <g
   id="g774">
       <g
   id="id105">
        <path
   d="m 10586,10815 -882,0 -441,764 441,764 882,0 441,-764 -441,-764 z"
   id="path777"
   style="fill:#e8ab6f;stroke:none" />
       </g>
      </g>
      <g
   id="g779">
       <g
   id="id106">
        <path
   d="m 11909,10051 -882,0 -441,764 441,764 882,0 441,-764 -441,-764 z"
   id="path782"
   style="fill:#d18b47;stroke:none" />
       </g>
      </g>
      <g
   id="g784">
       <g
   id="id107">
        <g
   id="text787"><path
     d="m 11467.5,10663.924 c 46.633,0 86.433,16.684 119.399,50.051 33.367,32.966 50.051,72.766 50.052,119.4 -10e-4,47.036 -16.685,87.037 -50.052,120.002 -32.966,32.966 -72.766,49.448 -119.399,49.448 -47.037,0 -87.037,-16.482 -120.002,-49.448 -32.966,-32.965 -49.449,-72.966 -49.449,-120.002 0,-46.634 16.483,-86.434 49.449,-119.4 32.965,-33.367 72.965,-50.051 120.002,-50.051"
     id="path4785"
     style="fill:#ffffff;stroke:none" /></g>
       </g>
      </g>
      <g
   id="g795">
       <g
   id="id108">
        <g
   id="text798"><path
     d="m 11467.5,10663.924 c 46.633,0 86.433,16.684 119.399,50.051 33.367,32.966 50.051,72.766 50.052,119.4 -10e-4,47.036 -16.685,87.037 -50.052,120.002 -32.966,32.966 -72.766,49.448 -119.399,49.448 -47.037,0 -87.037,-16.482 -120.002,-49.448 -32.966,-32.965 -49.449,-72.966 -49.449,-120.002 0,-46.634 16.483,-86.434 49.449,-119.4 32.965,-33.367 72.965,-50.051 120.002,-50.051"
     id="path4788"
     style="fill:#000000;stroke:none" /></g>
       </g>
      </g>
      <g
   id="g806">
       <g
   id="id109">
        <path
   d="m 13232,9287 -882,0 -441,764 441,764 882,0 441,-764 -441,-764 z"
   id="path809"
   style="fill:#ffce9e;stroke:none" />
       </g>
      </g>
      <g
   id="g811">
       <g
   id="id110">
        <path
   d="m 14555,8524 -882,0 -441,764 441,764 882,0 441,-764 -441,-764 z"
   id="path814"
   style="fill:#e8ab6f;stroke:none" />
       </g>
      </g>
      <g
   id="g816">
       <g
   id="id111">
        <path
   d="m 15878,7760 -882,0 -441,764 441,764 882,0 441,-764 -441,-764 z"
   id="path819"
   style="fill:#d18b47;stroke:none" />
       </g>
      </g>
      <g
   id="g821">
       <g
   id="id112" />
      </g>
      <g
   id="g824">
       <g
   id="id113">
        <g
   id="text827"><path
     d="m 16803.414,8028.06 0,149.94 77.616,0 0,-149.94 92.61,0 0,-69.678 -92.61,0 0,-405.72 -57.33,0 -284.004,393.372 0,82.026 263.718,0 m 0,-69.678 -195.804,0 195.804,-273.42 0,273.42"
     id="path4791"
     style="fill:#000000;stroke:none" /></g>
       </g>
      </g>
      <g
   id="g835">
       <g
   id="id114" />
      </g>
      <g
   id="g838">
       <g
   id="id115">
        <g
   id="text841"><path
     d="m 1059.832,6027.662 -322.812,0 -46.746,340.452 71.442,0 c 36.16196,-43.218 66.15005,-58.212 114.66,-58.212 83.78992,0 136.71,57.3301 136.71,149.94 0,89.9639 -52.03808,144.648 -136.71,144.648 -67.91393,0 -109.36802,-34.3981 -127.89,-104.958 l -77.616,0 c 10.58399,51.1559 19.40402,75.852 37.926,98.784 35.27996,47.628 98.78407,74.97 169.344,74.97 126.1259,0 214.326,-91.7281 214.326,-224.028 0,-123.4799 -82.0261,-208.152 -201.978,-208.152 -44.09996,0 -79.38004,11.466 -115.542,37.926 l 24.696,-174.636 260.19,0 0,-76.734"
     id="path4794"
     style="fill:#000000;stroke:none" /></g>
       </g>
      </g>
      <g
   id="g849">
       <g
   id="id116">
        <path
   d="m 3090,6996 -441,-764 -882,0 -441,764 441,764 882,0 441,-764 z"
   id="path852"
   style="fill:#e8ab6f;stroke:none" />
       </g>
      </g>
      <g
   id="g854">
       <g
   id="id117">
        <path
   d="m 4413,7760 -441,-764 -882,0 -441,764 441,764 882,0 441,-764 z"
   id="path857"
   style="fill:#ffce9e;stroke:none" />
       </g>
      </g>
      <g
   id="g859">
       <g
   id="id118">
        <path
   d="m 5735,8524 -441,-764 -882,0 -441,764 441,764 882,0 441,-764 z"
   id="path862"
   style="fill:#d18b47;stroke:none" />
       </g>
      </g>
      <g
   id="g864">
       <g
   id="id119">
        <path
   d="m 7058,9288 -441,-764 -882,0 -441,764 441,764 882,0 441,-764 z"
   id="path867"
   style="fill:#e8ab6f;stroke:none" />
       </g>
      </g>
      <g
   id="g869">
       <g
   id="id120">
        <path
   d="m 8381,10051 -441,-764 -882,0 -441,764 441,764 882,0 441,-764 z"
   id="path872"
   style="fill:#ffce9e;stroke:none" />
       </g>
      </g>
      <g
   id="g874">
       <g
   id="id121">
        <g
   id="text877"><path
     d="m 7497.5,9899.9238 c 46.6335,6e-4 86.4332,16.6843 119.3994,50.0513 33.3668,32.9659 50.0505,72.7659 50.0513,119.3999 -8e-4,47.036 -16.6845,87.037 -50.0513,120.002 -32.9662,32.966 -72.7659,49.448 -119.3994,49.448 -47.0367,0 -87.0375,-16.482 -120.0024,-49.448 -32.966,-32.965 -49.4487,-72.966 -49.4483,-120.002 -4e-4,-46.634 16.4823,-86.434 49.4483,-119.3999 32.9649,-33.367 72.9657,-50.0507 120.0024,-50.0513"
     id="path4797"
     style="fill:#ffffff;stroke:none" /></g>
       </g>
      </g>
      <g
   id="g885">
       <g
   id="id122">
        <g
   id="text888"><path
     d="m 7497.5,9899.9238 c 46.6335,6e-4 86.4332,16.6843 119.3994,50.0513 33.3668,32.9659 50.0505,72.7659 50.0513,119.3999 -8e-4,47.036 -16.6845,87.037 -50.0513,120.002 -32.9662,32.966 -72.7659,49.448 -119.3994,49.448 -47.0367,0 -87.0375,-16.482 -120.0024,-49.448 -32.966,-32.965 -49.4487,-72.966 -49.4483,-120.002 -4e-4,-46.634 16.4823,-86.434 49.4483,-119.3999 32.9649,-33.367 72.9657,-50.0507 120.0024,-50.0513"
     id="path4800"
     style="fill:#000000;stroke:none" /></g>
       </g>
      </g>
      <g
   id="g896">
       <g
   id="id123">
        <path
   d="m 9263,10051 -882,0 -441,764 441,764 882,0 441,-764 -441,-764 z"
   id="path899"
   style="fill:#d18b47;stroke:none" />
       </g>
      </g>
      <g
   id="g901">
       <g
   id="id124">
        <g
   id="text904"><path
     d="m 8820.5,10663.924 c 46.6335,0 86.4332,16.684 119.3994,50.051 33.3668,32.966 50.0505,72.766 50.0513,119.4 -8e-4,47.036 -16.6845,87.037 -50.0513,120.002 -32.9662,32.966 -72.7659,49.448 -119.3994,49.448 -47.0367,0 -87.0375,-16.482 -120.0024,-49.448 -32.966,-32.965 -49.4487,-72.966 -49.4483,-120.002 -4e-4,-46.634 16.4823,-86.434 49.4483,-119.4 32.9649,-33.367 72.9657,-50.051 120.0024,-50.051"
     id="path4803"
     style="fill:#ffffff;stroke:none" /></g>
       </g>
      </g>
      <g
   id="g912">
       <g
   id="id125">
        <g
   id="text915"><path
     d="m 8820.5,10663.924 c 46.6335,0 86.4332,16.684 119.3994,50.051 33.3668,32.966 50.0505,72.766 50.0513,119.4 -8e-4,47.036 -16.6845,87.037 -50.0513,120.002 -32.9662,32.966 -72.7659,49.448 -119.3994,49.448 -47.0367,0 -87.0375,-16.482 -120.0024,-49.448 -32.966,-32.965 -49.4487,-72.966 -49.4483,-120.002 -4e-4,-46.634 16.4823,-86.434 49.4483,-119.4 32.9649,-33.367 72.9657,-50.051 120.0024,-50.051"
     id="path4806"
     style="fill:#000000;stroke:none" /></g>
       </g>
      </g>
      <g
   id="g923">
       <g
   id="id126">
        <path
   d="m 10586,9287 -882,0 -441,764 441,764 882,0 441,-764 -441,-764 z"
   id="path926"
   style="fill:#ffce9e;stroke:none" />
       </g>
      </g>
      <g
   id="g928">
       <g
   id="id127">
        <g
   id="text931"><path
     d="m 10143.5,9899.9238 c 46.633,6e-4 86.433,16.6843 119.399,50.0513 33.367,32.9659 50.051,72.7659 50.052,119.3999 -10e-4,47.036 -16.685,87.037 -50.052,120.002 -32.966,32.966 -72.766,49.448 -119.399,49.448 -47.037,0 -87.037,-16.482 -120.002,-49.448 -32.9664,-32.965 -49.4491,-72.966 -49.4487,-120.002 -4e-4,-46.634 16.4823,-86.434 49.4487,-119.3999 32.965,-33.367 72.965,-50.0507 120.002,-50.0513"
     id="path4809"
     style="fill:#ffffff;stroke:none" /></g>
       </g>
      </g>
      <g
   id="g939">
       <g
   id="id128">
        <g
   id="text942"><path
     d="m 10143.5,9899.9238 c 46.633,6e-4 86.433,16.6843 119.399,50.0513 33.367,32.9659 50.051,72.7659 50.052,119.3999 -10e-4,47.036 -16.685,87.037 -50.052,120.002 -32.966,32.966 -72.766,49.448 -119.399,49.448 -47.037,0 -87.037,-16.482 -120.002,-49.448 -32.9664,-32.965 -49.4491,-72.966 -49.4487,-120.002 -4e-4,-46.634 16.4823,-86.434 49.4487,-119.3999 32.965,-33.367 72.965,-50.0507 120.002,-50.0513"
     id="path4812"
     style="fill:#000000;stroke:none" /></g>
       </g>
      </g>
      <g
   id="g950">
       <g
   id="id129">
        <path
   d="m 11909,8524 -882,0 -441,764 441,764 882,0 441,-764 -441,-764 z"
   id="path953"
   style="fill:#e8ab6f;stroke:none" />
       </g>
      </g>
      <g
   id="g955">
       <g
   id="id130">
        <path
   d="m 13232,7760 -882,0 -441,764 441,764 882,0 441,-764 -441,-764 z"
   id="path958"
   style="fill:#d18b47;stroke:none" />
       </g>
      </g>
      <g
   id="g960">
       <g
   id="id131">
        <path
   d="m 14555,6996 -882,0 -441,764 441,764 882,0 441,-764 -441,-764 z"
   id="path963"
   style="fill:#ffce9e;stroke:none" />
       </g>
      </g>
      <g
   id="g965">
       <g
   id="id132">
        <path
   d="m 15878,6231 -882,0 -441,764 441,764 882,0 441,-764 -441,-764 z"
   id="path968"
   style="fill:#e8ab6f;stroke:none" />
       </g>
      </g>
      <g
   id="g970">
       <g
   id="id133" />
      </g>
      <g
   id="g973">
       <g
   id="id134">
        <g
   id="text976"><path
     d="m 16934.832,6025.662 -322.812,0 -46.746,340.452 71.442,0 c 36.162,-43.218 66.15,-58.212 114.66,-58.212 83.79,0 136.71,57.3301 136.71,149.94 0,89.9639 -52.038,144.648 -136.71,144.648 -67.914,0 -109.368,-34.3981 -127.89,-104.958 l -77.616,0 c 10.584,51.1559 19.404,75.852 37.926,98.784 35.28,47.628 98.784,74.97 169.344,74.97 126.126,0 214.326,-91.7281 214.326,-224.028 0,-123.4799 -82.026,-208.152 -201.978,-208.152 -44.1,0 -79.38,11.466 -115.542,37.926 l 24.696,-174.636 260.19,0 0,-76.734"
     id="path4815"
     style="fill:#000000;stroke:none" /></g>
       </g>
      </g>
      <g
   id="g984">
       <g
   id="id135" />
      </g>
      <g
   id="g987">
       <g
   id="id136">
        <g
   id="text990"><path
     d="m 1079.236,4658.832 c -14.994,-102.3119 -82.0261,-163.17 -177.282,-163.17 -68.79593,0 -130.53604,33.5161 -167.58,89.082 -38.80796,60.8579 -56.448,137.5921 -56.448,251.37 0,104.9579 15.87604,171.9901 52.92,227.556 33.51597,50.2739 88.20007,77.616 156.996,77.616 119.0699,0 204.624,-88.2001 204.624,-210.798 0,-116.4239 -79.3801,-198.45 -191.394,-198.45 -61.73994,0 -110.25003,23.814 -143.766,69.678 0.882,-152.5858 50.27409,-237.258 139.356,-237.258 54.68395,0 92.61001,34.3981 104.958,94.374 l 77.616,0 M 891.37,4800.834 c 74.96993,0 121.716,52.0381 121.716,135.828 0,78.4979 -52.92007,135.828 -124.362,135.828 -72.32393,0 -127.008,-59.9761 -127.008,-140.238 0,-77.6159 52.92008,-131.418 129.654,-131.418"
     id="path4818"
     style="fill:#000000;stroke:none" /></g>
       </g>
      </g>
      <g
   id="g998">
       <g
   id="id137">
        <path
   d="m 3090,5467 -441,-764 -882,0 -441,764 441,764 882,0 441,-764 z"
   id="path1001"
   style="fill:#ffce9e;stroke:none" />
       </g>
      </g>
      <g
   id="g1003">
       <g
   id="id138">
        <g
   id="text1006"><path
     d="m 2207.5,5315.9238 c 46.6335,6e-4 86.4332,16.6843 119.3994,50.0513 33.3668,32.9659 50.0505,72.7657 50.0513,119.3994 -8e-4,47.0365 -16.6845,87.0372 -50.0513,120.0025 -32.9662,32.9657 -72.7659,49.4484 -119.3994,49.4482 -47.0367,2e-4 -87.0375,-16.4825 -120.0024,-49.4482 -32.966,-32.9653 -49.4487,-72.966 -49.4483,-120.0025 -4e-4,-46.6337 16.4823,-86.4335 49.4483,-119.3994 32.9649,-33.367 72.9657,-50.0507 120.0024,-50.0513"
     id="path4821"
     style="fill:#ffffff;stroke:none" /></g>
       </g>
      </g>
      <g
   id="g1014">
       <g
   id="id139">
        <g
   id="text1017"><path
     d="m 2207.5,5315.9238 c 46.6335,6e-4 86.4332,16.6843 119.3994,50.0513 33.3668,32.9659 50.0505,72.7657 50.0513,119.3994 -8e-4,47.0365 -16.6845,87.0372 -50.0513,120.0025 -32.9662,32.9657 -72.7659,49.4484 -119.3994,49.4482 -47.0367,2e-4 -87.0375,-16.4825 -120.0024,-49.4482 -32.966,-32.9653 -49.4487,-72.966 -49.4483,-120.0025 -4e-4,-46.6337 16.4823,-86.4335 49.4483,-119.3994 32.9649,-33.367 72.9657,-50.0507 120.0024,-50.0513"
     id="path4824"
     style="fill:#000000;stroke:none" /></g>
       </g>
      </g>
      <g
   id="g1025">
       <g
   id="id140">
        <path
   d="m 4413,6231 -441,-764 -882,0 -441,764 441,764 882,0 441,-764 z"
   id="path1028"
   style="fill:#d18b47;stroke:none" />
       </g>
      </g>
      <g
   id="g1030">
       <g
   id="id141">
        <g
   id="text1033"><path
     d="m 3530.5,6079.9238 c 46.6335,6e-4 86.4332,16.6843 119.3994,50.0513 33.3668,32.9659 50.0505,72.7657 50.0513,119.3994 -8e-4,47.0365 -16.6845,87.0372 -50.0513,120.0025 -32.9662,32.9657 -72.7659,49.4484 -119.3994,49.4482 -47.0367,2e-4 -87.0375,-16.4825 -120.0024,-49.4482 -32.966,-32.9653 -49.4487,-72.966 -49.4483,-120.0025 -4e-4,-46.6337 16.4823,-86.4335 49.4483,-119.3994 32.9649,-33.367 72.9657,-50.0507 120.0024,-50.0513"
     id="path4827"
     style="fill:#ffffff;stroke:none" /></g>
       </g>
      </g>
      <g
   id="g1041">
       <g
   id="id142">
        <g
   id="text1044"><path
     d="m 3530.5,6079.9238 c 46.6335,6e-4 86.4332,16.6843 119.3994,50.0513 33.3668,32.9659 50.0505,72.7657 50.0513,119.3994 -8e-4,47.0365 -16.6845,87.0372 -50.0513,120.0025 -32.9662,32.9657 -72.7659,49.4484 -119.3994,49.4482 -47.0367,2e-4 -87.0375,-16.4825 -120.0024,-49.4482 -32.966,-32.9653 -49.4487,-72.966 -49.4483,-120.0025 -4e-4,-46.6337 16.4823,-86.4335 49.4483,-119.3994 32.9649,-33.367 72.9657,-50.0507 120.0024,-50.0513"
     id="path4830"
     style="fill:#000000;stroke:none" /></g>
       </g>
      </g>
      <g
   id="g1052">
       <g
   id="id143">
        <path
   d="m 5735,6995 -441,-764 -882,0 -441,764 441,764 882,0 441,-764 z"
   id="path1055"
   style="fill:#e8ab6f;stroke:none" />
       </g>
      </g>
      <g
   id="g1057">
       <g
   id="id144">
        <g
   id="text1060"><path
     d="m 4853.5,6842.9238 c 46.6335,6e-4 86.4332,16.6843 119.3994,50.0513 33.3668,32.9659 50.0505,72.7657 50.0513,119.3994 -8e-4,47.0365 -16.6845,87.0372 -50.0513,120.0025 -32.9662,32.9657 -72.7659,49.4484 -119.3994,49.4482 -47.0367,2e-4 -87.0375,-16.4825 -120.0024,-49.4482 -32.966,-32.9653 -49.4487,-72.966 -49.4483,-120.0025 -4e-4,-46.6337 16.4823,-86.4335 49.4483,-119.3994 32.9649,-33.367 72.9657,-50.0507 120.0024,-50.0513"
     id="path4833"
     style="fill:#ffffff;stroke:none" /></g>
       </g>
      </g>
      <g
   id="g1068">
       <g
   id="id145">
        <g
   id="text1071"><path
     d="m 4853.5,6842.9238 c 46.6335,6e-4 86.4332,16.6843 119.3994,50.0513 33.3668,32.9659 50.0505,72.7657 50.0513,119.3994 -8e-4,47.0365 -16.6845,87.0372 -50.0513,120.0025 -32.9662,32.9657 -72.7659,49.4484 -119.3994,49.4482 -47.0367,2e-4 -87.0375,-16.4825 -120.0024,-49.4482 -32.966,-32.9653 -49.4487,-72.966 -49.4483,-120.0025 -4e-4,-46.6337 16.4823,-86.4335 49.4483,-119.3994 32.9649,-33.367 72.9657,-50.0507 120.0024,-50.0513"
     id="path4836"
     style="fill:#000000;stroke:none" /></g>
       </g>
      </g>
      <g
   id="g1079">
       <g
   id="id146">
        <path
   d="m 7058,7758 -441,-764 -882,0 -441,764 441,764 882,0 441,-764 z"
   id="path1082"
   style="fill:#ffce9e;stroke:none" />
       </g>
      </g>
      <g
   id="g1084">
       <g
   id="id147">
        <g
   id="text1087"><path
     d="m 6176.5,7606.9238 c 46.6335,6e-4 86.4332,16.6843 119.3994,50.0513 33.3668,32.9659 50.0505,72.7657 50.0513,119.3994 -8e-4,47.0365 -16.6845,87.0372 -50.0513,120.0025 -32.9662,32.9657 -72.7659,49.4484 -119.3994,49.4482 -47.0367,2e-4 -87.0375,-16.4825 -120.0024,-49.4482 -32.966,-32.9653 -49.4487,-72.966 -49.4483,-120.0025 -4e-4,-46.6337 16.4823,-86.4335 49.4483,-119.3994 32.9649,-33.367 72.9657,-50.0507 120.0024,-50.0513"
     id="path4839"
     style="fill:#ffffff;stroke:none" /></g>
       </g>
      </g>
      <g
   id="g1095">
       <g
   id="id148">
        <g
   id="text1098"><path
     d="m 6176.5,7606.9238 c 46.6335,6e-4 86.4332,16.6843 119.3994,50.0513 33.3668,32.9659 50.0505,72.7657 50.0513,119.3994 -8e-4,47.0365 -16.6845,87.0372 -50.0513,120.0025 -32.9662,32.9657 -72.7659,49.4484 -119.3994,49.4482 -47.0367,2e-4 -87.0375,-16.4825 -120.0024,-49.4482 -32.966,-32.9653 -49.4487,-72.966 -49.4483,-120.0025 -4e-4,-46.6337 16.4823,-86.4335 49.4483,-119.3994 32.9649,-33.367 72.9657,-50.0507 120.0024,-50.0513"
     id="path4842"
     style="fill:#000000;stroke:none" /></g>
       </g>
      </g>
      <g
   id="g1106">
       <g
   id="id149">
        <path
   d="m 8381,8522 -441,-764 -882,0 -441,764 441,764 882,0 441,-764 z"
   id="path1109"
   style="fill:#d18b47;stroke:none" />
       </g>
      </g>
      <g
   id="g1111">
       <g
   id="id150">
        <g
   id="text1114"><path
     d="m 7497.5,8370.9238 c 46.6335,6e-4 86.4332,16.6843 119.3994,50.0513 33.3668,32.9659 50.0505,72.7657 50.0513,119.3994 -8e-4,47.0365 -16.6845,87.0372 -50.0513,120.0025 -32.9662,32.9657 -72.7659,49.4484 -119.3994,49.4482 -47.0367,2e-4 -87.0375,-16.4825 -120.0024,-49.4482 -32.966,-32.9653 -49.4487,-72.966 -49.4483,-120.0025 -4e-4,-46.6337 16.4823,-86.4335 49.4483,-119.3994 32.9649,-33.367 72.9657,-50.0507 120.0024,-50.0513"
     id="path4845"
     style="fill:#ffffff;stroke:none" /></g>
       </g>
      </g>
      <g
   id="g1122">
       <g
   id="id151">
        <g
   id="text1125"><path
     d="m 7497.5,8370.9238 c 46.6335,6e-4 86.4332,16.6843 119.3994,50.0513 33.3668,32.9659 50.0505,72.7657 50.0513,119.3994 -8e-4,47.0365 -16.6845,87.0372 -50.0513,120.0025 -32.9662,32.9657 -72.7659,49.4484 -119.3994,49.4482 -47.0367,2e-4 -87.0375,-16.4825 -120.0024,-49.4482 -32.966,-32.9653 -49.4487,-72.966 -49.4483,-120.0025 -4e-4,-46.6337 16.4823,-86.4335 49.4483,-119.3994 32.9649,-33.367 72.9657,-50.0507 120.0024,-50.0513"
     id="path4848"
     style="fill:#000000;stroke:none" /></g>
       </g>
      </g>
      <g
   id="g1133">
       <g
   id="id152">
        <path
   d="m 9263,8522 -882,0 -441,764 441,764 882,0 441,-764 -441,-764 z"
   id="path1136"
   style="fill:#e8ab6f;stroke:none" />
       </g>
      </g>
      <g
   id="g1138">
       <g
   id="id153">
        <g
   id="text1141"><path
     d="m 8903.1147,8893.1099 102.5147,0 0,-82.6148 165.2295,0 0,226.1353 -133.8721,103.1176 0,288.2471 102.5147,102.5147 0,123.6206 92.2631,0 0,144.1235 -823.1323,0 0,-144.1235 92.2632,0 0,-123.6206 103.1177,-102.5147 0,-288.2471 -133.8721,-103.1176 0,-226.1353 164.6265,0 0,82.6148 103.1177,0 0,-82.6148 165.2294,0 0,82.6148"
     id="path4851"
     style="fill:#ffffff;stroke:none" /></g>
       </g>
      </g>
      <g
   id="g1149">
       <g
   id="id154">
        <g
   id="text1152"><path
     d="m 8903.1147,8893.1099 102.5147,0 0,-82.6148 165.2295,0 0,226.1353 -133.8721,103.1176 0,288.2471 102.5147,102.5147 0,123.6206 92.2631,0 0,144.1235 -823.1323,0 0,-144.1235 92.2632,0 0,-123.6206 103.1177,-102.5147 0,-288.2471 -133.8721,-103.1176 0,-226.1353 164.6265,0 0,82.6148 103.1177,0 0,-82.6148 165.2294,0 0,82.6148 m 288.2471,802.0263 -741.7236,0 0,62.1118 741.7236,0 0,-62.1118 m -93.4692,-123.0175 -554.7852,0 0,82.0117 554.7852,0 0,-82.0117 m -102.5147,-432.3707 -349.7558,0 0,288.2471 349.7558,0 0,-288.2471 m 133.8721,-144.1235 0,-144.1235 -82.6147,0 0,82.6147 -185.7325,0 0,-82.6147 -81.4087,0 0,82.6147 -185.1294,0 0,-82.6147 -82.6147,0 0,144.1235 617.5,0 m -46.4331,534.8853 -62.1118,-61.5088 -399.8072,0 -63.3178,61.5088 525.2368,0 m -66.333,-431.7676 76.5845,-62.1118 -545.1368,0 77.1875,62.1118 391.3648,0"
     id="path4854"
     style="fill:#000000;stroke:none" /></g>
       </g>
      </g>
      <g
   id="g1160">
       <g
   id="id155">
        <path
   d="m 10586,7758 -882,0 -441,764 441,764 882,0 441,-764 -441,-764 z"
   id="path1163"
   style="fill:#d18b47;stroke:none" />
       </g>
      </g>
      <g
   id="g1165">
       <g
   id="id156">
        <g
   id="text1168"><path
     d="m 10143.5,8370.9238 c 46.633,6e-4 86.433,16.6843 119.399,50.0513 33.367,32.9659 50.051,72.7657 50.052,119.3994 -10e-4,47.0365 -16.685,87.0372 -50.052,120.0025 -32.966,32.9657 -72.766,49.4484 -119.399,49.4482 -47.037,2e-4 -87.037,-16.4825 -120.002,-49.4482 -32.9664,-32.9653 -49.4491,-72.966 -49.4487,-120.0025 -4e-4,-46.6337 16.4823,-86.4335 49.4487,-119.3994 32.965,-33.367 72.965,-50.0507 120.002,-50.0513"
     id="path4857"
     style="fill:#ffffff;stroke:none" /></g>
       </g>
      </g>
      <g
   id="g1176">
       <g
   id="id157">
        <g
   id="text1179"><path
     d="m 10143.5,8370.9238 c 46.633,6e-4 86.433,16.6843 119.399,50.0513 33.367,32.9659 50.051,72.7657 50.052,119.3994 -10e-4,47.0365 -16.685,87.0372 -50.052,120.0025 -32.966,32.9657 -72.766,49.4484 -119.399,49.4482 -47.037,2e-4 -87.037,-16.4825 -120.002,-49.4482 -32.9664,-32.9653 -49.4491,-72.966 -49.4487,-120.0025 -4e-4,-46.6337 16.4823,-86.4335 49.4487,-119.3994 32.965,-33.367 72.965,-50.0507 120.002,-50.0513"
     id="path4860"
     style="fill:#000000;stroke:none" /></g>
       </g>
      </g>
      <g
   id="g1187">
       <g
   id="id158">
        <path
   d="m 11909,6994 -882,0 -441,764 441,764 882,0 441,-764 -441,-764 z"
   id="path1190"
   style="fill:#ffce9e;stroke:none" />
       </g>
      </g>
      <g
   id="g1192">
       <g
   id="id159">
        <g
   id="text1195"><path
     d="m 11467.5,7606.9238 c 46.633,6e-4 86.433,16.6843 119.399,50.0513 33.367,32.9659 50.051,72.7657 50.052,119.3994 -10e-4,47.0365 -16.685,87.0372 -50.052,120.0025 -32.966,32.9657 -72.766,49.4484 -119.399,49.4482 -47.037,2e-4 -87.037,-16.4825 -120.002,-49.4482 -32.966,-32.9653 -49.449,-72.966 -49.449,-120.0025 0,-46.6337 16.483,-86.4335 49.449,-119.3994 32.965,-33.367 72.965,-50.0507 120.002,-50.0513"
     id="path4863"
     style="fill:#ffffff;stroke:none" /></g>
       </g>
      </g>
      <g
   id="g1203">
       <g
   id="id160">
        <g
   id="text1206"><path
     d="m 11467.5,7606.9238 c 46.633,6e-4 86.433,16.6843 119.399,50.0513 33.367,32.9659 50.051,72.7657 50.052,119.3994 -10e-4,47.0365 -16.685,87.0372 -50.052,120.0025 -32.966,32.9657 -72.766,49.4484 -119.399,49.4482 -47.037,2e-4 -87.037,-16.4825 -120.002,-49.4482 -32.966,-32.9653 -49.449,-72.966 -49.449,-120.0025 0,-46.6337 16.483,-86.4335 49.449,-119.3994 32.965,-33.367 72.965,-50.0507 120.002,-50.0513"
     id="path4866"
     style="fill:#000000;stroke:none" /></g>
       </g>
      </g>
      <g
   id="g1214">
       <g
   id="id161">
        <path
   d="m 13232,6231 -882,0 -441,764 441,764 882,0 441,-764 -441,-764 z"
   id="path1217"
   style="fill:#e8ab6f;stroke:none" />
       </g>
      </g>
      <g
   id="g1219">
       <g
   id="id162">
        <g
   id="text1222"><path
     d="m 12790.5,6842.9238 c 46.633,6e-4 86.433,16.6843 119.399,50.0513 33.367,32.9659 50.051,72.7657 50.052,119.3994 -10e-4,47.0365 -16.685,87.0372 -50.052,120.0025 -32.966,32.9657 -72.766,49.4484 -119.399,49.4482 -47.037,2e-4 -87.037,-16.4825 -120.002,-49.4482 -32.966,-32.9653 -49.449,-72.966 -49.449,-120.0025 0,-46.6337 16.483,-86.4335 49.449,-119.3994 32.965,-33.367 72.965,-50.0507 120.002,-50.0513"
     id="path4869"
     style="fill:#ffffff;stroke:none" /></g>
       </g>
      </g>
      <g
   id="g1230">
       <g
   id="id163">
        <g
   id="text1233"><path
     d="m 12790.5,6842.9238 c 46.633,6e-4 86.433,16.6843 119.399,50.0513 33.367,32.9659 50.051,72.7657 50.052,119.3994 -10e-4,47.0365 -16.685,87.0372 -50.052,120.0025 -32.966,32.9657 -72.766,49.4484 -119.399,49.4482 -47.037,2e-4 -87.037,-16.4825 -120.002,-49.4482 -32.966,-32.9653 -49.449,-72.966 -49.449,-120.0025 0,-46.6337 16.483,-86.4335 49.449,-119.3994 32.965,-33.367 72.965,-50.0507 120.002,-50.0513"
     id="path4872"
     style="fill:#000000;stroke:none" /></g>
       </g>
      </g>
      <g
   id="g1241">
       <g
   id="id164">
        <path
   d="m 14555,5467 -882,0 -441,764 441,764 882,0 441,-764 -441,-764 z"
   id="path1244"
   style="fill:#d18b47;stroke:none" />
       </g>
      </g>
      <g
   id="g1246">
       <g
   id="id165">
        <g
   id="text1249"><path
     d="m 14113.5,6079.9238 c 46.633,6e-4 86.433,16.6843 119.399,50.0513 33.367,32.9659 50.051,72.7657 50.052,119.3994 -10e-4,47.0365 -16.685,87.0372 -50.052,120.0025 -32.966,32.9657 -72.766,49.4484 -119.399,49.4482 -47.037,2e-4 -87.037,-16.4825 -120.002,-49.4482 -32.966,-32.9653 -49.449,-72.966 -49.449,-120.0025 0,-46.6337 16.483,-86.4335 49.449,-119.3994 32.965,-33.367 72.965,-50.0507 120.002,-50.0513"
     id="path4875"
     style="fill:#ffffff;stroke:none" /></g>
       </g>
      </g>
      <g
   id="g1257">
       <g
   id="id166">
        <g
   id="text1260"><path
     d="m 14113.5,6079.9238 c 46.633,6e-4 86.433,16.6843 119.399,50.0513 33.367,32.9659 50.051,72.7657 50.052,119.3994 -10e-4,47.0365 -16.685,87.0372 -50.052,120.0025 -32.966,32.9657 -72.766,49.4484 -119.399,49.4482 -47.037,2e-4 -87.037,-16.4825 -120.002,-49.4482 -32.966,-32.9653 -49.449,-72.966 -49.449,-120.0025 0,-46.6337 16.483,-86.4335 49.449,-119.3994 32.965,-33.367 72.965,-50.0507 120.002,-50.0513"
     id="path4878"
     style="fill:#000000;stroke:none" /></g>
       </g>
      </g>
      <g
   id="g1268">
       <g
   id="id167">
        <path
   d="m 15878,4703 -882,0 -441,764 441,764 882,0 441,-764 -441,-764 z"
   id="path1271"
   style="fill:#ffce9e;stroke:none" />
       </g>
      </g>
      <g
   id="g1273">
       <g
   id="id168">
        <g
   id="text1276"><path
     d="m 15436.5,5315.9238 c 46.633,6e-4 86.433,16.6843 119.399,50.0513 33.367,32.9659 50.051,72.7657 50.052,119.3994 -10e-4,47.0365 -16.685,87.0372 -50.052,120.0025 -32.966,32.9657 -72.766,49.4484 -119.399,49.4482 -47.037,2e-4 -87.037,-16.4825 -120.002,-49.4482 -32.966,-32.9653 -49.449,-72.966 -49.449,-120.0025 0,-46.6337 16.483,-86.4335 49.449,-119.3994 32.965,-33.367 72.965,-50.0507 120.002,-50.0513"
     id="path4881"
     style="fill:#ffffff;stroke:none" /></g>
       </g>
      </g>
      <g
   id="g1284">
       <g
   id="id169">
        <g
   id="text1287"><path
     d="m 15436.5,5315.9238 c 46.633,6e-4 86.433,16.6843 119.399,50.0513 33.367,32.9659 50.051,72.7657 50.052,119.3994 -10e-4,47.0365 -16.685,87.0372 -50.052,120.0025 -32.966,32.9657 -72.766,49.4484 -119.399,49.4482 -47.037,2e-4 -87.037,-16.4825 -120.002,-49.4482 -32.966,-32.9653 -49.449,-72.966 -49.449,-120.0025 0,-46.6337 16.483,-86.4335 49.449,-119.3994 32.965,-33.367 72.965,-50.0507 120.002,-50.0513"
     id="path4884"
     style="fill:#000000;stroke:none" /></g>
       </g>
      </g>
      <g
   id="g1295">
       <g
   id="id170" />
      </g>
      <g
   id="g1298">
       <g
   id="id171">
        <g
   id="text1301"><path
     d="m 16954.236,4658.832 c -14.994,-102.3119 -82.026,-163.17 -177.282,-163.17 -68.796,0 -130.536,33.5161 -167.58,89.082 -38.808,60.8579 -56.448,137.5921 -56.448,251.37 0,104.9579 15.876,171.9901 52.92,227.556 33.516,50.2739 88.2,77.616 156.996,77.616 119.07,0 204.624,-88.2001 204.624,-210.798 0,-116.4239 -79.38,-198.45 -191.394,-198.45 -61.74,0 -110.25,23.814 -143.766,69.678 0.882,-152.5858 50.274,-237.258 139.356,-237.258 54.684,0 92.61,34.3981 104.958,94.374 l 77.616,0 m -187.866,142.002 c 74.97,0 121.716,52.0381 121.716,135.828 0,78.4979 -52.92,135.828 -124.362,135.828 -72.324,0 -127.008,-59.9761 -127.008,-140.238 0,-77.6159 52.92,-131.418 129.654,-131.418"
     id="path4887"
     style="fill:#000000;stroke:none" /></g>
       </g>
      </g>
      <g
   id="g1309">
       <g
   id="id172" />
      </g>
      <g
   id="g1312">
       <g
   id="id173">
        <g
   id="text1315"><path
     d="m 2421.64,3732.662 -418.068,0 0,76.734 337.806,0 C 2192.3201,4021.9578 2131.462,4152.4942 2084.716,4358 l 82.908,0 c 34.398,-200.2138 112.8961,-372.2042 254.016,-560.07 l 0,-65.268"
     id="path4890"
     style="fill:#000000;stroke:none" /></g>
       </g>
      </g>
      <g
   id="g1323">
       <g
   id="id174">
        <path
   d="m 4413,4703 -441,-764 -882,0 -441,764 441,764 882,0 441,-764 z"
   id="path1326"
   style="fill:#e8ab6f;stroke:none" />
       </g>
      </g>
      <g
   id="g1328">
       <g
   id="id175">
        <path
   d="m 5735,5467 -441,-764 -882,0 -441,764 441,764 882,0 441,-764 z"
   id="path1331"
   style="fill:#ffce9e;stroke:none" />
       </g>
      </g>
      <g
   id="g1333">
       <g
   id="id176">
        <path
   d="m 7058,6231 -441,-764 -882,0 -441,764 441,764 882,0 441,-764 z"
   id="path1336"
   style="fill:#d18b47;stroke:none" />
       </g>
      </g>
      <g
   id="g1338">
       <g
   id="id177">
        <path
   d="m 8381,6995 -441,-764 -882,0 -441,764 441,764 882,0 441,-764 z"
   id="path1341"
   style="fill:#e8ab6f;stroke:none" />
       </g>
      </g>
      <g
   id="g1343">
       <g
   id="id178">
        <path
   d="m 9263,6994 -882,0 -441,764 441,764 882,0 441,-764 -441,-764 z"
   id="path1346"
   style="fill:#ffce9e;stroke:none" />
       </g>
      </g>
      <g
   id="g1348">
       <g
   id="id179">
        <g
   id="text1351"><path
     d="m 8820.5,7606.9238 c 46.6335,6e-4 86.4332,16.6843 119.3994,50.0513 33.3668,32.9659 50.0505,72.7657 50.0513,119.3994 -8e-4,47.0365 -16.6845,87.0372 -50.0513,120.0025 -32.9662,32.9657 -72.7659,49.4484 -119.3994,49.4482 -47.0367,2e-4 -87.0375,-16.4825 -120.0024,-49.4482 -32.966,-32.9653 -49.4487,-72.966 -49.4483,-120.0025 -4e-4,-46.6337 16.4823,-86.4335 49.4483,-119.3994 32.9649,-33.367 72.9657,-50.0507 120.0024,-50.0513"
     id="path4893"
     style="fill:#ffffff;stroke:none" /></g>
       </g>
      </g>
      <g
   id="g1359">
       <g
   id="id180">
        <g
   id="text1362"><path
     d="m 8820.5,7606.9238 c 46.6335,6e-4 86.4332,16.6843 119.3994,50.0513 33.3668,32.9659 50.0505,72.7657 50.0513,119.3994 -8e-4,47.0365 -16.6845,87.0372 -50.0513,120.0025 -32.9662,32.9657 -72.7659,49.4484 -119.3994,49.4482 -47.0367,2e-4 -87.0375,-16.4825 -120.0024,-49.4482 -32.966,-32.9653 -49.4487,-72.966 -49.4483,-120.0025 -4e-4,-46.6337 16.4823,-86.4335 49.4483,-119.3994 32.9649,-33.367 72.9657,-50.0507 120.0024,-50.0513"
     id="path4896"
     style="fill:#000000;stroke:none" /></g>
       </g>
      </g>
      <g
   id="g1370">
       <g
   id="id181">
        <path
   d="m 10586,6231 -882,0 -441,764 441,764 882,0 441,-764 -441,-764 z"
   id="path1373"
   style="fill:#e8ab6f;stroke:none" />
       </g>
      </g>
      <g
   id="g1375">
       <g
   id="id182">
        <path
   d="m 11909,5467 -882,0 -441,764 441,764 882,0 441,-764 -441,-764 z"
   id="path1378"
   style="fill:#d18b47;stroke:none" />
       </g>
      </g>
      <g
   id="g1380">
       <g
   id="id183">
        <path
   d="m 13232,4703 -882,0 -441,764 441,764 882,0 441,-764 -441,-764 z"
   id="path1383"
   style="fill:#ffce9e;stroke:none" />
       </g>
      </g>
      <g
   id="g1385">
       <g
   id="id184">
        <path
   d="m 14555,3939 -882,0 -441,764 441,764 882,0 441,-764 -441,-764 z"
   id="path1388"
   style="fill:#e8ab6f;stroke:none" />
       </g>
      </g>
      <g
   id="g1390">
       <g
   id="id185" />
      </g>
      <g
   id="g1393">
       <g
   id="id186">
        <g
   id="text1396"><path
     d="m 15650.64,3732.662 -418.068,0 0,76.734 337.806,0 c -149.058,212.5618 -209.916,343.0982 -256.662,548.604 l 82.908,0 c 34.398,-200.2138 112.896,-372.2042 254.016,-560.07 l 0,-65.268"
     id="path4899"
     style="fill:#000000;stroke:none" /></g>
       </g>
      </g>
      <g
   id="g1404">
       <g
   id="id187" />
      </g>
      <g
   id="g1407">
       <g
   id="id188">
        <g
   id="text1410"><path
     d="m 3630.862,3267.014 c 64.3859,-38.808 85.554,-70.5601 85.554,-129.654 0,-97.9019 -76.7341,-166.698 -187.866,-166.698 -110.2499,0 -187.866,68.7961 -187.866,166.698 0,58.2119 21.1681,89.964 84.672,129.654 -71.4419,34.398 -106.722,86.4361 -106.722,155.232 0,114.6599 86.4361,194.04 209.916,194.04 123.4799,0 209.916,-79.3801 209.916,-193.158 0,-69.6779 -35.2801,-121.716 -107.604,-156.114 M 3528.55,3039.458 c 66.1499,0 108.486,38.8081 108.486,99.666 0,58.2119 -43.2181,97.02 -108.486,97.02 -65.2679,0 -108.486,-38.8081 -108.486,-97.902 0,-59.9759 43.2181,-98.784 108.486,-98.784 m 0,261.954 c 77.6159,0 130.536,49.3921 130.536,122.598 0,74.0879 -52.9201,123.48 -132.3,123.48 -75.8519,0 -128.772,-50.2741 -128.772,-123.48 0,-73.2059 52.9201,-122.598 130.536,-122.598"
     id="path4902"
     style="fill:#000000;stroke:none" /></g>
       </g>
      </g>
      <g
   id="g1418">
       <g
   id="id189">
        <path
   d="m 5735,3939 -441,-764 -882,0 -441,764 441,764 882,0 441,-764 z"
   id="path1421"
   style="fill:#d18b47;stroke:none" />
       </g>
      </g>
      <g
   id="g1423">
       <g
   id="id190">
        <path
   d="m 7058,4703 -441,-764 -882,0 -441,764 441,764 882,0 441,-764 z"
   id="path1426"
   style="fill:#e8ab6f;stroke:none" />
       </g>
      </g>
      <g
   id="g1428">
       <g
   id="id191">
        <path
   d="m 8381,5467 -441,-764 -882,0 -441,764 441,764 882,0 441,-764 z"
   id="path1431"
   style="fill:#ffce9e;stroke:none" />
       </g>
      </g>
      <g
   id="g1433">
       <g
   id="id192">
        <path
   d="m 9263,5467 -882,0 -441,764 441,764 882,0 441,-764 -441,-764 z"
   id="path1436"
   style="fill:#d18b47;stroke:none" />
       </g>
      </g>
      <g
   id="g1438">
       <g
   id="id193">
        <g
   id="text1441"><path
     d="m 8820.5,6079.9238 c 46.6335,6e-4 86.4332,16.6843 119.3994,50.0513 33.3668,32.9659 50.0505,72.7657 50.0513,119.3994 -8e-4,47.0365 -16.6845,87.0372 -50.0513,120.0025 -32.9662,32.9657 -72.7659,49.4484 -119.3994,49.4482 -47.0367,2e-4 -87.0375,-16.4825 -120.0024,-49.4482 -32.966,-32.9653 -49.4487,-72.966 -49.4483,-120.0025 -4e-4,-46.6337 16.4823,-86.4335 49.4483,-119.3994 32.9649,-33.367 72.9657,-50.0507 120.0024,-50.0513"
     id="path4905"
     style="fill:#ffffff;stroke:none" /></g>
       </g>
      </g>
      <g
   id="g1449">
       <g
   id="id194">
        <g
   id="text1452"><path
     d="m 8820.5,6079.9238 c 46.6335,6e-4 86.4332,16.6843 119.3994,50.0513 33.3668,32.9659 50.0505,72.7657 50.0513,119.3994 -8e-4,47.0365 -16.6845,87.0372 -50.0513,120.0025 -32.9662,32.9657 -72.7659,49.4484 -119.3994,49.4482 -47.0367,2e-4 -87.0375,-16.4825 -120.0024,-49.4482 -32.966,-32.9653 -49.4487,-72.966 -49.4483,-120.0025 -4e-4,-46.6337 16.4823,-86.4335 49.4483,-119.3994 32.9649,-33.367 72.9657,-50.0507 120.0024,-50.0513"
     id="path4908"
     style="fill:#000000;stroke:none" /></g>
       </g>
      </g>
      <g
   id="g1460">
       <g
   id="id195">
        <path
   d="m 10586,4703 -882,0 -441,764 441,764 882,0 441,-764 -441,-764 z"
   id="path1463"
   style="fill:#ffce9e;stroke:none" />
       </g>
      </g>
      <g
   id="g1465">
       <g
   id="id196">
        <path
   d="m 11909,3939 -882,0 -441,764 441,764 882,0 441,-764 -441,-764 z"
   id="path1468"
   style="fill:#e8ab6f;stroke:none" />
       </g>
      </g>
      <g
   id="g1470">
       <g
   id="id197">
        <path
   d="m 13232,3175 -882,0 -441,764 441,764 882,0 441,-764 -441,-764 z"
   id="path1473"
   style="fill:#d18b47;stroke:none" />
       </g>
      </g>
      <g
   id="g1475">
       <g
   id="id198" />
      </g>
      <g
   id="g1478">
       <g
   id="id199">
        <g
   id="text1481"><path
     d="m 14213.862,3267.014 c 64.386,-38.808 85.554,-70.5601 85.554,-129.654 0,-97.9019 -76.734,-166.698 -187.866,-166.698 -110.25,0 -187.866,68.7961 -187.866,166.698 0,58.2119 21.168,89.964 84.672,129.654 -71.442,34.398 -106.722,86.4361 -106.722,155.232 0,114.6599 86.436,194.04 209.916,194.04 123.48,0 209.916,-79.3801 209.916,-193.158 0,-69.6779 -35.28,-121.716 -107.604,-156.114 m -102.312,-227.556 c 66.15,0 108.486,38.8081 108.486,99.666 0,58.2119 -43.218,97.02 -108.486,97.02 -65.268,0 -108.486,-38.8081 -108.486,-97.902 0,-59.9759 43.218,-98.784 108.486,-98.784 m 0,261.954 c 77.616,0 130.536,49.3921 130.536,122.598 0,74.0879 -52.92,123.48 -132.3,123.48 -75.852,0 -128.772,-50.2741 -128.772,-123.48 0,-73.2059 52.92,-122.598 130.536,-122.598"
     id="path4911"
     style="fill:#000000;stroke:none" /></g>
       </g>
      </g>
      <g
   id="g1489">
       <g
   id="id200" />
      </g>
      <g
   id="g1492">
       <g
   id="id201">
        <g
   id="text1495"><path
     d="m 4655.746,2687.116 c 14.994,102.3119 82.0261,163.17 177.282,163.17 68.7959,0 131.418,-33.5161 167.58,-89.082 39.69,-60.8579 57.33,-137.5921 57.33,-251.37 0,-104.9579 -15.876,-171.9901 -52.92,-227.556 -34.398,-50.2739 -89.0821,-77.616 -157.878,-77.616 -119.0699,0 -204.624,88.2001 -204.624,210.798 0,116.4239 79.3801,198.45 192.276,198.45 59.0939,0 102.312,-21.168 142.884,-69.678 -0.882,152.5858 -50.2741,237.258 -139.356,237.258 -54.6839,0 -92.61,-34.3981 -104.958,-94.374 l -77.616,0 m 190.512,-414.54 c 72.3239,0 127.008,59.9761 127.008,141.12 0,76.7339 -53.8021,131.418 -129.654,131.418 -74.9699,0 -121.716,-52.0381 -121.716,-135.828 0,-79.3799 52.9201,-136.71 124.362,-136.71"
     id="path4914"
     style="fill:#000000;stroke:none" /></g>
       </g>
      </g>
      <g
   id="g1503">
       <g
   id="id202">
        <path
   d="m 7058,3176 -441,-764 -882,0 -441,764 441,764 882,0 441,-764 z"
   id="path1506"
   style="fill:#ffce9e;stroke:none" />
       </g>
      </g>
      <g
   id="g1508">
       <g
   id="id203">
        <path
   d="m 8381,3939 -441,-764 -882,0 -441,764 441,764 882,0 441,-764 z"
   id="path1511"
   style="fill:#d18b47;stroke:none" />
       </g>
      </g>
      <g
   id="g1513">
       <g
   id="id204">
        <path
   d="m 9263,3939 -882,0 -441,764 441,764 882,0 441,-764 -441,-764 z"
   id="path1516"
   style="fill:#e8ab6f;stroke:none" />
       </g>
      </g>
      <g
   id="g1518">
       <g
   id="id205">
        <g
   id="text1521"><path
     d="m 8820.5,4551.9238 c 46.6335,6e-4 86.4332,16.6843 119.3994,50.0513 33.3668,32.9659 50.0505,72.7657 50.0513,119.3994 -8e-4,47.0365 -16.6845,87.0372 -50.0513,120.0025 -32.9662,32.9657 -72.7659,49.4484 -119.3994,49.4482 -47.0367,2e-4 -87.0375,-16.4825 -120.0024,-49.4482 -32.966,-32.9653 -49.4487,-72.966 -49.4483,-120.0025 -4e-4,-46.6337 16.4823,-86.4335 49.4483,-119.3994 32.9649,-33.367 72.9657,-50.0507 120.0024,-50.0513"
     id="path4917"
     style="fill:#ffffff;stroke:none" /></g>
       </g>
      </g>
      <g
   id="g1529">
       <g
   id="id206">
        <g
   id="text1532"><path
     d="m 8820.5,4551.9238 c 46.6335,6e-4 86.4332,16.6843 119.3994,50.0513 33.3668,32.9659 50.0505,72.7657 50.0513,119.3994 -8e-4,47.0365 -16.6845,87.0372 -50.0513,120.0025 -32.9662,32.9657 -72.7659,49.4484 -119.3994,49.4482 -47.0367,2e-4 -87.0375,-16.4825 -120.0024,-49.4482 -32.966,-32.9653 -49.4487,-72.966 -49.4483,-120.0025 -4e-4,-46.6337 16.4823,-86.4335 49.4483,-119.3994 32.9649,-33.367 72.9657,-50.0507 120.0024,-50.0513"
     id="path4920"
     style="fill:#000000;stroke:none" /></g>
       </g>
      </g>
      <g
   id="g1540">
       <g
   id="id207">
        <path
   d="m 10586,3175 -882,0 -441,764 441,764 882,0 441,-764 -441,-764 z"
   id="path1543"
   style="fill:#d18b47;stroke:none" />
       </g>
      </g>
      <g
   id="g1545">
       <g
   id="id208">
        <path
   d="m 11909,2412 -882,0 -441,764 441,764 882,0 441,-764 -441,-764 z"
   id="path1548"
   style="fill:#ffce9e;stroke:none" />
       </g>
      </g>
      <g
   id="g1550">
       <g
   id="id209" />
      </g>
      <g
   id="g1553">
       <g
   id="id210">
        <g
   id="text1556"><path
     d="m 12590.746,2687.116 c 14.994,102.3119 82.026,163.17 177.282,163.17 68.796,0 131.418,-33.5161 167.58,-89.082 39.69,-60.8579 57.33,-137.5921 57.33,-251.37 0,-104.9579 -15.876,-171.9901 -52.92,-227.556 -34.398,-50.2739 -89.082,-77.616 -157.878,-77.616 -119.07,0 -204.624,88.2001 -204.624,210.798 0,116.4239 79.38,198.45 192.276,198.45 59.094,0 102.312,-21.168 142.884,-69.678 -0.882,152.5858 -50.274,237.258 -139.356,237.258 -54.684,0 -92.61,-34.3981 -104.958,-94.374 l -77.616,0 m 190.512,-414.54 c 72.324,0 127.008,59.9761 127.008,141.12 0,76.7339 -53.802,131.418 -129.654,131.418 -74.97,0 -121.716,-52.0381 -121.716,-135.828 0,-79.3799 52.92,-136.71 124.362,-136.71"
     id="path4923"
     style="fill:#000000;stroke:none" /></g>
       </g>
      </g>
      <g
   id="g1564">
       <g
   id="id211" />
      </g>
      <g
   id="g1567">
       <g
   id="id212">
        <g
   id="text1570"><path
     d="m 5912.438,1620.59 0,445.41 77.616,0 0,-625.338 -51.156,0 c -27.342,96.1379 -44.9821,109.368 -164.934,124.362 l 0,55.566 138.474,0"
     id="path4926"
     style="fill:#000000;stroke:none" /><path
     d="m 6417.507,1440.662 c -58.2119,0 -111.132,25.578 -143.766,68.796 -40.5719,54.6839 -60.858,138.4741 -60.858,254.016 0,210.7978 70.5602,322.812 204.624,322.812 132.2999,0 204.624,-112.0142 204.624,-317.52 0,-121.7159 -19.404,-202.8601 -60.858,-259.308 -32.6339,-44.1 -84.672,-68.796 -143.766,-68.796 m 0,68.796 c 83.7899,0 125.244,84.6722 125.244,252.252 0,177.2818 -40.5721,260.19 -127.008,260.19 -82.0259,0 -123.48,-86.4362 -123.48,-257.544 0,-171.1078 41.4541,-254.898 125.244,-254.898"
     id="path4928"
     style="fill:#000000;stroke:none" /></g>
       </g>
      </g>
      <g
   id="g1578">
       <g
   id="id213">
        <path
   d="m 8381,2412 -441,-764 -882,0 -441,764 441,764 882,0 441,-764 z"
   id="path1581"
   style="fill:#e8ab6f;stroke:none" />
       </g>
      </g>
      <g
   id="g1583">
       <g
   id="id214">
        <path
   d="m 9263,2412 -882,0 -441,764 441,764 882,0 441,-764 -441,-764 z"
   id="path1586"
   style="fill:#ffce9e;stroke:none" />
       </g>
      </g>
      <g
   id="g1588">
       <g
   id="id215">
        <g
   id="text1591"><path
     d="m 8820.5,3024.9238 c 46.6335,6e-4 86.4332,16.6843 119.3994,50.0513 33.3668,32.9659 50.0505,72.7657 50.0513,119.3994 -8e-4,47.0365 -16.6845,87.0372 -50.0513,120.0025 -32.9662,32.9657 -72.7659,49.4484 -119.3994,49.4482 -47.0367,2e-4 -87.0375,-16.4825 -120.0024,-49.4482 -32.966,-32.9653 -49.4487,-72.966 -49.4483,-120.0025 -4e-4,-46.6337 16.4823,-86.4335 49.4483,-119.3994 32.9649,-33.367 72.9657,-50.0507 120.0024,-50.0513"
     id="path4931"
     style="fill:#ffffff;stroke:none" /></g>
       </g>
      </g>
      <g
   id="g1599">
       <g
   id="id216">
        <g
   id="text1602"><path
     d="m 8820.5,3024.9238 c 46.6335,6e-4 86.4332,16.6843 119.3994,50.0513 33.3668,32.9659 50.0505,72.7657 50.0513,119.3994 -8e-4,47.0365 -16.6845,87.0372 -50.0513,120.0025 -32.9662,32.9657 -72.7659,49.4484 -119.3994,49.4482 -47.0367,2e-4 -87.0375,-16.4825 -120.0024,-49.4482 -32.966,-32.9653 -49.4487,-72.966 -49.4483,-120.0025 -4e-4,-46.6337 16.4823,-86.4335 49.4483,-119.3994 32.9649,-33.367 72.9657,-50.0507 120.0024,-50.0513"
     id="path4934"
     style="fill:#000000;stroke:none" /></g>
       </g>
      </g>
      <g
   id="g1610">
       <g
   id="id217">
        <path
   d="m 10586,1648 -882,0 -441,764 441,764 882,0 441,-764 -441,-764 z"
   id="path1613"
   style="fill:#e8ab6f;stroke:none" />
       </g>
      </g>
      <g
   id="g1615">
       <g
   id="id218" />
      </g>
      <g
   id="g1618">
       <g
   id="id219">
        <g
   id="text1621"><path
     d="m 11204.438,1620.59 0,445.41 77.616,0 0,-625.338 -51.156,0 c -27.342,96.1379 -44.982,109.368 -164.934,124.362 l 0,55.566 138.474,0"
     id="path4937"
     style="fill:#000000;stroke:none" /><path
     d="m 11709.507,1440.662 c -58.212,0 -111.132,25.578 -143.766,68.796 -40.572,54.6839 -60.858,138.4741 -60.858,254.016 0,210.7978 70.56,322.812 204.624,322.812 132.3,0 204.624,-112.0142 204.624,-317.52 0,-121.7159 -19.404,-202.8601 -60.858,-259.308 -32.634,-44.1 -84.672,-68.796 -143.766,-68.796 m 0,68.796 c 83.79,0 125.244,84.6722 125.244,252.252 0,177.2818 -40.572,260.19 -127.008,260.19 -82.026,0 -123.48,-86.4362 -123.48,-257.544 0,-171.1078 41.454,-254.898 125.244,-254.898"
     id="path4939"
     style="fill:#000000;stroke:none" /></g>
       </g>
      </g>
      <g
   id="g1629">
       <g
   id="id220" />
      </g>
      <g
   id="g1632">
       <g
   id="id221">
        <g
   id="text1635"><path
     d="m 7233.438,857.59 0,445.41 77.616,0 0,-625.338 -51.156,0 c -27.342,96.1379 -44.9821,109.36801 -164.934,124.362 l 0,55.566 138.474,0"
     id="path4942"
     style="fill:#000000;stroke:none" /><path
     d="m 7724.395,857.59 0,445.41 77.616,0 0,-625.338 -51.156,0 c -27.3419,96.1379 -44.9821,109.36801 -164.934,124.362 l 0,55.566 138.474,0"
     id="path4944"
     style="fill:#000000;stroke:none" /></g>
       </g>
      </g>
      <g
   id="g1643">
       <g
   id="id222">
        <path
   d="m 9263,884 -882,0 -441,764 441,764 882,0 441,-764 -441,-764 z"
   id="path1646"
   style="fill:#d18b47;stroke:none" />
       </g>
      </g>
      <g
   id="g1648">
       <g
   id="id223">
        <g
   id="text1651"><path
     d="m 8820.5,1496.9238 c 46.6335,6e-4 86.4332,16.6843 119.3994,50.0513 33.3668,32.9659 50.0505,72.7657 50.0513,119.3994 -8e-4,47.0365 -16.6845,87.0372 -50.0513,120.0025 -32.9662,32.9657 -72.7659,49.4484 -119.3994,49.4482 -47.0367,2e-4 -87.0375,-16.4825 -120.0024,-49.4482 -32.966,-32.9653 -49.4487,-72.966 -49.4483,-120.0025 -4e-4,-46.6337 16.4823,-86.4335 49.4483,-119.3994 32.9649,-33.367 72.9657,-50.0507 120.0024,-50.0513"
     id="path4947"
     style="fill:#ffffff;stroke:none" /></g>
       </g>
      </g>
      <g
   id="g1659">
       <g
   id="id224">
        <g
   id="text1662"><path
     d="m 8820.5,1496.9238 c 46.6335,6e-4 86.4332,16.6843 119.3994,50.0513 33.3668,32.9659 50.0505,72.7657 50.0513,119.3994 -8e-4,47.0365 -16.6845,87.0372 -50.0513,120.0025 -32.9662,32.9657 -72.7659,49.4484 -119.3994,49.4482 -47.0367,2e-4 -87.0375,-16.4825 -120.0024,-49.4482 -32.966,-32.9653 -49.4487,-72.966 -49.4483,-120.0025 -4e-4,-46.6337 16.4823,-86.4335 49.4483,-119.3994 32.9649,-33.367 72.9657,-50.0507 120.0024,-50.0513"
     id="path4950"
     style="fill:#000000;stroke:none" /></g>
       </g>
      </g>
      <g
   id="g1670">
       <g
   id="id225" />
      </g>
      <g
   id="g1673">
       <g
   id="id226">
        <g
   id="text1676"><path
     d="m 9879.438,857.59 0,445.41 77.616,0 0,-625.338 -51.156,0 c -27.342,96.1379 -44.9821,109.36801 -164.934,124.362 l 0,55.566 138.474,0"
     id="path4953"
     style="fill:#000000;stroke:none" /><path
     d="m 10370.395,857.59 0,445.41 77.616,0 0,-625.338 -51.156,0 c -27.342,96.1379 -44.982,109.36801 -164.934,124.362 l 0,55.566 138.474,0"
     id="path4955"
     style="fill:#000000;stroke:none" /></g>
       </g>
      </g>
     </g>
    </g>
   </g>
  </g>
 </g>
</svg>